<svg width="196" height="188" viewBox="0 0 196 188" fill="none" xmlns="http://www.w3.org/2000/svg">
<path fill-rule="evenodd" clip-rule="evenodd" d="M256.424 5.80296C204.95 -22.2846 164.815 60.1623 135.663 70.5414C76.9135 91.459 -32.2097 109.652 -11.3988 150.319C17.176 206.157 116.6 211.728 187.7 206.157C280.18 198.91 357.628 61.0256 256.424 5.80296Z" fill="#707EFF"/>
<path fill-rule="evenodd" clip-rule="evenodd" d="M65.0198 61.8593C63.2842 54.5062 68.0127 42.3006 76.4612 37.3929C84.9097 32.4853 95.7162 32.1491 105.125 35.0635C104.825 26.3984 114.043 18.9627 123.107 19.6786C132.17 20.3945 139.69 28.1518 140.908 36.7436C141.857 43.4381 138.252 51.4123 131.281 52.6249C133.745 61.0181 135.115 69.8491 133.763 78.469C132.41 87.0889 128.107 95.5092 120.845 100.804C118.84 103.375 120.355 107.254 122.994 109.236C125.633 111.219 129.049 111.916 132.208 113.01C145.441 117.596 154.759 130.042 156.931 143.305C159.102 156.567 154.764 170.322 146.925 181.472C141.555 189.11 134.25 195.892 125.111 198.829C112.284 202.952 98.2191 198.938 85.7629 193.885C81.0147 191.958 76.1792 189.769 72.8275 186.029C69.2343 182.019 62.4432 184.185 57.5458 186.637C60.8022 187.925 64.0586 189.213 67.3149 190.501C68.0147 190.778 68.7738 191.107 69.0983 191.759C69.7813 193.133 68.0987 194.455 66.6744 195.139C65.1439 195.873 63.6134 196.608 62.0829 197.343C52.6885 201.853 42.9044 206.46 32.3902 206.739C20.8949 207.044 10.0364 202.145 -0.30915 197.359C-1.45908 196.826 -2.67801 196.234 -3.30327 195.171C-3.92852 194.109 -3.57902 192.451 -2.34328 192.14C9.26265 189.214 20.2507 184.078 29.7851 177.124C29.0557 172.795 29.2276 168.33 30.2879 164.063C30.4412 163.446 30.6618 162.77 31.2386 162.454C32.6568 161.677 33.8887 163.723 34.1393 165.264C34.7718 169.153 35.4043 173.042 36.0368 176.931C43.6317 176.131 51.0029 173.471 57.2508 169.277C52.3777 165.536 47.5047 161.795 42.6316 158.053C39.8199 155.895 37.1059 154.604 35.5874 150.377C34.575 147.559 35.3921 144.664 38.0386 141.693C35.0843 127.657 33.7916 117.077 34.1606 109.952C34.2591 108.05 34.4823 105.997 35.8251 104.587C38.1954 102.099 42.8496 103.172 45.0131 105.826C47.1766 108.48 47.5387 112.041 47.8185 115.392C56.0563 114.432 64.2941 113.473 72.5319 112.513C75.5458 112.162 78.6669 111.819 81.5677 112.674C85.2071 113.747 88.13 116.786 88.9367 120.335C92.4128 119.439 96.1991 118.336 98.1621 115.459C100.125 112.581 98.4625 107.576 94.865 107.724C83.6118 108.188 72.6063 100.228 70.0451 89.7711C69.3937 87.1117 69.1405 84.1564 67.1821 82.1632C64.0788 79.0048 61.7142 74.933 61.7294 70.6055C61.7446 66.278 63.6465 65.7616 65.0198 61.8593ZM-2.15308 195.039C-1.89971 195.4 -1.45749 195.589 -1.03866 195.759C3.2586 197.513 7.55586 199.266 11.8531 201.019C13.8084 201.817 15.7701 202.617 17.8149 203.175C23.5176 204.73 29.6626 204.351 35.3326 206.011C36.0203 206.213 36.7585 206.005 37.4433 205.794C42.3886 204.276 47.2756 202.585 52.0916 200.727C57.1299 198.783 62.1229 196.638 66.5963 193.695C67.0032 193.427 67.4256 193.129 67.6113 192.693C67.797 192.256 67.6259 191.648 67.1502 191.519C64.1313 190.702 61.156 189.738 58.2399 188.632C57.3024 188.276 56.2471 187.769 56.0482 186.826C53.4792 186.925 51.2327 188.469 49.3378 190.126C47.4429 191.783 45.6628 193.653 43.328 194.679C40.9931 195.706 37.8593 195.617 36.2418 193.712C36.069 193.508 35.8956 193.274 35.6299 193.208C35.3643 193.142 35.0231 193.394 35.1469 193.628C35.4675 194.233 34.7788 194.998 34.0689 194.956C33.359 194.914 32.804 194.298 32.6292 193.64C32.4545 192.983 31.506 194.157 30.1313 194.353C28.7567 194.548 27.2983 193.707 26.8417 192.456C26.4654 191.424 24.99 191.406 23.8626 191.213C21.2991 190.774 19.3525 188.214 19.713 185.755C12.3459 188.097 5.11236 190.821 -1.94507 193.911C-2.35908 194.092 -2.40644 194.678 -2.15308 195.039Z" fill="white"/>
<path d="M101.274 93.8723C103.437 93.8723 105.191 92.2006 105.191 90.1383C105.191 88.0761 103.437 86.4043 101.274 86.4043C99.1109 86.4043 97.3573 88.0761 97.3573 90.1383C97.3573 92.2006 99.1109 93.8723 101.274 93.8723Z" fill="white"/>
<path d="M74.0865 90.7969C75.2317 90.7969 76.1601 89.9119 76.1601 88.8201C76.1601 87.7283 75.2317 86.8433 74.0865 86.8433C72.9412 86.8433 72.0128 87.7283 72.0128 88.8201C72.0128 89.9119 72.9412 90.7969 74.0865 90.7969Z" fill="white"/>
<path fill-rule="evenodd" clip-rule="evenodd" d="M119.979 105.124C120.338 106.899 121.404 108.618 122.824 109.685C125.463 111.668 131.396 113.709 134.554 114.803C134.842 114.903 133.221 115.776 131.129 117.705C125.466 122.928 113.083 132.281 100.985 127.58C99.5708 127.031 98.3885 126.399 97.4255 125.728C96.538 125.111 104.683 126 112.297 124.624C119.953 123.241 127.076 119.585 125.17 116.687C123.378 113.962 118.337 109.348 117.944 106.634C117.421 103.018 119.67 103.599 119.979 105.124Z" fill="#E7EAEE"/>
<path fill-rule="evenodd" clip-rule="evenodd" d="M-2.30859 194.012C-2.30859 192.563 2.48243 191.391 10.6727 188.454C16.3059 186.434 27.2858 180.589 32.6881 180.317C36.2828 180.136 50.6484 185.149 60.0238 188.75C64.7379 190.561 68.3742 191.695 68.3742 192.276C68.3742 193.442 58.3649 199.075 48.1349 202.777C43.1416 204.584 38.4568 206.202 34.1605 206.093C21.062 205.76 -2.30859 197.679 -2.30859 194.012Z" fill="white"/>
<path fill-rule="evenodd" clip-rule="evenodd" d="M182.737 73.7053C163.954 81.3531 148.263 94.4211 133.312 107.71L132.398 108.524C131.526 109.301 130.202 110.114 129.261 109.413L132.166 106.892C147.366 93.7268 163.082 80.6722 181.889 72.9161C196.349 66.9529 196.195 68.2256 182.737 73.7053ZM101.831 201.094L110.642 210.243C111.074 210.692 111.523 211.173 111.644 211.771C111.765 212.368 111.402 213.098 110.766 213.161L92.6249 214.97C89.6117 215.27 86.5387 213.279 85.6711 210.511C84.8034 207.744 86.1922 204.502 88.8166 203.059C91.441 201.616 95.0407 202.071 97.2193 204.079C97.7589 204.576 98.7066 204.153 99.0897 203.538C99.4728 202.923 99.5555 202.168 99.9514 201.561C100.347 200.953 101.323 200.567 101.831 201.094ZM87.201 206.375C86.076 208.41 86.7874 211.167 88.7129 212.554C89.6565 213.234 90.8149 213.598 91.9823 213.777C93.6313 214.031 95.5445 213.839 96.6046 212.609C96.9916 212.159 97.2288 211.609 97.3907 211.048C97.9295 209.183 97.6555 207.117 96.6468 205.438C96.3722 204.981 95.9499 204.504 95.3979 204.526C95.1356 204.537 94.892 204.664 94.6308 204.689C94.1962 204.732 93.7939 204.496 93.3978 204.32C91.2101 203.349 88.3259 204.34 87.201 206.375ZM101.048 202.929C100.701 204.306 99.9847 205.597 98.9848 206.644C98.7032 206.939 98.7723 207.395 98.8293 207.79C99.1073 209.714 98.6477 211.727 97.5563 213.367C99.3449 212.963 101.174 212.721 103.01 212.647C105.527 212.545 108.154 212.737 110.461 211.772C109.228 211.261 108.182 210.351 107.535 209.228C107.154 208.567 106.628 207.996 106.105 207.43L102.093 203.084C101.804 202.77 101.15 202.522 101.048 202.929ZM55.4871 202.847C56.0624 204.559 58.2261 205.146 60.1007 205.455L72.6107 207.446C75.5033 207.906 78.4722 208.366 81.3489 207.823C81.8916 207.72 82.1787 208.542 81.8206 208.944C81.4626 209.346 80.8394 209.394 80.2861 209.395C77.7799 209.403 75.2884 209.086 72.8079 208.73L70.166 208.346C65.4899 207.661 60.8161 206.932 56.2392 205.796C55.4557 205.602 54.6442 205.38 54.0445 204.861C53.4448 204.343 53.1328 203.438 53.5549 202.779C53.9769 202.121 55.2402 202.112 55.4871 202.847ZM123.107 19.6786C132.17 20.3945 139.69 28.1518 140.908 36.7436C141.857 43.4381 138.252 51.4123 131.281 52.6248C133.745 61.0181 135.115 69.8491 133.763 78.469C132.41 87.0889 128.107 95.5092 120.845 100.804C118.84 103.375 120.355 107.254 122.994 109.236C125.633 111.219 129.049 111.916 132.208 113.01C145.441 117.596 154.759 130.042 156.931 143.305C159.102 156.567 154.764 170.322 146.925 181.472C141.555 189.109 134.25 195.892 125.111 198.829C112.412 202.911 98.5003 199.017 86.1371 194.036L85.7629 193.885C81.1136 191.998 76.3807 189.86 73.0389 186.261L72.8275 186.029C69.2343 182.019 62.4432 184.185 57.5458 186.637L67.3149 190.501C68.0147 190.778 68.7738 191.107 69.0983 191.759C69.7813 193.133 68.0987 194.455 66.6744 195.139L60.9384 197.892C51.894 202.219 42.4782 206.472 32.3902 206.739C21.0286 207.04 10.289 202.259 0.0519493 197.526L-0.597686 197.224C-1.65811 196.724 -2.73011 196.146 -3.30327 195.171C-3.92852 194.109 -3.57902 192.451 -2.34328 192.14C9.26265 189.214 20.2507 184.078 29.7851 177.124C29.0557 172.795 29.2276 168.33 30.2879 164.063L30.3419 163.856C30.4947 163.3 30.7259 162.734 31.2386 162.454C32.6568 161.677 33.8887 163.723 34.1393 165.264L36.0368 176.931C43.6317 176.131 51.0029 173.471 57.2508 169.277L42.2387 157.751C39.5509 155.678 36.8297 153.437 35.5874 150.377C34.2845 147.167 35.3327 142.816 38.6995 141.574C38.9652 129.416 38.2929 117.239 36.69 105.175C34.4735 117.224 36.2548 129.578 38.0386 141.693C34.98 131.599 33.6556 121.031 34.1322 110.535L34.1606 109.952C34.2591 108.05 34.4823 105.997 35.8251 104.587C38.1954 102.099 42.8496 103.172 45.0131 105.826C47.1766 108.48 47.5387 112.041 47.8185 115.392L73.0982 112.448C75.9351 112.124 78.8482 111.873 81.5677 112.674C85.2071 113.747 88.13 116.786 88.9367 120.335L89.5296 120.181C92.8356 119.309 96.3102 118.173 98.1621 115.459C100.104 112.611 98.4975 107.682 94.9792 107.721L94.865 107.724C83.6118 108.188 72.6063 100.228 70.0451 89.7711C69.3937 87.1117 69.1405 84.1564 67.1821 82.1632C64.0788 79.0048 61.7142 74.933 61.7294 70.6055C61.7446 66.278 64.6391 61.8151 69.0469 60.7806C73.4548 59.7461 78.6716 63.252 78.2912 67.5643C80.4297 67.3568 82.6172 67.6221 84.633 68.3336C83.4834 65.3789 86.4632 62.1175 89.7382 61.6886C93.0132 61.2598 96.2045 62.8192 98.928 64.6054C101.651 66.3915 104.254 68.4944 107.42 69.3997L107.566 69.0777C108.221 67.6212 108.823 66.0656 108.493 64.5258C108.139 62.872 106.185 61.4417 104.602 62.1989C103.491 59.1647 101.724 56.3506 99.4425 53.9845L93.1026 56.834C92.2858 55.6677 91.7854 54.3019 91.6631 52.9044C87.477 55.185 82.9335 56.8681 78.2305 57.8803L78.7118 54.4572L64.6575 61.4163C62.5824 52.1946 68.0127 42.3006 76.4612 37.3929C84.9097 32.4853 95.7162 32.1491 105.125 35.0635C104.825 26.3984 114.043 18.9627 123.107 19.6786ZM192.248 169.98C184.151 171.843 176.291 174.639 168.895 178.29L168.36 178.556C164.261 180.614 160.238 183.081 157.669 186.741C159.404 186.454 161.256 186.885 162.657 187.902C163.542 188.544 164.282 189.507 164.229 190.566C164.202 191.115 163.962 191.639 163.64 192.094C162.38 193.874 159.711 194.597 157.657 193.715C155.603 192.832 154.404 190.448 154.968 188.369C146.255 191.205 138.764 197.306 134.458 205.063L134.314 205.325C134.102 205.716 133.843 206.153 133.393 206.25C132.774 206.383 132.223 205.725 132.251 205.121C132.28 204.517 132.686 203.996 133.078 203.521C138.156 197.375 144.09 191.524 151.684 188.558L152.256 188.338C154.047 187.661 155.922 186.996 157.079 185.551C159.885 182.047 163.924 179.642 168.026 177.606C171.697 175.784 175.494 174.193 179.385 172.848C183.289 171.498 187.282 170.396 191.282 169.329L204.835 165.732C201.169 168.188 196.603 168.978 192.248 169.98ZM19.713 185.755C12.3459 188.097 5.11236 190.821 -1.94507 193.911C-2.35908 194.092 -2.40644 194.678 -2.15308 195.039C-1.89971 195.4 -1.45749 195.589 -1.03866 195.759L11.8531 201.019C13.8084 201.817 15.7701 202.617 17.8149 203.174C23.5176 204.73 29.6626 204.351 35.3326 206.011C36.0203 206.213 36.7585 206.005 37.4433 205.794C42.3886 204.276 47.2756 202.585 52.0916 200.727C57.1299 198.783 62.1229 196.638 66.5963 193.695C67.0032 193.427 67.4256 193.129 67.6113 192.693C67.797 192.256 67.6259 191.648 67.1502 191.519C64.1313 190.702 61.156 189.738 58.2399 188.632L58.0376 188.553C57.156 188.201 56.2329 187.702 56.0482 186.826C53.4792 186.925 51.2327 188.469 49.3378 190.126C47.4429 191.782 45.6628 193.653 43.328 194.679C40.9931 195.706 37.8593 195.617 36.2418 193.712L36.1373 193.588C35.996 193.421 35.8424 193.261 35.6299 193.208C35.3643 193.142 35.0231 193.394 35.1469 193.628C35.4675 194.233 34.7788 194.998 34.0689 194.956C33.359 194.914 32.804 194.298 32.6292 193.64C32.5169 193.218 32.5268 192.781 32.5805 192.345L32.594 192.238C32.2783 193.304 31.2889 194.188 30.1313 194.353C28.7567 194.548 27.2983 193.707 26.8417 192.456C26.4654 191.424 24.99 191.406 23.8626 191.213C21.2991 190.774 19.3525 188.214 19.713 185.755ZM37.1232 144.712C35.6047 147.287 37.0152 150.546 38.8857 152.901C44.7512 160.287 54.5757 163.832 61.279 170.539C62.9633 172.224 64.4314 174.091 65.8808 175.965L70.4363 181.863C71.2736 182.947 72.1139 184.035 73.0909 185.007C75.6385 187.541 78.9929 189.176 82.3107 190.698C89.0426 193.786 95.968 196.624 103.277 198.098C110.586 199.572 118.352 199.622 125.384 197.219C131.966 194.969 137.638 190.654 142.044 185.478C146.346 180.425 149.503 174.569 152.034 168.523L152.218 168.08C152.582 167.198 152.94 166.276 152.864 165.331C152.785 164.331 152.226 163.423 151.574 162.637C149.089 159.639 144.935 157.944 140.957 158.412C137.042 158.874 133.457 161.464 132.022 164.964L131.956 165.131C128.839 173.186 121.077 179.245 112.357 181.394C103.638 183.544 94.1539 182.004 86.1951 177.985C78.2363 173.966 71.742 167.605 66.8998 160.365L66.6354 159.966C65.7607 158.627 64.9654 157.219 64.6575 155.675C64.3188 153.976 64.6632 152.066 65.9499 150.847C66.7999 150.042 68.0095 149.57 68.6278 148.592C69.246 147.613 68.52 145.885 67.3794 146.235L66.6186 146.464C61.3764 148.019 55.2945 149.225 51.0771 145.99L50.6719 145.681C48.7042 144.19 46.6014 142.767 44.1567 142.255C41.5435 141.706 38.4345 142.488 37.1232 144.712ZM58.0197 170.816C51.6613 174.646 44.4855 177.237 37.061 178.384C36.0808 178.535 35.8174 179.747 35.802 180.693C35.7529 183.701 35.9058 186.713 36.2591 189.702C37.0634 189.341 37.3923 188.44 37.9406 187.773C38.4889 187.106 39.7401 186.74 40.164 187.485C40.46 188.006 40.0649 188.657 39.5604 189.002C39.0558 189.347 38.4354 189.534 37.9855 189.942C36.8661 190.957 37.4512 192.953 38.8149 193.644C40.1787 194.336 41.9037 193.975 43.2112 193.191C44.5187 192.407 45.5289 191.257 46.6375 190.231C49.0086 188.038 51.9088 186.368 55.0484 185.387C59.0342 184.143 63.4725 183.958 66.9791 181.764C67.2153 181.616 67.4597 181.443 67.5488 181.187C67.6705 180.838 67.4647 180.476 67.2461 180.165L63.0507 174.358C62.3823 173.433 61.6133 172.439 60.4682 172.174C59.9447 172.053 59.3865 172.1 58.8727 171.945C58.3589 171.791 57.8749 171.311 58.0197 170.816ZM28.7282 179.253C27.0925 179.981 26.1244 181.693 25.909 183.401C25.6935 185.11 26.1166 186.83 26.6191 188.483C26.9275 189.498 27.2696 190.51 27.7797 191.447C28.105 192.045 28.5357 192.642 29.1876 192.902C29.8394 193.162 30.7441 192.928 30.9559 192.285C31.0432 192.021 31.0041 191.735 30.9536 191.461C30.7638 190.434 30.4231 189.433 29.9451 188.495L29.7444 188.115C29.4569 187.566 29.1861 186.919 29.5558 186.44C29.9088 185.983 30.7765 185.794 30.6935 185.232L29.8834 179.742C29.8598 179.582 29.832 179.412 29.7227 179.288C29.4925 179.027 29.0523 179.108 28.7282 179.253ZM158.416 187.72C157.876 187.718 157.308 187.789 156.874 188.096C156.621 188.275 156.429 188.527 156.294 188.799C155.724 189.951 156.25 191.432 157.33 192.182C158.41 192.933 159.906 193.003 161.157 192.553C162.113 192.21 163.033 191.431 163.001 190.457C162.976 189.689 162.364 189.048 161.689 188.627C160.725 188.026 159.568 187.725 158.416 187.72ZM31.7974 163.696C31.6592 163.794 31.5908 163.955 31.5324 164.11C30.6818 166.36 30.5777 168.799 30.6011 171.19C30.66 177.186 31.468 183.175 33.0028 188.99L33.0791 189.273C33.3928 190.409 33.8217 191.573 34.7932 192.276C34.9739 183.061 34.3468 173.831 32.9203 164.715C32.8278 164.123 32.301 163.339 31.7974 163.696ZM24.1373 183.503C23.9343 183.557 23.8039 183.742 23.7026 183.918C22.8731 185.361 22.817 187.184 23.5565 188.671C23.8881 189.337 24.4566 189.985 25.2257 190.067C25.5392 189.695 25.3959 189.159 25.2203 188.703L25.0686 188.317C24.5041 186.858 24.0407 185.28 24.5383 183.813C24.6032 183.622 24.3404 183.449 24.1373 183.503ZM21.3702 185.502C20.7884 186.735 21.0476 188.286 22.0023 189.286C22.3964 188.902 22.223 188.273 22.0884 187.751C21.8778 186.934 21.8303 186.08 21.9491 185.247C21.8023 185.042 21.477 185.275 21.3702 185.502ZM33.631 141.561C34.5128 142.285 35.0734 143.848 34.0262 144.332C33.3553 144.642 32.5951 144.188 31.9615 143.813C28.6695 141.866 24.4603 141.723 20.7281 142.713C16.9959 143.704 13.6593 145.722 10.5277 147.896C7.40916 150.061 4.40218 152.438 2.05724 155.358C-0.287708 158.279 -1.94634 161.798 -2.08245 165.474C-2.24554 169.878 -0.249529 174.089 2.05854 177.907C3.52959 180.341 5.18842 182.741 7.47198 184.508L7.94144 184.862C8.58922 185.357 9.25434 185.972 9.08915 186.718C6.85086 186.621 5.22629 184.712 3.99364 182.929C2.24085 180.392 0.643105 177.759 -0.788798 175.045C-1.97944 172.789 -3.06774 170.439 -3.42946 167.937C-4.10976 163.231 -2.10587 158.447 1.00881 154.74C4.1235 151.032 8.26863 148.25 12.4612 145.684C15.6457 143.735 18.9232 141.865 22.498 140.68C26.1847 139.459 30.6738 139.133 33.631 141.561ZM128.243 120.837C122.941 125.554 115.894 128.452 108.657 128.891C105.458 129.085 102.156 128.794 99.2613 127.481C96.3671 126.168 93.9292 123.72 93.2565 120.733L93.0163 120.804C90.9214 121.435 88.5229 122.579 88.5441 124.637C88.6336 133.366 88.4205 142.097 87.9053 150.812C87.8064 152.484 87.1384 154.68 85.3821 154.631C79.1424 154.456 72.8618 155.829 67.3259 158.579C73.557 167.895 82.4184 176.04 93.4413 179.452C104.464 182.864 117.758 180.731 125.483 172.495C127.959 169.855 129.781 166.733 131.536 163.606L131.94 162.885C132.313 162.218 132.693 161.425 132.361 160.739C132.149 160.3 132.606 159.845 133.025 159.574C139.189 155.597 148.367 156.676 153.332 161.962C152.939 161.228 153.296 160.217 154.075 159.861C154.695 160.809 154.826 162.033 154.42 163.082C154.689 163.444 155.181 162.861 155.224 162.42C155.886 155.549 155.834 148.616 155.069 141.755C154.793 139.281 154.418 136.792 153.49 134.467C152.675 132.428 151.452 130.559 150.111 128.791C147.026 124.723 143.276 121.115 139.037 118.137L138.729 117.923C138.057 117.465 137.35 117.042 136.556 116.836C133.413 116.02 130.624 118.718 128.243 120.837ZM85.4167 116.884C81.9122 118.009 78.1173 117.793 74.4285 118.036C69.2301 118.378 64.1021 119.667 59.4023 121.812C57.378 122.736 55.4198 123.822 53.2791 124.464C48.7327 125.829 43.5211 124.986 39.7011 122.268C38.8777 128.262 39.1206 134.387 40.4164 140.304C40.4996 140.684 40.7621 141.17 41.1514 141.056C43.7349 140.299 46.5136 141.369 48.8107 142.727C51.1078 144.084 53.2666 145.777 55.8757 146.449C58.9365 147.237 62.1801 146.508 65.2096 145.593L65.4364 145.524C66.9894 145.049 68.9979 144.652 69.9937 145.884C70.8337 146.922 70.3033 148.474 69.4141 149.474C68.5248 150.475 67.3189 151.219 66.5934 152.333C65.7027 153.701 65.6981 155.549 66.582 156.921C72.3679 154.709 78.5607 153.468 84.7912 153.272C86.0406 153.233 86.4789 151.691 86.5557 150.502C87.2286 140.079 87.4351 129.628 87.1747 119.188C87.1469 118.075 86.5233 116.529 85.4167 116.884ZM179.093 145.071L179.34 145.189C180.875 145.932 182.508 146.923 182.736 148.525C182.811 149.052 182.717 149.588 182.585 150.105C182.403 150.822 182.126 151.557 181.542 152.039C180.922 152.551 180.052 152.697 179.233 152.666C177.62 152.607 176.006 151.89 175.072 150.636C174.138 149.381 173.988 147.586 174.859 146.291C175.731 144.996 177.646 144.387 179.093 145.071ZM176.7 146.863C175.744 147.243 175.4 148.475 175.799 149.386C176.198 150.298 177.146 150.897 178.13 151.205C179.137 151.519 180.434 151.493 181.034 150.661C181.234 150.384 181.328 150.05 181.383 149.718C181.503 148.995 181.431 148.195 180.942 147.63C180.337 146.93 179.304 146.79 178.339 146.738L178.1 146.726C177.627 146.706 177.137 146.689 176.7 146.863ZM56.0169 128.023C56.1378 128.46 56.0448 128.922 55.9622 129.367C55.3803 132.505 55.3382 135.733 55.8369 138.884L55.9291 139.442C55.9898 139.836 56.0147 140.252 55.777 140.57C55.5027 140.936 54.7341 140.899 54.6957 140.451C54.3684 136.633 54.1586 132.806 54.0668 128.977C54.0493 128.246 54.2495 127.273 55.0147 127.217C55.4879 127.182 55.8959 127.585 56.0169 128.023ZM29.0884 120.372C29.6543 120.535 30.1979 120.904 30.3619 121.445C30.5259 121.987 30.1526 122.671 29.5628 122.706C29.0132 122.739 28.5936 122.262 28.0886 122.053C27.1819 121.677 26.1646 122.202 25.331 122.709L24.9067 122.97C24.1064 123.472 23.3311 124.036 22.8917 124.837C22.4421 125.657 22.4045 126.62 22.4184 127.545C22.428 128.187 22.4596 128.84 22.6681 129.451C23.1205 130.778 24.4112 131.771 25.8429 132.059C27.2745 132.347 28.8058 131.974 30.0169 131.191L30.254 131.038C30.4678 130.903 30.692 130.786 30.9436 130.775C31.2895 130.759 31.6681 131.07 31.5505 131.38C31.5153 131.473 31.4428 131.549 31.3704 131.62C29.3908 133.558 25.9725 133.973 23.5464 132.569C23.1136 132.319 22.7102 132.017 22.3831 131.648C21.4 130.541 21.2166 128.989 21.1895 127.539C21.1749 126.754 21.1952 125.957 21.4293 125.204C21.9349 123.578 23.3638 122.37 24.849 121.436C26.11 120.643 27.6416 119.958 29.0884 120.372ZM17.6352 117.036L22.5704 122.623C22.2989 122.903 21.8231 122.921 21.4563 122.769C21.1302 122.634 20.8702 122.392 20.6251 122.144L17.7295 119.175C17.3347 122.189 16.3783 125.134 14.9185 127.833C14.7764 128.096 15.179 128.318 15.4874 128.348C16.2405 128.422 17.0022 128.34 17.7448 128.199L18.1276 128.126C18.7273 128.012 19.3424 127.923 19.9015 128.134C20.5804 128.391 20.9994 129.333 20.4549 129.797C20.1193 130.083 19.611 130.047 19.1642 129.994L14.3578 129.428L14.2101 129.407C13.7356 129.333 13.214 129.156 13.1445 128.72C13.1026 128.457 13.2557 128.206 13.399 127.978C15.1098 125.256 16.2495 122.21 16.7334 119.071L16.8063 118.573C16.9003 117.962 17.0668 117.299 17.6352 117.036ZM185.778 125.814C186.374 126.216 186.936 127.004 186.474 127.543C186.186 127.88 185.629 127.889 185.214 127.707C184.799 127.526 184.477 127.201 184.118 126.931C182.65 125.824 180.444 125.708 178.856 126.653C178.63 126.787 178.405 126.954 178.314 127.193C178.222 127.431 178.323 127.752 178.579 127.824C180.606 127.005 183.022 127.12 184.954 128.126C185.233 128.271 185.526 128.465 185.595 128.761C185.664 129.057 185.33 129.412 185.053 129.264C183.792 128.591 182.288 128.344 180.863 128.575C180.199 128.683 179.55 128.891 178.877 128.911C178.204 128.931 177.467 128.717 177.11 128.173C176.78 127.671 176.859 126.993 177.18 126.486C177.502 125.979 178.029 125.62 178.58 125.347C180.824 124.233 183.713 124.421 185.778 125.814ZM118.54 98.6511C113.727 102.507 108.072 105.403 102.044 107.101L101.641 107.213C100.858 107.426 99.8734 107.898 100.038 108.658L100.139 109.13C100.44 110.548 100.695 111.992 100.481 113.418C100.249 114.957 99.3596 116.497 97.8872 117.143L97.7518 117.2C95.1299 118.229 94.7615 121.962 96.4808 124.111C98.2001 126.261 101.182 127.093 103.998 127.403C112.264 128.315 120.89 125.673 127.053 120.342C129.288 118.409 131.288 116.094 134.055 114.946L127.135 112.531C125.268 111.879 123.377 111.216 121.752 110.124C120.127 109.033 118.772 107.443 118.44 105.575C118.033 103.286 119.184 100.89 118.54 98.6511ZM38.7141 104.839C38.5404 104.913 38.363 105.01 38.2795 105.173C38.1959 105.336 38.2241 105.529 38.2536 105.708L39.8391 115.236C40.3064 118.043 40.9628 121.155 43.3919 122.804C46.0528 124.61 49.7068 123.903 52.8053 122.871L52.9707 122.816C58.7385 120.863 64.2894 118.144 70.3345 117.23C74.6746 116.573 79.2261 116.854 83.3301 115.356C81.829 113.196 78.5768 113.208 75.8563 113.491L53.6304 115.899C51.9086 116.086 50.1 116.303 48.7017 117.279C48.0898 117.706 47.5105 118.293 46.7529 118.322C46.0158 118.351 45.375 117.328 45.9528 116.952L46.0038 116.922C46.6373 116.589 46.5946 115.722 46.465 115.044L45.7928 111.53C45.4529 109.788 45.0378 108.014 43.944 106.591C42.7627 105.054 40.5404 104.065 38.7141 104.839ZM192.153 119.08C192.689 119.675 192.712 120.588 192.355 121.294C191.998 122 191.321 122.52 190.589 122.877C189.707 123.309 188.734 123.535 187.76 123.727L187.273 123.821C187.082 123.858 186.881 123.894 186.696 123.835C186.542 123.786 186.418 123.677 186.317 123.556C185.815 122.955 185.833 122.069 186.172 121.372C186.512 120.675 187.121 120.134 187.746 119.649C188.386 119.153 189.081 118.686 189.883 118.505C190.684 118.324 191.617 118.484 192.153 119.08ZM189.525 120.125L189.269 120.29C188.885 120.54 188.516 120.814 188.258 121.179C187.943 121.626 187.833 122.248 188.144 122.698L190.206 121.604C190.542 121.426 190.889 121.238 191.107 120.936C191.325 120.634 191.369 120.184 191.099 119.923C190.695 119.53 190.006 119.821 189.525 120.125ZM156.64 98.6165C156.784 98.6721 156.881 98.7963 156.965 98.9232L159.986 103.626C160.525 104.466 161.753 104.56 162.785 104.491C164.761 104.358 166.718 103.974 168.588 103.351C168.902 103.246 169.199 103.627 169.132 103.937C169.064 104.247 168.784 104.468 168.522 104.663L163.986 108.034C163.429 107.996 163.587 107.127 164.039 106.814L164.173 106.725C164.608 106.445 165.136 106.168 165.109 105.687L162.487 106.468C161.987 106.617 161.43 106.764 160.954 106.554C160.638 106.415 160.416 106.142 160.216 105.866L156.885 101.232L156.828 105.29C156.823 105.623 156.808 105.984 156.586 106.241C156.429 106.424 156.194 106.522 155.959 106.604L151.364 108.176C152.591 109.346 154.888 108.115 156.356 108.997C157.363 109.601 157.534 110.947 157.317 112.061C157.1 113.176 156.603 114.26 156.667 115.392C157.506 114.812 158.122 113.946 158.376 112.988C158.479 112.602 158.529 112.192 158.755 111.856C159.375 110.932 160.858 111.12 161.886 111.615C162.914 112.109 163.98 112.82 165.105 112.585L163.473 110.099C163.324 109.872 163.17 109.626 163.183 109.359C163.197 109.092 163.463 108.822 163.731 108.899C163.849 108.933 163.937 109.022 164.015 109.115L167.654 113.612C166.376 114.416 164.689 113.909 163.213 113.522L162.995 113.467C161.555 113.127 159.798 113.094 159.003 114.257C158.442 115.077 157.785 115.836 157.046 116.516C156.735 116.802 156.381 117.088 155.951 117.134C155.521 117.181 155.028 116.871 155.066 116.46L155.489 111.912C155.516 111.618 155.537 111.298 155.365 111.052C155.184 110.793 154.842 110.692 154.528 110.609L150.552 109.562C149.687 109.335 149.681 108.052 150.329 107.461C150.978 106.871 151.933 106.747 152.797 106.519C153.661 106.29 154.595 105.805 154.751 104.963L155.76 99.5149C155.847 99.0491 156.18 98.439 156.64 98.6165ZM49.6715 21.8009L48.9372 22.3697C44.045 26.1704 39.2241 30.1549 35.636 35.0955C31.8686 40.2831 29.5558 46.7159 30.6774 52.9342C32.3118 61.9959 40.8142 69.2124 41.1777 78.4006C41.2259 79.621 42.5297 80.3806 43.6204 81.0214C47.9249 83.5503 51.1146 87.564 53.2195 91.9468C55.2585 96.1925 56.3471 100.793 57.1387 105.404L57.2144 105.85C57.3323 106.553 57.4184 107.353 56.9426 107.902C56.4668 108.451 55.2436 108.259 55.291 107.548C55.8494 99.1943 52.6646 90.6716 46.6915 84.5357C45.1398 82.9417 43.3373 81.4642 41.1522 80.8401C41.0131 84.0579 39.8766 87.3369 37.4708 89.5979C35.0651 91.8588 31.2698 92.8917 28.1554 91.6441C25.0409 90.3964 23.1356 86.6292 24.5373 83.699C25.7115 81.2443 28.6275 80.0042 31.4039 79.4816C34.1281 78.9688 36.9521 78.9421 39.6864 79.4032C40.0543 79.4652 40.2146 78.975 40.2072 78.6188C40.0095 69.0684 30.7492 61.5913 29.5336 52.1095C28.8692 46.9277 30.7238 41.7115 33.4153 37.1652C36.9498 31.1949 41.978 26.0345 47.9634 22.2345L48.1201 22.1375C48.5995 21.8498 49.1584 21.6045 49.6715 21.8009ZM80.1621 70.4432C78.8221 71.2649 78.8565 73.0885 78.7457 74.6037C78.5936 76.6821 77.844 78.7625 76.3821 80.3112C74.9201 81.86 72.699 82.8113 70.5305 82.5513C69.9695 82.4841 69.799 83.2579 69.8726 83.7924C71.1332 92.9522 76.9619 101.945 86.0214 105.225C91.5599 107.23 97.816 106.964 103.463 105.255C108.975 103.586 113.964 100.619 118.524 97.2224L118.857 96.9731C119.518 96.4753 120.182 95.9566 120.642 95.2833C121.108 94.6006 121.337 93.793 121.449 92.9854C122.047 88.6587 119.014 84.1315 114.645 82.8293C114.131 82.676 114.25 81.8807 114.701 81.6001C115.152 81.3194 115.733 81.3384 116.248 81.1883C117.644 80.7817 118.286 79.2662 118.605 77.9084C119.043 76.0427 119.166 73.9151 117.953 72.3926C116.314 70.335 113.127 70.3376 110.424 70.5348L106.04 70.8548C104.526 70.9653 102.578 71.4737 102.507 72.919C102.354 76.032 100.916 79.1328 98.3746 81.0929C95.8333 83.053 92.1735 83.7307 89.1566 82.5308C86.1875 81.35 84.09 78.2688 84.433 75.2267L84.4516 75.0796C84.6302 73.7927 84.5318 72.3954 83.741 71.3387C82.9502 70.282 81.3073 69.741 80.1621 70.4432ZM116.378 21.7989C114.423 22.3288 112.545 23.1835 111.001 24.4443C108.844 26.2064 107.41 28.7528 107.061 31.4404C106.937 32.3926 107.136 33.6208 108.106 33.8767C110.476 34.5016 112.597 35.9508 113.978 37.8899C111.738 36.6189 109.282 35.6941 106.735 35.1625L117.5 40.9693C118.124 41.3059 118.772 41.6634 119.164 42.2354C119.556 42.8074 119.597 43.6612 119.058 44.1117L118.306 43.5534C116.42 42.1619 114.492 40.813 112.381 39.7599C110.776 38.9592 109.082 38.3379 107.379 37.7461L106.449 37.4253C103.296 36.3408 100.114 35.2495 96.793 34.8162C93.7105 34.414 90.5458 34.5925 87.5345 35.3385L86.9406 35.4836C82.8727 36.465 78.6312 37.2673 75.2681 39.6384C73.2676 41.0487 71.7009 42.9369 70.2134 44.8383L69.8625 45.2921C66.907 49.1605 64.2064 53.9298 65.9356 58.3681C73.8745 57.4358 80.0594 51.58 87.2513 48.242C87.8009 47.9869 88.7075 47.9088 88.791 48.4862L80.7435 53.0197C80.9669 54.1904 80.7557 55.4322 80.1559 56.4757C86.0356 54.8919 91.5325 52.0319 96.1125 48.1769L96.4036 47.9294C97.1301 47.3059 98.5299 46.7901 98.8394 47.674L98.4457 47.8837C97.0015 48.6581 95.5648 49.5052 94.5693 50.7593C93.4832 52.1273 93.0508 54.1162 94.0135 55.5658L104.173 49.8633C104.585 49.6316 105.036 49.3917 105.512 49.4394C105.988 49.487 106.435 49.976 106.229 50.3883L105.883 50.457C104.787 50.6791 103.675 50.9573 102.821 51.6383C101.877 52.3909 101.389 53.8019 102.09 54.7657C103.348 56.4945 104.368 58.3799 105.118 60.3589C105.134 59.4935 106.371 59.051 107.187 59.4309C108.003 59.8109 108.434 60.6684 108.73 61.4867C109.576 63.8277 109.799 66.3703 109.374 68.8128C111.928 69.6727 114.925 68.6569 117.382 69.7447C119.663 70.7544 120.779 73.3733 120.62 75.7659C120.462 78.1585 119.276 80.3708 118.01 82.442C121.549 85.0562 123.44 89.5592 122.77 93.7796C123.387 93.6836 123.909 93.1759 123.996 92.5856L125.4 93.43C123.204 94.6131 121.642 96.8087 121.301 99.1909C130.948 90.5854 134.15 76.9464 132.759 64.4218L132.704 63.9547C132.153 59.432 130.84 54.7176 127.272 51.7218C129.185 50.6704 131.638 51.0839 133.685 50.2944C135.619 49.5485 136.948 47.8195 137.846 46.0242C140.847 40.0224 139.814 32.3861 135.313 27.3071C130.812 22.228 123.087 19.9808 116.378 21.7989ZM84.8428 97.0688C85.1471 97.1168 85.4923 97.2148 85.6115 97.486C85.8018 97.919 85.2686 98.3148 84.8071 98.4788C84.137 98.7167 83.4336 98.8691 82.7215 98.9305C82.124 98.982 81.3702 98.872 81.1854 98.3279C81.0639 97.9701 81.2749 97.5682 81.5944 97.3476C81.9138 97.1269 82.3177 97.0524 82.7099 97.0119C83.4192 96.9387 84.1389 96.9579 84.8428 97.0688ZM73.9304 90.8623C76.0298 93.2143 79.314 94.4598 82.5534 94.4841C85.7928 94.5085 88.971 93.392 91.6604 91.6703L91.8866 91.5254C92.2282 91.309 92.5825 91.1058 92.9831 91.0393C93.4728 90.9581 94.0549 91.1541 94.2214 91.6005C91.4085 93.878 87.8824 95.3821 84.2069 95.7001C80.5314 96.018 76.7245 95.119 73.7254 93.0686C73.1844 92.6987 72.6251 92.2119 72.6027 91.5776C72.5803 90.9432 73.4989 90.3789 73.9304 90.8623ZM29.9272 80.8999C28.4674 81.3438 26.9983 81.9944 26.0773 83.1618C24.7092 84.8961 24.9484 87.5274 26.426 89.1779C27.9037 90.8285 30.4023 91.4874 32.6314 91.0487C34.8606 90.6101 36.7959 89.1763 38.0486 87.3646C39.3012 85.5528 39.9146 83.3899 40.1004 81.2273C40.1315 80.8647 40.0624 80.3848 39.6873 80.3183C36.4499 79.744 33.0643 79.9458 29.9272 80.8999ZM81.6552 72.4494C81.7161 72.9482 81.5136 73.4376 81.3276 73.9074C80.2763 76.562 79.6364 79.3643 79.435 82.1953C79.4024 82.6539 79.3838 83.1294 79.5602 83.5572C79.7267 83.9612 80.1133 84.3126 80.5617 84.3368L80.6414 84.3376C81.0496 84.3238 81.2432 84.9037 80.9865 85.2065C80.7298 85.5093 80.2481 85.5432 79.8567 85.4322C79.0531 85.2041 78.477 84.491 78.2438 83.7231C78.0106 82.9553 78.0702 82.1355 78.187 81.344C78.5829 78.6602 79.6107 76.0582 79.661 73.3484C79.6753 72.5838 79.8392 71.553 80.6389 71.4922C81.164 71.4522 81.5942 71.9506 81.6552 72.4494ZM91.6447 63.392C89.9752 63.7194 88.7007 65.0251 87.8349 66.4247C86.0611 69.2921 85.5558 72.8474 86.465 76.0614C86.8733 77.5045 87.5713 78.8992 88.6663 79.969C89.7614 81.0387 91.2827 81.7567 92.8504 81.732C93.9446 81.7147 95.0067 81.3445 95.9572 80.8275C99.1314 79.1011 101.148 75.6022 100.974 72.1222C100.801 68.6423 98.4455 65.3415 95.1139 63.9098C94.029 63.4435 92.8104 63.1633 91.6447 63.392ZM68.6032 61.9653C65.6203 63.0188 63.6946 65.972 63.2842 68.9792C62.8738 71.9864 63.7586 75.0284 65.0198 77.8124C65.3594 78.5622 65.7456 79.3245 66.3977 79.8541C67.0499 80.3838 68.0373 80.6212 68.7783 80.2113C69.1232 80.0205 69.4455 80.4667 69.7072 80.7535C70.2287 81.325 71.1462 81.3737 71.9254 81.2252C74.4923 80.7363 76.465 78.5978 77.2634 76.2213C78.0353 73.9239 77.8706 71.4373 77.4145 69.0601L77.3663 68.8146C76.8853 66.4171 75.7986 63.7227 73.35 63.0088C72.0663 62.6345 70.5176 62.8532 69.5252 61.9913C69.2856 61.7832 68.9072 61.8579 68.6032 61.9653ZM116.007 72.1305C117.016 73.1963 116.603 74.8514 116.099 76.2189L116.057 76.3291C115.856 76.8654 115.646 77.4143 115.26 77.8492C114.874 78.2841 114.268 78.5878 113.682 78.4717C113.097 78.3556 112.641 77.7088 112.887 77.1894C113.192 76.5448 114.229 76.5119 114.603 75.9013L113.592 75.8103C112.911 75.749 112.178 75.6666 111.674 75.2262C111.169 74.7859 111.106 73.854 111.719 73.5655C112.144 73.3655 112.656 73.5615 113.05 73.8135C113.443 74.0656 113.82 74.3848 114.288 74.4534C114.757 74.5221 115.327 74.1712 115.23 73.7287C115.096 73.1128 115.427 72.4309 116.007 72.1305ZM92.9284 76.2911C93.0084 76.7148 93.0377 77.1643 92.8714 77.5645C92.705 77.9648 92.2995 78.2997 91.8483 78.2818C91.1495 78.254 90.7752 77.4868 90.6532 76.8303C90.5024 76.0191 90.738 74.9028 91.5998 74.8424C92.3374 74.7907 92.7975 75.5973 92.9284 76.2911ZM71.3979 74.5692C71.7459 75.0528 71.6967 75.6989 71.5585 76.2704C71.3815 77.0017 70.9367 77.8175 70.1536 77.8939C69.4464 77.9628 68.8427 77.3596 68.6114 76.7189C68.3292 75.9369 68.4662 74.9815 69.1066 74.4237C69.747 73.866 70.9071 73.8874 71.3979 74.5692ZM72.0497 66.3165C72.3623 66.4535 72.5825 66.8289 72.4244 67.1201L72.1221 67.1957C70.4012 67.6335 68.5666 68.2428 67.7446 69.7261C67.5477 70.0816 67.4199 70.4738 67.1746 70.8008C66.9293 71.1279 66.5158 71.3878 66.1031 71.305C65.6328 71.2106 65.3607 70.6946 65.4109 70.2389C65.4611 69.7833 65.7519 69.3861 66.0634 69.0371C67.3302 67.6182 69.1154 66.6283 71.0355 66.2801C71.3735 66.2189 71.7371 66.1796 72.0497 66.3165ZM94.0438 67.1358C94.5584 67.5311 94.9494 68.0579 95.4694 68.4467C95.9087 68.7752 96.4639 69.0349 96.6635 69.532C96.8632 70.0291 96.2626 70.7311 95.8269 70.3983C94.6893 69.5293 93.4265 68.8094 92.0851 68.2651C91.477 68.0184 91.6151 67.043 92.2082 66.7653C92.8014 66.4875 93.5292 66.7405 94.0438 67.1358ZM87.6701 64.0184C86.5488 64.3708 85.752 65.4956 85.8281 66.6188C86.257 66.4095 86.5837 66.0186 86.7018 65.5734L86.6849 65.5284C87.1826 65.1535 87.5374 64.6097 87.6701 64.0184Z" fill="#00160A"/>
</svg>
