<svg width="196" height="164" viewBox="0 0 196 164" fill="none" xmlns="http://www.w3.org/2000/svg">
<path fill-rule="evenodd" clip-rule="evenodd" d="M162.309 226C196.07 226 225.696 200.935 209.058 166.89C192.42 132.845 254.242 133.945 272.402 110.415C294.549 81.7198 288.135 -40.0871 145.96 34.1723C123.185 46.0678 64.6948 21.9347 45.2933 33.9091C22.4557 48.0042 -9.67546 76.8664 22.4557 106.432C38.2829 120.995 -18.4613 158.794 6.39154 192.653C30.6416 225.69 47.6405 194.196 84.561 200.935C121.481 207.673 137.236 226 162.309 226Z" fill="#707EFF"/>
<path fill-rule="evenodd" clip-rule="evenodd" d="M50.4927 138.14C51.1244 138.017 51.7362 138.429 51.8591 139.059C54.1301 150.704 63.7361 158.588 80.9132 162.711C98.1922 166.858 109.962 166.634 116.163 162.207C116.687 161.834 116.297 165.034 115.913 165.279C111.868 167.868 98.1166 171.731 81.7057 168.24C60.7228 163.776 50.8706 146.165 49.5715 139.504C49.4485 138.873 49.861 138.263 50.4927 138.14Z" fill="white"/>
<path fill-rule="evenodd" clip-rule="evenodd" d="M41.7425 117.128C42.3011 116.809 63.142 140.649 91.7427 146.045C120.343 151.442 127.268 148.01 128.381 140.649C128.477 140.014 129.071 139.577 129.707 139.673C130.344 139.769 130.782 140.361 130.686 140.996C129.275 150.325 116.041 152.544 91.3506 148.338C66.9705 144.186 50.2555 134.32 41.3098 118.715C40.9902 118.158 41.1839 117.447 41.7425 117.128Z" fill="white"/>
<path fill-rule="evenodd" clip-rule="evenodd" d="M161.784 115.808C161.002 115.537 160.16 114.937 159.618 114.246L158.715 113.135L161.905 109.981C166.81 105.176 170.571 100.25 173.821 94.3941C174.904 92.4419 177.642 85.9248 177.642 85.2941C177.642 85.0838 177.973 84.2429 178.364 83.3719C178.966 82.1106 179.417 81.63 180.711 80.9092C182.246 80.0082 183.991 79.7079 184.743 80.2185C186.188 81.1795 186.188 84.2129 184.743 89.4386C183.148 95.1749 181.012 99.2894 176.589 105.206C175.897 106.107 174.603 107.879 173.67 109.11C171.173 112.414 169.548 114.006 167.351 115.237C165.185 116.438 163.921 116.588 161.784 115.808ZM183.389 113.105L185.556 114.066C186.005 114.273 190.96 116.649 196.913 119.504C206.511 124.107 218.701 129.953 218.775 129.953C218.895 129.953 219.46 128.65 219.588 127.13C219.888 123.856 221.002 119.412 222.296 116.318C222.897 114.937 223.379 113.21 223.379 113.06C223.379 112.991 222.89 112.794 222.089 112.472C221.136 112.088 219.741 111.527 218.203 110.792C210.621 107.158 195.786 99.74 193.951 98.6288C192.145 97.5776 191.784 97.4875 191.784 98.1783C191.784 99.0792 189.949 103.254 188.535 105.506C187.782 106.738 186.308 108.96 185.255 110.432L183.389 113.105ZM218.264 124.547C219.127 125.046 217.632 125.778 217.271 125.899C215.145 126.079 212.642 125.68 210.591 124.487C209.518 123.728 201.075 119.046 195.474 115.94C192.914 114.521 190.947 113.43 190.551 113.195C189.287 112.444 188.083 111.633 187.873 111.393C187.241 110.582 187.842 110.221 189.618 110.372C190.685 110.462 216.4 123.469 218.264 124.547ZM95.9472 203.174C98.2683 202.667 101.871 201.149 104.166 200.183C104.727 199.946 105.209 199.743 105.576 199.596C107.442 198.844 113.129 190.83 115.175 181.79C116.649 175.123 117.401 165.632 116.559 164.041C116.051 163.119 119.069 166.211 121.316 168.514L121.317 168.515C121.998 169.213 122.608 169.838 123.028 170.257C136.148 183.262 155.676 193.713 175.957 198.609C186.067 201.071 193.259 201.942 202.918 201.942C219.136 201.942 231.925 198.759 243.539 191.761C244.091 191.429 244.608 191.123 245.101 190.832C249.15 188.439 251.562 187.014 258.163 179.598C265.568 171.279 272.155 151.967 274.352 145.3C275.315 142.297 277.662 130.351 277.662 127.37C277.662 123.841 276.428 122.174 274.743 120.463C271.764 117.549 267.732 116.498 264.392 117.76L262.827 118.36L262.346 116.769C261.654 114.366 260.209 112.444 257.983 111.002C254.673 108.81 254.191 108.66 251.212 108.66C248.895 108.66 248.264 108.78 246.789 109.471L245.074 110.251L244.713 109.17C244.021 106.948 241.699 103.85 239.898 102.953C238.301 102.159 235.536 102.086 233.61 102.443C229.397 103.224 226.388 105.176 225.154 107.909C224.793 108.75 224.342 109.41 224.161 109.41C224.011 109.41 218.083 107.758 211.012 104.635C209.822 104.107 208.704 103.613 207.654 103.148L207.646 103.145C194.949 97.5274 192.196 96.3098 192.446 94.7844C192.657 93.493 192.597 92.7722 192.236 91.6609C191.604 89.7989 190.882 89.2883 188.835 89.2883C187.856 89.2883 187.467 89.2883 187.352 89.1108C187.276 88.9938 187.319 88.7996 187.391 88.4774C188.354 83.8824 188.324 81.2395 187.301 79.5576C186.609 78.4464 185.796 77.9959 183.931 77.7256C182.848 77.5755 182.336 77.6656 181.132 78.3263C180.32 78.7467 179.628 79.0471 179.568 78.987C179.508 78.9269 179.718 77.2751 180.049 75.323C182.517 60.8771 180.61 48.4305 174.322 35.216C174.287 35.1431 174.249 35.0625 174.208 34.9745L174.113 34.7719L174.112 34.7689C172.2 30.6721 164.512 14.1988 142.527 5.88663C141.532 5.51039 140.59 5.14659 139.685 4.79696C132.196 1.90364 127.217 -0.0198065 115.205 0.000153888C101.741 0.0225263 97.1809 1.92227 88.3043 5.97673C87.0706 6.54735 85.9873 6.87772 85.897 6.75758C85.8068 6.60742 85.2351 6.24702 84.6633 5.94669C84.0916 5.64636 82.8579 4.89554 81.9552 4.29488C79.3675 2.55296 77.7727 1.83217 76.9603 2.01237C76.0275 2.25263 76.0275 3.03349 76.9603 3.39389C77.3514 3.54405 77.8028 4.05461 77.9833 4.56517C78.3745 5.64636 78.8259 5.76649 79.0967 4.8655C79.217 4.53514 79.3976 4.29488 79.4878 4.35494C79.5219 4.37195 79.6357 4.42509 79.8092 4.50618L79.8111 4.50708L79.8116 4.50729L79.8118 4.50738C80.2517 4.71291 81.0726 5.09651 81.9552 5.52623C83.1889 6.12689 84.543 6.75758 84.9041 6.90775C85.5661 7.14801 85.3554 7.32821 82.4969 9.01006C71.3334 15.5573 62.2462 25.7385 57.1609 37.3312C56.3786 39.0731 55.6865 40.1543 54.9644 40.755C53.1289 42.2867 49.518 46.6414 48.6755 48.3533C48.2242 49.2843 47.2613 50.7259 46.509 51.5669C45.7869 52.4078 45.0045 53.489 44.7337 53.9395C44.493 54.42 44.2523 54.7504 44.162 54.6903C44.1018 54.6002 44.1921 53.1286 44.4027 51.4167C44.8541 47.4223 44.8541 46.3711 44.493 46.281C43.9514 46.1309 43.169 48.2332 42.838 50.8461C42.5973 52.4378 42.5371 54.8405 42.6876 57.3032L42.8681 61.2075L40.7317 57.7537C39.9958 56.5968 39.2712 55.44 38.7572 54.6195L38.7565 54.6184L38.7547 54.6155C38.4293 54.0961 38.1887 53.712 38.0838 53.549C37.3014 52.4078 36.8501 50.6959 37.1811 50.1253C37.3616 49.7949 37.3315 49.6447 37.0306 49.6447C36.3987 49.6447 35.165 51.657 34.3526 53.9695C33.9614 55.0507 33.5703 55.9517 33.4499 55.9517C32.9985 55.9517 33.2092 45.1999 33.6906 41.7461C34.6836 34.9286 37.3014 26.5193 38.475 26.5193C38.7157 26.5193 38.9263 26.3992 38.9263 26.219C38.9263 25.6784 38.144 25.8886 37.5121 26.5794C36.0978 28.1111 34.2322 32.8263 33.0587 37.8418C32.2463 41.2956 31.7348 45.7404 31.5542 50.5758C31.4038 54.7504 31.4639 55.4411 32.0657 57.7236C32.7578 60.2764 33.2994 61.0273 34.2322 60.6669C34.5632 60.5467 34.7137 60.0962 34.7137 59.2553C34.7137 58.5946 35.0748 56.6124 35.5261 54.8405L36.3085 51.657L36.6395 52.9784C37.0607 54.5101 39.5281 59.2553 41.7548 62.7091C43.2894 65.0517 43.3195 65.2019 43.831 68.8659C44.1018 70.9382 44.9443 75.9786 46.9002 83.7322C48.6283 90.583 58.3434 97.379 60.7691 99.0759L60.7692 99.076L60.7702 99.0767C61.0892 99.2998 61.2819 99.4346 61.3134 99.4695C61.6143 99.7999 62.0355 99.9801 62.2763 99.89C62.5471 99.7999 62.6975 99.92 62.6975 100.25C62.6975 100.551 62.9082 100.941 63.1489 101.121C63.4498 101.332 63.6604 102.142 63.7206 103.554C63.871 106.377 65.9774 111.783 67.6022 113.555C68.6554 114.696 70.852 115.177 73.2893 114.756C74.884 114.516 75.3354 114.336 75.1849 113.975C75.0947 113.735 75.6664 114.036 76.4487 114.636C85.5961 121.604 94.8639 125.778 105.275 127.58C109.307 128.271 115.987 128.662 119.628 128.391C122.848 128.181 122.848 128.181 122.697 128.812C122.487 129.653 122.757 130.163 127.181 137.642C130.701 143.558 131.002 143.948 134.914 147.943C143.219 156.502 152.276 163.14 162.537 168.275C172.196 173.08 187.617 177.075 201.714 178.336C215.811 179.598 225.937 166.683 225.907 163.38C225.846 158.845 225.214 155.872 223.68 152.988C222.175 150.195 221.182 149.234 216.669 146.231C211.644 142.897 208.545 140.164 206.498 137.251C205.205 135.419 204.723 133.347 204.723 132.236C204.723 131.515 205.656 129.893 207.04 129.563C208.304 129.232 208.545 129.262 209.959 129.953C210.801 130.343 212.998 131.365 214.803 132.236C216.639 133.076 218.414 133.917 218.775 134.098C219.84 134.393 220.29 136.473 220.534 137.6C220.588 137.852 220.632 138.056 220.671 138.182C221.092 139.744 223.086 141.76 224.372 142.447C226.631 143.652 232.196 143.814 233.731 142.162C234.122 141.741 235.419 141.224 235.686 141.381C235.953 141.537 236.92 142.837 236.92 143.888C236.95 145.69 237.882 147.342 239.868 148.994C243.63 152.117 246.548 152.868 249.497 151.487C251.032 150.766 252.29 150.484 252.29 150.484C252.29 150.484 253.544 152.082 253.62 152.628C254.211 156.895 260.54 158.684 262.225 158.864C262.611 158.903 263.363 158.738 264.126 158.57C265.147 158.346 266.189 158.118 266.408 158.364C266.838 158.848 259.216 171.429 258.163 173.02C248.143 188.037 228.645 197.227 204.783 198.188C189.287 198.819 170.24 194.494 153.72 186.625C143.159 181.55 133.801 175.333 123.781 166.623C122.035 165.122 120.019 163.41 119.297 162.809C118.575 162.239 116.86 160.286 115.536 158.484C113.309 155.481 112.045 154.4 112.045 155.421C112.045 155.872 113.49 158.635 115.145 161.368C115.807 162.449 116.228 163.2 116.077 163.079C115.927 162.959 115.446 165.122 114.994 167.885C113.52 176.745 111.083 185.484 108.615 190.92C107.261 193.863 104.665 196.061 103.882 196.662C100.994 198.854 96.6693 199.84 90.6814 200.441C83.0987 201.191 71.9352 199.51 63.4197 196.326C61.1629 195.485 55.3555 193.052 54.9644 192.782C54.9409 192.759 54.8076 191.895 54.6215 190.689C54.569 190.349 54.5124 189.982 54.4528 189.599C53.3696 182.18 51.8651 153.619 51.8651 140.405C51.8651 134.939 51.8049 133.737 51.4438 133.737C50.6916 133.737 50.3907 134.458 50.0597 137.041C49.3074 142.927 49.4579 173.651 50.2703 180.108L50.4508 181.58L49.4278 181.009C47.8631 180.108 41.9052 174.072 39.829 171.278C38.0713 168.891 37.0266 165.832 36.2451 163.545L36.245 163.544C36.0632 163.012 35.8957 162.522 35.7367 162.091C31.3737 150.018 32.9083 136.47 38.9263 124.277C44.0416 113.885 50.3305 108.119 59.5381 105.326C61.0426 104.875 62.3665 104.395 62.517 104.275C63.0887 103.734 59.4177 104.005 57.4017 104.635C50.842 106.647 43.9815 112.143 39.3175 119.171C32.7578 129.022 29.809 143.558 31.8852 155.962C32.3666 158.905 34.3225 165.272 34.8641 165.722C34.9121 165.77 35.1596 166.288 35.5338 167.072C36.5688 169.239 38.5732 173.436 40.0096 175.333C41.7548 177.706 47.0206 182.871 49.2171 184.463L50.6013 185.454L50.8119 187.887C51.2031 192.542 51.3535 192.962 53.4599 194.524C58.7256 198.518 69.1067 202.243 78.4949 203.564C82.8579 204.165 92.3363 203.954 95.9472 203.174ZM197.652 174.972C180.17 173.44 159.046 165.12 143.76 152.266C137.321 146.83 128.956 136.259 125.646 130.403C124.954 129.201 124.443 128.631 123.841 128.48C123.209 128.3 123.75 128.12 126.338 127.7C137.261 125.838 147.883 121.303 156.458 114.845L157.722 113.914L158.083 114.785C158.896 116.738 162.025 118.72 164.342 118.72C165.275 118.72 168.404 117.308 170.3 116.017L171.594 115.146L172.647 116.197C173.61 117.158 173.79 117.218 175.596 117.218C177.672 117.218 180.17 116.287 181.554 114.966L182.306 114.275L184.442 115.686C185.586 116.497 188.775 118.269 191.514 119.681C195.606 121.783 199.939 124.216 204.061 126.739L204.723 127.159L204.091 128C203.429 128.901 202.196 130.613 202.196 133.226C202.196 136.169 205.262 141.457 211.132 145.089C215.744 147.942 223.68 153.554 223.379 161.757C223.343 162.748 222.236 165.211 220.761 167.433C219.798 168.845 217.12 170.947 214.683 172.178C210.53 174.251 203.219 175.452 197.652 174.972ZM37.2111 40.1547C38.0236 40.3349 38.5652 40.6052 38.4448 40.7253C38.0537 41.1157 35.9774 40.9355 35.496 40.455C34.7438 39.7342 34.9243 39.2237 35.9774 39.0134C36.5191 38.9233 37.3315 38.4728 37.7829 38.0223C38.2342 37.5718 38.6254 37.3616 38.6254 37.5118C38.6254 37.9022 37.1209 39.2837 36.3686 39.5841C35.8872 39.7943 36.0376 39.8844 37.2111 40.1547ZM49.1871 40.6356C50.0597 40.155 49.8792 39.8247 48.8561 39.9748C47.8331 40.125 47.7729 40.0049 48.4349 38.9837C48.7057 38.5933 48.8561 38.0227 48.7959 37.7224C48.7057 37.3319 48.495 37.5121 48.0136 38.4732C47.6525 39.1639 47.141 39.7346 46.9003 39.7346C46.148 39.7346 46.0878 40.3352 46.81 40.6055C47.7428 40.996 48.465 40.996 49.1871 40.6356ZM38.7759 24.2372C38.0537 24.3573 35.7969 25.2583 33.811 26.2494C31.7949 27.2105 30.0798 28.0213 29.9594 27.9913C26.8902 27.6609 31.163 22.5553 38.9263 17.3296C46.3586 12.3141 51.3836 9.67116 56.0476 8.31968C58.9664 7.47875 62.2462 7.35862 63.179 8.04938C63.6905 8.43981 63.51 8.46984 61.2833 8.49988C56.4689 8.49988 50.9022 10.9626 41.8451 16.9992C37.151 20.1227 31.7047 24.5976 31.7047 25.3184C31.7047 25.4685 32.5773 25.1682 33.6605 24.6877C35.9775 23.6365 38.3546 23.0959 39.4078 23.3362C40.5211 23.6365 40.2804 24.027 38.7759 24.2372ZM50.4207 26.82C53.2492 26.2493 53.3696 26.2193 53.3696 25.919C53.3696 25.7688 52.2863 25.6186 50.9323 25.5586L48.495 25.4685L50.7517 22.9157C51.9854 21.5041 53.4298 20.0926 53.9413 19.7622C55.0546 19.0414 55.1148 18.5308 54.2121 18.2305L53.52 18.0203L54.2723 17.75C54.6935 17.5998 55.4759 17.5398 56.0175 17.6299C56.8299 17.75 57.0105 17.6899 56.9202 17.2695C56.8299 16.849 56.4989 16.7589 55.0245 16.7889C50.7216 16.849 48.8861 17.9903 52.2562 18.5308C53.189 18.681 53.9714 18.9213 53.9714 19.0714C53.9714 19.1916 53.8209 19.3117 53.6404 19.3117C53.0687 19.3117 48.2242 24.2071 47.6224 25.4084C46.6896 27.1804 47.2011 27.4507 50.4207 26.82ZM70.2803 15.1669C69.4077 15.2269 69.197 15.3771 69.2572 15.7975L69.2665 15.8588C69.3003 16.0808 69.3197 16.2084 69.2699 16.2472C69.2026 16.2996 69.009 16.19 68.5538 15.9323L68.5538 15.9323L68.4749 15.8876C67.9031 15.5873 67.843 15.4372 68.174 15.1969C68.3846 15.0167 68.9563 14.7464 69.4077 14.6563L70.2502 14.4461L69.6183 13.7853C69.2873 13.3949 69.1068 13.0345 69.197 12.9144C69.4377 12.6741 72.3866 13.0045 72.8078 13.3348C72.9884 13.485 73.2592 13.455 73.4397 13.2748C73.861 12.8543 74.4327 13.1847 74.4327 13.8454C74.4327 14.2058 74.3424 14.2358 74.0716 13.9655C73.8309 13.7253 73.6203 13.7253 73.3495 13.9355C73.1088 14.1457 72.9282 14.1457 72.7778 13.9055C72.6875 13.7553 72.1158 13.6051 71.514 13.6051C70.9586 13.6051 70.6961 13.6051 70.6426 13.7109C70.5947 13.8056 70.7147 13.9853 70.9423 14.3259C71.4222 15.0744 71.3938 15.0768 70.2905 15.166L70.2803 15.1669ZM65.7066 7.17882C65.7066 6.78839 65.3455 6.09763 64.8942 5.64713L64.0517 4.80621L68.5652 4.98641C71.0627 5.10654 73.8911 5.37683 74.8841 5.64713C75.8771 5.8874 77.0205 6.06759 77.4418 6.06759C78.0737 6.06759 77.9533 5.94746 76.7798 5.31677C74.7337 4.26561 72.1158 3.75505 67.0908 3.39465C61.0727 2.97419 58.0336 3.54482 58.6053 5.04647C58.6956 5.3468 59.1771 5.49697 59.8992 5.49697C61.3736 5.49697 63.7808 6.36792 64.5933 7.17882C65.4659 8.04977 65.7066 8.04977 65.7066 7.17882ZM51.0225 86.7055C53.4598 89.8289 56.6794 93.3728 58.1839 94.5742C59.0866 95.295 59.869 95.8956 59.9292 95.8956C59.9593 95.8956 59.2973 94.5141 58.4547 92.8322C55.0546 86.0748 53.0686 79.3474 52.1358 71.5989C51.9252 69.887 51.5942 68.4454 51.2331 67.8448C50.511 66.6434 50.511 65.0817 51.2632 63.6101C51.6544 62.8292 51.865 61.8382 51.865 60.757V59.1051L50.4207 60.6068C49.0065 62.0784 47.6524 62.6791 47.6524 61.7781C47.6524 61.1174 49.8791 57.9339 51.0526 56.9428C51.9854 56.1619 52.1057 55.8916 52.4066 53.549C52.6173 52.1375 53.0987 49.6447 53.4899 47.9929C53.9111 46.3411 54.1519 44.9295 54.0917 44.8695C53.8811 44.6592 46.8099 52.7651 45.847 55.351C45.6356 55.9188 45.0646 56.9127 44.6133 57.5134L43.831 58.516C43.831 58.516 44.074 59.9199 44.3425 61.6843C44.6138 63.4669 44.7411 64.6923 44.8544 65.7837C45.0061 67.2438 45.1328 68.4641 45.5461 70.4576C46.0275 72.9203 46.509 75.0527 46.6293 75.2029C46.7196 75.383 47.1108 76.7646 47.5019 78.2962C48.3445 81.69 49.7587 85.0537 51.0225 86.7055ZM173.128 115.117L172.497 114.487C172.497 114.487 182.984 101.187 184.864 96.2866C186.298 92.5469 187.142 91.4864 188.281 91.4864C188.917 91.4864 189.437 91.6315 189.678 91.9919C190.099 92.6226 190.505 93.4035 189.964 96.0764C189.061 100.401 187.677 103.254 183.524 109.411C182.561 110.823 181.328 112.384 180.786 112.925C179.522 114.096 176.679 115.298 175.024 115.568C173.971 115.718 173.67 115.658 173.128 115.117Z" fill="#00160A"/>
<path fill-rule="evenodd" clip-rule="evenodd" d="M83.4598 116.601C91.7045 121.797 100.206 125.19 109.895 126.121C117.538 126.842 127.843 125.851 135.245 123.449C141.474 121.436 149.899 115.862 155.526 111.147C166.448 102.017 173.339 87.7557 176.348 72.619C176.769 70.4867 177.412 65.1266 177.382 59.8108C177.382 53.624 174.654 36.7172 166.388 26.9689C149.341 6.86285 121.318 -2.19434 97.7669 5.54444C89.2713 8.33607 80.2259 13.3939 73.3954 20.0012C64.7897 28.3804 58.4406 39.793 55.9131 51.4458C53.2651 63.7593 56.7096 78.4755 62.6976 90.5488C67.4819 100.159 75.3655 111.465 83.4598 116.601ZM163.801 80.3074C158.144 97.2761 143.399 109.95 124.864 113.794C122.035 114.365 120.08 114.575 116.108 114.635C113.309 114.725 110.511 114.695 109.939 114.635C96.9703 113.073 87.1008 108.298 78.0135 99.2282C74.0416 95.2338 72.3566 93.0715 69.8892 88.8068C66.0076 82.0493 63.9313 75.1418 63.2994 66.8226C61.133 38.3213 81.5642 14.5652 110.33 12.1025C121.614 11.1414 134.132 14.5952 143.64 21.3226C147.161 23.8153 153.54 30.1223 155.526 33.0655C156.338 34.2368 164.222 45.7394 165.606 52.3467C167.381 60.9361 166.689 71.688 163.801 80.3074Z" fill="white"/>
<path fill-rule="evenodd" clip-rule="evenodd" d="M177.392 59.8116C177.392 79.9701 167.839 102.009 155.509 111.421C149.627 115.911 141.939 121.349 135.245 123.449C125.434 126.528 109.895 126.122 109.895 126.122C109.895 126.122 125.748 124.007 131.623 121.647C148.47 114.88 157.667 104.492 163.345 94.5254C174.555 74.8512 177.392 59.3219 177.392 59.8116Z" fill="#E7EAEE"/>
<path fill-rule="evenodd" clip-rule="evenodd" d="M110.24 111.031C102.206 110.01 94.2318 107.157 87.7925 102.923C83.9711 100.43 78.1938 94.5734 75.3954 90.3988C71.3934 84.3922 68.7455 77.9651 67.4516 71.0575C66.5188 66.042 66.5489 58.3235 67.4817 53.8486C68.4446 49.2836 69.6783 45.7997 71.8748 41.3849C74.4325 36.2793 77.1406 32.5252 81.2028 28.4707C88.1235 21.5631 96.1576 17.1783 105.726 15.076C108.826 14.4152 120.049 13.8746 120.44 14.3852C120.531 14.5354 121.132 14.9258 121.764 15.2562C122.396 15.6166 124.081 16.8779 125.465 18.1093C127.542 19.9113 128.474 21.0525 130.28 23.8756C131.514 25.7978 132.507 27.5397 132.507 27.6898C132.507 28.0202 133.469 28.6209 134.011 28.6209C134.763 28.6209 135.275 26.3684 135.425 22.404C135.516 20.2116 135.696 18.4096 135.816 18.4096C136.238 18.4096 140.872 20.9624 143.038 22.404C147.281 25.2271 151.524 29.1915 154.653 33.336C156.067 35.1981 156.278 35.6786 156.278 36.8199C156.278 37.871 156.579 38.6819 157.511 40.3037C159.858 44.3882 161.694 49.5238 162.807 55.2001C163.53 59.0143 163.53 66.2222 162.777 70.2166C160.731 81.2087 154.653 92.1407 146.739 99.0783C140.029 104.935 132.898 108.539 124.472 110.311C121.584 110.941 112.918 111.362 110.24 111.031ZM88.7254 90.4896C88.9962 90.1892 89.1767 89.7387 89.0865 89.5285C89.0594 89.4654 88.6826 89.2886 88.1311 89.0298C86.8456 88.4266 84.6105 87.3778 83.6418 86.2849C79.7903 81.9001 78.3761 78.6265 77.5035 71.8691C76.6609 65.2918 77.3687 60.8454 78.8876 53.6991C79.6285 50.213 81.5979 47.3334 82.8231 45.5419C83.6561 44.3238 84.1452 43.6087 83.6702 43.5479C82.4967 43.3677 82.3162 43.4578 81.0825 44.6291C78.4346 47.1519 77.2309 49.1641 75.9672 53.0384C74.0113 59.105 73.6334 75.5001 77.5035 82.8912C81.3735 90.2823 88.0333 91.2704 88.7254 90.4896ZM131.514 65.2615C131.003 69.927 128.836 76.674 126.308 79.6173C125.134 80.9988 120.827 83.3714 117.191 82.8909C113.678 82.4267 110.932 80.7886 108.585 77.2747C106.569 74.2414 105.528 70.5594 104.824 65.9222C103.608 57.9146 108.916 48.5931 111.203 46.2806C113.52 43.908 115.175 43.0671 117.281 43.037C119.327 43.037 120.651 43.4875 122.727 44.9592C126.519 47.6021 132.507 56.1955 131.514 65.2615ZM90.952 40.4234C91.5538 39.7326 91.6441 39.4022 91.4636 38.1108C91.3432 36.9095 91.1025 36.429 90.4706 35.9184C89.3573 35.0174 87.9731 35.0174 86.95 35.9785C86.2279 36.6692 86.1376 36.9095 86.2279 38.5613C86.3181 40.3333 86.3783 40.4534 87.3713 40.994C88.6953 41.7148 89.9891 41.5045 90.952 40.4234ZM109.728 21.8943C104.312 25.7686 101.965 27.3603 99.5277 28.862C97.6019 30.0633 97.0001 30.0933 97.0001 29.0121C97.0001 28.4415 97.4214 27.8108 98.5046 26.8197L100.009 25.4382L97.0904 25.0478C93.8106 24.6273 90.621 23.7263 89.9289 23.0356C88.7855 21.8643 89.7785 21.594 93.0282 22.1946C94.4725 22.4349 97.2709 22.7352 99.2569 22.7953L102.868 22.9455L105.486 21.0534C111.233 16.9088 117.191 14.5663 120.049 15.2871C121.824 15.7075 121.614 16.188 119.598 16.4283C117.281 16.6986 115.867 17.4795 109.728 21.8943Z" fill="white"/>
<path d="M117.462 78.7764C117.462 78.6262 117.642 78.4761 117.883 78.4761C118.124 78.4761 118.425 78.6262 118.515 78.7764C118.605 78.9566 118.425 79.0767 118.094 79.0767C117.732 79.0767 117.462 78.9566 117.462 78.7764Z" fill="white"/>
<path d="M119.267 78.5072C119.267 78.1768 120.019 77.8765 120.862 77.8765C121.524 77.9065 121.524 77.9065 120.952 78.327C120.29 78.8375 119.267 78.9276 119.267 78.5072Z" fill="white"/>
<path d="M114.603 77.725C114.513 77.4848 114.393 77.0643 114.302 76.824C114.212 76.5237 114.362 76.3735 114.754 76.3735C115.085 76.3735 115.355 76.5537 115.355 76.794C115.355 77.0343 115.446 77.4247 115.536 77.695C115.656 78.0254 115.566 78.1755 115.235 78.1755C114.964 78.1755 114.663 77.9653 114.603 77.725Z" fill="white"/>
<path d="M116.198 76.9757C116.047 76.0747 116.378 75.7744 117.462 75.7744C117.793 75.7744 118.063 76.0747 118.184 76.5853C118.425 77.4563 118.033 77.8767 116.98 77.8767C116.499 77.8767 116.288 77.6665 116.198 76.9757Z" fill="white"/>
<path d="M113.129 77.1238C112.557 76.6733 112.557 76.6733 113.189 76.6733C113.58 76.6733 113.851 76.8535 113.851 77.1238C113.851 77.6644 113.851 77.6644 113.129 77.1238Z" fill="white"/>
<path d="M119.177 77.0951C118.786 76.7047 118.966 75.5334 119.448 75.3532C120.32 75.0228 120.711 75.173 120.892 75.9538C121.012 76.4044 121.072 76.7948 121.012 76.8248C120.772 77.0951 119.357 77.2753 119.177 77.0951Z" fill="white"/>
<path d="M121.855 76.4639C121.765 76.3738 121.674 75.9833 121.674 75.6229C121.674 75.1124 121.915 74.9021 122.637 74.752C123.269 74.6318 123.66 74.6919 123.841 74.9322C124.142 75.4127 124.142 76.0134 123.871 76.1635C123.329 76.4639 122.065 76.6441 121.855 76.4639Z" fill="white"/>
<path d="M111.744 75.5337C111.744 75.1733 112.015 74.8729 112.406 74.7828C113.189 74.5726 113.159 74.5426 113.309 75.3234C113.369 75.7739 113.219 75.9541 112.587 76.0142C111.925 76.1043 111.744 75.9842 111.744 75.5337Z" fill="white"/>
<path d="M114.031 75.5629C113.61 75.1124 113.881 74.2715 114.453 74.2715C114.844 74.2715 115.054 74.4817 115.054 74.8421C115.054 75.4127 114.362 75.8933 114.031 75.5629Z" fill="white"/>
<path d="M115.837 74.661C115.596 74.0904 116.108 73.6699 117.101 73.6699C117.552 73.6699 117.763 73.8501 117.763 74.2405C117.763 74.5709 117.492 74.8712 117.101 74.9914C116.108 75.2316 116.047 75.2316 115.837 74.661Z" fill="white"/>
<path d="M124.533 74.5718C124.623 74.4216 124.774 74.2715 124.864 74.2715C124.954 74.2715 124.924 74.4216 124.834 74.5718C124.743 74.752 124.593 74.8721 124.503 74.8721C124.412 74.8721 124.443 74.752 124.533 74.5718Z" fill="white"/>
<path d="M118.545 74.0608C118.304 73.4601 118.605 73.1598 119.568 73.0096C120.11 72.9496 120.35 73.0697 120.411 73.4901C120.621 74.4812 118.906 75.0218 118.545 74.0608Z" fill="white"/>
<path d="M111.323 73.5504C111.052 72.5593 111.113 72.4692 111.895 72.4692C112.316 72.4692 112.647 72.5894 112.647 72.7395C112.647 72.8897 112.738 73.2201 112.828 73.4603C112.918 73.7607 112.738 73.9409 112.226 74.031C111.654 74.1511 111.444 74.031 111.323 73.5504Z" fill="white"/>
<path d="M121.373 73.2194C121.373 72.6788 121.584 72.4385 122.156 72.2883C122.998 72.0781 123.48 72.4986 123.48 73.4596C123.48 73.8501 123.239 73.9702 122.426 73.9702C121.494 73.9702 121.373 73.8801 121.373 73.2194Z" fill="white"/>
<path d="M110.421 73.2195C110.33 72.9793 110.39 72.769 110.541 72.769C110.722 72.769 110.842 72.9793 110.842 73.2195C110.842 73.4598 110.782 73.67 110.722 73.67C110.661 73.67 110.541 73.4598 110.421 73.2195Z" fill="white"/>
<path d="M113.46 73.4608C113.038 73.0704 113.279 72.2295 113.821 72.0793C114.152 71.9892 114.483 72.0192 114.573 72.1093C114.934 72.4397 114.723 73.3107 114.272 73.4909C113.7 73.7011 113.7 73.7011 113.46 73.4608Z" fill="white"/>
<path d="M124.202 73.2515C123.871 72.3805 124.232 71.7198 125.074 71.6297C125.706 71.5396 125.887 71.6597 125.887 72.1403C125.887 73.1314 125.556 73.672 124.954 73.672C124.623 73.672 124.292 73.4918 124.202 73.2515Z" fill="white"/>
<path d="M115.566 72.8599C115.205 72.5295 115.325 71.9289 115.837 71.7487C116.409 71.5385 117.612 72.1391 117.281 72.4695C116.86 72.8299 115.777 73.1002 115.566 72.8599Z" fill="white"/>
<path d="M118.184 72.11C117.913 71.6895 118.876 70.9688 119.658 70.9688C120.019 70.9688 120.17 71.1489 120.11 71.4793C119.989 72.08 118.455 72.5605 118.184 72.11Z" fill="white"/>
<path d="M109.939 71.8984C109.939 71.7482 109.849 71.4178 109.759 71.1475C109.668 70.8772 109.698 70.667 109.879 70.667C110.27 70.667 110.571 71.8083 110.21 72.0485C110.059 72.1386 109.939 72.0786 109.939 71.8984Z" fill="white"/>
<path d="M110.751 71.2086C110.571 70.5479 110.932 70.0674 111.624 70.0674C112.015 70.0674 112.406 71.2387 112.166 71.6291C111.835 72.1397 110.902 71.8393 110.751 71.2086Z" fill="white"/>
<path d="M112.858 71.3579C112.407 70.9074 112.677 69.8262 113.279 69.676C113.731 69.5559 113.971 69.7061 114.212 70.2466C114.393 70.6371 114.483 71.0275 114.423 71.0876C114.122 71.3579 113.038 71.5681 112.858 71.3579Z" fill="white"/>
<path d="M120.982 71.358C120.591 70.9676 120.772 70.7273 121.674 70.397C122.427 70.1567 122.637 70.1867 122.788 70.5471C123.058 71.2679 121.554 71.9587 120.982 71.358Z" fill="white"/>
<path d="M123.63 70.6666C123.329 70.1861 123.75 69.7656 124.533 69.7656C125.466 69.7656 125.736 70.5465 124.894 70.7867C123.991 71.027 123.841 70.997 123.63 70.6666Z" fill="white"/>
<path d="M126.188 69.9477C126.188 69.4972 126.729 69.0167 126.97 69.257C127.181 69.4672 126.759 70.3682 126.459 70.3682C126.308 70.3682 126.188 70.188 126.188 69.9477Z" fill="white"/>
<path d="M109.548 69.5563C109.428 69.4662 109.337 69.0758 109.367 68.7454C109.367 68.1748 109.397 68.1748 109.668 68.8355C109.969 69.5563 109.909 69.9167 109.548 69.5563Z" fill="white"/>
<path d="M110.12 69.1066C109.849 68.0554 109.879 67.9653 110.661 67.9653C111.534 67.9653 112.075 69.0766 111.413 69.497C110.721 69.9175 110.33 69.7974 110.12 69.1066Z" fill="white"/>
<path d="M120.471 69.7075C120.471 69.6174 120.621 69.1369 120.802 68.5963C121.223 67.395 122.156 67.3349 122.366 68.5062C122.457 68.9567 122.487 69.3471 122.457 69.3772C122.306 69.5574 120.471 69.8277 120.471 69.7075Z" fill="white"/>
<path d="M112.256 68.9568C112.136 68.8667 112.045 68.5063 112.045 68.1759C112.045 67.6954 112.136 67.6654 112.497 67.9657C112.737 68.1759 112.948 68.5363 112.948 68.7465C112.948 69.197 112.587 69.3172 112.256 68.9568Z" fill="white"/>
<path d="M123.089 68.3554C122.908 67.4244 123.299 67.0039 124.232 67.1241C124.683 67.1841 124.834 67.4544 124.834 68.1152C124.834 68.866 124.713 69.0462 124.051 69.1063C123.389 69.1964 123.239 69.0462 123.089 68.3554Z" fill="white"/>
<path d="M126.037 68.4746C125.646 67.2733 125.767 66.9129 126.579 66.8228C127.301 66.7327 127.392 66.8228 127.392 67.6037C127.392 68.2644 127.211 68.5347 126.76 68.6548C126.429 68.7449 126.098 68.6548 126.037 68.4746Z" fill="white"/>
<path d="M109.096 66.7641C109.096 66.1935 109.157 65.9533 109.247 66.2536C109.307 66.5239 109.307 67.0044 109.247 67.3047C109.157 67.575 109.096 67.3348 109.096 66.7641Z" fill="white"/>
<path d="M109.849 67.154C109.458 66.7936 109.638 65.6223 110.12 65.4421C110.812 65.1718 111.143 65.5022 111.143 66.4933C111.143 67.1239 110.992 67.3642 110.601 67.3642C110.3 67.3642 109.939 67.2741 109.849 67.154Z" fill="white"/>
<path d="M111.654 66.3437C111.534 65.8932 111.474 65.4126 111.594 65.3225C111.895 65.0222 112.075 65.5027 111.985 66.3737L111.895 67.2146L111.654 66.3437Z" fill="white"/>
<path d="M121.373 66.1321C121.373 65.8017 121.524 65.6215 121.674 65.7116C121.855 65.8017 121.975 66.102 121.975 66.3423C121.975 66.5826 121.855 66.7627 121.674 66.7627C121.524 66.7627 121.373 66.4925 121.373 66.1321Z" fill="white"/>
<path d="M122.727 66.5226C122.306 66.0721 122.637 65.2612 123.329 65.081C124.202 64.8708 124.232 64.8708 124.503 65.7418C124.683 66.2824 124.563 66.4025 123.781 66.5226C123.299 66.6127 122.818 66.5827 122.727 66.5226Z" fill="white"/>
<path d="M125.496 65.9518C125.165 65.6515 125.255 64.6604 125.586 64.6604C125.766 64.6604 125.887 64.5403 125.887 64.3601C125.887 64.2099 125.706 64.0597 125.466 64.0597C124.954 64.0597 124.533 62.5881 124.954 62.1677C125.496 61.6271 126.097 62.1977 126.459 63.6693C126.669 64.4502 126.88 65.3512 126.97 65.6515C127.09 66.0419 126.97 66.1621 126.398 66.1621C126.007 66.1621 125.586 66.072 125.496 65.9518Z" fill="white"/>
<path d="M127.121 64.3612C126.91 63.4602 126.368 61.6582 125.977 60.3368C125.375 58.4147 125.315 57.9341 125.646 57.7239C125.857 57.5737 126.128 57.4536 126.218 57.4536C126.549 57.4536 127.752 63.6104 127.632 64.8117L127.542 66.013L127.121 64.3612Z" fill="white"/>
<path d="M108.796 64.2108C108.796 63.7303 108.856 63.5501 108.946 63.8504C109.006 64.1207 109.006 64.5412 108.946 64.7514C108.856 64.9316 108.796 64.7214 108.796 64.2108Z" fill="white"/>
<path d="M109.398 64.1501C109.518 63.099 110.391 62.8587 110.631 63.8198C110.842 64.6006 110.902 64.5105 109.999 64.8109C109.367 64.9911 109.307 64.931 109.398 64.1501Z" fill="white"/>
<path d="M122.095 63.8799C121.855 63.0089 122.366 62.4983 123.329 62.6185C124.051 62.7086 124.322 64 123.72 64.3904C122.968 64.871 122.276 64.6607 122.095 63.8799Z" fill="white"/>
<path d="M111.143 63.6393C111.143 63.1287 111.293 62.8584 111.624 62.8584C111.925 62.8584 112.046 63.0686 111.985 63.5191C111.835 64.4802 111.143 64.5703 111.143 63.6393Z" fill="white"/>
<path d="M108.465 62.3785C108.465 62.0481 108.555 61.958 108.645 62.1982C108.735 62.4085 108.705 62.6788 108.615 62.7689C108.525 62.889 108.435 62.7088 108.465 62.3785Z" fill="white"/>
<path d="M109.036 62.2884C109.036 61.8379 109.217 61.6577 109.668 61.6577C110.09 61.6577 110.24 61.8079 110.18 62.1683C110.029 62.9491 109.036 63.0392 109.036 62.2884Z" fill="white"/>
<path d="M110.691 62.0183C110.481 61.4777 110.481 61.4777 111.383 61.2374C111.925 61.0572 112.045 61.1473 112.045 61.5978C112.045 62.3186 110.962 62.679 110.691 62.0183Z" fill="white"/>
<path d="M121.584 61.5978C121.373 60.847 121.765 60.4565 122.818 60.4565C123.329 60.4565 123.48 60.6367 123.48 61.2074C123.48 61.6579 123.299 61.9582 123.058 61.9582C122.818 61.9582 122.427 62.0483 122.186 62.1384C121.915 62.2285 121.704 62.0483 121.584 61.5978Z" fill="white"/>
<path d="M124.202 60.9066C123.961 60.306 124.322 59.8555 125.014 59.8555C125.435 59.8555 125.586 60.0657 125.586 60.6063C125.586 61.1469 125.435 61.3571 124.984 61.3571C124.653 61.3571 124.292 61.1469 124.202 60.9066Z" fill="white"/>
<path d="M108.736 60.4864C108.736 59.8557 109.428 59.1349 109.729 59.4653C109.849 59.5554 109.939 59.9759 109.939 60.3663C109.939 60.8468 109.759 61.0571 109.337 61.0571C108.946 61.0571 108.736 60.8468 108.736 60.4864Z" fill="white"/>
<path d="M110.39 60.1266C110.15 59.3758 110.421 59.0454 111.444 58.8952C112.376 58.7751 112.677 59.7662 111.865 60.3669C111.082 60.9375 110.601 60.8474 110.39 60.1266Z" fill="white"/>
<path d="M121.283 59.9455C121.072 59.7653 120.982 58.6541 121.163 58.6541C121.193 58.6541 121.644 58.534 122.186 58.3838C123.088 58.1135 123.149 58.1435 123.119 58.9544C123.088 59.5551 122.908 59.8554 122.457 59.9755C121.644 60.1858 121.524 60.1858 121.283 59.9455Z" fill="white"/>
<path d="M120.17 59.2543C120.17 59.0441 120.26 58.954 120.38 59.0441C120.471 59.1642 120.471 59.3444 120.38 59.4645C120.26 59.5546 120.17 59.4645 120.17 59.2543Z" fill="white"/>
<path d="M123.54 58.7753C123.63 58.2647 124.563 57.5139 124.773 57.7542C124.864 57.8443 125.014 58.2047 125.104 58.5951C125.315 59.1958 125.225 59.2558 124.382 59.2558C123.66 59.2558 123.449 59.1357 123.54 58.7753Z" fill="white"/>
<path d="M109.036 58.7441C109.036 58.5939 109.187 58.2936 109.337 58.0533C109.578 57.6929 109.638 57.7229 109.638 58.2936C109.638 58.654 109.518 58.9543 109.337 58.9543C109.187 58.9543 109.036 58.8642 109.036 58.7441Z" fill="white"/>
<path d="M109.939 58.0837C109.939 57.2428 110.571 56.9725 111.052 57.6032C111.353 58.0537 111.353 58.2039 111.052 58.4141C110.42 58.8045 109.939 58.6844 109.939 58.0837Z" fill="white"/>
<path d="M119.087 57.6933C118.545 57.0926 118.545 57.0626 119.056 57.2428C119.357 57.3629 119.749 57.453 119.899 57.453C120.049 57.453 120.17 57.6632 120.17 57.9035C120.17 58.5342 119.749 58.4741 119.087 57.6933Z" fill="white"/>
<path d="M112.617 57.6637C111.323 56.6726 111.143 54.4502 112.346 54.4502C113.159 54.4502 113.911 55.7116 113.791 56.8829C113.7 57.964 113.339 58.2043 112.617 57.6637Z" fill="white"/>
<path d="M120.862 57.8439C120.982 57.7538 121.163 57.7538 121.283 57.8439C121.373 57.9641 121.283 58.0542 121.072 58.0542C120.862 58.0542 120.771 57.9641 120.862 57.8439Z" fill="white"/>
<path d="M125.405 56.672C125.496 56.4017 125.586 56.1314 125.586 56.0713C125.586 56.0112 125.736 55.9512 125.887 55.9512C126.067 55.9512 126.188 56.2215 126.188 56.5518C126.188 56.9122 125.977 57.1525 125.706 57.1525C125.375 57.1525 125.285 57.0023 125.405 56.672Z" fill="white"/>
<path d="M109.638 56.582C109.638 55.8912 110.27 54.75 110.631 54.75C111.263 54.75 110.812 56.6721 110.15 56.7922C109.879 56.8523 109.638 56.7622 109.638 56.582Z" fill="white"/>
<path d="M116.409 56.2527L115.506 56.0425L116.318 55.8322C117.161 55.592 117.763 55.7722 117.763 56.2827C117.763 56.5831 117.733 56.5831 116.409 56.2527Z" fill="white"/>
<path d="M115.355 54.8105C115.355 53.5791 116.047 53.3989 116.679 54.4801C117.1 55.2009 117.131 55.3511 116.739 55.3511C116.499 55.3511 116.107 55.4412 115.837 55.5313C115.476 55.6815 115.355 55.5013 115.355 54.8105Z" fill="white"/>
<path d="M120.591 55.2304C119.237 54.6298 118.364 53.038 118.364 51.1459C118.364 49.7944 118.485 49.4641 119.297 48.7132C119.809 48.2327 120.32 47.8423 120.471 47.8423C121.133 47.8423 123.57 50.1548 124.382 51.5964L125.315 53.2482L124.322 54.2994C123.179 55.5007 121.915 55.8311 120.591 55.2304Z" fill="white"/>
<path d="M114.302 54.4493C114.212 54.2991 114.272 54.1489 114.423 54.1489C114.603 54.1489 114.754 54.2991 114.754 54.4493C114.754 54.6295 114.693 54.7496 114.633 54.7496C114.543 54.7496 114.392 54.6295 114.302 54.4493Z" fill="white"/>
<path d="M110.36 53.9703C110.451 53.7 110.541 53.4297 110.541 53.3696C110.541 53.3096 110.812 53.2495 111.143 53.2495C111.895 53.2495 111.925 53.73 111.173 54.1505C110.36 54.571 110.15 54.5409 110.36 53.9703Z" fill="white"/>
<path d="M112.737 53.6093C112.045 53.5192 111.835 53.1288 112.286 52.8585C112.406 52.7684 112.948 52.6182 113.49 52.4981C114.302 52.3179 114.453 52.378 114.453 52.8885C114.453 53.5192 113.821 53.7895 112.737 53.6093Z" fill="white"/>
<path d="M115.054 52.5881C115.054 52.2277 115.085 52.0175 115.145 52.0776C115.175 52.1376 115.416 52.438 115.626 52.7383C115.987 53.1588 115.957 53.2489 115.536 53.2489C115.235 53.2489 115.054 53.0086 115.054 52.5881Z" fill="white"/>
<path d="M110.842 52.3781C110.842 52.1979 110.992 51.9877 111.143 51.8976C111.323 51.8075 111.444 51.9276 111.444 52.1679C111.444 52.4382 111.323 52.6484 111.143 52.6484C110.992 52.6484 110.842 52.5283 110.842 52.3781Z" fill="white"/>
<path d="M111.955 51.9276C111.714 51.327 113.851 50.6663 114.212 51.2369C114.483 51.7174 114.212 51.9276 113.068 52.1679C112.376 52.3181 112.076 52.258 111.955 51.9276Z" fill="white"/>
<path d="M114.783 50.9668C114.783 50.6365 114.874 50.5464 114.964 50.7866C115.054 50.9968 115.024 51.2671 114.934 51.3572C114.844 51.4774 114.753 51.2972 114.783 50.9668Z" fill="white"/>
<path d="M112.226 50.4856C112.587 49.8248 113.64 48.7437 113.911 48.7437C114.212 48.7437 114.242 50.1552 113.941 50.3354C113.791 50.3955 113.309 50.5456 112.858 50.6658C112.196 50.8159 112.045 50.7859 112.226 50.4856Z" fill="white"/>
<path d="M114.633 49.7953C114.302 48.8943 114.453 48.5039 115.175 48.3838C115.927 48.2336 115.927 48.2336 115.446 49.1646C114.844 50.366 114.874 50.366 114.633 49.7953Z" fill="white"/>
<path d="M114.453 47.9923C114.453 47.9322 115.054 47.5118 115.807 47.0913C116.709 46.5507 117.341 46.3705 117.793 46.4907C118.334 46.6708 118.184 46.791 116.86 47.4217C115.385 48.0824 114.453 48.3227 114.453 47.9923Z" fill="white"/>
<path d="M131.153 21.3838C130.34 20.2125 128.625 18.3205 127.391 17.1792C126.158 16.038 125.345 15.1069 125.586 15.1069C126.248 15.1069 131.303 16.4885 132.567 17.029C133.62 17.4795 133.65 17.5396 133.379 18.4706C133.229 19.0112 133.108 20.3627 133.108 21.4739C133.108 22.6152 133.018 23.5162 132.898 23.5162C132.747 23.5162 131.995 22.5551 131.153 21.3838Z" fill="white"/>
<path d="M69.9192 112.353C68.6855 111.722 68.4147 111.362 66.85 108.269C64.5933 103.884 64.5331 102.863 66.6695 105.355C67.512 106.347 69.4678 108.389 71.0024 109.89C73.6203 112.413 73.7406 112.593 72.868 112.473C72.2361 112.383 71.9954 112.443 72.1459 112.684C72.5069 113.224 71.3635 113.074 69.9192 112.353Z" fill="white"/>
<path fill-rule="evenodd" clip-rule="evenodd" d="M183.389 113.105L185.556 114.066C186.005 114.273 190.961 116.649 196.913 119.504C206.511 124.107 218.701 129.953 218.775 129.953C218.896 129.953 219.46 128.65 219.588 127.13C219.889 123.856 221.002 119.412 222.296 116.318C222.898 114.937 223.379 113.21 223.379 113.06C223.379 112.991 222.89 112.794 222.089 112.472C221.136 112.088 219.741 111.527 218.203 110.792C210.621 107.158 195.786 99.7399 193.951 98.6287C192.145 97.5775 191.784 97.4874 191.784 98.1782C191.784 99.0792 189.949 103.254 188.535 105.506C187.782 106.738 186.308 108.96 185.255 110.432L183.389 113.105ZM218.264 124.547C219.127 125.046 217.632 125.778 217.271 125.898C215.145 126.079 212.642 125.68 210.591 124.487C209.518 123.728 201.075 119.046 195.474 115.94C192.914 114.52 190.947 113.43 190.551 113.194C189.287 112.444 188.083 111.633 187.873 111.393C187.241 110.582 187.843 110.221 189.618 110.371C190.685 110.462 216.4 123.469 218.264 124.547Z" fill="white"/>
</svg>
