<svg width="196" height="196" viewBox="0 0 196 196" fill="none" xmlns="http://www.w3.org/2000/svg">
<path fill-rule="evenodd" clip-rule="evenodd" d="M-27.95 111.198C10.9031 78.6074 24.4809 78.1979 43.051 52.1442C63.0516 24.0836 82.9475 11.8404 132.905 3.84221C177.298 -24.8606 195.463 -4.23665 250.819 -7.85733C320.515 -12.416 234.175 3.84221 269.045 3.84221C271.338 3.84221 325.638 -18.2402 333.585 42.2117C337.588 72.6557 269.045 119.081 269.045 119.081C269.045 119.081 240.518 145.252 238.951 158.175C232.381 212.373 246.082 274.448 92.5405 303.025C72.683 306.721 39.7098 293.353 21.5186 268.657C7.26704 249.31 -49.9016 263.037 -55.2381 199.43C-102.924 150.953 -66.8032 143.789 -27.95 111.198Z" fill="#707EFF"/>
<path d="M74.4659 68.2268C74.9837 67.9175 75.6512 68.0917 75.9567 68.6158L77.1891 70.72C82.0826 79.0297 84.04 81.7281 86.1203 82.948C87.8301 83.9507 89.5979 83.6395 92.8341 81.7186L93.2665 81.4559C95.3018 80.1719 104.615 73.6968 108.216 71.3717C108.723 71.0445 109.396 71.195 109.719 71.7081C110.043 72.2211 109.894 72.9022 109.387 73.2295L108.833 73.5905C104.82 76.2233 95.8058 82.4892 94.21 83.4549C90.292 85.826 87.7518 86.3588 85.2064 84.9557L85.0288 84.8547C82.294 83.251 80.1669 80.1745 74.0815 69.7356C73.776 69.2115 73.9481 68.536 74.4659 68.2268Z" fill="white"/>
<path d="M92.0961 80.9635C92.6921 80.8827 93.2398 81.3062 93.3196 81.9093C93.6903 84.7121 94.5784 87.5225 95.9883 90.3437C96.2596 90.8867 96.0447 91.5495 95.5082 91.8242C94.9717 92.0988 94.3168 91.8813 94.0454 91.3383C92.5283 88.3025 91.5656 85.256 91.1616 82.2017C91.0818 81.5986 91.5002 81.0442 92.0961 80.9635Z" fill="white"/>
<path fill-rule="evenodd" clip-rule="evenodd" d="M56.9395 9.25912L56.276 9.13756C52.5707 8.44035 49.7297 7.58439 44.4225 5.72208C43.8139 5.50851 43.4916 4.83602 43.7026 4.22002C43.9136 3.60402 44.578 3.27779 45.1867 3.49136L46.5093 3.95208C51.1649 5.56011 53.7771 6.29733 57.3446 6.934C69.349 9.07633 78.3371 2.83861 79.0725 -9.05773C79.1127 -9.70842 79.6665 -10.2029 80.3094 -10.1622C80.9523 -10.1215 81.4409 -9.56099 81.4007 -8.91029C80.5736 4.46891 70.2487 11.6343 56.9395 9.25912Z" fill="#00160A"/>
<path fill-rule="evenodd" clip-rule="evenodd" d="M86.9348 22.001L87.6046 23.5075L89.1315 23.951C89.214 23.975 89.2618 24.0622 89.2381 24.1457C89.2308 24.1715 89.2171 24.195 89.1983 24.2139L88.0382 25.3827L88.1032 27.0648C88.1066 27.1517 88.0397 27.2248 87.9539 27.2282C87.9249 27.2294 87.8961 27.2223 87.8709 27.2077L86.5576 26.4507C86.5165 26.4271 86.4671 26.4236 86.4232 26.4412L85.0186 27.0059C84.9388 27.0379 84.8484 26.9985 84.8167 26.9177C84.8059 26.8903 84.803 26.8605 84.8081 26.8316L85.1038 25.175L84.1158 23.8542C84.0639 23.7848 84.0774 23.6861 84.1459 23.6337C84.167 23.6175 84.1918 23.607 84.2181 23.6033L85.791 23.3791L86.6615 21.9817C86.7073 21.9081 86.8033 21.8861 86.876 21.9325C86.9018 21.949 86.9223 21.9728 86.9348 22.001Z" fill="#00160A"/>
<path d="M96.1173 90.5855L96.7458 90.3541C102.685 88.1968 107.697 87.2449 108.97 88.5558C110.086 89.7054 111.081 91.7873 112.024 94.8409C112.203 95.4217 111.884 96.0397 111.31 96.2213C110.736 96.4028 110.125 96.0792 109.946 95.4984C109.13 92.8575 108.298 91.0802 107.511 90.2016L107.479 90.1672L107.451 90.1687C107.302 90.1379 107.078 90.1224 106.793 90.1279C106.166 90.1402 105.309 90.2521 104.285 90.4575C102.178 90.88 99.5151 91.6657 96.8708 92.653C92.4495 94.3037 88.7662 96.2431 86.7315 97.9951C85.9845 98.6383 84.6205 96.8467 85.933 95.8202C88.2945 93.9734 91.8762 92.1689 96.1173 90.5855Z" fill="white"/>
<path d="M93.1289 69.7693C93.1289 73.4443 96.969 77.4236 97.786 77.65C98.3659 77.8107 88.3751 84.3992 88.3751 84.3992C84.765 84.88 82.6451 81.7916 82.6451 77.1909C82.6451 76.5824 93.1289 69.1608 93.1289 69.7693Z" fill="white"/>
<path fill-rule="evenodd" clip-rule="evenodd" d="M81.3477 71.7031C82.6124 71.4543 83.4715 70.3879 83.2667 69.3212C83.0618 68.2546 81.8706 67.5916 80.6059 67.8404C79.3412 68.0892 78.4821 69.1556 78.6869 70.2222C78.8918 71.2889 80.0831 71.9519 81.3477 71.7031Z" fill="white"/>
<path d="M210.207 -51.4102C210.8 -51.5147 211.364 -51.1133 211.467 -50.5138C211.57 -49.9144 211.173 -49.3437 210.581 -49.2393C207.764 -48.7427 204.923 -47.017 201.994 -44.272C198.191 -40.7076 195.679 -35.7824 194.294 -29.2157C193.178 -23.925 194.208 -17.3142 197.125 -11.5026C200.443 -4.89068 206.314 -3.25658 213.159 -1.99119C220.186 -0.692158 222.128 -1.4944 228.768 -3.88354L229.379 -4.1082C230.287 -4.45618 234.53 -6.13638 235.55 -6.44861C237.696 -7.10569 239.161 -7.05072 240.223 -5.90547C240.634 -5.46175 240.612 -4.76449 240.174 -4.34808C239.763 -3.95771 239.132 -3.95277 238.715 -4.31929L238.635 -4.39754C238.322 -4.7354 237.674 -4.77453 236.371 -4.39625L236.18 -4.33936C235.199 -4.03904 230.597 -2.21128 230.002 -1.99119C222.83 0.65844 220.397 1.58697 212.768 0.176544C205.207 -1.22111 198.793 -3.31347 195.184 -10.5046C192.047 -16.7542 190.942 -23.8772 192.165 -29.6757C193.643 -36.6843 196.381 -42.0142 200.515 -45.8889C203.751 -48.9219 206.976 -50.8405 210.207 -51.4102Z" fill="white"/>
<path d="M148.963 35.1136C150.946 39.1657 154.024 48.5252 152.692 48.4802C148.994 48.3551 144.046 42.6027 140.585 34.8247L140.312 34.1991C137.291 27.1374 135.481 22.7008 137.582 21.851C139.756 20.9719 144.872 26.7503 148.963 35.1136Z" fill="white"/>
<path fill-rule="evenodd" clip-rule="evenodd" d="M137.583 21.7608C139.756 20.8817 144.947 26.3962 149.039 34.7594C151.021 38.8115 152.366 42.6987 152.717 45.4862C152.717 45.4862 146.022 31.2095 141.939 25.9804C140.37 23.9717 137.583 21.7608 137.583 21.7608Z" fill="#E7EAEE"/>
<path d="M136.442 57.7152C136.602 57.1285 137.201 56.7837 137.781 56.9451C138.36 57.1064 138.701 57.7129 138.542 58.2996C138.336 59.0544 135.453 61.034 129.161 64.9593L125.19 67.4192C117.35 72.2496 112.119 75.3406 111.465 75.3406C107.136 75.3406 103.235 71.2076 100.388 64.6864C97.9012 58.9924 96.6103 52.2147 97.1933 47.7731C97.3752 46.3868 101.939 42.7981 108.985 37.9902L109.994 37.3057C116.228 33.1026 121.556 29.9854 123.484 29.5918C124.073 29.4715 124.647 29.8574 124.766 30.4539C124.84 30.827 107.658 45.4858 105.979 55.2151C104.843 61.8027 109.139 73.0308 111.272 73.1324L111.465 73.137C111.291 73.137 111.347 73.0961 111.367 73.0845L111.564 72.9821C111.708 72.9053 111.88 72.8116 112.077 72.7017L112.983 72.1889C113.33 71.9902 113.716 71.7662 114.138 71.5194L115.219 70.8842C117.282 69.6654 119.855 68.1135 122.48 66.5059L124.977 64.9696C128.013 63.0921 130.756 61.361 132.818 60.0167L133.88 59.3183C134.538 58.8816 135.093 58.5037 135.538 58.1905L135.699 58.076C135.944 57.9012 136.148 57.7508 136.307 57.6274C136.307 57.6274 136.486 57.5555 136.442 57.7152Z" fill="white"/>
<path fill-rule="evenodd" clip-rule="evenodd" d="M138.601 35.7283C135.97 29.8164 134.808 24.3987 135.689 21.1184C134.097 21.6303 132.107 22.5504 130.132 23.6973C127.506 25.2218 125.423 26.9258 125.374 27.2957C124.867 31.1625 126.815 38.6851 130.051 45.3916C133.514 52.5653 137.633 57.1729 140.822 57.1729C141.127 57.1729 142 56.9906 142.876 56.681C144.122 56.2405 145.289 55.5989 146.245 54.7583C146.72 54.3404 147.212 53.8679 147.726 53.3407L148.345 52.693C148.71 52.3021 149.087 51.8812 149.675 51.2145L150.495 50.2885L150.529 50.2499C146.428 48.7327 142.138 43.3853 138.928 36.4508L138.601 35.7283ZM123.216 27.0055C123.555 24.4258 133.098 18.8495 137.452 18.4898C137.634 18.3744 137.828 18.2745 138.036 18.1905C141.807 16.6654 147.553 23.1985 152.162 32.3909L152.478 33.029C154.559 37.2819 155.978 41.3854 156.365 44.4548C156.827 48.1229 155.778 50.5547 153.027 50.6793C152.953 50.9681 152.766 51.2095 152.519 51.355L152.477 51.377L152.369 51.4856C152.262 51.5978 152.135 51.7369 151.938 51.9577L150.586 53.4858C150.095 54.0333 149.747 54.4047 149.276 54.8882C148.725 55.4534 148.193 55.9639 147.673 56.4218C145.565 58.2747 142.449 59.3765 140.822 59.3765C139.958 59.3765 139.085 59.1731 138.21 58.7851C137.275 59.7718 134.399 61.6911 129.161 64.9592L125.19 67.4191C117.35 72.2495 112.119 75.3405 111.465 75.3405C109.982 75.3405 108.551 74.8559 107.194 73.9569C107.181 73.9661 107.168 73.975 107.154 73.9836L106.6 74.3446C104.671 75.6101 101.587 77.7148 98.7268 79.6669L98.5478 79.7891C98.918 82.4647 99.7597 85.1474 101.077 87.8398C105.753 86.3762 109.456 85.8818 110.525 86.9824C111.641 88.132 112.636 90.2139 113.58 93.2675C113.759 93.8483 113.439 94.4663 112.865 94.6478C112.291 94.8294 111.681 94.5057 111.501 93.9249C110.686 91.2841 109.854 89.5068 109.067 88.6281L109.034 88.5938L109.006 88.5953C108.857 88.5644 108.634 88.5489 108.349 88.5545C107.722 88.5667 106.864 88.6787 105.84 88.8841C103.733 89.3065 101.071 90.0923 98.4263 91.0795C92.3817 93.3363 87.7165 96.1328 86.7577 98.252C86.4771 98.8721 86.5129 99.7799 86.8485 101.17L86.9108 101.42C86.9613 101.617 87.0138 101.812 87.0825 102.059L87.4758 103.467C87.492 103.529 87.5082 103.592 87.5286 103.671C87.6797 104.26 87.3304 104.862 86.7484 105.015C86.1665 105.167 85.5723 104.814 85.4212 104.225L85.228 103.512L84.9059 102.362C84.8691 102.226 84.836 102.101 84.8033 101.973C84.2933 99.9826 84.2112 98.5876 84.7782 97.3345C85.7393 95.2101 88.7459 93.0095 92.9326 91.0084L92.0224 88.6288L91.7975 88.0267C91.4526 87.0876 91.051 85.8141 90.805 84.8852C87.534 86.6696 85.2559 86.9679 82.9736 85.7099L82.796 85.6088C82.3442 85.3439 81.909 85.0388 81.4698 84.6669L68.7121 92.5095C68.8308 92.7685 68.9507 93.0295 69.0719 93.2928C69.6443 94.5354 68.6346 95.4152 67.0861 96.0997L66.919 96.1717C65.5879 96.7297 64.3867 96.8576 63.6717 96.0632C60.7047 92.7672 57.5639 84.8832 59.2536 83.08C59.578 82.7337 60.4345 82.2182 62.0544 81.3583L62.1917 81.2861C62.2221 81.2651 62.2539 81.2455 62.287 81.2273L74.2136 74.6874C74.2411 74.6724 74.2689 74.6586 74.2971 74.6462C73.5572 73.4082 72.746 72.029 71.8487 70.4897C71.5795 70.0279 71.6811 69.4486 72.0632 69.1059C74.5142 66.7552 77.8521 64.3042 82.0376 61.6653L82.5457 61.3466C84.3594 60.215 88.037 58.092 91.162 56.2881L91.1621 56.288L91.1623 56.2879L91.1628 56.2875L91.1641 56.2868L91.1642 56.2868C93.5885 54.8873 95.6798 53.6801 96.3096 53.277L96.462 53.1746C96.6897 53.0059 96.9605 52.94 97.2206 52.9682C97.0133 51.0565 96.9953 49.2802 97.1932 47.7729C97.3752 46.3866 101.938 42.798 108.985 37.9901L109.994 37.3055C115.9 33.3233 120.993 30.3158 123.152 29.676C123.094 28.6897 123.113 27.7912 123.216 27.0055ZM123.39 31.9103C121.276 32.6925 115.98 35.8745 110.202 39.8173L109.276 40.4525C106.676 42.2482 104.274 43.9991 102.459 45.4261L101.955 45.8263C101.146 46.4757 100.49 47.0353 100.015 47.4841C99.7769 47.7092 99.589 47.9018 99.4565 48.0552L99.3638 48.1657C99.3437 48.1869 99.3383 48.1788 99.3458 48.1094L99.3515 48.0631C99.3491 48.0809 99.3472 48.0962 99.3458 48.1094L99.317 48.3459C98.2703 57.6442 104.913 72.8295 111.272 73.1323L111.422 73.1358C111.434 73.1365 111.448 73.1369 111.465 73.1369L111.422 73.1358C111.301 73.1294 111.349 73.0948 111.367 73.0843L111.563 72.9819C111.708 72.9052 111.88 72.8115 112.077 72.7016L112.983 72.1888C113.33 71.99 113.716 71.7661 114.138 71.5193L115.219 70.8841C117.281 69.6653 119.855 68.1134 122.48 66.5058L124.977 64.9694C128.013 63.092 130.756 61.3609 132.818 60.0166L133.88 59.3182C134.538 58.8815 135.093 58.5036 135.538 58.1903L135.699 58.0759C135.934 57.9081 136.131 57.7628 136.287 57.6422C133.483 55.5595 130.722 51.7134 128.271 46.7211L128.095 46.3588C125.733 41.464 124.024 36.1633 123.39 31.9103ZM97.5211 55.1045C96.7353 55.605 94.4184 56.9441 91.8403 58.434L91.84 58.4342C88.785 60.1997 85.3634 62.1772 83.6883 63.2224C79.7316 65.6913 76.5407 67.98 74.1719 70.1349L74.9562 71.4741C78.3903 77.3055 80.3785 80.3736 81.9778 82.1065C81.4459 80.8309 81.1703 79.2115 81.1703 77.1803C81.1703 77.0871 81.1817 76.9965 81.2033 76.91C81.0981 76.4882 81.2468 76.0251 81.6146 75.7518L82.3561 75.194C82.8008 74.8538 83.5326 74.2878 84.3644 73.6444L84.3646 73.6443C86.1855 72.236 88.4859 70.4567 89.3067 69.8616C91.8884 67.9899 93.7912 66.9397 95.5239 66.5752C96.3515 66.4011 96.9944 66.8967 97.1809 67.6641L97.2114 67.8037C97.2547 68.0321 97.2628 68.2567 97.2618 68.7474L97.2612 68.9028C97.2522 70.7363 97.4318 71.7944 98.1989 73.0164C98.7239 73.8529 99.4953 74.616 100.57 75.2994C100.682 75.3708 100.777 75.4595 100.854 75.56C102.588 74.3811 104.213 73.2848 105.411 72.4986C103.523 70.6487 101.822 67.9704 100.388 64.6863C99.0523 61.6284 98.0618 58.2579 97.5211 55.1045ZM154.205 44.7336C153.854 41.946 152.51 38.0589 150.527 34.0067C146.436 25.6435 141.017 19.3577 138.844 20.2368C136.743 21.0866 137.291 27.136 140.313 34.1978L140.586 34.8234C144.047 42.6013 148.994 48.3538 152.693 48.4789C154.024 48.5239 154.544 47.4234 154.205 44.7336ZM75.4218 76.5089C77.3097 79.5981 78.6891 81.6394 79.8909 83.0593L67.7963 90.4943C66.5577 87.7459 65.4497 85.1877 64.3745 82.5889L75.2508 76.6249C75.3124 76.5912 75.3695 76.5522 75.4218 76.5089ZM98.9889 88.5348C97.8153 86.078 97.0045 83.6143 96.5591 81.1454C94.9962 82.2099 93.6362 83.1314 92.7619 83.7064C92.9113 84.4658 93.4682 86.2713 93.948 87.5549L94.8413 89.8825L94.9259 90.1085C95.8042 89.7332 96.7219 89.3671 97.6728 89.0121L98.3013 88.7806C98.532 88.6968 98.7612 88.6149 98.9889 88.5348ZM98.9498 76.8567C97.8353 76.0744 96.9804 75.1846 96.3612 74.1981C95.3587 72.6012 95.0955 71.2376 95.084 69.1773L95.0835 68.9929L94.9296 69.0512C93.8257 69.4849 92.5085 70.2693 90.8535 71.4522L90.5745 71.653C89.7865 72.2243 87.5441 73.9587 85.7353 75.3577L85.7352 75.3578L85.7339 75.3587L85.7307 75.3613L85.7278 75.3635C84.7252 76.1389 83.8568 76.8106 83.4447 77.1227L83.3475 77.1955C83.35 80.86 84.2539 82.5416 85.935 83.3574L86.0695 83.4201C86.4703 83.5995 86.7562 83.6898 87.5733 83.9162C87.5823 83.9187 87.5912 83.9213 87.6001 83.924L87.623 83.9313C88.4705 83.6427 89.4416 83.1611 90.6013 82.4727L91.0337 82.21C91.9921 81.6054 94.5646 79.8495 97.3945 77.918C97.9072 77.568 98.4283 77.2123 98.9498 76.8567ZM62.4504 83.6428L62.6173 84.0448C63.7735 86.8195 64.975 89.5672 66.3386 92.564L66.8688 93.7267C66.695 93.8449 66.4664 93.9704 66.2151 94.0815C65.8542 94.241 65.4878 94.353 65.2123 94.3905L65.1245 94.3994L64.992 94.2386C63.9614 92.9545 62.7654 90.7727 61.9011 88.6031C61.4408 87.4476 61.1129 86.3876 60.9651 85.5732C60.9049 85.2415 60.877 84.9628 60.8794 84.7514L60.8858 84.612C60.8879 84.5782 60.888 84.5606 60.8797 84.558L60.9123 84.5358C61.0963 84.4073 61.5665 84.1289 62.2649 83.7447L62.4504 83.6428ZM77.4669 81.2145C77.0459 80.7801 76.3566 80.7734 75.9274 81.1995C75.1725 81.949 74.1145 82.647 72.2667 83.6854L70.3863 84.7415C69.8895 85.028 69.4826 85.275 69.1142 85.5169C68.8064 85.719 68.5312 85.9141 68.284 86.1075C67.8083 86.4795 67.7206 87.1715 68.0883 87.653C68.4559 88.1345 69.1396 88.2232 69.6153 87.8511C69.8117 87.6976 70.0386 87.5366 70.2991 87.3656C70.5396 87.2077 70.8039 87.044 71.1098 86.863L71.7092 86.5158L73.6195 85.4447C75.4547 84.4021 76.5605 83.6577 77.4521 82.7726C77.8813 82.3465 77.8879 81.6489 77.4669 81.2145Z" fill="#00160A"/>
<path d="M53.1163 193.103C58.5602 223.822 78.9637 246.915 105 252.36C109.779 253.359 118.054 253.491 126.624 252.368C137.665 250.922 148.41 247.605 157.86 242.228C183.82 228.106 203.519 199.287 206.072 174.058C208.315 151.897 199.95 131.424 184.807 116.819C184.807 116.819 137.238 140.467 113.887 153.908C93.5673 165.604 53.1163 193.103 53.1163 193.103Z" fill="white"/>
<path d="M163.899 101.496C154.141 96.6234 141.917 92.7745 129.929 92.1542C85.9642 89.8791 51.3864 125.426 51.0259 171.276C51.0259 171.276 100.095 139.643 125.588 124.38C138.271 116.787 163.899 101.496 163.899 101.496Z" fill="white"/>
<path fill-rule="evenodd" clip-rule="evenodd" d="M254.329 78.1288C254.181 85.7894 246.172 98.5395 233.297 112.968C223.971 123.419 213.119 133.522 204.02 140.33L203.453 140.75L203.829 142.441C206.042 152.257 208.931 162.927 207.839 173.687C205.19 199.803 185.007 229.268 158.335 243.744C148.608 249.268 137.55 252.674 126.208 254.157L125.127 254.292C116.67 255.3 108.577 255.133 103.631 254.101C84.4347 250.095 68.1826 236.514 58.3567 216.857C58.3237 216.791 58.2978 216.723 58.2789 216.655C56.9853 217.401 55.2449 218.236 54.4501 218.509L52.2725 219.254C28.8043 227.243 5.53841 233.927 -3.96605 229.755C-7.58429 228.167 -8.82097 225.113 -7.30781 221.01C-5.83725 217.022 -1.75987 211.884 5.08096 205.489L5.45683 205.139C11.939 199.125 26.3342 188.135 48.6423 172.17L48.648 171.877C49.7364 124.571 86.0428 88.5073 131.679 91.4512C145.637 92.3516 156.754 97.3721 162.306 100.455L164.748 99.1289C187.648 86.7354 206.023 78.0237 220.043 72.8094C243.099 64.2343 254.501 68.2435 254.329 78.1288ZM220.794 77.89C195.013 87.4786 154.269 109.044 97.5413 143.733L95.8174 144.788C51.6448 171.852 22.3947 192.413 6.92819 206.763L6.16592 207.475L5.44312 208.161C-6.1672 219.263 -8.22513 225.483 -3.09968 227.733C5.67431 231.584 29.2366 225.091 52.3112 217.431L54.4503 216.718C56.508 216.028 57.8727 215.631 58.7173 215.449C58.754 215.422 58.7944 215.398 58.8367 215.376C59.1254 215.228 59.4484 215.223 59.7274 215.334C59.7879 215.346 59.8272 215.365 59.8479 215.391C60.0359 215.494 60.1958 215.654 60.2995 215.862C69.8382 234.943 85.556 246.572 104.071 250.435C108.877 251.438 116.986 251.585 125.423 250.529L125.929 250.464C137.011 249.015 147.803 247.197 157.288 241.812C183.352 227.665 203.1 198.836 205.674 173.461C206.774 162.616 205.37 151.971 201.638 142.063C201.33 142.281 201.025 142.495 200.721 142.704C200.149 143.1 200.362 142.459 201.363 140.783C201.416 140.564 201.535 140.365 201.706 140.215L202.015 139.721C202.123 139.549 202.236 139.37 202.355 139.184L203.645 138.082C215.806 127.672 225.152 118.808 231.682 111.49L232.427 110.65C244.51 96.9652 252.02 84.877 252.144 78.0873C252.28 70.6389 242.571 69.7907 220.794 77.89ZM111.479 217.232C114.4 226.268 109.981 232.079 102.203 232.379C95.0155 232.657 88.4707 228.073 88.8043 221.56C89.0926 215.93 92.901 209.912 97.5896 207.702C103.26 205.029 108.582 208.272 111.479 217.232ZM98.739 210.198C94.987 211.967 91.76 217.066 91.5226 221.702C91.2862 226.318 96.328 229.849 102.099 229.626C108.133 229.393 111.231 225.319 108.893 218.088C106.459 210.559 102.758 208.304 98.739 210.198ZM170.866 198.819C174.593 205.946 173.617 212.948 167.886 216.087L167.726 216.173L167.643 216.257C159.958 223.959 150.357 224.893 144.097 219.31L143.882 219.115C136.671 212.429 138.389 200.942 149.864 191.937C157.249 186.142 166.27 190.028 170.866 198.819ZM151.293 193.805C140.875 201.98 139.411 211.77 145.458 217.376C149.794 221.397 156.202 221.619 162.187 217.717L162.304 217.638L162.26 217.629C161.846 217.518 161.513 217.18 161.419 216.739L161.4 216.627C161.324 215.979 161.782 215.392 162.421 215.315C163.884 215.14 165.154 214.782 166.231 214.271L166.378 214.198L166.557 214.011C167.259 213.263 167.944 212.449 168.609 211.569L168.83 211.273C169.079 210.935 169.473 210.77 169.86 210.802L169.89 210.805L169.905 210.776C171.303 207.981 170.972 204.193 168.926 200.162L168.804 199.925C164.807 192.281 157.336 189.062 151.293 193.805ZM220.664 109.08C220.065 111.236 218.241 114.194 215.444 117.697C210.568 123.804 203.244 130.912 196.842 135.772L198.262 134.191C198.248 134.179 198.236 134.162 198.226 134.143L197.736 133.232C194.532 127.313 190.963 121.475 185.195 116.716C170.264 122.946 153.145 131.463 137.548 140.368L132.435 143.293C94.7869 164.878 74.9793 177.8 53.7981 193.686C54.5976 197.33 55.6049 200.886 56.8114 204.332C57.0007 204.872 54.5271 206.896 54.0742 206.646C49.8488 209.512 43.2321 211.593 39.4651 211.701C35.7938 211.806 33.6728 210.302 34.7654 207.303C35.6795 204.794 39.1228 201.216 45.3194 196.42L46.0258 195.877L47.4541 194.791C70.7753 177.12 93.8627 162.78 136.478 138.449L138.262 137.436C167.49 120.923 201.336 106.047 216.839 104.674C220.026 104.392 221.471 106.177 220.664 109.08ZM50.9626 195.825L46.0763 199.557C41.7175 202.902 38.5749 205.376 36.8774 206.963L36.7528 207.081C34.6808 209.048 37.0261 209.568 39.4039 209.499C43.0056 209.396 48.5232 206.631 53.1936 204.116C52.3304 201.409 51.5857 198.643 50.9626 195.825ZM127.393 183.862C127.975 184.011 128.328 184.611 128.18 185.201C128.032 185.79 127.439 186.147 126.857 185.997C123.929 185.245 122.2 185.534 121.639 186.332C121.267 186.861 121.473 187.764 122.169 188.34C122.713 188.79 123.437 189.005 123.935 188.896C124.369 188.8 124.611 188.462 124.611 187.616C124.611 187.008 125.099 186.514 125.7 186.514C126.301 186.514 126.789 187.008 126.789 187.616C126.789 189.456 125.879 190.723 124.398 191.049C123.208 191.311 121.821 190.899 120.791 190.046C119.269 188.786 118.772 186.61 119.865 185.054C121.064 183.349 123.691 182.91 127.393 183.862ZM79.573 179.816C81.252 180.325 81.975 181.63 82.2031 183.587L82.2257 183.799L82.2533 184.121C82.2572 184.175 82.261 184.23 82.2646 184.289L82.3217 185.407L82.3389 185.66C82.3478 185.77 82.3574 185.861 82.3687 185.941L82.3978 186.11L82.4154 186.184L82.4458 186.211C82.7818 186.544 82.871 187.066 82.6537 187.497L82.5981 187.595C82.2722 188.106 81.5985 188.254 81.0932 187.924C80.398 187.47 80.24 187.003 80.1557 185.663L80.0866 184.351C80.0786 184.232 80.07 184.13 80.0588 184.014C79.9349 182.73 79.6259 182.132 78.9482 181.927C77.0467 181.35 75.9554 181.939 75.6098 183.225C75.3019 184.372 75.7474 185.576 76.5276 185.911L76.7252 185.985C77.2352 186.206 77.5053 186.787 77.3334 187.333C77.1507 187.912 76.5383 188.232 75.9655 188.048C73.8924 187.379 72.9075 184.886 73.5089 182.647C74.1802 180.148 76.5149 178.889 79.573 179.816ZM158.113 162.945C161.128 167.235 160.567 172.693 155.73 175.162C155.194 175.437 154.539 175.218 154.268 174.675C153.997 174.132 154.213 173.469 154.75 173.195C158.252 171.407 158.651 167.513 156.339 164.223C154.092 161.026 150.965 160.674 148.816 164.129C146.538 167.79 146.703 169.94 148.344 170.908C149.646 171.677 151.743 171.515 152.319 170.887L152.375 170.818C152.724 170.322 153.403 170.206 153.893 170.559C154.383 170.912 154.497 171.6 154.149 172.096C152.938 173.816 149.485 174.133 147.247 172.812C144.382 171.121 144.108 167.561 146.974 162.954C150.042 158.022 155.048 158.584 158.113 162.945ZM112.978 156.627C113.544 156.627 114.009 157.064 114.062 157.622L114.067 157.728C114.067 157.922 114.245 158.139 114.884 158.614L115.488 159.052C116.147 159.539 116.465 159.841 116.765 160.321C117.452 161.42 117.841 162.538 117.841 163.853C117.841 167.22 112.843 171.8 107.387 173.838C100.847 176.281 95.489 174.47 94.0309 167.677C93.9032 167.083 94.276 166.496 94.8635 166.367C95.451 166.237 96.0308 166.615 96.1584 167.209C97.29 172.481 101.197 173.802 106.633 171.771C111.328 170.017 115.664 166.044 115.664 163.853C115.664 163.005 115.409 162.273 114.925 161.499L114.86 161.406C114.749 161.264 114.576 161.111 114.264 160.877L113.545 160.353C112.352 159.462 111.89 158.861 111.89 157.728C111.89 157.12 112.377 156.627 112.978 156.627ZM118.089 95.5587L117.401 95.637C80.2537 100.158 52.3861 130.23 50.8662 170.583L54.8521 167.745C66.2924 159.617 79.5717 150.333 94.6899 139.892L97.6358 138.09C106.43 132.72 114.839 127.666 122.867 122.925C122.72 122.665 122.679 122.346 122.778 122.039C123.34 120.305 123.858 119.14 124.809 117.973C127.783 114.321 131.858 112.538 134.745 114.831C135.029 115.056 135.173 115.397 135.161 115.736L137.726 114.255C145.801 109.602 153.443 105.305 160.655 101.358L157.838 100.546C153.661 99.3563 148.463 97.9449 143.287 96.8583C143.334 100.345 140.755 103.129 136.471 105.044C132.829 106.672 128.083 107.548 124.709 107.344C118.396 106.963 114.843 101.36 118.089 95.5587ZM183.252 143.408C185.916 150.774 183.718 157.473 177.066 157.429C167.588 157.366 158.334 148.991 159.83 141.488C160.497 138.141 162.983 135.18 167.307 133.702C174.211 131.342 180.54 135.909 183.252 143.408ZM168.004 135.789C164.431 137.011 162.481 139.333 161.964 141.923C160.777 147.879 168.835 155.171 177.081 155.225C181.804 155.256 183.428 150.306 181.207 144.165C178.857 137.667 173.604 133.875 168.004 135.789ZM87.9556 109.704L88.0332 109.818L88.5571 110.661C88.8138 111.09 89.0436 111.509 89.2625 111.962C91.6735 116.952 91.6113 123.492 87.531 132.571C85.6826 136.684 80.9737 142.212 76.8616 145.51C71.6109 149.722 67.6907 150.679 63.0113 150.159L61.623 149.994L61.4536 149.978C61.3607 149.971 61.3015 149.971 61.2363 149.973L61.141 149.977C61.0686 149.98 61.0435 149.977 61.0393 149.967L61.039 149.96L61.0041 150.017C60.6885 150.475 60.0751 150.626 59.5826 150.348C59.0572 150.053 58.8682 149.382 59.1604 148.85C59.5518 148.138 60.2057 147.816 61.0379 147.776C61.2584 147.765 61.4916 147.773 61.7691 147.796L62.0939 147.828L62.9918 147.938C67.2541 148.462 70.6451 147.685 75.5093 143.783C79.3717 140.685 83.861 135.415 85.5492 131.659C89.3675 123.163 89.4232 117.31 87.3066 112.93C87.1657 112.639 87.0187 112.362 86.8594 112.084L86.6315 111.698L86.175 110.968C85.8556 110.452 86.0095 109.772 86.5189 109.449C86.9964 109.146 87.6168 109.264 87.9556 109.704ZM217.03 106.871C210.07 107.487 199.16 110.966 186.584 116.142L186.951 116.471C190.451 119.649 197.513 127.186 199.724 132.562L201.926 130.091C207.358 123.975 211.3 119.383 213.751 116.313L214.247 115.684C216.589 112.675 218.103 110.162 218.569 108.484L218.635 108.23C218.926 107.019 218.589 106.732 217.03 106.871ZM112.792 110.449C115.502 111.775 116.601 114.726 114.819 117.402C114.483 117.907 113.806 118.04 113.308 117.7C112.809 117.36 112.677 116.675 113.014 116.17C113.994 114.698 113.441 113.214 111.845 112.433C110.164 111.61 108.322 112.083 107.371 113.879C106.495 115.533 106.435 117.774 107.134 119.241C107.748 120.529 108.642 120.776 110.005 119.737C110.486 119.371 111.168 119.468 111.53 119.954C111.891 120.441 111.795 121.131 111.315 121.497C108.83 123.39 106.371 122.711 105.173 120.198C104.17 118.092 104.25 115.109 105.452 112.838C106.986 109.941 110.113 109.137 112.792 110.449ZM126.489 119.375C125.981 119.998 125.618 120.655 125.282 121.5C128.088 119.85 130.845 118.238 133.555 116.665L133.477 116.619L133.401 116.564C131.739 115.244 128.808 116.526 126.489 119.375ZM121.846 95.2202L120.894 95.2879L120.83 95.3693C117.067 100.183 118.516 104.09 123.656 104.644C127.347 105.043 137.145 102.271 138.294 101.299C139.414 100.351 140.83 98.1721 141.048 96.4071C137.722 95.7742 134.469 95.3089 131.568 95.1588C128.602 95.0053 125.678 95.009 122.803 95.1633L121.846 95.2202Z" fill="#00160A"/>
<path d="M220.133 78.1642C243.189 69.5891 242.661 72.1333 220.884 80.2326C195.103 89.8212 97.7868 149.902 97.7868 149.902C53.6142 176.966 50.3098 172.789 93.1247 146.453L95.764 144.833C96.2611 144.528 145.007 113.39 179.838 96.7317C183.758 94.8571 217.508 79.1405 220.133 78.1642Z" fill="white"/>
<path fill-rule="evenodd" clip-rule="evenodd" d="M47.9605 37.2022C47.5179 36.8946 46.9129 37.0084 46.609 37.4563C46.3052 37.9042 46.4176 38.5166 46.8601 38.8241C47.3462 39.1619 47.7758 39.4737 48.1549 39.7635C47.746 40.0927 47.3376 40.4698 46.9132 40.8993L46.0536 41.7829C45.6757 42.1688 45.6784 42.7917 46.0597 43.1741C46.4409 43.5566 47.0564 43.5539 47.4343 43.168L48.4656 42.1129C48.8859 41.6987 49.2797 41.3523 49.6759 41.0645C50.5549 41.9463 50.8225 42.593 50.8369 43.2358L50.8369 43.4007L50.8419 43.5013C50.8917 43.9973 51.3056 44.3844 51.8089 44.3844C52.3457 44.3844 52.7808 43.944 52.7808 43.4007L52.7807 43.2072C52.7626 42.2052 52.4132 41.2522 51.4728 40.1631C52.0937 39.9762 52.7932 39.8714 53.6414 39.8266C54.1775 39.7983 54.5893 39.3354 54.5613 38.7929C54.5333 38.2503 54.0761 37.8334 53.54 37.8618C52.0667 37.9397 50.9216 38.1881 49.9014 38.66C49.4754 38.3074 48.9926 37.9374 48.447 37.5457L47.9605 37.2022Z" fill="#00160A"/>
<path fill-rule="evenodd" clip-rule="evenodd" d="M6.56701 169.231C5.20117 169.322 3.03505 169.672 1.26408 170.376C-0.250785 170.978 -0.263526 187.33 4.91292 188.63C10.0592 190.343 15.6895 188.065 15.0243 179.315C15.0124 179.132 14.8646 178.635 14.6952 178.064C14.4472 177.229 14.1528 176.238 14.1709 175.85C14.2418 174.476 13.8818 173.318 12.9297 172.591C11.905 170.416 9.89466 169.014 6.56701 169.231ZM5.81377 184.649C3.28134 182.757 3.37722 173.919 6.26954 173.326C8.06819 174.709 9.70943 176.705 10.2606 180.554C9.63883 182.675 8.32874 183.902 7.18327 184.976C7.06073 185.091 6.94007 185.204 6.82234 185.316C6.49571 185.13 6.15925 184.904 5.81377 184.649Z" fill="white"/>
<path fill-rule="evenodd" clip-rule="evenodd" d="M39.2917 145.729L39.9614 147.236L41.4883 147.679C41.5709 147.703 41.6186 147.79 41.5949 147.874C41.5876 147.9 41.5739 147.923 41.5551 147.942L40.3951 149.111L40.46 150.793C40.4634 150.88 40.3965 150.953 40.3107 150.956C40.2817 150.957 40.2529 150.95 40.2277 150.936L38.9144 150.179C38.8733 150.155 38.8239 150.152 38.78 150.169L37.3754 150.734C37.2956 150.766 37.2052 150.726 37.1735 150.646C37.1627 150.618 37.1598 150.589 37.165 150.56L37.4606 148.903L36.4726 147.582C36.4207 147.513 36.4342 147.414 36.5027 147.362C36.5238 147.346 36.5487 147.335 36.5749 147.331L38.1479 147.107L39.0183 145.71C39.0641 145.636 39.1601 145.614 39.2328 145.661C39.2586 145.677 39.2791 145.701 39.2917 145.729Z" fill="#00160A"/>
<path fill-rule="evenodd" clip-rule="evenodd" d="M39.1358 147.229L39.4203 147.869L40.0688 148.057C40.1039 148.067 40.1242 148.104 40.1141 148.14C40.111 148.151 40.1052 148.161 40.0972 148.169L39.6045 148.665L39.6321 149.38C39.6335 149.417 39.6051 149.448 39.5686 149.449C39.5563 149.45 39.5441 149.447 39.5334 149.44L38.9755 149.119C38.9581 149.109 38.9371 149.107 38.9184 149.115L38.3218 149.355C38.2879 149.368 38.2495 149.352 38.236 149.317C38.2315 149.306 38.2302 149.293 38.2324 149.281L38.358 148.577L37.9383 148.016C37.9163 147.987 37.922 147.945 37.9511 147.922C37.9601 147.915 37.9706 147.911 37.9818 147.909L38.6499 147.814L39.0196 147.221C39.0391 147.189 39.0799 147.18 39.1108 147.2C39.1217 147.207 39.1304 147.217 39.1358 147.229Z" fill="#E7EAEE"/>
<path fill-rule="evenodd" clip-rule="evenodd" d="M26.9639 76.5547L27.4504 76.8982C27.9964 77.2903 30.0347 79.2346 30.461 79.5874C31.4802 79.114 32.6259 78.8652 34.1003 78.7873C34.6363 78.7589 35.0936 79.1758 35.1216 79.7184C35.1496 80.2609 34.7377 80.7237 34.2017 80.7521C33.3522 80.797 32.6519 80.902 32.0303 81.0894C32.9719 82.1791 33.3212 83.132 33.3393 84.1338L33.3394 84.3272C33.3394 84.8705 32.9043 85.311 32.3674 85.311C31.8642 85.311 31.4503 84.9239 31.4005 84.4278L31.3955 84.3272L31.3954 84.1623C31.3811 83.5196 31.1135 82.873 30.2348 81.9914C29.839 82.2787 29.4456 82.6247 29.0259 83.0384L27.9945 84.0935C27.6166 84.4794 27.0012 84.4821 26.62 84.0996C26.2387 83.7172 26.236 83.0943 26.6139 82.7084L27.4735 81.8248C27.8973 81.3959 28.3052 81.0192 28.7136 80.6903C27.9964 79.0333 25.3086 77.2567 25.6125 76.8088C25.9163 76.3609 26.5214 76.2472 26.9639 76.5547Z" fill="#00160A"/>
<path fill-rule="evenodd" clip-rule="evenodd" d="M195.068 63.9073L195.469 65.5086L196.897 66.2137C196.974 66.2518 197.006 66.3461 196.968 66.4242C196.957 66.4483 196.939 66.469 196.917 66.4843L195.574 67.4315L195.35 69.0995C195.338 69.1856 195.26 69.2459 195.175 69.2342C195.146 69.2302 195.119 69.2182 195.096 69.1994L193.933 68.2231C193.897 68.1926 193.848 68.1804 193.802 68.1901L192.322 68.4993C192.238 68.5169 192.156 68.4621 192.138 68.377C192.132 68.3482 192.135 68.3183 192.145 68.2907L192.72 66.7112L191.974 65.2368C191.935 65.1594 191.965 65.0646 192.041 65.0249C192.065 65.0127 192.091 65.0068 192.117 65.0077L193.705 65.0634L194.802 63.8402C194.86 63.7758 194.958 63.771 195.022 63.8294C195.044 63.8502 195.06 63.8773 195.068 63.9073Z" fill="#00160A"/>
<path fill-rule="evenodd" clip-rule="evenodd" d="M209.43 -52.9835C210.022 -53.0879 210.586 -52.6866 210.689 -52.0871C210.793 -51.4876 210.396 -50.917 209.804 -50.8126C206.987 -50.3159 203.596 -48.6117 200.667 -45.8667C196.864 -42.3023 194.058 -37.2716 192.673 -30.7048C191.557 -25.4142 192.583 -18.4484 195.5 -12.6368C198.818 -6.02488 204.153 -1.52948 210.998 -0.264076C218.024 1.03495 223.97 0.22818 230.61 -2.16096L231.221 -2.38563C231.414 -2.45971 231.758 -2.59418 232.191 -2.76297L232.195 -2.76455L232.197 -2.76527L232.197 -2.76554L232.198 -2.76584C233.797 -3.39036 236.59 -4.48064 237.391 -4.72603C239.538 -5.3831 241.002 -5.32814 242.064 -4.18289C242.476 -3.73917 242.454 -3.04191 242.015 -2.62551C241.604 -2.23513 240.973 -2.23019 240.557 -2.59671L240.477 -2.67496C240.163 -3.01282 239.516 -3.05195 238.212 -2.67367L238.021 -2.61678C237.314 -2.40034 234.727 -1.39049 233.114 -0.760906L233.113 -0.76086C232.488 -0.516914 232.01 -0.33007 231.843 -0.268604C224.671 2.38102 218.236 3.31408 210.606 1.90365C203.046 0.505993 197.168 -4.44767 193.559 -11.6388C190.422 -17.8884 189.321 -25.3664 190.544 -31.1649C192.022 -38.1735 195.054 -43.6089 199.188 -47.4836C202.424 -50.5166 206.198 -52.4138 209.43 -52.9835ZM216.792 -47.6631C217.382 -47.78 217.954 -47.3907 218.07 -46.7936C218.185 -46.1964 217.8 -45.6175 217.21 -45.5006C208.387 -43.7517 201.292 -36.9309 199.234 -27.909C198.537 -24.8556 198.748 -22.3729 199.431 -21.4257L199.522 -21.307L199.529 -21.2904L199.542 -21.3004C199.787 -21.524 200.073 -22.095 200.295 -22.9803L200.341 -23.1748C202.458 -32.4537 209.447 -39.6361 218.375 -42.0481C218.956 -42.2051 219.552 -41.8557 219.707 -41.2678C219.863 -40.6799 219.517 -40.076 218.936 -39.9191C210.893 -37.746 204.574 -31.3368 202.546 -23.0312L202.463 -22.6791C201.716 -19.4066 199.573 -17.8444 197.837 -19.9159C196.567 -21.4311 196.255 -24.6461 197.112 -28.4047C199.365 -38.2812 207.133 -45.7486 216.792 -47.6631ZM229.885 -35.5675C229.842 -36.1744 229.321 -36.6314 228.722 -36.5881C218.126 -35.823 208.835 -28.858 205.138 -18.5779C203.735 -14.6771 203.651 -11.2081 204.8 -9.43897C206.34 -7.06601 208.764 -8.4121 209.972 -11.772L210.099 -12.1168C213.368 -20.8167 221.029 -26.893 229.998 -28.1601C230.593 -28.2442 231.009 -28.8009 230.925 -29.4036C230.842 -30.0063 230.292 -30.4266 229.697 -30.3425C219.82 -28.9471 211.399 -22.1836 207.926 -12.5257L207.849 -12.3193C207.463 -11.3142 207.04 -10.7081 206.72 -10.5302L206.706 -10.5206C206.699 -10.5153 206.697 -10.5117 206.695 -10.512C206.694 -10.5122 206.693 -10.5136 206.691 -10.5167C206.691 -10.5183 206.69 -10.5203 206.689 -10.5227C206.682 -10.539 206.667 -10.5761 206.619 -10.6491L206.562 -10.7449C205.93 -11.8787 206.026 -14.6062 207.184 -17.8242C210.584 -27.2801 219.13 -33.6863 228.877 -34.3901C229.476 -34.4334 229.928 -34.9605 229.885 -35.5675ZM234.626 -24.8566C235.226 -24.9 235.747 -24.443 235.79 -23.8361C235.832 -23.2291 235.381 -22.7019 234.781 -22.6586C227.948 -22.1652 221.956 -17.6737 219.572 -11.044C218.865 -9.07873 218.734 -7.39847 218.987 -6.54751L219.017 -6.45253L219.066 -6.52282C219.187 -6.70943 219.324 -6.97745 219.458 -7.32498L219.516 -7.47879C222.034 -14.4816 228.14 -19.3858 235.301 -20.3975C235.897 -20.4817 236.447 -20.0613 236.53 -19.4586C236.613 -18.856 236.198 -18.2992 235.602 -18.2151C229.337 -17.33 223.983 -13.0984 221.676 -7.03499L221.562 -6.72512C220.628 -4.12827 218.608 -3.00642 217.317 -4.99488C216.433 -6.35751 216.494 -8.92981 217.526 -11.7977C220.206 -19.2516 226.944 -24.3019 234.626 -24.8566ZM240.364 -15.9783C240.321 -16.5853 239.8 -17.0422 239.2 -16.9989C234.056 -16.6274 229.543 -13.2451 227.748 -8.25312C227.04 -6.28511 226.997 -4.49394 227.652 -3.48544C228.726 -1.83194 230.393 -2.75843 231.088 -4.69053L231.183 -4.94423C232.645 -8.72449 235.997 -11.3601 239.915 -11.9136C240.51 -11.9977 240.926 -12.5545 240.843 -13.1572C240.759 -13.7598 240.209 -14.1802 239.614 -14.0961L239.338 -14.0541C235.12 -13.3664 231.481 -10.6567 229.594 -6.75698L229.528 -6.61819L229.568 -6.77631C229.629 -7.00643 229.704 -7.24857 229.794 -7.49945C231.293 -11.6672 235.06 -14.4907 239.355 -14.8009C239.955 -14.8442 240.407 -15.3713 240.364 -15.9783Z" fill="#00160A"/>
<path d="M166.829 118.594C189.651 107.789 208.733 102.082 220.612 101.034C224.25 100.713 225.901 102.743 224.979 106.045C224.295 108.497 222.212 111.862 219.019 115.846C213.452 122.792 206.112 128.735 198.803 134.264C210.497 123.34 213.479 118.771 217.085 114.271L217.652 113.555C220.326 110.133 222.054 107.274 222.587 105.366L222.662 105.077C222.994 103.7 222.61 103.374 220.829 103.531C209.218 104.555 190.209 110.273 167.471 121.063C144.695 131.871 144.043 129.381 166.829 118.594Z" fill="white"/>
<path d="M62.4503 83.6421L62.6172 84.0441C63.7733 86.8188 64.9748 89.5665 66.3384 92.5633L66.8687 93.726C66.6948 93.8442 66.4663 93.9697 66.2149 94.0808C65.8541 94.2404 65.4877 94.3523 65.2122 94.3899L65.1244 94.3988L64.9919 94.238C63.9613 92.9539 62.7653 90.772 61.901 88.6024C61.4407 87.4469 61.1128 86.3869 60.965 85.5726C60.9047 85.2408 60.8769 84.9621 60.8793 84.7507L60.8856 84.6113C60.8878 84.5775 60.8878 84.5599 60.8796 84.5574L60.9122 84.5351C61.0962 84.4066 61.5664 84.1282 62.2648 83.744L62.4503 83.6421Z" fill="white"/>
<path fill-rule="evenodd" clip-rule="evenodd" d="M91.3009 73.5896C92.0153 72.7046 92.9416 72.8366 94.1148 73.5568L94.4162 73.7493L95.2596 74.315C95.4954 74.468 95.5976 74.5209 95.7352 74.5764C96.0544 74.705 96.2101 75.0712 96.0831 75.3942C95.956 75.7173 95.5942 75.8749 95.275 75.7463L95.1613 75.6989C94.9456 75.6054 94.7828 75.5082 94.3457 75.2148L93.7406 74.8067C93.6409 74.7409 93.5546 74.6856 93.4696 74.6335C92.7678 74.2027 92.4493 74.1573 92.2644 74.3863C92.1479 74.5307 92.1766 74.8383 92.4079 75.4691L92.6617 76.1307C93.1663 77.4863 93.1692 78.0923 92.2705 78.6097C91.4967 79.0551 91.1 78.847 89.9888 77.745L89.7192 77.4747C89.0076 76.7554 88.6346 76.5051 88.3943 76.5566C88.3145 76.5737 88.2214 76.6309 88.1077 76.7536C87.9744 76.8974 87.9367 77.3573 88.0184 78.1733L88.1437 79.239C88.2899 80.5417 88.231 80.8792 87.6997 81.2391C86.968 81.7348 85.9944 81.1746 84.1898 79.5344C83.9342 79.3021 83.9131 78.904 84.1426 78.6453C84.3722 78.3866 84.7655 78.3652 85.0211 78.5975C85.7926 79.2987 86.3751 79.7554 86.7819 79.9894L86.8731 80.0397L86.9493 80.0782L86.9511 79.9993L86.9462 79.8107C86.9381 79.6562 86.9191 79.4694 86.8811 79.1521L86.8019 78.4981C86.6505 77.1718 86.6978 76.4343 87.2003 75.8921C87.4794 75.5909 87.7927 75.3983 88.1368 75.3246C88.9359 75.1536 89.5036 75.4991 90.4463 76.4316L90.9221 76.9054C91.4352 77.4048 91.6254 77.5324 91.6554 77.5151C91.7719 77.4481 91.7542 77.2395 91.4392 76.4205L91.3011 76.0657C90.8616 74.9224 90.7777 74.2378 91.3009 73.5896Z" fill="#00160A"/>
<path fill-rule="evenodd" clip-rule="evenodd" d="M5.4263 58.3179L6.09609 59.8244L7.62294 60.2679C7.7055 60.2919 7.75321 60.3791 7.72952 60.4626C7.72221 60.4884 7.70852 60.5118 7.68975 60.5308L6.5297 61.6996L6.59469 63.3817C6.59804 63.4686 6.53119 63.5417 6.44537 63.5451C6.41634 63.5463 6.38757 63.5392 6.36233 63.5246L5.04903 62.7676C5.00799 62.744 4.95855 62.7405 4.91466 62.7581L3.51005 63.3227C3.43022 63.3548 3.33981 63.3154 3.30811 63.2346C3.29738 63.2072 3.29444 63.1774 3.2996 63.1485L3.59526 61.4919L2.60722 60.171C2.55537 60.1017 2.56886 60.003 2.63734 59.9505C2.65845 59.9344 2.6833 59.9239 2.70953 59.9202L4.2825 59.696L5.15293 58.2986C5.19873 58.225 5.29476 58.203 5.36742 58.2494C5.39328 58.2659 5.41376 58.2897 5.4263 58.3179Z" fill="#00160A"/>
<path d="M25.6566 191.438C26.1555 191.072 26.8536 191.184 27.2159 191.689C27.5782 192.194 11.7841 205.214 5.65715 211.181L4.94504 211.88C1.44548 215.345 -1.1348 218.347 -2.58918 220.719C-4.13032 223.233 -4.22917 224.598 -3.23421 225.156C0.540775 227.274 5.96836 228.305 13.7417 227.002L14.5405 226.864C17.4994 226.339 39.7575 221.427 39.4051 221.557L39.2682 221.599C38.5665 221.787 29.5034 224.959 26.3753 225.765L25.9972 225.862C21.2152 227.079 17.473 227.914 14.1066 228.478C5.88065 229.858 0.00344896 229.556 -4.31649 227.133C-6.80932 225.735 -6.61083 222.993 -4.4864 219.528C-2.81551 216.802 0.123561 213.434 4.10903 209.552C10.3179 203.506 19.0509 196.293 25.6566 191.438Z" fill="white"/>
</svg>
