<svg width="196" height="196" viewBox="0 0 196 196" fill="none" xmlns="http://www.w3.org/2000/svg">
<path fill-rule="evenodd" clip-rule="evenodd" d="M196.365 208.262C244.88 219.574 272.638 203.78 279.638 160.879C290.138 96.5292 254.568 28.9248 205.762 22.4441C156.957 15.9634 136.44 34.4497 102.137 57.6641C67.8346 80.8785 -31.5873 135.5 -42.8828 144.77C-54.1783 154.04 -78.3465 190.266 -30.0057 213.211C2.22153 228.508 42.3131 225.627 90.2691 204.568C107.127 197.196 122.479 193.294 136.325 192.864C150.17 192.433 170.184 197.566 196.365 208.262Z" fill="#707EFF"/>
<path d="M141.063 126.565C136.702 129.412 134.949 133.094 135.803 137.613C139.887 143.736 141.929 149.038 141.929 153.519C141.929 158.001 142.236 163.83 142.851 171.008L176.794 171.725L176.866 171.682C177.773 171.699 178.665 171.713 179.541 171.725C187.096 171.823 193.798 172.824 194.114 172.873C196.588 173.257 201.045 168.667 202.282 167.111C204.27 164.613 205.215 161.655 205.635 158.437C206.031 155.401 205.473 152.578 204.375 149.873C203.093 146.711 201.086 143.975 198.542 141.565C195.751 139.007 192.747 136.918 189.378 135.378C189.247 135.318 186.83 134.128 186.714 134.143C186.636 134.154 182.771 135.392 177.396 137.904C171.296 133.567 164.697 128.977 157.6 124.136C150.936 122.908 145.423 123.718 141.063 126.565Z" fill="white"/>
<path fill-rule="evenodd" clip-rule="evenodd" d="M184.984 200.454C179.647 201.553 176.429 199.459 175.332 194.17C173.685 186.236 183.635 187.654 186.68 183.571C189.725 179.489 182.971 178.67 175.332 181.121C167.686 180.786 165.479 181.223 165.04 179.114C164.6 177.005 168.584 175.677 179.224 176.024C189.864 176.372 188.299 176.387 187.489 185.278C186.95 191.206 186.115 196.264 184.984 200.454Z" fill="white"/>
<path d="M52.341 217.395C56.4427 214.001 59.3321 211.866 60.8806 210.501C64.5787 207.241 68.3668 204.084 72.0976 200.861C72.8646 200.198 73.6097 199.485 74.2408 198.696C75.0329 197.705 74.8524 197.022 73.6018 196.539C72.6149 196.158 71.5364 195.984 70.4831 195.815C67.3421 195.313 64.1956 194.844 61.0469 194.392C59.6635 194.194 58.2686 194.078 56.8812 193.905C56.6333 193.874 56.3969 193.751 56.1551 193.67C56.2751 193.475 56.367 193.253 56.5196 193.089C57.7345 191.776 58.9607 190.474 60.1844 189.17C60.2921 189.055 60.4063 188.946 60.5174 188.835C60.3435 188.793 60.1716 188.737 59.9954 188.711C56.7715 188.235 53.5481 187.756 50.3226 187.292C48.2047 186.987 46.0874 186.672 43.9627 186.422C41.7885 186.166 39.6078 185.959 37.426 185.779C35.4747 185.618 33.5158 185.55 31.5647 185.387C30.3148 185.283 29.0766 185.037 27.8266 184.936C26.2638 184.809 24.6927 184.789 23.128 184.682C21.1734 184.548 19.2231 184.352 17.2683 184.221C15.6251 184.111 13.9766 184.082 12.3335 183.971C11.008 183.881 9.68939 183.686 8.36362 183.605C7.06828 183.527 5.76778 183.535 4.46953 183.505C1.10828 183.426 -2.2527 183.331 -5.61436 183.275C-7.67117 183.241 -9.74569 183.113 -11.7796 183.332C-12.8402 183.447 -14.0521 183.995 -14.8083 184.741C-16.7186 186.628 -18.4118 188.735 -20.1873 190.758C-21.276 191.998 -22.3664 193.237 -23.4379 194.493C-25.6961 197.138 -27.937 199.798 -30.1969 202.442C-30.8988 203.264 -31.6499 204.043 -32.3547 204.861C-32.5567 205.096 -32.6752 205.403 -32.8321 205.677C-32.6097 205.495 -31.9474 204.928 -32.1676 205.129C-53.9678 224.966 37.8387 229.184 52.341 217.395Z" fill="white"/>
<path fill-rule="evenodd" clip-rule="evenodd" d="M143.258 170.935L71.824 169.115H68.8938C64.6223 172.297 59.9359 173.668 54.8344 173.229C47.1821 172.569 40.4252 164.122 38.8472 152.344C38.6147 151.426 38.0507 151.205 37.155 151.682C36.1693 153.605 34.4199 154.443 31.9069 154.198C30.8158 154.08 30.2087 154.336 29.5929 155.52C28.977 156.705 25.7205 158.195 23.6794 156.999C21.6383 155.803 12.2281 140.558 12.2281 137.992C12.2281 135.427 11.7003 129.824 11.2849 129.462C10.8696 129.101 10.0884 129.394 8.57173 128.914C7.05508 128.433 5.75722 128.911 0.894638 116.144C-3.96794 103.377 -11.4078 84.2913 -12.2002 70.927C-12.9927 57.5628 -3.55489 62.2862 0.894638 67.863C5.34416 73.4399 17.7475 87.7993 29.227 95.597C30.6318 96.6464 31.7785 97.1398 32.6669 97.077C33.1997 93.7582 35.3816 92.5216 39.2126 93.3673C40.7016 93.6349 41.9202 92.4576 42.8683 89.8354C45.3245 76.222 50.9237 66.3714 59.6659 60.2835C72.7793 51.1517 95.1235 45.9332 100.5 65.0264C104.084 77.7552 101.929 93.2197 94.0355 111.42L97.3221 114.265C110.254 118.74 120.819 124.263 129.015 130.836C141.311 140.696 141.546 150.313 142.198 158.245C142.633 163.534 142.986 167.764 143.258 170.935Z" fill="white"/>
<path d="M169.69 115.963C169.58 114.928 169.531 113.888 169.411 112.855C169.405 112.799 168.88 112.68 168.729 112.784C167.323 113.75 165.932 114.74 164.569 115.767C164.2 116.045 164.171 116.322 164.004 115.594C163.742 114.456 162.123 114.138 161.154 114.947C158.931 116.801 157.809 119.295 156.995 122.007C156.289 124.359 156.569 126.749 156.5 129.125C156.456 130.651 155.028 131.801 153.529 131.862C152.421 131.908 151.255 132.394 150.258 132.944C147.846 134.275 146.295 136.375 145.532 139.021C144.711 141.869 145.475 144.405 147.126 146.772C148.627 148.925 149.995 151.18 152.173 152.758C153.379 153.632 154.768 154.356 155.711 155.459C156.724 156.643 157.888 157.416 159.268 157.948C162.667 159.26 166.381 157.559 168.045 154.724C169.803 150.984 176.079 154.031 178.51 148.514C179.737 146.693 180.215 145.166 179.95 145.014C179.627 144.827 180.074 144.356 180.646 143.755C183.143 141.132 185.361 138.291 186.878 134.964C187.118 134.439 187.365 133.897 187.47 133.337C187.534 132.993 187.438 132.502 187.215 132.265C187.075 132.115 186.517 132.223 186.234 132.377C185.811 132.608 185.476 132.995 185.085 133.292C184.419 133.798 184.049 133.583 184.23 132.793C184.743 130.549 184.271 128.419 183.482 126.36C183.057 125.25 182.364 124.237 181.722 123.225C181.66 123.129 181.042 123.274 180.773 123.448C180.274 123.771 179.842 124.197 179.382 124.581C179.352 123.967 179.342 123.352 179.282 122.741C179.246 122.379 179.157 122.016 179.047 121.667C178.496 119.919 178.2 119.831 176.742 120.927C176.546 121.074 176.312 121.169 176.096 121.289C176.066 121.066 176.027 120.845 176.008 120.621C175.848 118.701 176.232 116.958 177.636 115.532C177.652 115.515 177.348 115.013 177.173 115C175.15 114.841 173.128 114.757 171.278 115.837C170.9 116.058 170.523 116.281 170.086 116.561C169.911 116.401 169.714 116.191 169.69 115.963Z" fill="white"/>
<path fill-rule="evenodd" clip-rule="evenodd" d="M139.704 45.3096C145.676 50.2601 148.384 57.4271 147.828 66.8106C146.995 80.8858 130.624 90.9135 122.706 86.669C114.787 82.4246 106.044 76.2415 104.999 63.0802C104.556 75.6041 103.244 81.6995 120.125 90.782C137.007 99.8645 154.656 85.7715 157.208 79.9628C159.761 74.1541 165.906 61.3308 153.434 46.4541C151.727 44.4866 147.15 44.1051 139.704 45.3096Z" fill="white"/>
<path fill-rule="evenodd" clip-rule="evenodd" d="M28.7548 198.867C27.3098 198.789 25.9807 198.734 24.6558 198.626C23.2486 198.512 21.8474 198.322 20.4399 198.213C18.8599 198.091 17.2743 198.041 15.6938 197.923C13.9011 197.79 12.1125 197.602 10.32 197.464C8.99456 197.362 7.66405 197.326 6.33903 197.219C4.6771 197.086 3.01996 196.895 1.35803 196.762C0.0330086 196.656 -1.29784 196.622 -2.62289 196.516C-4.37408 196.376 -6.11942 196.115 -7.8723 196.057C-9.87197 195.99 -11.8804 195.367 -13.8785 196.057C-14.1165 196.139 -14.3328 196.284 -14.5591 196.4C-14.3439 196.44 -14.1303 196.496 -13.9133 196.519C-12.3971 196.68 -10.8783 196.817 -9.36422 196.995C-7.525 197.211 -5.69322 197.494 -3.85145 197.682C-2.50452 197.819 -1.1428 197.81 0.205391 197.939C2.05423 198.114 3.89429 198.38 5.74233 198.566C7.08345 198.701 8.43234 198.758 9.7761 198.87C11.5288 199.015 13.2805 199.174 15.0316 199.338C16.6273 199.486 18.2233 199.635 19.8164 199.808C21.8509 200.029 23.8802 200.3 25.9164 200.501C27.8484 200.692 29.7888 200.799 31.7213 200.986C33.0656 201.116 34.3994 201.363 35.7449 201.468C36.2701 201.509 36.8553 201.396 37.3367 201.182C37.681 201.029 37.8981 200.592 38.1719 200.281C37.8243 200.044 37.4933 199.634 37.1263 199.599C34.896 199.386 32.6571 199.265 30.4224 199.096C29.9029 199.056 29.389 198.945 28.7548 198.867Z" fill="#E7EAEE"/>
<path fill-rule="evenodd" clip-rule="evenodd" d="M32.8152 194.205C30.0651 193.891 27.4348 193.56 24.8 193.269C23.088 193.08 21.3671 192.972 19.6549 192.784C18.6545 192.674 17.6651 192.468 16.6678 192.325C15.9828 192.227 15.2917 192.172 14.6052 192.084C12.5053 191.815 10.4098 191.508 8.30606 191.275C6.16635 191.038 4.01657 190.892 1.87534 190.667C-0.0856743 190.461 -2.03668 190.14 -4.0014 190C-4.70696 189.95 -5.45207 190.241 -6.153 190.46C-6.38645 190.533 -6.53844 190.866 -6.72764 191.08C-6.45946 191.169 -6.19555 191.316 -5.92239 191.336C-4.39327 191.446 -2.86003 191.501 -1.33189 191.622C0.28162 191.749 1.89256 191.915 3.50172 192.09C4.73504 192.225 5.96251 192.412 7.19508 192.554C8.6735 192.724 10.1587 192.84 11.6336 193.035C13.7983 193.321 15.9551 193.666 18.1179 193.967C20.4601 194.293 22.8105 194.564 25.1476 194.922C27.1663 195.231 29.1684 195.647 31.1831 195.984C33.8311 196.428 36.4862 196.828 39.1339 197.273C40.1011 197.436 40.6883 196.884 40.7756 196.116C40.8547 195.42 40.2421 195.166 39.4588 195.114C37.4024 194.977 35.3564 194.68 33.3079 194.433C33.1757 194.417 33.0576 194.284 32.8152 194.205Z" fill="#E7EAEE"/>
<path fill-rule="evenodd" clip-rule="evenodd" d="M198.542 141.564C195.751 139.006 192.747 136.917 189.378 135.377C189.247 135.317 189.114 135.172 188.998 135.188C188.492 135.257 187.992 135.371 187.489 135.469C187.853 135.718 188.191 136.02 188.584 136.206C192.481 138.054 196.111 140.295 199.064 143.506C201.934 146.628 203.991 150.13 204.445 154.503C204.862 158.523 204.352 162.282 202.079 165.673C200.859 167.492 199.211 168.85 197.21 169.752C197.051 169.823 196.901 169.916 196.747 169.998C196.926 170.035 197.104 170.078 197.284 170.106C199.757 170.49 201.045 168.665 202.282 167.11C204.27 164.612 205.215 161.654 205.635 158.436C206.031 155.4 205.473 152.577 204.375 149.871C203.093 146.71 201.086 143.974 198.542 141.564Z" fill="#00160A"/>
<path fill-rule="evenodd" clip-rule="evenodd" d="M43.78 193.5C44.2002 192.575 43.5914 191.551 42.6244 191.56C40.9725 191.576 39.3213 191.686 37.6705 191.77C36.4071 191.833 35.1447 191.917 33.8819 191.991C33.7298 192 33.5381 191.952 33.4328 192.024C33.0816 192.261 32.7613 192.54 32.4291 192.803C32.7493 192.96 33.0605 193.23 33.3915 193.255C34.4151 193.331 35.4552 193.405 36.4724 193.312C38.2732 193.149 39.9754 193.554 41.6385 194.063C42.5439 194.34 43.115 194.051 43.78 193.5Z" fill="#E7EAEE"/>
<path fill-rule="evenodd" clip-rule="evenodd" d="M166.448 221.632C164.741 225.174 163.373 228.827 162.917 232.767C162.672 234.88 162.392 236.99 162.225 239.11C162.073 241.034 161.956 242.971 161.999 244.898C162.05 247.204 162.299 249.505 162.441 251.809C162.539 253.412 162.555 255.02 162.691 256.619C162.882 258.868 163.188 261.107 163.373 263.356C163.514 265.059 163.607 266.772 163.604 268.479C163.599 270.423 163.46 272.366 163.387 274.31C163.303 276.528 163.491 278.795 163.089 280.953C162.488 284.182 161.663 287.4 160.594 290.505C159.02 295.07 156.298 299.038 153.296 302.774C151.441 305.081 149.301 307.13 146.286 307.925C146.248 307.935 146.213 308.298 146.291 308.366C147.403 309.339 148.786 308.943 149.959 308.787C152.581 308.436 155.174 307.817 157.75 307.187C164.295 305.586 170.83 303.947 177.355 302.267C180.534 301.448 183.678 300.495 186.844 299.624C187.31 299.496 187.91 299.284 188.276 299.463C190.122 300.368 191.548 299.373 192.904 298.453C195.878 296.437 197.565 293.509 198.439 290.069C199.646 285.323 198.676 280.794 196.925 276.404C195.77 273.509 194.394 270.698 193.011 267.902C191.608 265.064 189.846 262.441 187.711 260.096C186.989 259.303 186.112 258.655 185.329 257.917C184.253 256.904 184.197 255.516 184.108 254.193C184.006 252.66 184.238 251.09 184.018 249.582C183.271 244.455 181.009 239.851 178.63 235.345C177.445 233.098 175.938 230.963 174.266 229.05C173.025 227.631 171.393 226.482 169.471 225.937C168.882 225.77 168.716 225.635 169.155 224.9C169.791 223.836 170.686 222.599 169.561 221.175C168.215 219.828 167.244 219.979 166.448 221.632ZM164.659 232.324C164.705 232.37 164.782 232.409 164.792 232.462C164.879 232.912 164.889 233.388 165.043 233.813C165.723 235.688 166.249 237.654 167.191 239.392C169.078 242.878 171.488 246.017 174.334 248.796C176.816 251.219 179.333 253.605 181.794 256.049C183.197 257.442 184.64 258.822 185.849 260.377C187.787 262.871 189.824 265.356 191.307 268.12C193.031 271.33 194.323 274.794 195.571 278.232C196.355 280.391 196.886 282.68 197.214 284.957C197.567 287.403 197.095 289.844 195.989 292.074C195.174 293.718 194.026 295.08 192.145 295.673C189.896 296.381 187.687 297.218 185.443 297.945C180.463 299.557 175.501 301.231 170.477 302.693C166.716 303.788 162.879 304.634 159.057 305.507C156.893 306.002 154.691 306.336 152.501 306.712C152.328 306.742 152.114 306.534 151.919 306.437C152.017 306.298 152.102 306.148 152.215 306.023C153.015 305.136 153.906 304.317 154.608 303.359C156.54 300.722 158.657 298.172 160.221 295.323C162.995 290.268 164.855 284.847 165.272 279.017C165.4 277.222 165.581 275.431 165.738 273.402C165.738 271.152 165.829 268.896 165.71 266.651C165.609 264.727 165.263 262.815 165.034 260.897C164.869 259.511 164.813 258.104 164.542 256.74C164.022 254.133 164.267 253.081 166.484 251.593C167.514 250.902 168.809 250.236 168.859 248.788C168.88 248.175 168.39 247.448 167.927 246.974C167.787 246.831 166.798 247.23 166.476 247.614C165.746 248.484 165.195 249.504 164.556 250.453C164.453 250.606 164.276 250.708 164.134 250.834C164.041 250.677 163.882 250.525 163.867 250.36C163.768 249.256 163.631 248.149 163.638 247.044C163.646 245.624 163.788 244.205 163.854 242.785C163.942 240.882 164.004 238.977 164.094 237.074C164.158 235.719 164.234 234.364 164.34 233.011C164.358 232.775 164.548 232.553 164.659 232.324ZM169.502 227.475C172.023 228.345 173.758 230.197 175.122 232.339C177.845 236.614 180.013 241.185 181.429 246.058C182.089 248.328 182.37 250.715 181.486 253.046C181.434 253.183 181.071 253.354 181.045 253.327C177.669 249.758 174.278 246.203 170.961 242.579C167.577 238.881 166.299 234.469 166.931 229.525C167.218 227.282 167.376 227.225 169.502 227.475ZM-11.7797 183.333C-12.8402 183.447 -14.0522 183.995 -14.8083 184.742C-16.7186 186.628 -18.4118 188.736 -20.1874 190.759C-21.2761 191.999 -22.3665 193.238 -23.4379 194.493C-25.6962 197.139 -27.9371 199.799 -30.197 202.443C-30.8989 203.264 -31.65 204.043 -32.3547 204.862C-32.5568 205.097 -32.6753 205.404 -32.8322 205.678C-32.6098 205.496 -32.3697 205.332 -32.1677 205.13C-26.828 199.782 -21.5093 194.413 -16.1461 189.09C-14.39 187.347 -12.3947 185.872 -9.98544 185.184C-7.44693 184.46 -4.85983 184.214 -2.19965 184.65C-0.859741 184.87 0.547363 184.643 1.92087 184.698C4.97791 184.82 8.03189 185.022 11.0892 185.134C12.8804 185.2 14.6784 185.095 16.4683 185.178C18.3836 185.267 20.2931 185.483 22.2048 185.648C23.9632 185.799 25.7225 185.94 27.4789 186.112C28.8702 186.248 30.2561 186.439 31.6473 186.577C33.4155 186.751 35.1914 186.856 36.9551 187.066C38.4501 187.244 39.9311 187.537 41.421 187.761C43.078 188.009 44.7397 188.226 46.3964 188.476C48.9471 188.86 51.4961 189.257 54.0416 189.675C54.136 189.69 54.2922 190.058 54.2385 190.136C53.7672 190.815 53.2822 191.489 52.7499 192.121C50.0918 195.278 47.3984 198.405 44.7553 201.575C41.7587 205.168 38.8576 208.843 35.8098 212.392C33.6708 214.882 31.5628 217.451 28.5434 218.986C28.4469 219.036 28.3608 219.105 28.2699 219.166C28.3802 219.184 28.5023 219.244 28.5988 219.215C30.4427 218.674 32.3669 218.452 33.7133 216.708C36.1992 213.488 38.8765 210.417 41.4336 207.251C44.5972 203.334 47.6053 199.283 51.3643 195.891C51.6704 195.615 51.9902 195.328 52.3535 195.147C53.1588 194.745 53.8989 194.611 54.5268 195.563C55.777 197.459 57.1412 199.28 58.3897 201.177C59.2227 202.443 58.9523 203.064 57.446 204.089C53.4795 206.788 49.1714 208.709 44.5622 210.019C42.6429 210.564 40.7396 211.256 39.3756 212.872C39.279 212.986 39.1755 213.095 39.0752 213.206C39.2372 213.191 39.4106 213.207 39.5596 213.155C45.7667 210.959 51.9813 208.784 58.1674 206.53C59.1841 206.16 60.1198 205.504 61.0076 204.862C61.5742 204.452 61.5474 203.838 61.1774 203.178C59.9062 200.914 58.6904 198.617 57.4655 196.327C57.3823 196.171 57.3462 195.812 57.375 195.802C57.6872 195.695 58.0318 195.539 58.339 195.586C59.6232 195.782 60.9173 195.966 62.1716 196.294C65.0031 197.033 67.8148 197.85 70.6281 198.657C70.7926 198.705 70.9002 198.951 71.0342 199.105C70.3226 199.661 69.6111 200.217 68.8405 200.832C65.8592 203.427 62.9344 205.96 60.0155 208.5C58.4521 209.86 56.8987 211.232 55.3405 212.599C55.2766 212.655 55.2101 212.708 55.1448 212.762C55.292 212.787 55.4518 212.861 55.5844 212.828C57.477 212.349 59.332 211.867 60.8805 210.502C64.5786 207.242 68.3667 204.085 72.0976 200.862C72.8646 200.199 73.6096 199.486 74.2408 198.697C75.0329 197.706 74.8524 197.022 73.6017 196.54C72.6149 196.159 71.5364 195.984 70.483 195.816C67.3421 195.313 64.1955 194.844 61.0468 194.393C59.6634 194.195 58.2685 194.078 56.8811 193.906C56.6332 193.875 56.3968 193.751 56.155 193.67C56.2751 193.475 56.367 193.254 56.5195 193.089C57.7345 191.777 58.9607 190.475 60.1843 189.171C60.292 189.056 60.4062 188.947 60.5174 188.836C60.3434 188.794 60.1716 188.738 59.9953 188.712C56.7715 188.236 53.5481 187.757 50.3225 187.293C48.2046 186.988 46.0873 186.673 43.9627 186.423C41.7885 186.167 39.6077 185.96 37.4259 185.78C35.4747 185.618 33.5157 185.551 31.5646 185.388C30.3147 185.284 29.0765 185.038 27.8265 184.937C26.2637 184.81 24.6927 184.79 23.128 184.683C21.1734 184.549 19.223 184.352 17.2682 184.222C15.6251 184.112 13.9765 184.082 12.3334 183.971C11.008 183.882 9.68933 183.686 8.36356 183.606C7.06821 183.528 5.7677 183.536 4.46945 183.506C1.10822 183.427 -2.25278 183.331 -5.61444 183.276C-7.67123 183.242 -9.74576 183.114 -11.7797 183.333ZM183.736 175.397C182.839 175.49 181.923 175.369 181.02 175.423C178.817 175.553 176.619 175.755 174.416 175.879C172.366 175.994 170.306 175.97 168.262 176.144C166.169 176.321 164.915 177.196 165.049 179.705C165.17 181.968 165.212 184.235 165.292 186.501C165.367 188.609 165.449 190.716 165.522 192.825C165.533 193.136 165.522 193.45 165.502 193.761C165.484 194.031 165.44 194.299 165.407 194.568C165.485 194.569 165.621 194.592 165.631 194.566C165.742 194.275 165.885 193.982 165.92 193.678C166.043 192.615 166.123 191.546 166.225 190.48C166.377 188.89 166.531 187.3 166.692 185.71C166.773 184.906 166.865 184.103 166.96 183.301C167.018 182.802 167.075 182.302 167.164 181.808C167.201 181.598 167.317 181.402 167.398 181.199C167.562 181.293 167.76 181.354 167.887 181.486C169.432 183.092 170.488 184.964 170.894 187.193C170.938 187.437 171.085 187.662 171.185 187.896C171.267 187.689 171.335 187.475 171.434 187.277C173.239 183.664 176.082 181.264 179.964 180.444C181.739 180.069 183.654 180.388 185.505 180.377C186.437 180.371 186.591 180.906 186.51 181.702C186.334 183.434 186.201 185.171 186.036 186.904C185.81 189.263 185.568 191.619 185.339 193.978C185.179 195.632 185.048 197.291 184.859 198.942C184.806 199.407 184.595 199.852 184.463 200.308C184.4 200.521 184.353 200.739 184.299 200.954C184.536 200.79 184.921 200.67 184.984 200.453C185.304 199.36 185.538 198.241 185.805 197.132C186.114 195.844 186.426 194.556 186.737 193.15C187.048 190.957 187.475 188.891 187.641 186.804C187.876 183.854 188.327 180.871 187.67 177.934C187.298 176.272 185.401 175.224 183.736 175.397ZM190.058 181.193C189.573 181.364 189.207 181.882 188.789 182.248C189.077 182.583 189.318 182.986 189.664 183.239C190.424 183.794 191.329 184.171 192.01 184.802C193.629 186.302 192.863 189.282 191.183 190.07C190.408 190.433 189.634 190.802 188.885 191.217C188.615 191.367 188.42 191.658 188.19 191.885C188.47 191.892 188.749 191.899 189.028 191.907C190.822 191.953 192.167 191.124 193.172 189.682C194.686 187.508 193.882 185.383 192.099 183.683C191.931 183.523 191.779 183.345 191.608 183.19C191.386 182.989 191.153 182.802 190.925 182.609C191.368 182.553 191.858 182.345 192.247 182.466C193.703 182.918 194.529 184.134 194.97 185.465C196.488 190.035 192.901 193.737 188.832 193.26C188.402 193.21 187.938 193.462 187.489 193.574C187.597 193.642 187.697 193.736 187.814 193.774C191.221 194.885 194.124 193.626 195.77 190.333C195.883 190.106 196.039 189.901 196.175 189.568C196.962 185.531 195.28 182.52 191.59 181.317C191.107 181.159 190.504 181.035 190.058 181.193ZM185.909 176.611C186.631 176.777 186.885 177.557 186.503 178.25C185.98 179.198 185.173 179.233 184.2 179.137C182.666 178.985 181.103 178.867 179.574 178.997C177.635 179.163 175.727 179.693 173.788 179.876C172.173 180.028 170.533 179.907 168.788 179.789C168.106 179.749 167.425 179.698 166.742 179.673C165.922 179.644 165.453 178.986 165.895 178.284C166.166 177.852 166.725 177.404 167.202 177.344C169.195 177.095 171.203 176.949 173.21 176.847C174.629 176.774 176.057 176.89 177.476 176.819C179.625 176.713 181.767 176.488 183.916 176.377C184.576 176.343 185.259 176.462 185.909 176.611ZM79.5757 168.075C77.2026 168.122 74.8357 168.506 72.467 168.752C72.2903 168.77 72.0996 168.826 71.9522 168.922C71.643 169.124 71.3583 169.364 71.0636 169.589C71.44 169.626 71.8157 169.673 72.1928 169.699C74.5553 169.861 76.9174 170.033 79.2817 170.163C79.6745 170.185 80.082 169.932 80.475 169.953C82.9175 170.084 85.3568 170.278 87.7996 170.4C88.3493 170.428 88.9132 170.165 89.4627 170.193C91.8273 170.315 94.1882 170.512 96.5525 170.64C96.9845 170.663 97.4311 170.408 97.8633 170.43C100.306 170.559 102.745 170.753 105.188 170.877C105.698 170.904 106.223 170.643 106.734 170.67C109.098 170.794 111.459 170.99 113.823 171.116C114.295 171.141 114.78 170.883 115.252 170.908C117.694 171.035 120.134 171.226 122.576 171.355C123.008 171.378 123.455 171.123 123.887 171.146C126.33 171.275 128.769 171.463 131.212 171.594C131.605 171.615 132.012 171.363 132.405 171.384C134.847 171.515 137.287 171.708 139.73 171.831C140.279 171.858 140.843 171.596 141.393 171.624C143.757 171.746 146.118 171.942 148.482 172.07C148.914 172.094 149.361 171.838 149.793 171.861C152.236 171.99 154.675 172.182 157.118 172.308C157.589 172.333 158.075 172.075 158.546 172.1C160.95 172.226 163.35 172.42 165.753 172.547C166.225 172.572 166.71 172.314 167.182 172.338C169.624 172.465 172.064 172.658 174.506 172.785C174.978 172.81 175.463 172.552 175.934 172.577C178.299 172.703 180.66 172.896 183.024 173.024C183.456 173.047 183.903 172.792 184.335 172.815C186.777 172.944 189.217 173.13 191.66 173.263C192.013 173.283 192.382 173.031 192.735 173.053C194.75 173.177 196.76 173.365 198.775 173.491C200.146 173.577 201.526 173.54 202.893 173.658C204.847 173.828 206.805 174.015 208.738 174.336C210.251 174.587 211.716 175.132 213.23 175.372C213.656 175.439 214.285 174.977 214.605 174.579C214.74 174.411 214.435 173.637 214.132 173.387C212.886 172.363 211.388 172.189 209.72 172.323C208.682 172.244 207.761 172.169 206.841 172.084C205.169 171.929 203.501 171.718 201.826 171.62C199.616 171.491 197.4 171.375 195.188 171.386C191.474 171.405 187.76 171.581 184.045 171.591C181.285 171.599 178.523 171.454 175.762 171.368C173.432 171.296 171.102 171.209 168.772 171.132C166.324 171.05 163.876 170.974 161.428 170.892C159.098 170.815 156.767 170.759 154.438 170.648C151.669 170.516 148.903 170.317 146.134 170.193C145.544 170.166 144.943 170.424 144.353 170.402C140.84 170.272 137.329 170.094 133.817 169.943C133.178 169.916 132.535 169.975 131.898 169.932C129.808 169.791 127.721 169.601 125.631 169.478C125.16 169.45 124.673 169.712 124.203 169.685C122.073 169.562 119.947 169.366 117.817 169.239C117.425 169.215 117.017 169.471 116.624 169.447C114.534 169.32 112.447 169.124 110.357 169.001C109.886 168.973 109.399 169.235 108.929 169.208C106.799 169.085 104.673 168.886 102.544 168.763C102.073 168.735 101.586 168.998 101.116 168.97C99.064 168.847 97.017 168.644 94.9653 168.525C94.4558 168.495 93.9295 168.76 93.42 168.731C91.3682 168.611 89.321 168.414 87.2697 168.284C86.9168 168.262 86.5474 168.515 86.1941 168.494C83.9863 168.363 81.7779 168.031 79.5757 168.075ZM79.6156 51.2248C74.4419 51.7035 69.568 53.3616 65.081 55.9233C62.444 57.4288 59.992 59.2907 57.5904 61.1625C53.8651 64.0659 50.9388 67.7038 48.4121 71.6704C46.5277 74.6288 44.8801 77.7184 43.9018 81.0824C43.0123 84.1407 42.2168 87.2499 41.7202 90.39C41.3615 92.6579 41.5738 95.0137 41.507 97.3297C41.4388 99.6966 41.687 102.031 41.939 104.385C42.554 110.133 43.6323 115.763 45.2466 121.316C45.9472 123.726 45.4415 126.22 44.9823 128.66C44.58 130.798 43.8388 132.795 42.7009 134.652C42.5638 134.876 42.5749 135.19 42.5173 135.462C42.8087 135.443 43.1157 135.477 43.3892 135.397C45.362 134.821 46.0016 133.212 46.472 131.45C46.8096 130.186 47.1146 128.896 47.63 127.701C48.2194 126.334 48.4482 126.464 49.7418 127.108C52.4052 128.434 55.1124 129.694 57.8766 130.794C61.621 132.283 65.5588 133.055 69.5421 133.68C71.7043 134.018 73.888 134.678 75.5163 136.256C76.2732 136.99 76.8599 138.032 77.1825 139.042C77.5864 140.307 77.6786 141.64 76.9268 142.95C76.4811 143.726 76.0126 143.858 75.2713 143.654C71.6732 142.664 68.1006 141.565 64.4684 140.721C61.6787 140.072 58.803 139.801 55.9852 139.26C53.0609 138.699 50.1163 138.562 47.1541 138.575C46.9313 138.576 46.7088 138.635 46.4862 138.666C46.6879 138.713 46.8887 138.764 47.0914 138.805C49.8449 139.369 52.6005 139.922 55.3517 140.496C57.8448 141.017 60.3312 141.57 62.8241 142.092C65.6102 142.676 68.4063 143.215 71.186 143.827C72.5425 144.126 73.899 144.471 75.2067 144.932C77.0315 145.576 77.6048 146.708 77.7052 148.778C77.8181 151.107 77.4158 153.287 76.8556 155.449C75.8497 159.329 74.126 162.868 71.3383 165.86C68.9954 168.376 66.3536 170.413 62.9947 171.281C61.1835 171.749 59.2899 172.043 57.4219 172.114C55.0927 172.203 52.8285 171.767 50.6196 170.838C47.8519 169.674 45.7137 167.846 44.1275 165.398C42.385 162.71 41.2384 159.737 40.8251 156.553C40.482 153.91 40.1243 151.241 40.1449 148.586C40.1746 144.757 40.9675 141.022 42.448 137.457C42.5401 137.236 42.8993 136.923 42.1936 136.903C40.3264 136.849 38.4737 138.551 38.4492 140.491C38.4269 142.266 38.3674 144.046 38.4614 145.816C38.6316 149.024 35.2055 153.217 32.382 153.941C31.7647 154.099 31.709 153.88 31.8599 153.561C33.5813 149.919 32.5249 146.358 31.5026 142.839C29.5286 136.044 26.8227 129.514 24.1132 122.985C21.4635 116.6 18.9195 110.171 16.3468 103.754C14.1646 98.3113 12.0174 92.8546 9.83679 87.4112C7.73709 82.1697 5.6149 76.9372 3.49994 71.7017C3.43219 71.5341 3.32104 71.3837 3.25479 71.2156C3.12918 70.897 3.02142 70.5714 2.90625 70.2486C3.23502 70.4709 3.64188 70.6304 3.88068 70.925C6.70663 74.4111 9.3374 78.0718 12.3613 81.3764C15.593 84.9081 19.1021 88.2046 22.6562 91.4218C25.1951 93.7199 28.0064 95.7198 30.7016 97.846C30.9538 98.0449 31.2452 98.1946 31.5185 98.3672C31.4924 98.0493 31.4345 97.7302 31.4453 97.4135C31.5278 94.9835 29.2713 94.7651 27.9142 93.7038C25.8708 92.106 23.7467 90.6043 21.7715 88.9278C18.091 85.804 15.1616 81.9916 12.1774 78.2357C11.3706 77.2204 10.5067 76.2501 9.60999 75.2004C6.99371 72.3596 4.53189 69.4821 1.85043 66.8244C-0.501068 64.4937 -3.1142 62.4561 -6.41559 61.4971C-7.88788 61.0694 -10.5633 62.0508 -11.5534 63.6028C-12.5865 65.2223 -12.9978 66.9982 -12.9927 68.9288C-12.9819 72.9366 -12.1657 76.8194 -11.3188 80.7009C-10.3946 84.936 -9.49841 89.1787 -8.46899 93.3888C-7.86514 95.8583 -7.15506 98.3187 -6.26581 100.699C-4.15033 106.362 -2.00287 112.017 0.335999 117.59C1.66687 120.761 3.31247 123.814 4.98602 126.826C5.91388 128.496 7.28458 129.769 9.48978 129.668C10.393 129.627 10.9737 130.678 11.0982 131.962C11.2792 133.827 11.4327 135.709 11.8176 137.539C12.5969 141.242 14.2576 144.61 16.2487 147.8C17.753 150.211 19.4252 152.517 20.9779 154.899C22.0533 156.548 23.4775 157.879 25.4283 157.982C26.6506 158.047 27.9216 157.272 29.1616 156.847C29.3634 156.778 29.5412 156.59 29.6887 156.421C30.2964 155.726 30.7638 154.699 31.522 154.404C32.231 154.128 33.2624 154.822 34.116 154.737C35.575 154.59 36.795 153.833 37.687 152.614C37.8609 152.377 38.0587 151.824 38.2481 152.733C38.762 155.199 39.4129 157.64 40.1072 160.064C41.3725 164.481 43.7154 168.278 47.2955 171.169C49.5147 172.962 52.072 174.149 55.0675 174.313C58.1055 174.48 60.8293 173.656 63.5477 172.448C67.3954 170.738 70.7766 168.407 73.9361 165.641C78.4679 161.673 81.904 156.919 84.2625 151.463C85.5819 148.411 86.3559 145.114 87.2494 141.892C88.1497 138.646 89.2824 135.533 91.1446 132.687C92.8322 130.107 94.0628 127.287 94.5296 124.234C94.6852 123.216 94.3389 122.084 94.0613 121.046C93.509 118.982 93.2043 116.898 93.6709 114.808C93.9034 113.767 94.5406 112.822 94.9097 111.802C96.3905 107.714 97.9479 103.648 99.26 99.5051C100.165 96.6484 100.791 93.6955 101.393 90.7554C101.778 88.8728 101.898 86.9358 102.126 85.022C102.293 83.6259 102.497 82.2312 102.587 80.8297C102.716 78.8159 102.689 76.791 102.853 74.7809C103.064 72.1883 102.68 69.6206 102.042 67.1838C101.418 64.8005 100.199 62.5409 99.0317 60.3374C97.6789 57.7844 95.8263 55.5926 93.3206 54.0407C91.0828 52.6548 88.6942 51.6251 86.0392 51.4303C83.902 51.2735 81.733 51.0289 79.6156 51.2248ZM96.6459 113.787C96.7946 114.032 96.8841 114.385 97.1016 114.505C98.3735 115.208 99.6465 115.923 100.974 116.51C103.226 117.506 105.518 118.411 107.911 119.354C111.651 121.019 115.348 122.542 118.875 124.391C122.388 126.232 125.655 128.492 128.704 131.078C133.168 134.863 136.77 139.305 139.096 144.667C140.047 146.858 140.698 149.259 141.016 151.628C141.436 154.761 141.385 157.957 141.554 161.125C141.696 163.784 141.854 166.443 142.027 169.1C142.093 170.102 142.872 169.359 143.281 169.541C143.314 169.555 143.654 169.151 143.633 168.966C143.436 167.199 143.082 165.442 142.99 163.671C142.875 161.439 142.98 159.195 142.959 156.957C142.917 152.667 142.1 148.549 140.316 144.623C138.654 140.968 136.413 137.73 133.754 134.734C129.739 130.211 124.934 126.75 119.694 123.834C114.738 121.076 109.601 118.72 104.282 116.746C101.975 115.89 99.7284 114.87 97.4484 113.939C97.2014 113.838 96.9144 113.835 96.6459 113.787ZM33.7288 165.702C31.6915 165.989 29.6631 166.344 27.6281 166.65C26.3864 166.836 25.1427 167.069 23.8935 167.124C22.0627 167.204 20.2256 167.114 18.3925 167.155C17.049 167.184 15.7069 167.299 14.3653 167.393C13.4147 167.459 12.4668 167.609 11.5163 167.624C9.31686 167.659 7.1163 167.659 4.91675 167.63C-0.236359 167.563 -5.38928 167.419 -10.5421 167.426C-11.859 167.428 -13.1752 167.881 -14.4922 168.124C-14.5684 168.138 -14.6799 168.09 -14.7227 168.131C-15.0239 168.418 -15.3113 168.721 -15.6032 169.018C-15.2221 169.048 -14.8411 169.102 -14.46 169.103C-11.8537 169.11 -9.24725 169.129 -6.64145 169.095C-5.61249 169.082 -4.58621 168.897 -3.55673 168.87C0.220764 168.767 3.99899 168.69 7.77716 168.62C9.12589 168.595 10.4754 168.616 11.9424 168.616C13.6317 168.616 15.2037 168.646 16.7742 168.609C19.1779 168.554 21.58 168.413 23.9837 168.381C27.0215 168.34 30.0617 168.429 33.098 168.345C34.5197 168.306 35.94 168.03 37.3502 167.792C38.1382 167.66 38.3221 166.929 38.0605 166.335C37.88 165.925 37.2761 165.495 36.8426 165.473C35.8102 165.42 34.7605 165.556 33.7288 165.702ZM94.0355 116.491C94.1191 116.537 94.228 116.564 94.2828 116.633C95.9983 118.801 97.9066 120.849 99.3711 123.175C101.339 126.3 102.964 129.647 103.936 133.245C104.461 135.19 104.841 137.174 105.298 139.138C105.598 140.426 106.277 141.489 107.389 142.203C108.867 143.151 110.432 143.965 111.888 144.943C115.513 147.378 117.809 150.826 119.147 154.917C119.896 157.205 120.368 159.548 119.935 161.999C119.671 163.489 119.562 165.007 119.397 166.513C119.371 166.753 119.421 167.001 119.435 167.245C119.753 167.216 120.224 167.308 120.36 167.136C120.734 166.664 121.138 166.107 121.223 165.537C121.477 163.838 121.578 162.117 121.755 160.406C121.792 160.049 121.899 159.7 121.974 159.347C122.291 159.699 122.654 160.02 122.917 160.409C124.677 163.002 126.41 165.614 128.173 168.205C128.302 168.394 128.604 168.466 128.826 168.593C128.883 168.197 129.116 167.709 128.966 167.422C128.408 166.353 127.797 165.295 127.071 164.334C125.372 162.087 123.447 159.997 121.903 157.653C120.886 156.107 120.335 154.245 119.645 152.497C118.938 150.709 117.823 149.244 116.381 147.999C114.562 146.427 112.751 144.846 110.878 143.211C109.606 141.861 108.244 140.677 107.214 139.254C105.855 137.377 105.372 135.089 104.823 132.861C103.66 128.147 101.589 123.875 98.5327 120.09C97.7714 119.148 97.0497 118.158 96.1815 117.323C95.7099 116.87 94.9713 116.689 94.3444 116.405C94.2699 116.371 94.1398 116.459 94.0355 116.491ZM264.219 74.7097C262.903 75.0503 262.712 76.1943 263.719 77.068C266.004 79.0518 267.092 81.5844 267.259 84.5256C267.352 86.1502 267.2 87.7885 267.29 89.4134C267.587 94.7698 266.023 99.7002 263.707 104.404C261.493 108.9 258.27 112.603 253.644 114.767C250.989 116.008 248.151 116.879 245.356 117.797C242.928 118.595 240.44 119.211 237.986 119.932C235.579 120.64 233.207 121.282 230.657 120.432C229.348 119.995 228.367 121.166 228.868 122.434C230.762 127.231 232.377 132.209 235.705 136.254C237.702 138.68 240.012 140.925 242.483 142.873C246.111 145.733 250.282 147.771 254.448 149.78C258.512 151.739 262.485 153.887 266.566 155.807C271.165 157.969 275.825 160.005 280.488 162.028C284.25 163.66 288.048 165.211 291.85 166.751C292.759 167.119 293.732 167.377 294.701 167.537C295.672 167.698 297.804 166.176 298.185 165.17C299.152 162.616 299.809 159.99 300.081 157.269C300.246 155.612 300.468 153.962 300.724 152.309C300.783 152.191 300.783 152.074 300.724 151.898C300.625 149.633 300.584 147.426 300.557 145.22C300.556 145.159 300.704 145.096 300.783 145.035V144.155C300.743 144.096 300.67 144.097 300.67 144.096C300.595 142.054 300.532 140.011 300.453 137.968C300.427 137.308 300.353 136.651 300.312 135.991C299.974 130.515 299.323 125.074 297.922 119.765C296.804 115.529 295.328 111.409 293.534 107.384C291.487 102.793 288.998 98.4754 286.131 94.3704C284.671 92.2791 283.075 90.2636 281.378 88.3574C279.335 86.0639 277.236 83.793 274.947 81.7503C272.334 79.4182 269.526 77.2927 266.706 75.2067C266.078 74.7422 264.968 74.5158 264.219 74.7097ZM267.648 77.9282C267.78 77.9877 267.93 78.0246 268.043 78.11C271.589 80.7984 275.113 83.5138 278.049 86.8869C279.873 88.9823 281.738 91.0485 283.46 93.2249C287.645 98.5147 290.884 104.344 293.35 110.778C293.434 111.017 293.531 111.253 293.599 111.497C294.659 115.284 295.78 119.055 296.741 122.866C297.168 124.557 297.29 126.326 297.514 128.064C297.761 129.977 298.035 131.891 298.165 133.813C298.273 135.396 298.128 136.995 298.203 138.583C298.297 140.554 298.569 142.518 298.636 144.49C298.68 145.822 298.465 147.16 298.432 148.497C298.393 150.113 298.453 151.731 298.414 153.346C298.381 154.671 298.349 156.006 298.166 157.315C297.941 158.918 297.54 160.496 297.247 162.091C296.825 164.394 295.879 165.285 293.625 165.448C292.045 165.563 290.844 164.629 290.623 163.148C290.596 162.969 290.313 162.655 290.276 162.673C288.284 163.608 286.556 162.666 284.81 161.925C281.101 160.351 277.375 158.812 273.703 157.156C268.24 154.691 262.799 152.175 257.385 149.606C254.852 148.403 252.365 147.093 249.927 145.71C245.168 143.01 240.818 139.809 237.295 135.552C234.564 132.253 232.876 128.503 231.898 124.399C231.713 123.619 231.986 122.942 232.918 122.742C235.443 122.2 237.963 121.629 240.492 121.106C245.633 120.041 250.602 118.558 255.222 115.963C261.155 112.63 264.955 107.596 267.237 101.378C268.32 98.4279 269.189 95.3709 269.167 92.1587C269.15 89.7469 269.362 87.3138 269.105 84.9293C268.868 82.7255 268.14 80.5742 267.636 78.3978C267.602 78.25 267.642 78.0851 267.648 77.9282ZM168.729 112.784C167.323 113.75 165.932 114.741 164.57 115.767C164.2 116.046 164.171 116.322 164.004 115.594C163.742 114.456 162.123 114.138 161.154 114.947C158.931 116.802 157.809 119.295 156.995 122.007C156.29 124.359 156.569 126.749 156.501 129.126C156.457 130.651 155.028 131.801 153.529 131.862C152.421 131.908 151.255 132.394 150.258 132.944C147.846 134.275 146.295 136.375 145.532 139.021C144.712 141.869 145.475 144.405 147.126 146.772C148.628 148.925 149.995 151.18 152.174 152.758C153.379 153.632 154.768 154.356 155.711 155.459C156.725 156.643 157.888 157.416 159.268 157.948C162.667 159.26 166.381 157.559 168.045 154.724C169.545 152.17 173.156 152.731 174.555 154.801C175.166 155.704 175.333 156.897 175.79 157.918C176.069 158.545 175.798 158.45 175.379 158.388C173.301 158.079 171.222 157.784 169.142 157.49C169.036 157.475 168.921 157.516 168.81 157.531C168.892 157.594 168.969 157.668 169.058 157.719C171.12 158.884 173.352 159.543 175.686 159.821C177.455 160.032 179.263 160.37 181.006 160.191C182.38 160.051 183.778 159.368 184.991 158.637C186.422 157.775 186.852 156.312 186.824 154.602C186.771 151.281 185.497 148.479 183.394 146.05C182.789 145.351 181.719 145.056 180.868 144.566C180.545 144.38 180.074 144.356 180.646 143.755C183.143 141.132 185.361 138.291 186.878 134.964C187.118 134.439 187.365 133.897 187.47 133.337C187.534 132.993 187.438 132.502 187.215 132.265C187.075 132.115 186.517 132.223 186.234 132.377C185.811 132.608 185.476 132.995 185.085 133.292C184.419 133.798 184.05 133.583 184.23 132.793C184.743 130.549 184.271 128.419 183.482 126.36C183.057 125.25 182.364 124.237 181.722 123.225C181.661 123.129 181.042 123.274 180.773 123.448C180.275 123.771 179.842 124.197 179.383 124.581C179.352 123.967 179.342 123.352 179.282 122.742C179.246 122.379 179.157 122.016 179.047 121.667C178.496 119.919 178.201 119.831 176.742 120.927C176.547 121.074 176.312 121.169 176.096 121.289L176.033 120.844C176.023 120.77 176.015 120.696 176.009 120.621C175.848 118.701 176.232 116.958 177.636 115.532C177.653 115.515 177.348 115.013 177.173 115C175.151 114.841 173.128 114.757 171.278 115.838C170.9 116.058 170.523 116.281 170.087 116.561C169.911 116.401 169.714 116.191 169.69 115.963C169.581 114.929 169.531 113.888 169.411 112.855C169.405 112.799 168.88 112.681 168.729 112.784ZM182.202 146.232C182.247 146.317 182.276 146.419 182.34 146.486C184.641 148.916 185.714 151.801 185.629 155.148C185.583 156.965 184.614 158.304 182.797 158.635C181.642 158.846 180.444 158.837 179.264 158.869C179.121 158.873 178.889 158.54 178.834 158.328C178.486 156.976 178.511 155.469 177.062 154.433C176.658 154.276 176.253 154.121 175.85 153.962C175.667 153.89 175.342 153.825 175.334 153.734C175.317 153.541 175.409 153.242 175.557 153.15C175.953 152.905 176.387 152.635 176.834 152.573C178.892 152.287 180.352 151.202 181.19 149.334C181.588 148.446 181.805 147.476 182.104 146.543C182.137 146.44 182.169 146.336 182.202 146.232ZM176.711 155.255C176.867 155.846 177.046 156.434 177.157 157.034C177.176 157.135 176.86 157.424 176.769 157.396C176.395 157.282 176.275 155.487 176.711 155.255ZM168.178 114.063C168.052 114.494 167.874 114.918 167.811 115.358C167.667 116.357 167.753 117.312 168.734 117.9C169.518 118.37 170.105 117.806 170.639 117.393C171.85 116.456 173.28 116.334 174.702 116.155C175.478 116.058 175.514 116.377 175.26 117.046C174.887 118.028 174.422 119.073 174.451 120.077C174.47 120.708 175.275 121.358 175.812 121.918C176.313 122.44 176.793 122.193 177.19 121.677C177.25 121.598 177.446 121.624 177.58 121.6C177.57 121.812 177.598 122.034 177.546 122.235C177.235 123.428 177.68 124.582 178.932 125.268C179.798 125.744 180.409 125.019 180.935 124.458C181.331 124.035 181.368 124.292 181.536 124.613C182.998 127.412 183.165 130.339 182.389 133.347C182.196 134.095 182.54 134.467 183.157 134.438C183.876 134.405 184.581 134.123 185.298 133.979C185.63 133.912 185.977 133.917 186.317 133.89C186.224 134.217 186.182 134.569 186.032 134.868C184.791 137.337 183.196 139.57 181.126 141.385C179.904 142.456 179.155 143.395 179.191 145.242C179.239 147.654 177.956 149.627 175.729 150.939C173.956 151.984 172.07 151.766 170.199 151.83C169.242 151.863 168.546 152.194 167.976 152.953L167.75 153.256C166.582 154.824 165.426 156.385 163.335 156.933C160.977 157.551 158.822 157.304 157.004 155.642C156.625 155.295 156.622 154.468 156.605 153.858C156.602 153.747 157.369 153.552 157.793 153.504C159.486 153.315 161.189 153.745 162.898 153.282C165.314 152.628 167.533 151.666 169.363 149.923C169.708 149.594 169.999 149.208 170.314 148.848C169.758 148.979 169.2 149.106 168.646 149.245C168.507 149.279 168.349 149.32 168.249 149.412C165.661 151.797 162.624 152.837 159.114 152.56C155.552 152.279 153.717 150.408 153.533 147.281C153.343 144.051 153.967 140.924 155.452 137.996C155.667 137.572 155.665 136.985 155.613 136.489C155.412 134.563 154.928 132.619 156.995 131.249C157.343 131.019 157.439 130.249 157.463 129.72C157.533 128.15 158.028 127.564 159.559 127.422C160.493 127.336 161.016 126.776 161.23 125.899C161.291 125.645 161.288 125.375 161.315 125.112C161.564 125.336 161.879 125.519 162.05 125.792C162.916 127.179 164.208 128.037 165.567 128.867C166.255 129.287 166.478 129.239 166.648 128.46C166.729 128.094 167.026 127.775 167.225 127.435C167.417 127.708 167.616 127.976 167.799 128.254C168.04 128.622 168.211 129.057 168.514 129.359C169.599 130.438 170.694 131.512 171.863 132.494C172.118 132.708 172.881 132.712 173.075 132.502C173.33 132.226 173.296 131.643 173.308 131.191C173.32 130.74 173.209 130.287 173.207 129.835C173.206 129.658 173.345 129.337 173.436 129.332C173.63 129.32 173.929 129.415 174.017 129.565L174.477 130.34C174.936 131.115 175.388 131.897 175.758 132.715C176.748 134.906 177.154 137.233 177.208 139.637C177.216 139.976 177.577 140.34 177.849 140.62C177.942 140.716 178.421 140.645 178.451 140.558C178.578 140.178 178.677 139.76 178.65 139.365C178.608 138.739 178.446 138.122 178.354 137.499C177.798 133.733 176.168 130.531 173.356 127.955C173.252 127.861 172.893 127.854 172.886 127.875C172.631 128.748 172.392 129.626 172.177 130.51C172.129 130.71 172.174 130.932 172.175 131.144C171.987 131.058 171.776 131.003 171.613 130.882C169.834 129.565 168.41 127.943 167.389 125.967C167.143 125.49 166.799 125.065 166.5 124.616L165.975 125.572C165.801 125.891 165.629 126.212 165.465 126.536C165.402 126.66 165.501 126.866 165.441 126.994C165.395 127.088 165.132 127.195 165.103 127.165C164.194 126.226 163.321 125.252 162.398 124.328C162.044 123.973 161.378 123.39 161.209 123.493C160.66 123.829 160.257 124.419 159.842 124.946C159.747 125.067 159.9 125.372 159.812 125.512C159.652 125.769 159.309 126.194 159.196 126.15C158.625 125.929 158.052 125.641 157.592 125.245C157.408 125.087 157.511 124.594 157.6 124.136C158.074 121.141 159.256 118.494 161.413 116.325C161.549 116.188 161.689 116.056 161.827 115.922C161.864 116.102 161.901 116.282 161.938 116.463C162.144 117.457 163.214 118.055 163.985 117.453C164.959 116.694 165.731 115.681 166.662 114.859C167.078 114.492 167.667 114.322 168.178 114.063ZM85.7543 138.59C85.8377 138.673 85.9788 138.746 85.9941 138.84C86.0489 139.177 86.1308 139.531 86.0778 139.859C85.7876 141.652 85.4229 143.433 85.1542 145.228C84.6855 148.36 83.9016 151.4 82.284 154.142C81.7105 155.114 80.7791 155.878 79.998 156.725C79.9094 156.821 79.7357 156.839 79.6016 156.893C79.6073 156.81 79.6045 156.726 79.6202 156.645C79.8094 155.666 79.884 154.646 80.2162 153.718C81.0083 151.504 81.9224 149.334 82.9052 147.028C83.4948 145.431 84.118 143.846 84.6626 142.234C85.0374 141.124 85.3017 139.978 85.6202 138.849C85.6461 138.757 85.7088 138.676 85.7543 138.59ZM22.6569 133.329C22.6613 133.437 22.885 133.525 22.9889 133.639C23.2715 133.949 23.6012 134.234 23.8121 134.588C26.1345 138.487 27.3553 142.779 28.3001 147.167C28.5508 148.332 28.774 149.502 29.0099 150.904C29.0885 151.576 29.2468 152.25 29.2249 152.919C29.1995 153.695 29.207 154.566 28.8649 155.222C27.9063 157.062 25.335 157.01 23.7573 156.041C22.2974 155.144 21.5957 153.698 20.8051 152.333C19.4573 150.007 18.3321 147.549 16.9318 145.256C15.0273 142.138 13.1492 139.033 12.2907 135.432C12.0324 134.349 12.5842 133.61 13.74 133.644C16.4603 133.722 19.1043 133.186 21.7521 132.689C22.6423 132.522 22.6214 132.476 22.6569 133.329ZM154.233 132.842C154.703 134.867 154.402 136.8 153.819 138.711C152.97 141.495 152.045 144.258 152.329 147.233C152.527 149.315 153.462 150.959 155.25 152.108C155.525 152.284 155.648 152.697 155.842 153.001C155.48 153.076 155.115 153.217 154.756 153.203C154.535 153.194 154.296 152.98 154.112 152.808C152.789 151.578 151.306 150.469 150.212 149.06C149.111 147.642 148.4 145.921 147.401 144.216C147.172 143.126 146.901 142.042 146.722 140.943C146.32 138.478 147.554 136.106 149.803 135.268C151.275 134.72 152.888 134.516 153.513 132.727C153.615 132.435 153.996 131.822 154.233 132.842ZM225.456 79.3699C222.582 79.7113 219.688 80.2441 216.931 81.1076C213.976 82.0331 211.387 83.7943 209.291 86.1143C206.435 89.2773 204.571 92.9531 203.743 97.1749C203.392 98.9626 203.282 100.737 203.315 102.534C203.337 103.675 203.455 104.814 203.541 105.952C203.725 108.388 203.114 110.705 202.51 113.025C201.891 115.402 202.116 117.785 202.334 120.198C202.656 123.765 203.998 126.991 205.453 130.164C206.39 132.207 207.658 134.103 208.84 136.026C209.84 137.653 210.93 139.225 212.038 140.88C213.534 143.235 214.993 145.516 216.397 147.832C217.015 148.853 217.518 149.943 218.077 151.001C218.145 151.13 218.214 151.267 218.314 151.37C218.66 151.725 219.021 152.066 219.377 152.412C219.41 151.906 219.61 151.34 219.451 150.904C218.179 147.418 216.219 144.307 214.094 141.288C211.521 137.631 208.787 134.074 206.962 129.946C205.764 127.235 204.818 124.445 204.484 121.483C204.29 119.768 204.074 118.047 204.034 116.324C203.995 114.614 204.162 112.899 204.25 111.186C204.254 111.101 204.402 110.946 204.41 110.95C204.601 111.06 204.822 111.154 204.959 111.316C205.691 112.179 206.39 113.069 207.123 113.931C208.986 116.121 211.254 117.595 214.116 118.232C216.943 118.862 219.32 118.039 221.329 116.196C223.875 113.86 223.836 111.004 222.085 108.3C220.483 105.826 218.161 104.514 215.175 104.094C212.255 103.684 209.605 104.495 206.954 105.36C205.975 105.68 205.372 106.023 205.325 104.637C205.273 103.068 205.37 101.478 205.145 99.9346C204.857 97.9499 205.549 96.2171 206.108 94.4154C207.215 90.8503 209.354 88.0599 212.216 85.6992C214.411 83.8881 216.875 82.6432 219.56 81.9134C222.333 81.16 225.147 80.815 228.097 81.1143C232.875 81.5991 237.028 83.4287 240.801 86.2267C243.473 88.2088 245.553 90.7754 247.396 93.5368C247.671 93.9483 248.125 94.2402 248.494 94.5891C248.955 95.025 249.571 95.1506 249.9 94.6408C250.15 94.2538 250.241 93.4283 249.996 93.1133L249.428 92.3798C248.288 90.911 247.126 89.4438 245.772 88.1938C244.113 86.6628 242.212 85.374 240.329 84.1107C237.182 81.9991 233.733 80.5783 229.963 80.0011C228.457 79.7706 226.913 79.1968 225.456 79.3699ZM180.173 147.919C180.191 148.068 180.24 148.221 180.223 148.365C180.064 149.712 179.182 150.604 178.183 151.35C177.849 151.6 177.264 151.513 176.794 151.58C177.042 151.198 177.274 150.804 177.544 150.438C177.704 150.22 177.924 150.046 178.117 149.618C178.692 149.12 179.265 148.621 179.844 148.127C179.942 148.044 180.063 147.988 180.173 147.919ZM-5.211 64.4416C-3.95212 65.4894 -2.70038 66.5502 -1.50549 67.6689C0.45459 69.5039 1.69626 71.8522 2.72275 74.2578C4.8812 79.3164 6.87668 84.4441 8.91946 89.5513C11.93 97.078 14.9235 104.611 17.9242 112.377C18.0815 112.626 18.2835 112.857 18.3893 113.126C20.2976 117.976 22.1876 122.833 24.0957 127.683C25.5664 131.421 27.1269 135.126 28.5176 138.893C29.8038 142.377 30.6359 145.992 31.1208 149.678C31.1675 150.033 31.0471 150.41 31.0042 150.777C30.9684 150.465 30.9812 150.136 30.8799 149.847C30.8118 149.653 30.4999 149.541 30.4373 149.347C29.2415 145.651 28.1436 141.92 26.8604 138.254C25.9772 135.731 24.8675 133.285 23.8101 130.824C23.3161 129.676 22.8754 129.564 21.7658 130.114C21.0162 130.485 20.2533 130.832 19.5206 131.234C18.3624 131.869 17.1355 132.11 15.8265 131.994C14.8934 131.911 13.7267 130.834 13.7041 129.832C13.682 128.852 14.1172 128.066 15.253 127.962C15.9636 127.897 16.6902 127.932 17.3851 127.797C17.8978 127.697 18.3709 127.395 18.8616 127.183C18.5417 126.939 18.2444 126.652 17.8936 126.466C17.6766 126.35 17.3783 126.385 17.1161 126.355C15.3594 126.152 13.8692 126.992 12.3255 127.594C9.54544 128.677 7.97824 128.471 6.56567 126.616C5.80667 125.619 5.29776 124.411 4.79584 123.246C2.51794 117.962 0.10025 112.728 -1.91742 107.346C-4.0047 101.778 -5.9498 96.1289 -7.47842 90.3889C-9.12292 84.2138 -10.925 78.0299 -11.243 71.5761C-11.3306 69.799 -11.1781 68.0786 -10.6698 66.3236C-9.85165 63.4986 -7.18539 62.7981 -5.211 64.4416ZM91.4488 121.004C91.5492 121.197 91.6772 121.381 91.7459 121.585C92.6291 124.202 92.4909 126.823 91.2686 129.247C89.9889 131.784 88.4215 134.178 86.9655 136.626C86.9037 136.729 86.6977 136.748 86.5588 136.807C86.5141 136.618 86.3898 136.406 86.4371 136.244C86.8542 134.815 87.3284 133.402 87.7186 131.966C87.7991 131.67 87.7115 131.175 87.5048 130.991C87.1987 130.719 86.6854 130.455 86.3157 130.517C85.2481 130.695 84.3613 131.964 84.256 133.231C84.0822 135.324 84.0208 137.434 83.7046 139.505C83.196 142.835 81.8822 145.92 80.4234 148.939C80.3445 149.103 80.1904 149.23 80.0712 149.374C79.9545 149.187 79.7831 149.015 79.7309 148.812C79.5481 148.101 79.5144 147.334 79.2298 146.67C78.2271 144.334 78.2433 142.088 79.4705 139.825C80.142 138.587 80.6644 137.269 81.372 135.869C81.8713 134.432 82.1081 132.82 82.9306 131.599C84.1989 129.717 85.9079 128.134 87.3559 126.364C88.6341 124.802 89.8108 123.157 91.0325 121.549L91.4488 121.004ZM158.397 143.303C158.129 143.763 157.921 144.189 157.58 144.439C156.299 145.375 156.443 147.896 157.704 148.673C157.986 148.847 158.473 148.701 158.865 148.702C158.865 148.383 158.963 148.025 158.85 147.752C158.052 145.832 158.88 144.258 160.971 143.754C161.298 143.675 161.596 143.476 161.907 143.333C161.621 143.157 161.341 142.971 161.047 142.808C160.733 142.633 160.408 142.48 160.086 142.319C158.877 141.716 158.683 141.816 158.397 143.303ZM156.28 133.261C156.09 134.354 156.149 135.535 156.345 136.634C156.498 137.492 158.747 137.963 159.969 137.804C161.261 137.637 162.056 136.865 162.858 136.043C163.558 135.327 164.355 134.764 165.341 135.162C166.343 135.567 166.381 136.562 166.334 137.621C166.615 139.484 167.156 140.992 168.783 142.095C170.936 143.555 173.417 142.485 174.384 140.715C174.493 140.515 174.687 140.361 174.842 140.185C174.959 140.357 175.113 140.515 175.188 140.703C175.769 142.172 176.4 143.627 176.882 145.129C177.182 146.064 176.754 146.49 175.798 146.48C175.159 146.474 174.519 146.468 173.88 146.486C173.713 146.491 173.548 146.583 173.382 146.635C173.474 146.791 173.53 147.033 173.665 147.089C174.268 147.337 174.983 147.836 175.493 147.688C176.833 147.299 178.008 146.565 178.084 144.904C178.209 142.198 176.757 140.156 175.212 138.166C173.453 135.899 170.857 135.099 168.239 134.357C164.951 133.426 161.664 132.49 158.374 131.562C157.689 131.369 156.467 132.182 156.28 133.261ZM168.855 135.366C170.028 135.832 171.187 136.344 172.308 136.921C174.244 137.918 174.447 139.68 172.835 141.077C171.16 142.53 169.009 142.037 168.376 139.961C168.021 138.797 167.945 137.549 167.744 136.106C167.689 135.232 168.24 135.122 168.855 135.366ZM163.995 136.231C163.892 136.272 163.792 136.326 163.686 136.353C162.094 136.759 160.856 139.351 161.613 140.755C161.762 141.032 162.068 141.221 162.302 141.451C162.36 141.222 162.425 140.995 162.476 140.764C162.625 140.082 162.769 139.398 162.97 138.658C163.333 137.913 163.644 137.225 163.946 136.533C163.985 136.443 163.98 136.332 163.995 136.231ZM159.049 132.283C160.368 132.744 161.638 133.347 163.163 133.891C163.202 134.068 163.328 134.284 163.267 134.416C162.507 136.085 159.65 137.261 157.938 136.633C156.929 136.262 156.37 134.982 156.703 133.802C156.933 132.984 158.288 132.017 159.049 132.283ZM37.7607 91.8766C35.4873 92.0981 33.6728 93.0915 32.2892 95.0487C31.5291 96.1239 32.1068 97.0151 32.2855 97.9182C32.9301 101.174 33.7084 104.403 34.4473 107.639C35.0557 110.304 35.6755 112.966 36.2982 115.627C37.1281 119.173 37.9617 122.719 38.8014 126.263C39.4055 128.813 40.0175 131.361 40.6407 133.906C40.7059 134.172 40.8715 134.413 40.9905 134.666C41.1007 134.4 41.3248 134.125 41.303 133.871C41.1307 131.862 40.9563 129.851 40.6947 127.853C40.4193 125.75 40.0831 123.653 39.7074 121.566C39.2592 119.075 38.7881 116.586 38.2432 114.116C37.0091 108.523 35.4154 103.036 33.5928 97.6098C32.8688 95.4542 34.9259 94.0311 36.59 94.0684C37.6534 94.0923 38.5713 94.3351 39.548 94.5739C39.7093 94.6133 39.9637 94.2557 40.1751 93.9645C40.1751 93.7696 40.1998 93.6803 40.1712 93.6154C39.9448 93.1003 40.7668 92.1565 39.5555 92.0438C38.9561 91.988 38.3484 91.8193 37.7607 91.8766ZM154.38 123.183C152.953 123.204 151.527 123.394 150.102 123.381C148.063 123.361 146.119 123.795 144.298 124.598C142.697 125.303 141.218 126.279 139.626 127.194C137.769 128.848 136.356 130.698 135.812 133.068C135.741 133.379 136.084 133.783 136.234 134.144C136.478 133.926 136.874 133.748 136.942 133.486C138.236 128.469 141.88 126.028 146.638 124.803C149.237 124.134 151.867 124.299 154.505 124.534C154.847 124.565 155.613 125.017 155.641 124.116C155.668 123.288 154.968 123.174 154.38 123.183ZM86.5598 52.8846C91.194 53.5425 94.6218 56.2027 97.2194 60.022C100.05 64.1844 100.997 68.9152 101.122 73.7766C101.21 77.2475 100.795 80.7413 100.45 84.2096C100.192 86.8008 99.8254 89.3985 99.2562 91.9374C98.5388 95.1376 97.5507 98.277 96.7067 101.45C95.2955 106.755 93.5184 111.936 91.2657 116.942C88.8647 122.277 85.708 127.111 81.2725 131.021C79.8408 132.283 78.181 133.194 76.2505 133.386C73.8461 133.625 71.5109 133.172 69.2117 132.468C64.2931 130.963 59.3231 129.611 54.4538 127.963C50.0072 126.458 47.2378 123.23 46.2502 118.648C45.5096 115.212 44.885 111.745 44.3672 108.269C43.9266 105.31 43.569 102.325 43.4442 99.3401C43.3487 97.0576 43.6473 94.7556 43.821 92.4661C43.9534 90.721 44.1648 88.9819 44.3412 87.0053C44.9145 83.5321 45.9542 80.208 47.3237 76.9578C49.4044 72.0193 52.271 67.6742 56.1463 63.9246C60.3708 59.8372 65.4198 57.2372 70.9104 55.4489C74.0091 54.4396 77.2163 53.697 80.4256 53.112C82.424 52.7477 84.5608 52.6008 86.5598 52.8846ZM224.558 84.6681C224.696 84.8835 224.818 85.1106 224.974 85.3126C227.857 89.0632 230.91 92.6967 233.588 96.5889C236.747 101.181 239.387 106.1 241.437 111.395C242.235 113.055 242.966 114.661 243.719 116.256C244.117 117.1 244.946 116.994 245.511 116.722C246.123 116.427 246.047 115.804 245.681 115.148C242.663 109.746 239.766 104.274 236.679 98.9124C234.785 95.6237 232.738 92.4062 230.528 89.3239C229.346 87.6749 227.678 86.3726 226.21 84.9345C226.014 84.7434 225.71 84.6084 225.438 84.5675C225.156 84.525 224.852 84.6284 224.558 84.6681ZM216.821 106.232C220.054 107.09 221.661 109.457 221.381 112.571C221.205 114.533 220.429 115.789 218.569 116.318C216.437 116.924 214.309 116.646 212.302 115.839C209.423 114.681 207.067 112.93 206.353 109.416C206.278 108.469 206.55 107.777 207.394 107.16C210.383 104.975 213.537 105.361 216.821 106.232ZM149.422 44.5962C149.5 44.6941 149.579 44.7332 149.658 44.8311C149.91 44.9451 150.224 44.9239 150.407 45.067C154.978 48.6391 157.845 53.3059 159.352 58.8506C160.067 61.4837 160.391 64.1692 160.273 66.878C160.064 71.6449 158.568 76.0016 155.858 79.9662C152.896 84.2978 148.962 87.4854 144.264 89.7218C141.572 91.0036 138.714 91.9261 135.688 92.0873C134.326 92.1598 132.932 91.9358 131.597 92.1346C129.03 92.5166 126.642 91.8257 124.271 91.1359C119.497 89.7469 115.296 87.3473 111.697 83.8791C109.042 81.3204 106.745 78.5387 105.229 75.1644C105.199 75.0982 105.162 75.0353 105.128 74.9709C105.083 75.0583 104.99 75.152 105 75.2322C105.226 76.9451 105.117 78.6797 106.335 80.2085C110.104 84.9405 114.476 88.9269 120.141 91.2418C122.564 92.2321 125.151 92.8682 127.71 93.471C129.25 93.8336 130.883 93.9877 132.466 93.9461C136.472 93.8408 140.336 92.9952 144.033 91.4038C147.981 89.7047 151.438 87.3184 154.383 84.2192C157.809 80.6148 160.2 76.4195 161.21 71.5417C161.613 69.5989 161.933 67.5906 161.905 65.6174C161.82 59.4529 160.008 53.7696 156.42 48.7235C155.442 47.3485 154.127 46.2061 152.933 44.9886C152.371 44.4149 149.873 44.1382 149.422 44.5962ZM144.385 44.6557C144.326 44.6626 144.274 44.7352 144.219 44.7771C144.321 44.8136 144.422 44.8541 144.525 44.8858C148.547 46.114 151.413 48.7553 153.327 52.4123C154.5 54.6536 155.135 57.0891 155.493 59.6293C156.221 64.793 155.03 69.5475 152.551 73.9782C149.489 79.4524 145.159 83.6184 139.165 85.7752C137.253 86.463 135.278 87.2014 133.283 87.3816C128.495 87.8144 123.895 86.9559 119.631 84.5557C116.453 82.7664 113.841 80.372 111.499 77.5925C108.782 74.3685 107.237 70.6109 106.276 66.5947C105.939 65.1869 106.084 63.6643 105.996 62.1948C105.979 61.9194 105.903 61.6477 105.854 61.3743C105.532 61.5405 105.035 61.6282 104.919 61.8872C104.506 62.8101 103.87 63.8283 103.965 64.7428C104.16 66.6228 104.631 68.5077 105.242 70.3041C106.827 74.9664 109.627 78.8557 113.261 82.1303C116.642 85.177 120.54 87.3056 124.976 88.3737C126.478 88.7354 127.997 89.1509 129.526 89.2392C130.941 89.3209 132.392 89.0731 133.805 88.8351C135.687 88.5179 137.61 88.2536 139.405 87.6427C144.365 85.9555 148.525 83.0885 151.879 78.9775C154.559 75.6931 156.107 71.9616 156.849 67.8694C157.723 63.0544 156.94 58.389 155.159 53.8848C153.954 50.837 152.197 48.1361 149.789 45.8849C149.607 45.7145 149.506 45.4564 149.367 45.1215C149.289 44.9648 149.211 44.9256 149.133 44.8864C147.59 44.0054 145.98 44.4703 144.385 44.6557ZM-32.3814 86.6453C-33.9946 86.6625 -35.6046 86.8819 -37.2172 87.0083C-39.1795 87.1622 -41.1407 87.3556 -43.1069 87.4313C-44.9877 87.5037 -46.8762 87.4008 -48.7575 87.4665C-49.6844 87.4989 -50.6292 87.6629 -51.5105 87.9251C-51.8106 88.0144 -51.9413 88.5865 -52.1494 88.938C-51.8632 89.0232 -51.5822 89.1324 -51.2892 89.1871C-50.9492 89.2506 -50.5986 89.2662 -50.1933 89.248C-46.2813 89.1206 -42.4288 89.0191 -38.5757 88.9891C-37.0153 88.9769 -35.453 89.1779 -33.8924 89.1689C-33.1272 89.1646 -32.3607 88.9147 -31.6004 88.7534C-30.8076 88.5851 -30.5709 87.9273 -30.8662 87.4469C-31.1199 87.0341 -31.8609 86.6398 -32.3814 86.6453ZM132.771 47.9098C131.889 52.1157 131.072 56.336 130.208 60.5458C129.764 62.707 130.291 63.6041 132.149 64.6534C134.604 66.0399 136.979 67.5844 139.326 69.1596C140.501 69.9486 141.466 70.2233 142.109 69.5998C142.717 69.0111 142.817 68.4928 142.006 67.9406C139.468 66.2124 136.918 64.4963 134.464 62.6482C133.93 62.2458 133.449 61.2851 133.504 60.6312C133.705 58.2431 134.131 55.874 134.499 53.502C134.652 52.5123 134.872 51.5334 135.062 50.4313C135.153 49.4589 135.413 48.574 135.272 47.7623C135.184 47.2535 134.543 46.5589 134.06 46.4718C133.204 46.3173 132.914 47.2249 132.771 47.9098ZM-29.0112 38.0825C-29.1543 38.2321 -29.2328 38.6396 -29.132 38.7883C-28.6487 39.5017 -28.0934 40.1672 -27.5043 40.9084C-25.6049 43.4986 -23.7881 46.0474 -21.8962 48.5402C-21.6485 48.8666 -20.8469 49.1776 -20.5942 49.0236C-19.9518 48.6318 -20.5304 48.2137 -20.7968 47.7697C-22.565 44.8229 -24.2762 41.8424 -26.0287 38.8863C-26.8357 37.5251 -28.1477 37.1795 -29.0112 38.0825ZM24.873 0.000932239C24.5634 0.0268525 24.2158 0.400522 24.007 0.708764C23.2409 1.83966 23.6436 3.11087 23.796 4.28575C24.062 6.33568 24.5437 8.35632 24.9189 10.3923C25.0942 11.3432 25.2318 12.3012 25.3865 13.3737C25.6958 14.9695 26.0323 16.4423 26.3086 17.9266C26.8104 20.6228 27.2587 23.3292 27.7627 26.0249C28.1832 28.2738 28.6378 30.5163 29.1018 32.7564C29.8637 36.4342 30.6203 40.1136 31.4353 43.7794C31.6588 44.7852 32.4422 45.162 33.0842 44.6807C33.3008 44.5184 33.517 44.1025 33.4655 43.8617C32.2642 38.2542 30.9767 32.6655 29.8112 27.0507C28.9543 22.9225 28.3414 18.7413 27.4477 14.6221C26.5963 10.6979 26.158 6.76385 26.2836 2.74816C26.3054 2.05357 25.9799 1.31998 25.6973 0.655929C25.5693 0.355102 25.1375 -0.0211972 24.873 0.000932239ZM88.5074 27.8483C88.2813 28.2303 88.0494 28.6085 87.8202 29.1085C87.4381 31.14 87.044 33.049 86.6789 34.964C86.4948 35.9293 86.3532 36.9039 86.2153 37.8779C86.181 38.1199 86.2356 38.3756 86.2494 38.625C86.5864 38.5685 87.1303 38.6259 87.2256 38.4362C87.7164 37.4594 88.1581 36.4423 88.4906 35.3952C88.8713 34.1957 89.0307 32.9145 89.4603 31.7385C89.6954 31.095 90.3356 30.6262 90.7082 30.0213C91.0305 29.4982 91.4095 28.8993 91.4249 28.3239C91.4348 27.9547 90.8824 27.3344 90.491 27.2398C89.8062 27.0744 88.9925 27.0286 88.5074 27.8483Z" fill="#00160A"/>
<path d="M166.597 145.069C165.204 144.696 164.196 143.942 164.345 143.385C164.495 142.828 165.744 142.679 167.137 143.052C168.53 143.425 169.538 144.179 169.388 144.736C169.239 145.293 167.989 145.442 166.597 145.069Z" fill="#FFB61D"/>
<path fill-rule="evenodd" clip-rule="evenodd" d="M157.012 140.541C156.018 140.167 155.445 139.414 155.65 138.857C155.842 138.3 156.578 138.151 157.375 138.524C158.251 138.897 159.031 139.651 159.036 140.208C159.028 140.765 158.085 140.914 157.012 140.541Z" fill="#FFB61D"/>
</svg>
