<svg width="471" height="189" viewBox="0 0 471 189" fill="none" xmlns="http://www.w3.org/2000/svg">
<path fill-rule="evenodd" clip-rule="evenodd" d="M342.822 261.586C407.952 276.772 445.216 255.569 454.613 197.977C468.71 111.588 420.958 20.8306 355.438 12.1304C289.917 3.43028 262.374 28.2477 216.323 59.4125C170.273 90.5773 36.801 163.905 21.6371 176.35C6.47311 188.796 -25.9721 237.427 38.9243 268.23C82.1886 288.766 136.011 284.899 200.39 256.628C223.022 246.731 243.632 241.493 262.219 240.915C280.806 240.337 307.674 247.227 342.822 261.586Z" fill="#707EFF"/>
<path d="M268.58 151.91C262.726 155.732 260.372 160.676 261.518 166.741C267.001 174.962 269.742 182.08 269.742 188.096C269.742 194.112 270.155 201.938 270.98 211.574L316.548 212.536L316.644 212.478C317.862 212.502 319.059 212.521 320.236 212.536C330.378 212.668 339.375 214.011 339.8 214.077C343.121 214.593 349.105 208.43 350.766 206.343C353.434 202.988 354.703 199.018 355.267 194.697C355.799 190.622 355.048 186.832 353.575 183.2C351.854 178.956 349.16 175.282 345.744 172.047C341.998 168.613 337.964 165.809 333.442 163.741C333.267 163.661 330.021 162.063 329.865 162.084C329.761 162.098 324.573 163.761 317.357 167.132C309.167 161.31 300.309 155.148 290.781 148.649C281.834 147.001 274.434 148.088 268.58 151.91Z" fill="white"/>
<path d="M482.848 175.447C482.748 172.705 482.664 169.962 482.557 167.221C482.523 166.335 482.423 165.452 482.368 164.566C481.914 157.215 481.041 149.91 479.16 142.784C477.659 137.096 475.677 131.565 473.268 126.161C470.521 119.998 467.18 114.202 463.331 108.691C461.37 105.884 459.228 103.178 456.949 100.619C454.207 97.5401 451.39 94.4915 448.317 91.7492C444.809 88.6184 441.038 85.7651 437.252 82.9646C436.409 82.3411 434.919 82.0371 433.913 82.2974C432.147 82.7546 431.892 84.2904 433.243 85.4634C436.311 88.1265 437.771 91.5265 437.996 95.475C438.12 97.656 437.915 99.8554 438.037 102.037C438.436 109.228 436.336 115.847 433.227 122.161C430.255 128.197 425.927 133.169 419.717 136.073C416.154 137.739 412.343 138.909 408.591 140.141C405.331 141.212 401.991 142.039 398.697 143.008C395.465 143.958 392.282 144.82 388.858 143.678C387.101 143.092 385.783 144.664 386.456 146.366C388.999 152.806 391.167 159.489 395.635 164.919C398.315 168.176 401.417 171.19 404.734 173.805C409.604 177.644 415.204 180.381 420.797 183.077C426.253 185.707 431.586 188.592 437.066 191.169C443.239 194.072 449.495 196.805 455.755 199.52C460.805 201.711 465.904 203.794 471.007 205.86C472.228 206.354 473.535 206.701 474.836 206.916C476.139 207.132 479.002 205.088 479.513 203.738C480.811 200.309 481.693 196.784 482.057 193.131C482.279 190.907 482.578 188.691 482.921 186.472C483 186.315 483 186.157 482.921 185.921C482.789 182.88 482.733 179.918 482.697 176.955C482.696 176.874 482.894 176.79 483 176.707C483 176.34 483 175.972 483 175.526C482.947 175.447 482.848 175.449 482.848 175.447Z" fill="white"/>
<path fill-rule="evenodd" clip-rule="evenodd" d="M271.526 211.476L175.628 209.032H171.694C165.96 213.305 159.669 215.146 152.82 214.556C142.547 213.67 133.476 202.33 131.358 186.518C131.045 185.286 130.288 184.989 129.086 185.629C127.763 188.211 125.414 189.337 122.04 189.007C120.576 188.849 119.761 189.192 118.934 190.782C118.107 192.372 113.735 194.372 110.995 192.767C108.255 191.162 95.622 170.695 95.622 167.251C95.622 163.807 94.9134 156.286 94.3559 155.8C93.7983 155.315 92.7495 155.709 90.7134 155.063C88.6774 154.418 86.935 155.06 80.4071 137.921C73.8792 120.781 63.8914 95.1589 62.8276 77.2177C61.7637 59.2765 74.4337 65.6176 80.4071 73.1044C86.3805 80.5911 103.032 99.8684 118.443 110.337C120.329 111.745 121.868 112.408 123.061 112.323C123.776 107.868 126.705 106.208 131.848 107.343C133.847 107.703 135.483 106.122 136.756 102.602C140.053 84.3261 147.57 71.1019 159.306 62.9291C176.911 50.6698 206.907 43.664 214.125 69.2962C218.937 86.3843 216.044 107.145 205.447 131.579L209.859 135.398C227.22 141.405 241.402 148.82 252.406 157.644C268.913 170.88 269.228 183.791 270.104 194.441C270.688 201.54 271.162 207.218 271.526 211.476Z" fill="white"/>
<path d="M307.011 137.677C306.864 136.288 306.797 134.891 306.637 133.504C306.628 133.43 305.923 133.27 305.72 133.41C303.833 134.707 301.966 136.036 300.137 137.414C299.641 137.788 299.602 138.159 299.377 137.182C299.026 135.654 296.853 135.227 295.551 136.313C292.567 138.803 291.061 142.15 289.969 145.79C289.021 148.948 289.397 152.157 289.305 155.347C289.245 157.395 287.328 158.939 285.316 159.022C283.828 159.083 282.263 159.736 280.925 160.474C277.686 162.261 275.603 165.08 274.58 168.631C273.478 172.456 274.503 175.86 276.72 179.038C278.735 181.928 280.571 184.955 283.496 187.074C285.114 188.246 286.978 189.219 288.245 190.7C289.605 192.29 291.167 193.326 293.019 194.041C297.583 195.802 302.569 193.518 304.803 189.712C307.163 184.692 315.588 188.783 318.852 181.376C320.499 178.931 321.141 176.882 320.785 176.677C320.352 176.427 320.951 175.794 321.719 174.988C325.071 171.466 328.049 167.651 330.086 163.185C330.408 162.48 330.739 161.753 330.88 161.001C330.966 160.54 330.838 159.88 330.538 159.562C330.35 159.361 329.601 159.505 329.221 159.712C328.654 160.023 328.203 160.542 327.679 160.941C326.785 161.621 326.288 161.331 326.531 160.271C327.219 157.259 326.586 154.399 325.527 151.635C324.956 150.145 324.026 148.784 323.163 147.426C323.081 147.297 322.251 147.492 321.89 147.726C321.22 148.159 320.64 148.732 320.023 149.246C319.982 148.423 319.969 147.596 319.888 146.777C319.84 146.29 319.72 145.803 319.573 145.334C318.833 142.988 318.436 142.869 316.478 144.341C316.216 144.538 315.901 144.666 315.611 144.827C315.571 144.528 315.519 144.231 315.494 143.931C315.278 141.352 315.794 139.012 317.678 137.098C317.701 137.075 317.292 136.402 317.056 136.384C314.342 136.17 311.626 136.058 309.143 137.509C308.636 137.805 308.129 138.104 307.543 138.48C307.307 138.266 307.043 137.983 307.011 137.677Z" fill="white"/>
<path fill-rule="evenodd" clip-rule="evenodd" d="M266.755 42.8273C274.772 49.4732 278.408 59.0947 277.662 71.6918C276.544 90.5875 254.566 104.049 243.936 98.3514C233.305 92.6533 221.567 84.3527 220.165 66.6839C219.57 83.497 217.808 91.6798 240.471 103.873C263.135 116.066 286.828 97.1465 290.255 89.3484C293.681 81.5504 301.931 64.3354 285.187 44.3638C282.896 41.7224 276.752 41.2103 266.755 42.8273Z" fill="white"/>
<path fill-rule="evenodd" clip-rule="evenodd" d="M345.744 172.046C341.998 168.611 337.964 165.808 333.442 163.74C333.267 163.66 333.087 163.465 332.931 163.486C332.252 163.579 331.581 163.733 330.906 163.864C331.394 164.198 331.848 164.604 332.375 164.853C337.607 167.333 342.48 170.343 346.444 174.654C350.297 178.844 353.059 183.546 353.669 189.416C354.229 194.813 353.545 199.86 350.493 204.411C348.855 206.854 346.643 208.677 343.956 209.887C343.742 209.983 343.541 210.107 343.334 210.219C343.575 210.267 343.813 210.325 344.055 210.363C347.376 210.878 349.105 208.429 350.766 206.341C353.434 202.987 354.703 199.017 355.267 194.696C355.799 190.62 355.048 186.831 353.575 183.199C351.854 178.954 349.16 175.281 345.744 172.046Z" fill="#00160A"/>
<path fill-rule="evenodd" clip-rule="evenodd" d="M458.224 139.473C458.54 141.393 458.89 143.15 459.16 144.919C459.331 146.04 459.37 147.181 459.492 148.31C459.691 150.153 460.041 151.99 460.095 153.836C460.224 158.307 460.184 162.782 460.279 167.254C460.371 171.567 459.54 175.742 458.535 179.897C458.34 180.704 458.281 181.654 457.802 182.256C457.067 183.18 457.749 183.628 458.265 183.77C458.758 183.905 459.719 183.664 459.917 183.292C460.458 182.275 460.824 181.125 461.046 179.986C461.608 177.101 462.29 174.209 462.488 171.29C462.755 167.341 462.57 163.363 462.662 159.4C462.775 154.595 462.067 149.878 461.407 145.142C460.318 137.324 458.761 129.617 456.291 122.114C455.993 121.208 455.323 120.334 454.61 119.678C453.74 118.876 452.398 119.609 452.207 120.818C451.98 122.248 452.631 123.344 453.417 124.425C455.783 127.681 456.966 131.394 457.591 135.317C457.803 136.65 458.013 137.983 458.224 139.473Z" fill="#E7EAEE"/>
<path fill-rule="evenodd" clip-rule="evenodd" d="M442.269 173.563C442.381 174.545 440.614 175.722 442.584 176.093C443.116 176.193 444.281 175.129 444.526 174.408C445.268 172.222 445.987 169.965 446.186 167.694C446.462 164.558 446.255 161.383 446.255 158.225C446.255 157.859 446.255 157.493 446.255 157.126C446.255 152.154 446.233 147.182 446.27 142.21C446.28 140.892 446.589 139.572 446.55 138.259C446.522 137.292 446.322 136.256 445.877 135.4C445.559 134.788 444.739 134.111 444.088 134.058C443.641 134.021 442.744 134.963 442.671 135.539C442.48 137.045 442.557 138.596 442.669 140.119C442.757 141.302 443.172 142.465 443.243 143.647C443.422 146.601 443.5 149.561 443.595 152.519C443.718 156.348 444.067 160.191 443.853 164.004C443.676 167.156 442.823 170.273 442.269 173.563Z" fill="#E7EAEE"/>
<path fill-rule="evenodd" clip-rule="evenodd" d="M427.198 167.182C430.19 162.555 432.421 157.668 433.816 152.422C434.098 151.365 433.853 150.023 433.456 148.97C433.266 148.464 431.942 147.896 431.514 148.121C430.933 148.427 430.47 149.44 430.39 150.198C430.08 153.124 429.881 156.021 428.916 158.868C427.743 162.328 425.732 165.216 423.785 168.182C423.379 168.8 422.167 169.409 423.022 170.193C423.874 170.973 424.74 170.069 425.383 169.352C425.987 168.678 426.544 167.96 427.198 167.182Z" fill="#E7EAEE"/>
<path fill-rule="evenodd" clip-rule="evenodd" d="M413.465 157.267C415.265 155.516 417.067 153.92 418.678 152.14C419.516 151.214 419.359 150.037 418.352 149.154C417.347 148.273 416.719 149.095 416.14 149.766C413.951 152.302 411.792 154.867 409.632 157.429C409.51 157.575 409.38 157.94 409.411 157.962C409.764 158.207 410.221 158.658 410.51 158.569C411.5 158.266 412.434 157.769 413.465 157.267Z" fill="#E7EAEE"/>
<path fill-rule="evenodd" clip-rule="evenodd" d="M302.658 279.536C300.367 284.291 298.531 289.195 297.918 294.484C297.59 297.32 297.214 300.154 296.989 302.999C296.785 305.582 296.628 308.182 296.686 310.77C296.755 313.865 297.089 316.954 297.279 320.048C297.411 322.199 297.433 324.359 297.615 326.505C297.872 329.524 298.282 332.53 298.531 335.55C298.719 337.836 298.845 340.135 298.84 342.427C298.835 345.037 298.647 347.645 298.549 350.255C298.437 353.232 298.688 356.276 298.149 359.173C297.342 363.508 296.236 367.828 294.799 371.996C292.687 378.125 289.033 383.452 285.002 388.467C282.512 391.565 279.639 394.315 275.592 395.382C275.54 395.396 275.494 395.883 275.598 395.975C277.091 397.28 278.948 396.749 280.523 396.539C284.042 396.069 287.524 395.237 290.982 394.391C299.768 392.243 308.542 390.042 317.301 387.786C321.569 386.687 325.79 385.407 330.04 384.238C330.665 384.066 331.471 383.781 331.962 384.022C334.44 385.237 336.355 383.902 338.176 382.667C342.168 379.96 344.432 376.03 345.606 371.411C347.226 365.04 345.924 358.959 343.573 353.066C342.023 349.18 340.175 345.406 338.319 341.652C336.435 337.843 334.07 334.321 331.204 331.173C330.235 330.109 329.058 329.238 328.006 328.247C326.562 326.888 326.486 325.024 326.367 323.248C326.23 321.19 326.542 319.083 326.246 317.058C325.243 310.174 322.207 303.995 319.013 297.945C317.421 294.928 315.399 292.062 313.154 289.494C311.488 287.589 309.298 286.047 306.718 285.316C305.927 285.091 305.703 284.91 306.293 283.923C307.146 282.494 308.348 280.835 306.838 278.922C305.031 277.114 303.727 277.317 302.658 279.536ZM300.257 293.889C300.319 293.951 300.422 294.004 300.436 294.075C300.553 294.679 300.566 295.318 300.773 295.888C301.686 298.406 302.392 301.045 303.656 303.378C306.19 308.058 309.424 312.272 313.245 316.003C316.577 319.255 319.956 322.459 323.26 325.739C325.143 327.61 327.081 329.463 328.704 331.55C331.306 334.898 334.04 338.234 336.032 341.944C338.346 346.254 340.081 350.904 341.756 355.519C342.808 358.418 343.521 361.492 343.962 364.548C344.435 367.832 343.802 371.108 342.317 374.102C341.223 376.309 339.681 378.138 337.156 378.934C334.137 379.885 331.172 381.009 328.159 381.984C321.474 384.148 314.812 386.396 308.067 388.359C303.018 389.828 297.868 390.964 292.737 392.136C289.831 392.8 286.875 393.249 283.935 393.754C283.703 393.794 283.416 393.515 283.154 393.384C283.286 393.198 283.4 392.996 283.552 392.828C284.626 391.638 285.822 390.538 286.764 389.252C289.358 385.712 292.2 382.289 294.299 378.464C298.024 371.678 300.52 364.401 301.08 356.574C301.252 354.164 301.495 351.76 301.706 349.036C301.706 346.015 301.828 342.986 301.669 339.973C301.532 337.389 301.067 334.824 300.76 332.248C300.539 330.388 300.464 328.499 300.099 326.668C299.402 323.167 299.73 321.755 302.706 319.758C304.09 318.83 305.829 317.935 305.896 315.992C305.924 315.169 305.266 314.194 304.644 313.557C304.456 313.365 303.129 313.901 302.696 314.416C301.717 315.585 300.976 316.953 300.119 318.227C299.981 318.432 299.743 318.57 299.552 318.739C299.428 318.528 299.214 318.324 299.194 318.102C299.06 316.621 298.877 315.135 298.886 313.651C298.898 311.745 299.087 309.84 299.176 307.934C299.294 305.378 299.378 302.821 299.499 300.266C299.584 298.447 299.687 296.628 299.828 294.812C299.853 294.495 300.108 294.196 300.257 293.889ZM306.759 287.38C310.143 288.547 312.472 291.034 314.304 293.91C317.959 299.649 320.87 305.785 322.77 312.327C323.656 315.375 324.033 318.578 322.847 321.709C322.777 321.892 322.29 322.122 322.256 322.085C317.723 317.294 313.17 312.521 308.718 307.656C304.174 302.692 302.458 296.769 303.307 290.132C303.692 287.121 303.905 287.044 306.759 287.38ZM63.3922 228.121C61.9684 228.274 60.3414 229.01 59.3263 230.012C56.7618 232.544 54.4887 235.373 52.1051 238.089C50.6436 239.754 49.1797 241.418 47.7413 243.103C44.7097 246.654 41.7013 250.226 38.6674 253.775C37.7251 254.878 36.7168 255.923 35.7707 257.023C35.4994 257.338 35.3403 257.75 35.1298 258.118C35.4283 257.874 35.7505 257.653 36.0218 257.382C43.1901 250.203 50.3304 242.995 57.5303 235.849C59.8878 233.509 62.5666 231.528 65.8009 230.606C69.2088 229.633 72.6819 229.303 76.2532 229.889C78.052 230.184 79.941 229.879 81.7849 229.953C85.8889 230.117 89.9888 230.387 94.0931 230.538C96.4978 230.626 98.9116 230.486 101.314 230.597C103.886 230.716 106.449 231.007 109.016 231.228C111.376 231.43 113.738 231.621 116.096 231.851C117.964 232.034 119.824 232.29 121.692 232.475C124.066 232.709 126.45 232.85 128.818 233.132C130.825 233.37 132.813 233.764 134.813 234.064C137.037 234.398 139.268 234.689 141.492 235.024C144.917 235.54 148.339 236.073 151.756 236.634C151.883 236.654 152.092 237.149 152.02 237.253C151.387 238.165 150.736 239.07 150.022 239.919C146.453 244.157 142.837 248.355 139.289 252.609C135.266 257.434 131.372 262.367 127.28 267.131C124.408 270.475 121.578 273.923 117.525 275.984C117.395 276.05 117.28 276.144 117.158 276.225C117.306 276.25 117.47 276.33 117.599 276.292C120.075 275.565 122.658 275.267 124.465 272.926C127.803 268.603 131.397 264.48 134.83 260.23C139.077 254.971 143.115 249.533 148.162 244.979C148.572 244.608 149.002 244.223 149.49 243.98C150.571 243.441 151.564 243.26 152.407 244.539C154.085 247.085 155.917 249.529 157.593 252.076C158.711 253.775 158.348 254.608 156.326 255.984C151.001 259.607 145.218 262.187 139.03 263.945C136.453 264.677 133.898 265.606 132.067 267.775C131.937 267.929 131.798 268.075 131.664 268.225C131.881 268.204 132.114 268.226 132.314 268.155C140.647 265.208 148.99 262.288 157.295 259.262C158.659 258.765 159.916 257.885 161.107 257.023C161.868 256.472 161.832 255.647 161.335 254.762C159.629 251.722 157.997 248.639 156.352 245.564C156.241 245.355 156.192 244.873 156.231 244.86C156.65 244.716 157.113 244.507 157.525 244.57C159.249 244.832 160.986 245.08 162.67 245.52C166.471 246.513 170.246 247.609 174.023 248.693C174.244 248.756 174.388 249.087 174.568 249.294C173.613 250.04 172.657 250.786 171.623 251.612C167.621 255.095 163.694 258.496 159.776 261.906C157.677 263.732 155.591 265.574 153.5 267.409C153.414 267.484 153.324 267.555 153.237 267.628C153.434 267.661 153.649 267.761 153.827 267.716C156.368 267.074 158.858 266.427 160.937 264.594C165.901 260.218 170.987 255.979 175.995 251.652C177.025 250.763 178.025 249.805 178.873 248.745C179.936 247.415 179.694 246.498 178.015 245.85C176.69 245.339 175.242 245.104 173.828 244.878C169.611 244.204 165.387 243.574 161.16 242.968C159.303 242.702 157.43 242.546 155.568 242.314C155.235 242.273 154.918 242.107 154.593 241.998C154.754 241.736 154.878 241.439 155.082 241.218C156.713 239.456 158.359 237.708 160.002 235.957C160.147 235.803 160.3 235.657 160.449 235.507C160.216 235.451 159.985 235.376 159.748 235.341C155.421 234.702 151.093 234.059 146.763 233.436C143.92 233.027 141.077 232.604 138.225 232.268C135.306 231.925 132.379 231.647 129.45 231.405C126.83 231.188 124.2 231.097 121.581 230.879C119.903 230.739 118.241 230.409 116.563 230.273C114.465 230.103 112.355 230.076 110.255 229.932C107.631 229.753 105.013 229.489 102.388 229.314C100.182 229.166 97.9693 229.126 95.7635 228.977C93.9841 228.857 92.2138 228.595 90.434 228.487C88.695 228.382 86.9492 228.393 85.2063 228.352C80.6939 228.247 76.1819 228.118 71.6689 228.043C68.9077 227.998 66.1227 227.826 63.3922 228.121ZM325.868 217.466C324.664 217.592 323.433 217.429 322.221 217.501C319.264 217.676 316.313 217.948 313.356 218.113C310.604 218.268 307.838 218.236 305.094 218.469C302.284 218.707 300.601 219.881 300.781 223.25C300.944 226.288 300.999 229.332 301.107 232.373C301.208 235.203 301.318 238.032 301.416 240.862C301.431 241.281 301.416 241.702 301.389 242.12C301.365 242.483 301.306 242.843 301.262 243.204C301.366 243.204 301.549 243.235 301.562 243.2C301.711 242.809 301.903 242.417 301.95 242.009C302.115 240.581 302.222 239.146 302.359 237.715C302.564 235.58 302.771 233.445 302.986 231.311C303.095 230.232 303.219 229.154 303.346 228.077C303.424 227.407 303.501 226.736 303.619 226.074C303.67 225.791 303.826 225.528 303.934 225.256C304.155 225.382 304.42 225.464 304.59 225.64C306.665 227.796 308.083 230.31 308.627 233.302C308.686 233.63 308.884 233.932 309.018 234.246C309.128 233.968 309.219 233.681 309.352 233.415C311.775 228.565 315.592 225.343 320.804 224.241C323.186 223.738 325.757 224.167 328.243 224.151C329.494 224.144 329.701 224.862 329.592 225.931C329.355 228.256 329.177 230.588 328.955 232.914C328.652 236.081 328.327 239.245 328.02 242.41C327.804 244.632 327.628 246.858 327.375 249.075C327.304 249.699 327.021 250.296 326.843 250.908C326.76 251.195 326.696 251.487 326.623 251.777C326.941 251.556 327.458 251.395 327.543 251.104C327.972 249.636 328.287 248.134 328.645 246.645C329.06 244.915 329.479 243.187 329.896 241.3C330.313 238.355 330.888 235.582 331.11 232.78C331.425 228.82 332.03 224.816 331.149 220.873C330.649 218.641 328.103 217.234 325.868 217.466ZM334.354 225.247C333.703 225.477 333.212 226.172 332.651 226.664C333.038 227.114 333.361 227.655 333.826 227.995C334.845 228.739 336.061 229.245 336.975 230.093C339.149 232.106 338.121 236.107 335.865 237.164C334.824 237.651 333.785 238.148 332.781 238.705C332.417 238.906 332.155 239.296 331.847 239.6C332.222 239.61 332.597 239.62 332.972 239.63C335.38 239.693 337.186 238.58 338.535 236.643C340.567 233.726 339.488 230.873 337.095 228.59C336.87 228.375 336.665 228.137 336.435 227.928C336.138 227.658 335.825 227.408 335.518 227.149C336.114 227.073 336.771 226.794 337.294 226.957C339.247 227.563 340.356 229.196 340.949 230.982C342.987 237.117 338.171 242.087 332.708 241.447C332.131 241.38 331.508 241.719 330.906 241.869C331.051 241.96 331.185 242.086 331.342 242.137C335.916 243.629 339.813 241.938 342.023 237.518C342.175 237.213 342.384 236.937 342.566 236.49C343.623 231.071 341.366 227.029 336.411 225.413C335.762 225.202 334.953 225.036 334.354 225.247ZM328.785 219.096C329.754 219.319 330.095 220.366 329.582 221.296C328.879 222.569 327.797 222.616 326.491 222.487C324.431 222.284 322.333 222.124 320.28 222.3C317.677 222.522 315.115 223.233 312.513 223.479C310.345 223.684 308.143 223.521 305.8 223.362C304.885 223.309 303.97 223.241 303.054 223.207C301.953 223.167 301.323 222.285 301.916 221.342C302.281 220.763 303.031 220.16 303.67 220.08C306.346 219.746 309.042 219.55 311.737 219.412C313.641 219.315 315.559 219.47 317.464 219.376C320.348 219.233 323.225 218.931 326.109 218.782C326.995 218.736 327.912 218.896 328.785 219.096ZM186.035 207.637C182.849 207.7 179.671 208.216 176.491 208.546C176.254 208.57 175.998 208.645 175.8 208.774C175.385 209.045 175.003 209.368 174.607 209.669C175.113 209.719 175.617 209.782 176.123 209.817C179.295 210.035 182.466 210.265 185.64 210.44C186.167 210.469 186.714 210.13 187.242 210.158C190.521 210.334 193.796 210.594 197.075 210.758C197.813 210.795 198.57 210.443 199.308 210.481C202.482 210.644 205.652 210.908 208.826 211.08C209.406 211.111 210.005 210.768 210.585 210.799C213.864 210.972 217.139 211.231 220.419 211.399C221.104 211.434 221.808 211.084 222.493 211.12C225.668 211.287 228.837 211.55 232.011 211.719C232.644 211.753 233.296 211.407 233.929 211.44C237.208 211.61 240.483 211.867 243.762 212.04C244.342 212.071 244.941 211.728 245.522 211.759C248.801 211.932 252.076 212.185 255.355 212.361C255.882 212.389 256.429 212.05 256.957 212.079C260.236 212.254 263.51 212.514 266.79 212.679C267.528 212.716 268.285 212.363 269.023 212.401C272.197 212.565 275.366 212.828 278.54 213C279.12 213.032 279.72 212.689 280.3 212.719C283.579 212.892 286.854 213.15 290.133 213.32C290.766 213.353 291.418 213.007 292.051 213.04C295.277 213.21 298.499 213.47 301.726 213.64C302.359 213.673 303.011 213.327 303.643 213.36C306.923 213.53 310.197 213.79 313.477 213.96C314.109 213.993 314.761 213.647 315.394 213.68C318.568 213.85 321.738 214.109 324.912 214.281C325.492 214.312 326.091 213.969 326.671 214C329.951 214.173 333.226 214.424 336.505 214.602C336.98 214.628 337.475 214.291 337.949 214.32C340.653 214.486 343.352 214.739 346.057 214.908C347.897 215.023 349.75 214.973 351.586 215.132C354.208 215.36 356.837 215.611 359.432 216.041C361.463 216.378 363.431 217.111 365.462 217.433C366.035 217.523 366.878 216.903 367.308 216.369C367.49 216.143 367.081 215.104 366.673 214.769C365.001 213.393 362.99 213.16 360.75 213.34C359.357 213.233 358.12 213.133 356.885 213.019C354.641 212.81 352.401 212.527 350.152 212.396C347.186 212.223 344.212 212.067 341.242 212.082C336.255 212.107 331.269 212.343 326.283 212.357C322.577 212.367 318.87 212.173 315.163 212.058C312.035 211.961 308.907 211.844 305.778 211.74C302.492 211.631 299.206 211.528 295.92 211.419C292.791 211.315 289.662 211.24 286.535 211.091C282.818 210.914 279.105 210.647 275.387 210.48C274.596 210.445 273.789 210.79 272.996 210.76C268.281 210.586 263.567 210.347 258.852 210.145C257.995 210.108 257.131 210.188 256.276 210.13C253.47 209.941 250.669 209.685 247.862 209.52C247.231 209.483 246.577 209.835 245.945 209.798C243.086 209.633 240.232 209.371 237.373 209.199C236.847 209.167 236.298 209.511 235.772 209.479C232.965 209.308 230.164 209.045 227.357 208.88C226.726 208.843 226.072 209.195 225.44 209.158C222.581 208.993 219.728 208.725 216.868 208.56C216.237 208.523 215.583 208.875 214.952 208.838C212.197 208.674 209.449 208.401 206.695 208.241C206.011 208.201 205.304 208.557 204.62 208.517C201.866 208.356 199.117 208.092 196.364 207.918C195.89 207.888 195.394 208.228 194.92 208.2C191.956 208.024 188.991 207.578 186.035 207.637ZM186.088 50.7681C179.143 51.4107 172.6 53.6367 166.576 57.0757C163.036 59.0969 159.744 61.5964 156.52 64.1092C151.519 68.007 147.59 72.8907 144.198 78.2159C141.668 82.1874 139.457 86.3351 138.143 90.8512C136.949 94.957 135.881 99.1309 135.215 103.346C134.733 106.391 135.018 109.554 134.928 112.663C134.837 115.84 135.17 118.974 135.508 122.135C136.334 129.851 137.781 137.409 139.949 144.865C140.889 148.1 140.21 151.447 139.594 154.723C139.054 157.593 138.059 160.274 136.531 162.768C136.347 163.068 136.362 163.49 136.285 163.855C136.676 163.83 137.088 163.875 137.455 163.767C140.104 162.994 140.962 160.834 141.594 158.468C142.047 156.771 142.456 155.039 143.148 153.435C143.94 151.601 144.247 151.775 145.983 152.64C149.559 154.42 153.193 156.111 156.904 157.587C161.931 159.587 167.217 160.624 172.565 161.462C175.467 161.917 178.399 162.802 180.585 164.921C181.601 165.906 182.389 167.304 182.822 168.661C183.364 170.359 183.488 172.149 182.479 173.907C181.88 174.949 181.251 175.125 180.256 174.852C175.426 173.523 170.63 172.048 165.754 170.914C162.008 170.044 158.148 169.68 154.365 168.954C150.439 168.2 146.486 168.016 142.509 168.034C142.21 168.035 141.912 168.114 141.613 168.156C141.884 168.219 142.153 168.287 142.425 168.343C146.122 169.099 149.821 169.842 153.514 170.613C156.862 171.312 160.199 172.054 163.546 172.756C167.286 173.54 171.04 174.263 174.772 175.085C176.593 175.486 178.414 175.949 180.169 176.568C182.619 177.432 183.389 178.952 183.524 181.73C183.675 184.857 183.135 187.785 182.383 190.686C181.033 195.896 178.719 200.646 174.976 204.664C171.831 208.04 168.284 210.775 163.775 211.94C161.344 212.569 158.802 212.964 156.294 213.06C153.167 213.179 150.127 212.593 147.162 211.346C143.446 209.784 140.576 207.329 138.446 204.043C136.107 200.435 134.568 196.444 134.013 192.169C133.552 188.621 133.072 185.037 133.1 181.473C133.14 176.333 134.204 171.318 136.192 166.533C136.315 166.236 136.797 165.816 135.85 165.789C133.343 165.717 130.856 168.001 130.823 170.606C130.793 172.989 130.714 175.378 130.84 177.755C131.068 182.061 126.469 187.691 122.678 188.662C121.85 188.874 121.775 188.581 121.977 188.152C124.288 183.263 122.87 178.482 121.498 173.758C118.848 164.636 115.215 155.87 111.578 147.104C108.02 138.532 104.605 129.902 101.151 121.287C98.2218 113.981 95.3392 106.655 92.4118 99.3475C89.593 92.3109 86.744 85.2863 83.9047 78.2579C83.8138 78.0328 83.6646 77.8309 83.5757 77.6053C83.407 77.1776 83.2624 76.7404 83.1077 76.3072C83.5491 76.6055 84.0953 76.8196 84.4159 77.2151C88.2097 81.8952 91.7414 86.8096 95.8009 91.2459C100.139 95.9872 104.85 100.413 109.622 104.732C113.03 107.817 116.804 110.502 120.422 113.356C120.761 113.623 121.152 113.824 121.519 114.056C121.484 113.629 121.406 113.201 121.421 112.775C121.531 109.513 118.502 109.22 116.68 107.795C113.937 105.65 111.086 103.634 108.434 101.383C103.493 97.1899 99.5603 92.0718 95.554 87.0296C94.4709 85.6665 93.3111 84.364 92.1073 82.9548C88.5951 79.1411 85.2901 75.2781 81.6903 71.7102C78.5335 68.5813 75.0254 65.8459 70.5934 64.5584C68.6169 63.9842 65.0251 65.3018 63.696 67.3853C62.3091 69.5594 61.7569 71.9435 61.7638 74.5354C61.7782 79.9157 62.874 85.1283 64.011 90.3391C65.2516 96.0246 66.4547 101.72 67.8367 107.372C68.6474 110.688 69.6006 113.991 70.7945 117.186C73.6344 124.788 76.5173 132.38 79.6572 139.862C81.4439 144.119 83.653 148.217 85.8998 152.261C87.1454 154.503 88.9855 156.212 91.946 156.077C93.1585 156.021 93.9381 157.433 94.1052 159.155C94.3482 161.66 94.5543 164.187 95.071 166.642C96.1172 171.615 98.3467 176.135 101.02 180.419C103.039 183.655 105.284 186.751 107.369 189.948C108.812 192.163 110.724 193.949 113.343 194.088C114.984 194.174 116.69 193.134 118.355 192.564C118.626 192.471 118.865 192.219 119.062 191.992C119.878 191.058 120.506 189.679 121.524 189.284C122.476 188.914 123.86 189.846 125.006 189.73C126.965 189.533 128.603 188.518 129.8 186.881C130.033 186.562 130.299 185.82 130.553 187.04C131.243 190.351 132.117 193.629 133.049 196.882C134.748 202.811 137.893 207.91 142.699 211.791C145.678 214.197 149.112 215.79 153.133 216.011C157.211 216.235 160.868 215.13 164.517 213.508C169.683 211.212 174.222 208.083 178.464 204.369C184.548 199.042 189.16 192.66 192.327 185.335C194.098 181.238 195.137 176.812 196.336 172.487C197.545 168.129 199.066 163.95 201.566 160.129C203.831 156.666 205.483 152.88 206.11 148.781C206.319 147.414 205.854 145.894 205.481 144.502C204.74 141.73 204.331 138.933 204.957 136.127C205.269 134.729 206.125 133.46 206.62 132.092C208.608 126.603 210.699 121.145 212.46 115.583C213.675 111.748 214.515 107.784 215.323 103.837C215.841 101.31 216.002 98.7093 216.308 96.14C216.532 94.2658 216.806 92.3934 216.927 90.5119C217.1 87.8085 217.064 85.0902 217.284 82.3916C217.567 78.911 217.051 75.464 216.195 72.1927C215.357 68.9932 213.721 65.9597 212.154 63.0016C210.338 59.5742 207.851 56.6318 204.487 54.5484C201.483 52.6878 198.276 51.3055 194.712 51.0439C191.843 50.8334 188.931 50.5051 186.088 50.7681ZM208.951 134.757C209.151 135.086 209.271 135.559 209.563 135.72C211.27 136.665 212.979 137.624 214.761 138.412C217.784 139.75 220.862 140.964 224.074 142.23C229.095 144.466 234.058 146.51 238.793 148.992C243.51 151.464 247.895 154.498 251.989 157.969C257.981 163.051 262.816 169.013 265.94 176.212C267.216 179.154 268.091 182.377 268.517 185.556C269.081 189.763 269.012 194.054 269.239 198.307C269.43 201.877 269.642 205.445 269.874 209.013C269.962 210.358 271.009 209.36 271.558 209.604C271.602 209.624 272.058 209.082 272.03 208.834C271.766 206.461 271.291 204.103 271.168 201.725C271.012 198.728 271.154 195.716 271.125 192.711C271.069 186.952 269.972 181.424 267.577 176.154C265.346 171.246 262.338 166.9 258.767 162.877C253.378 156.805 246.927 152.158 239.893 148.244C233.239 144.541 226.342 141.378 219.202 138.729C216.105 137.579 213.089 136.21 210.028 134.96C209.697 134.825 209.311 134.821 208.951 134.757ZM124.486 204.451C121.751 204.836 119.028 205.313 116.296 205.723C114.629 205.973 112.96 206.286 111.283 206.36C108.825 206.468 106.359 206.346 103.898 206.401C102.094 206.441 100.292 206.595 98.4912 206.721C97.2151 206.81 95.9425 207.011 94.6665 207.031C91.7138 207.078 88.7596 207.078 85.8068 207.04C78.8888 206.95 71.9712 206.755 65.0536 206.766C63.2857 206.768 61.5188 207.376 59.7507 207.702C59.6484 207.721 59.4987 207.657 59.4413 207.712C59.037 208.097 58.6511 208.503 58.2592 208.903C58.7708 208.942 59.2823 209.015 59.794 209.016C63.2928 209.027 66.7919 209.052 70.2902 209.007C71.6715 208.989 73.0493 208.741 74.4313 208.703C79.5025 208.566 84.5747 208.463 89.6468 208.369C91.4575 208.335 93.2692 208.363 95.2386 208.363C97.5063 208.363 99.6167 208.403 101.725 208.354C104.952 208.279 108.177 208.091 111.404 208.047C115.482 207.992 119.563 208.112 123.639 208C125.548 207.947 127.455 207.577 129.348 207.258C130.406 207.079 130.653 206.099 130.301 205.301C130.059 204.751 129.248 204.173 128.666 204.143C127.28 204.072 125.871 204.256 124.486 204.451ZM205.447 138.387C205.559 138.449 205.705 138.484 205.779 138.577C208.082 141.488 210.643 144.237 212.61 147.36C215.251 151.555 217.433 156.048 218.738 160.878C219.443 163.489 219.953 166.153 220.566 168.789C220.969 170.518 221.881 171.946 223.374 172.904C225.358 174.176 227.459 175.27 229.414 176.583C234.28 179.852 237.362 184.481 239.159 189.972C240.164 193.044 240.797 196.189 240.216 199.48C239.862 201.48 239.715 203.518 239.494 205.54C239.459 205.862 239.525 206.195 239.545 206.523C239.972 206.484 240.604 206.607 240.787 206.376C241.288 205.742 241.831 204.994 241.945 204.23C242.287 201.949 242.422 199.638 242.659 197.341C242.709 196.862 242.853 196.393 242.953 195.919C243.378 196.392 243.866 196.823 244.22 197.345C246.582 200.826 248.908 204.333 251.275 207.811C251.448 208.065 251.854 208.162 252.151 208.332C252.228 207.801 252.542 207.146 252.34 206.76C251.59 205.325 250.771 203.904 249.796 202.615C247.516 199.598 244.93 196.792 242.858 193.645C241.492 191.57 240.753 189.07 239.826 186.724C238.878 184.323 237.381 182.357 235.445 180.685C233.003 178.575 230.572 176.453 228.058 174.257C226.349 172.446 224.521 170.856 223.138 168.945C221.315 166.425 220.666 163.353 219.928 160.362C218.367 154.035 215.587 148.299 211.484 143.219C210.462 141.953 209.493 140.625 208.328 139.504C207.694 138.895 206.703 138.652 205.861 138.27C205.761 138.225 205.587 138.344 205.447 138.387ZM433.913 82.2961C432.147 82.7532 431.892 84.2891 433.243 85.462C436.311 88.1252 437.771 91.5251 437.996 95.4737C438.12 97.6547 437.915 99.854 438.037 102.035C438.436 109.226 436.336 115.845 433.227 122.159C430.255 128.196 425.927 133.167 419.717 136.071C416.154 137.738 412.343 138.907 408.591 140.14C405.331 141.211 401.991 142.038 398.697 143.006C395.465 143.957 392.282 144.819 388.858 143.677C387.101 143.091 385.783 144.662 386.456 146.365C388.999 152.804 391.167 159.488 395.635 164.917C398.315 168.174 401.417 171.189 404.734 173.804C409.604 177.643 415.204 180.38 420.797 183.076C426.253 185.706 431.586 188.59 437.066 191.167C443.239 194.07 449.495 196.803 455.755 199.519C460.805 201.709 465.904 203.792 471.007 205.859C472.228 206.353 473.535 206.699 474.836 206.915C476.139 207.131 479.002 205.087 479.513 203.736C480.811 200.308 481.693 196.783 482.057 193.129C482.279 190.906 482.578 188.69 482.921 186.471C483 186.313 483 186.156 482.921 185.919C482.789 182.879 482.733 179.916 482.697 176.954C482.696 176.873 482.894 176.789 483 176.706V175.525C482.947 175.446 482.848 175.447 482.848 175.446C482.748 172.704 482.664 169.961 482.557 167.219C482.523 166.333 482.423 165.45 482.368 164.565C481.914 157.214 481.041 149.909 479.16 142.782C477.659 137.095 475.677 131.563 473.268 126.16C470.521 119.997 467.18 114.201 463.331 108.69C461.37 105.882 459.228 103.177 456.949 100.618C454.207 97.5387 451.39 94.4902 448.317 91.7478C444.809 88.617 441.038 85.7637 437.252 82.9632C436.409 82.3397 434.919 82.0357 433.913 82.2961ZM438.517 86.6168C438.695 86.6967 438.896 86.7462 439.047 86.8609C443.807 90.47 448.539 94.1154 452.481 98.6437C454.929 101.457 457.432 104.23 459.744 107.152C465.363 114.254 469.711 122.08 473.022 130.716C473.134 131.038 473.264 131.355 473.356 131.682C474.779 136.766 476.284 141.829 477.575 146.945C478.147 149.215 478.312 151.59 478.612 153.924C478.943 156.491 479.311 159.06 479.486 161.64C479.63 163.766 479.436 165.913 479.537 168.044C479.663 170.69 480.029 173.327 480.117 175.974C480.177 177.762 479.889 179.559 479.845 181.354C479.792 183.523 479.873 185.695 479.82 187.864C479.776 189.642 479.733 191.434 479.487 193.192C479.185 195.344 478.647 197.462 478.254 199.603C477.687 202.695 476.417 203.891 473.391 204.111C471.27 204.264 469.658 203.01 469.361 201.023C469.325 200.781 468.945 200.361 468.895 200.384C466.221 201.639 463.9 200.375 461.557 199.38C456.578 197.267 451.576 195.201 446.647 192.978C439.312 189.669 432.008 186.292 424.74 182.842C421.34 181.228 418 179.469 414.727 177.612C408.338 173.988 402.499 169.691 397.769 163.976C394.103 159.547 391.837 154.512 390.524 149.002C390.275 147.956 390.642 147.047 391.893 146.779C395.283 146.051 398.666 145.285 402.061 144.582C408.963 143.153 415.634 141.162 421.836 137.677C429.8 133.203 434.902 126.445 437.966 118.097C439.419 114.137 440.587 110.033 440.556 105.721C440.534 102.483 440.819 99.2167 440.474 96.0156C440.155 93.057 439.177 90.169 438.502 87.2472C438.456 87.0487 438.51 86.8275 438.517 86.6168ZM305.721 133.41C303.833 134.707 301.966 136.037 300.137 137.415C299.641 137.788 299.602 138.16 299.378 137.182C299.026 135.655 296.853 135.228 295.551 136.314C292.567 138.803 291.061 142.151 289.969 145.791C289.021 148.949 289.397 152.158 289.305 155.348C289.245 157.396 287.328 158.94 285.316 159.022C283.828 159.083 282.263 159.736 280.925 160.475C277.686 162.262 275.603 165.081 274.58 168.632C273.478 172.456 274.504 175.861 276.72 179.038C278.735 181.929 280.571 184.956 283.496 187.075C285.114 188.247 286.978 189.22 288.245 190.7C289.605 192.29 291.167 193.327 293.019 194.042C297.583 195.803 302.569 193.519 304.803 189.713C306.817 186.284 311.664 187.038 313.543 189.817C314.362 191.029 314.587 192.63 315.2 194.002C315.575 194.843 315.211 194.715 314.648 194.632C311.859 194.217 309.067 193.821 306.276 193.426C306.133 193.406 305.979 193.462 305.83 193.482C305.94 193.567 306.043 193.666 306.163 193.734C308.931 195.299 311.928 196.182 315.061 196.556C317.435 196.84 319.862 197.293 322.202 197.053C324.047 196.864 325.923 195.948 327.553 194.967C329.474 193.81 330.051 191.845 330.013 189.549C329.941 185.092 328.232 181.33 325.409 178.069C324.596 177.13 323.16 176.735 322.018 176.076C321.584 175.826 320.952 175.795 321.719 174.988C325.071 171.466 328.049 167.652 330.086 163.186C330.408 162.481 330.739 161.754 330.88 161.002C330.966 160.541 330.838 159.881 330.538 159.562C330.35 159.362 329.601 159.506 329.222 159.713C328.654 160.023 328.203 160.543 327.679 160.942C326.785 161.621 326.288 161.332 326.531 160.272C327.219 157.259 326.586 154.4 325.527 151.635C324.956 150.145 324.026 148.785 323.163 147.427C323.081 147.298 322.251 147.493 321.89 147.727C321.221 148.16 320.641 148.732 320.023 149.247C319.982 148.423 319.969 147.597 319.888 146.778C319.84 146.291 319.72 145.803 319.573 145.335C318.833 142.989 318.436 142.87 316.478 144.341C316.216 144.539 315.902 144.667 315.611 144.828L315.526 144.231C315.513 144.131 315.502 144.031 315.494 143.931C315.278 141.353 315.794 139.013 317.678 137.099C317.701 137.076 317.292 136.403 317.056 136.384C314.342 136.171 311.627 136.059 309.143 137.509C308.636 137.806 308.129 138.104 307.543 138.481C307.307 138.266 307.043 137.984 307.011 137.677C306.864 136.289 306.797 134.892 306.637 133.505C306.628 133.43 305.924 133.271 305.721 133.41ZM323.807 178.313C323.869 178.428 323.908 178.564 323.994 178.655C327.083 181.916 328.523 185.79 328.409 190.283C328.347 192.722 327.047 194.519 324.607 194.964C323.057 195.247 321.448 195.234 319.864 195.278C319.672 195.283 319.36 194.836 319.287 194.551C318.82 192.737 318.853 190.713 316.908 189.322C316.366 189.112 315.822 188.903 315.281 188.691C315.035 188.594 314.598 188.506 314.587 188.384C314.565 188.125 314.689 187.724 314.888 187.601C315.42 187.272 316.002 186.909 316.601 186.825C319.364 186.441 321.325 184.985 322.449 182.478C322.984 181.285 323.275 179.983 323.676 178.731C323.721 178.592 323.764 178.452 323.807 178.313ZM316.436 190.426C316.646 191.22 316.886 192.009 317.036 192.815C317.061 192.95 316.637 193.338 316.514 193.3C316.012 193.148 315.851 190.737 316.436 190.426ZM304.981 135.126C304.812 135.705 304.573 136.274 304.488 136.865C304.296 138.206 304.411 139.489 305.728 140.278C306.781 140.91 307.569 140.151 308.285 139.597C309.91 138.339 311.831 138.175 313.739 137.936C314.781 137.805 314.829 138.234 314.488 139.131C313.987 140.45 313.364 141.852 313.403 143.201C313.428 144.047 314.509 144.92 315.23 145.672C315.903 146.373 316.547 146.041 317.079 145.349C317.161 145.243 317.424 145.277 317.603 145.246C317.59 145.53 317.627 145.828 317.557 146.097C317.14 147.7 317.738 149.249 319.418 150.17C320.581 150.808 321.401 149.835 322.107 149.081C322.639 148.515 322.688 148.859 322.913 149.29C324.877 153.047 325.101 156.977 324.059 161.015C323.8 162.019 324.262 162.519 325.09 162.48C326.055 162.436 327.002 162.056 327.965 161.863C328.411 161.774 328.876 161.781 329.332 161.744C329.208 162.183 329.151 162.656 328.95 163.057C327.284 166.371 325.143 169.37 322.363 171.806C320.724 173.243 319.717 174.504 319.766 176.984C319.831 180.223 318.107 182.871 315.119 184.632C312.738 186.035 310.206 185.742 307.695 185.828C306.41 185.872 305.475 186.317 304.71 187.336L304.406 187.743C302.838 189.847 301.287 191.943 298.48 192.679C295.314 193.508 292.421 193.177 289.98 190.945C289.472 190.48 289.467 189.37 289.445 188.551C289.441 188.402 290.471 188.14 291.04 188.076C293.313 187.822 295.598 188.399 297.894 187.777C301.136 186.9 304.116 185.608 306.572 183.268C307.036 182.826 307.426 182.308 307.849 181.825C307.102 182.001 306.354 182.171 305.609 182.358C305.423 182.404 305.211 182.459 305.077 182.583C301.602 185.784 297.526 187.18 292.813 186.808C288.031 186.43 285.567 183.919 285.321 179.721C285.066 175.386 285.903 171.187 287.897 167.256C288.186 166.688 288.183 165.899 288.113 165.233C287.843 162.648 287.194 160.038 289.969 158.199C290.435 157.89 290.564 156.856 290.596 156.145C290.691 154.039 291.355 153.252 293.41 153.061C294.664 152.945 295.367 152.194 295.653 151.017C295.736 150.675 295.732 150.313 295.768 149.96C296.102 150.261 296.525 150.506 296.754 150.873C297.918 152.735 299.652 153.886 301.476 155.001C302.4 155.565 302.699 155.5 302.928 154.455C303.035 153.963 303.435 153.535 303.702 153.078C303.96 153.444 304.226 153.804 304.472 154.178C304.796 154.672 305.025 155.256 305.433 155.662C306.889 157.11 308.359 158.551 309.929 159.871C310.27 160.158 311.295 160.163 311.555 159.881C311.898 159.51 311.852 158.728 311.868 158.12C311.885 157.515 311.735 156.907 311.732 156.3C311.731 156.062 311.918 155.632 312.04 155.625C312.3 155.61 312.701 155.736 312.82 155.938L313.437 156.978C314.054 158.019 314.66 159.069 315.157 160.167C316.486 163.108 317.031 166.232 317.104 169.46C317.115 169.914 317.599 170.403 317.964 170.78C318.089 170.908 318.733 170.812 318.772 170.695C318.942 170.186 319.075 169.625 319.04 169.095C318.983 168.255 318.766 167.426 318.642 166.589C317.896 161.534 315.708 157.235 311.932 153.777C311.794 153.65 311.31 153.64 311.302 153.669C310.959 154.841 310.639 156.02 310.35 157.207C310.285 157.475 310.345 157.774 310.348 158.058C310.094 157.943 309.811 157.868 309.592 157.706C307.204 155.938 305.293 153.761 303.922 151.107C303.592 150.468 303.13 149.897 302.728 149.295L302.024 150.578C301.79 151.006 301.559 151.436 301.339 151.871C301.254 152.038 301.388 152.315 301.306 152.486C301.246 152.613 300.893 152.757 300.853 152.715C299.633 151.455 298.46 150.148 297.221 148.907C296.747 148.431 295.852 147.648 295.626 147.786C294.889 148.237 294.348 149.03 293.79 149.738C293.663 149.899 293.868 150.309 293.75 150.497C293.535 150.842 293.075 151.412 292.923 151.353C292.157 151.057 291.387 150.67 290.769 150.139C290.522 149.927 290.661 149.264 290.781 148.649C291.417 144.629 293.003 141.075 295.9 138.163C296.082 137.98 296.27 137.802 296.456 137.622C296.505 137.864 296.555 138.106 296.605 138.348C296.881 139.683 298.317 140.486 299.353 139.678C300.66 138.659 301.697 137.299 302.946 136.195C303.504 135.702 304.296 135.474 304.981 135.126ZM194.329 168.053C194.441 168.165 194.631 168.264 194.651 168.39C194.725 168.842 194.835 169.318 194.764 169.757C194.374 172.164 193.884 174.555 193.524 176.965C192.894 181.17 191.842 185.251 189.671 188.932C188.901 190.237 187.65 191.262 186.602 192.399C186.483 192.528 186.25 192.553 186.069 192.626C186.077 192.514 186.073 192.401 186.094 192.292C186.348 190.978 186.449 189.609 186.894 188.363C187.958 185.391 189.185 182.477 190.504 179.382C191.296 177.238 192.133 175.11 192.864 172.946C193.367 171.456 193.722 169.917 194.149 168.401C194.184 168.278 194.268 168.169 194.329 168.053ZM109.622 160.992C109.628 161.135 109.929 161.255 110.068 161.408C110.448 161.824 110.89 162.206 111.173 162.682C114.291 167.915 115.93 173.678 117.198 179.568C117.535 181.132 117.835 182.703 118.151 184.586C118.257 185.487 118.469 186.392 118.44 187.29C118.406 188.332 118.416 189.501 117.957 190.382C116.67 192.853 113.218 192.782 111.1 191.481C109.14 190.277 108.198 188.336 107.136 186.504C105.327 183.38 103.817 180.081 101.937 177.003C99.38 172.817 96.8586 168.648 95.7061 163.814C95.3594 162.36 96.1001 161.369 97.6518 161.413C101.304 161.519 104.853 160.799 108.408 160.132C109.603 159.908 109.575 159.846 109.622 160.992ZM286.26 160.337C286.891 163.055 286.487 165.651 285.705 168.216C284.565 171.954 283.322 175.663 283.704 179.656C283.971 182.451 285.225 184.658 287.626 186.201C287.995 186.438 288.161 186.993 288.42 187.401C287.934 187.502 287.445 187.69 286.963 187.671C286.666 187.66 286.346 187.372 286.098 187.141C284.322 185.49 282.332 184.002 280.862 182.109C279.384 180.206 278.429 177.896 277.088 175.607C276.781 174.143 276.417 172.688 276.177 171.213C275.638 167.904 277.294 164.719 280.313 163.594C282.29 162.858 284.454 162.584 285.294 160.183C285.431 159.791 285.942 158.968 286.26 160.337ZM381.876 88.5522C378.018 89.0105 374.133 89.7258 370.431 90.885C366.464 92.1275 362.988 94.4919 360.175 97.6065C356.34 101.853 353.838 106.787 352.726 112.455C352.255 114.855 352.107 117.237 352.152 119.65C352.181 121.181 352.339 122.71 352.455 124.239C352.702 127.508 351.882 130.619 351.071 133.734C350.24 136.925 350.543 140.123 350.835 143.363C351.268 148.151 353.068 152.483 355.022 156.742C356.28 159.485 357.982 162.03 359.569 164.612C360.912 166.796 362.375 168.907 363.863 171.129C365.87 174.289 367.83 177.352 369.713 180.461C370.544 181.831 371.22 183.295 371.97 184.715C372.061 184.888 372.153 185.073 372.287 185.21C372.753 185.687 373.237 186.145 373.714 186.61C373.759 185.931 374.027 185.17 373.814 184.586C372.107 179.906 369.476 175.729 366.623 171.675C363.168 166.767 359.498 161.991 357.049 156.45C355.439 152.809 354.169 149.064 353.721 145.089C353.461 142.785 353.17 140.475 353.117 138.163C353.064 135.867 353.289 133.564 353.407 131.265C353.412 131.151 353.611 130.942 353.622 130.948C353.879 131.095 354.174 131.221 354.359 131.439C355.342 132.597 356.28 133.793 357.264 134.95C359.765 137.89 362.809 139.868 366.652 140.724C370.448 141.57 373.639 140.465 376.335 137.99C379.753 134.855 379.701 131.02 377.35 127.39C375.199 124.069 372.082 122.308 368.073 121.744C364.154 121.193 360.596 122.282 357.038 123.444C355.723 123.873 354.913 124.334 354.851 122.473C354.78 120.367 354.91 118.232 354.609 116.16C354.222 113.495 355.15 111.169 355.902 108.75C357.388 103.964 360.259 100.218 364.101 97.0492C367.049 94.6179 370.355 92.9466 373.961 91.9669C377.683 90.9555 381.461 90.4922 385.421 90.894C391.836 91.5449 397.411 94.001 402.476 97.7574C406.064 100.418 408.856 103.864 411.33 107.571C411.699 108.123 412.308 108.515 412.803 108.984C413.423 109.569 414.249 109.737 414.691 109.053C415.027 108.534 415.149 107.425 414.82 107.002L414.057 106.018C412.527 104.046 410.967 102.076 409.149 100.398C406.922 98.3428 404.371 96.6127 401.843 94.9167C397.617 92.0818 392.987 90.1745 387.926 89.3996C385.905 89.0902 383.831 88.3199 381.876 88.5522ZM321.085 180.578C321.109 180.778 321.174 180.983 321.151 181.177C320.937 182.985 319.753 184.183 318.413 185.184C317.965 185.52 317.179 185.403 316.548 185.493C316.881 184.98 317.192 184.451 317.555 183.959C317.77 183.667 318.065 183.434 318.325 182.859C319.097 182.191 319.866 181.52 320.642 180.858C320.774 180.746 320.936 180.67 321.085 180.578ZM72.2105 68.5113C73.9005 69.918 75.581 71.3421 77.1851 72.8439C79.8164 75.3074 81.4833 78.4599 82.8614 81.6894C85.7591 88.4804 88.438 95.3643 91.1803 102.221C95.222 112.325 99.2406 122.438 103.269 132.864C103.48 133.197 103.751 133.508 103.893 133.869C106.455 140.38 108.992 146.9 111.554 153.411C113.528 158.43 115.623 163.403 117.49 168.461C119.217 173.138 120.334 177.991 120.985 182.939C121.048 183.415 120.886 183.922 120.829 184.414C120.781 183.995 120.798 183.554 120.662 183.166C120.57 182.905 120.152 182.755 120.068 182.495C118.462 177.533 116.988 172.525 115.266 167.603C114.08 164.216 112.59 160.931 111.171 157.629C110.508 156.086 109.916 155.937 108.426 156.675C107.42 157.173 106.396 157.639 105.412 158.179C103.857 159.031 102.21 159.355 100.453 159.199C99.2002 159.088 97.634 157.642 97.6036 156.296C97.5739 154.981 98.1582 153.925 99.683 153.786C100.637 153.699 101.612 153.746 102.545 153.565C103.234 153.431 103.869 153.025 104.527 152.741C104.098 152.413 103.699 152.028 103.228 151.777C102.937 151.622 102.536 151.669 102.184 151.629C99.8258 151.356 97.8252 152.484 95.7529 153.292C92.0207 154.746 89.9167 154.469 88.0204 151.979C87.0015 150.641 86.3183 149.018 85.6445 147.455C82.5865 140.362 79.3407 133.335 76.632 126.109C73.8299 118.634 71.2187 111.051 69.1665 103.345C66.9588 95.055 64.5396 86.7534 64.1127 78.0893C63.9951 75.7035 64.1999 73.394 64.8821 71.0379C65.9805 67.2454 69.5599 66.305 72.2105 68.5113ZM201.974 144.445C202.109 144.704 202.281 144.951 202.373 145.225C203.559 148.739 203.373 152.257 201.732 155.511C200.014 158.917 197.91 162.13 195.955 165.417C195.872 165.556 195.596 165.581 195.409 165.66C195.349 165.406 195.182 165.122 195.246 164.904C195.806 162.986 196.442 161.089 196.966 159.161C197.074 158.764 196.957 158.1 196.679 157.853C196.268 157.487 195.579 157.133 195.083 157.216C193.65 157.455 192.459 159.159 192.318 160.86C192.085 163.669 192.002 166.501 191.578 169.282C190.895 173.753 189.131 177.894 187.173 181.947C187.067 182.167 186.86 182.338 186.7 182.531C186.543 182.281 186.313 182.049 186.243 181.776C185.998 180.822 185.952 179.792 185.57 178.902C184.224 175.765 184.246 172.75 185.893 169.712C186.795 168.05 187.496 166.28 188.446 164.401C189.116 162.472 189.434 160.308 190.539 158.669C192.241 156.141 194.536 154.017 196.479 151.641C198.195 149.544 199.775 147.336 201.415 145.177L201.974 144.445ZM291.851 174.381C291.49 174.999 291.212 175.571 290.754 175.905C289.035 177.162 289.227 180.547 290.919 181.59C291.298 181.824 291.952 181.627 292.479 181.629C292.479 181.201 292.61 180.72 292.458 180.354C291.387 177.776 292.499 175.663 295.306 174.987C295.745 174.881 296.145 174.613 296.563 174.421C296.179 174.184 295.802 173.935 295.408 173.716C294.987 173.482 294.55 173.276 294.119 173.061C292.494 172.25 292.235 172.384 291.851 174.381ZM289.008 160.9C288.754 162.368 288.832 163.953 289.096 165.428C289.301 166.579 292.32 167.212 293.961 166.999C295.695 166.774 296.762 165.739 297.84 164.635C298.779 163.673 299.849 162.918 301.173 163.452C302.518 163.995 302.569 165.331 302.506 166.753C302.883 169.254 303.61 171.278 305.793 172.759C308.684 174.719 312.014 173.283 313.313 170.907C313.46 170.638 313.72 170.431 313.928 170.195C314.085 170.426 314.291 170.638 314.391 170.891C315.172 172.863 316.019 174.816 316.666 176.832C317.068 178.088 316.494 178.659 315.211 178.646C314.352 178.638 313.494 178.63 312.636 178.654C312.411 178.66 312.19 178.784 311.967 178.854C312.091 179.064 312.167 179.389 312.347 179.463C313.157 179.797 314.116 180.466 314.802 180.267C316.601 179.746 318.178 178.76 318.28 176.53C318.447 172.898 316.498 170.157 314.424 167.484C312.063 164.442 308.577 163.367 305.063 162.372C300.649 161.121 296.236 159.865 291.82 158.619C290.901 158.36 289.26 159.451 289.008 160.9ZM305.89 163.726C307.465 164.351 309.021 165.039 310.526 165.814C313.124 167.151 313.397 169.517 311.234 171.392C308.984 173.343 306.096 172.682 305.247 169.895C304.771 168.332 304.669 166.657 304.398 164.719C304.325 163.546 305.064 163.398 305.89 163.726ZM299.366 164.888C299.228 164.943 299.094 165.014 298.951 165.05C296.814 165.596 295.152 169.076 296.168 170.96C296.368 171.333 296.779 171.586 297.093 171.895C297.171 171.588 297.258 171.283 297.326 170.973C297.527 170.057 297.72 169.138 297.99 168.145C298.477 167.145 298.894 166.221 299.3 165.292C299.352 165.171 299.345 165.023 299.366 164.888ZM292.725 159.587C294.497 160.205 296.201 161.016 298.249 161.746C298.301 161.984 298.47 162.273 298.389 162.451C297.368 164.691 293.533 166.27 291.235 165.426C289.879 164.929 289.129 163.21 289.576 161.626C289.886 160.529 291.704 159.23 292.725 159.587ZM129.899 105.342C126.847 105.64 124.411 106.973 122.554 109.601C121.533 111.044 122.309 112.241 122.549 113.453C123.414 117.824 124.459 122.158 125.451 126.503C126.268 130.08 127.1 133.654 127.936 137.227C129.05 141.988 130.169 146.747 131.296 151.505C132.107 154.928 132.929 158.349 133.765 161.766C133.853 162.123 134.075 162.446 134.235 162.785C134.383 162.429 134.684 162.059 134.655 161.719C134.423 159.022 134.189 156.322 133.838 153.64C133.468 150.816 133.017 148.001 132.512 145.199C131.911 141.855 131.278 138.515 130.547 135.198C128.89 127.689 126.75 120.324 124.304 113.039C123.332 110.145 126.093 108.235 128.327 108.285C129.755 108.317 130.987 108.643 132.298 108.963C132.515 109.016 132.857 108.536 133.14 108.145C133.14 107.883 133.173 107.764 133.135 107.677C132.831 106.985 133.935 105.718 132.309 105.567C131.504 105.492 130.688 105.265 129.899 105.342ZM286.457 147.37C284.542 147.399 282.627 147.654 280.715 147.636C277.978 147.609 275.367 148.192 272.923 149.27C270.773 150.217 268.788 151.527 266.651 152.755C264.158 154.976 262.261 157.459 261.531 160.64C261.435 161.058 261.895 161.6 262.098 162.085C262.424 161.793 262.957 161.553 263.048 161.202C264.785 154.467 269.676 151.189 276.064 149.545C279.554 148.647 283.084 148.869 286.626 149.184C287.085 149.225 288.113 149.832 288.151 148.623C288.186 147.512 287.247 147.358 286.457 147.37ZM195.411 52.9963C201.632 53.8795 206.234 57.4508 209.721 62.5781C213.521 68.1661 214.793 74.5171 214.96 81.0434C215.079 85.703 214.522 90.3934 214.058 95.0494C213.712 98.5281 213.219 102.015 212.455 105.424C211.492 109.72 210.166 113.935 209.033 118.194C207.138 125.316 204.752 132.271 201.728 138.991C198.505 146.155 194.267 152.644 188.313 157.892C186.391 159.586 184.162 160.81 181.571 161.068C178.343 161.388 175.208 160.78 172.121 159.836C165.518 157.815 158.846 156 152.309 153.787C146.34 151.767 142.622 147.434 141.296 141.282C140.302 136.669 139.463 132.015 138.768 127.348C138.177 123.377 137.697 119.369 137.529 115.362C137.401 112.298 137.802 109.207 138.035 106.134C138.213 103.791 138.496 101.456 138.733 98.8026C139.503 94.1398 140.899 89.6773 142.737 85.3141C145.53 78.6843 149.379 72.851 154.581 67.8173C160.253 62.3301 167.031 58.8396 174.402 56.4388C178.562 55.0839 182.867 54.0869 187.176 53.3016C189.858 52.8126 192.727 52.6153 195.411 52.9963ZM380.67 95.6649C380.855 95.9541 381.019 96.259 381.228 96.5301C385.099 101.565 389.197 106.443 392.792 111.668C397.034 117.833 400.578 124.437 403.33 131.545C404.401 133.774 405.382 135.929 406.393 138.07C406.928 139.204 408.041 139.062 408.799 138.697C409.62 138.301 409.519 137.464 409.027 136.584C404.975 129.331 401.087 121.985 396.942 114.788C394.399 110.373 391.652 106.053 388.685 101.915C387.098 99.7015 384.859 97.9532 382.887 96.0226C382.625 95.7661 382.216 95.5848 381.851 95.5299C381.473 95.4729 381.065 95.6117 380.67 95.6649ZM370.284 124.614C374.624 125.766 376.782 128.944 376.406 133.124C376.169 135.758 375.126 137.444 372.63 138.154C369.768 138.968 366.911 138.595 364.217 137.511C360.351 135.957 357.189 133.606 356.23 128.888C356.13 127.617 356.495 126.688 357.628 125.86C361.64 122.927 365.875 123.445 370.284 124.614ZM279.801 41.8694C279.907 42.0008 280.013 42.0533 280.118 42.1847C280.458 42.3378 280.878 42.3092 281.124 42.5013C287.261 47.2969 291.11 53.5619 293.132 61.0056C294.093 64.5405 294.528 68.1456 294.369 71.7821C294.089 78.1816 292.08 84.0303 288.442 89.3528C284.466 95.1679 279.184 99.447 272.877 102.449C269.263 104.17 265.427 105.409 261.364 105.625C259.536 105.722 257.665 105.422 255.871 105.689C252.426 106.201 249.22 105.274 246.037 104.348C239.628 102.483 233.988 99.2617 229.157 94.6057C225.592 91.1707 222.509 87.4364 220.473 82.9064C220.434 82.8176 220.384 82.7331 220.339 82.6467C220.278 82.764 220.152 82.8899 220.166 82.9975C220.47 85.297 220.323 87.6257 221.958 89.6781C227.018 96.0306 232.888 101.382 240.492 104.49C243.745 105.819 247.219 106.673 250.654 107.483C252.721 107.969 254.913 108.176 257.039 108.12C262.416 107.979 267.604 106.844 272.568 104.707C277.868 102.427 282.508 99.2229 286.462 95.0624C291.061 90.2235 294.271 84.5914 295.627 78.0431C296.168 75.4349 296.597 72.7388 296.56 70.0898C296.446 61.8142 294.014 54.1844 289.196 47.4102C287.883 45.5643 286.117 44.0305 284.516 42.3962C283.761 41.626 280.408 41.2545 279.801 41.8694ZM273.04 41.9493C272.96 41.9585 272.89 42.0559 272.816 42.1123C272.953 42.1612 273.089 42.2156 273.228 42.2581C278.628 43.907 282.474 47.4528 285.044 52.3623C286.618 55.3711 287.472 58.6407 287.952 62.0509C288.93 68.9831 287.33 75.3659 284.003 81.314C279.892 88.663 274.078 94.2558 266.032 97.1512C263.466 98.0746 260.813 99.0658 258.136 99.3078C251.707 99.8888 245.532 98.7363 239.808 95.514C235.542 93.112 232.035 89.8975 228.891 86.1661C225.244 81.838 223.169 76.7935 221.88 71.4019C221.427 69.5119 221.621 67.4678 221.503 65.4951C221.481 65.1254 221.378 64.7606 221.312 64.3936C220.88 64.6168 220.213 64.7344 220.058 65.0821C219.504 66.3212 218.649 67.688 218.776 68.9157C219.039 71.4396 219.671 73.97 220.491 76.3817C222.619 82.6407 226.378 87.8619 231.256 92.258C235.796 96.3482 241.029 99.2057 246.984 100.64C249 101.125 251.039 101.683 253.092 101.801C254.992 101.911 256.94 101.579 258.836 101.259C261.363 100.833 263.944 100.478 266.354 99.6583C273.012 97.3933 278.598 93.5444 283.1 88.0255C286.698 83.6162 288.776 78.6067 289.773 73.1131C290.946 66.649 289.895 60.3859 287.504 54.3391C285.886 50.2475 283.527 46.6216 280.294 43.5994C280.049 43.3707 279.914 43.0241 279.728 42.5746C279.624 42.3641 279.519 42.3115 279.414 42.2589C277.342 41.0762 275.181 41.7003 273.04 41.9493ZM35.7349 98.3193C33.5692 98.3424 31.4078 98.6369 29.2429 98.8066C26.6086 99.0132 23.9757 99.2729 21.3361 99.3745C18.8112 99.4716 16.2759 99.3336 13.7503 99.4218C12.5059 99.4653 11.2376 99.6853 10.0545 100.037C9.65158 100.157 9.4761 100.925 9.19675 101.397C9.58105 101.512 9.95825 101.658 10.3516 101.732C10.8081 101.817 11.2787 101.838 11.8228 101.813C17.0746 101.642 22.2464 101.506 27.4192 101.466C29.514 101.449 31.6113 101.719 33.7064 101.707C34.7336 101.701 35.7627 101.366 36.7833 101.149C37.8476 100.923 38.1654 100.04 37.769 99.3954C37.4283 98.8413 36.4336 98.3119 35.7349 98.3193ZM257.448 46.3178C256.264 51.9641 255.168 57.6297 254.007 63.2813C253.411 66.1827 254.119 67.387 256.613 68.7957C259.909 70.657 263.098 72.7305 266.248 74.8452C267.826 75.9044 269.121 76.2731 269.985 75.4361C270.801 74.6458 270.935 73.9499 269.846 73.2087C266.439 70.8886 263.016 68.5848 259.722 66.1037C259.004 65.5635 258.359 64.2738 258.433 63.396C258.703 60.19 259.274 57.0095 259.767 53.8253C259.973 52.4965 260.269 51.1824 260.524 49.7028C260.646 48.3975 260.995 47.2095 260.806 46.1198C260.688 45.4368 259.827 44.5042 259.179 44.3873C258.029 44.1798 257.641 45.3984 257.448 46.3178ZM40.2593 33.1248C40.0672 33.3257 39.9617 33.8728 40.097 34.0724C40.746 35.0302 41.4915 35.9235 42.2822 36.9185C44.8321 40.3958 47.2711 43.8176 49.811 47.1641C50.1435 47.6023 51.2196 48.0198 51.5589 47.813C52.4214 47.287 51.6446 46.7258 51.2869 46.1297C48.9132 42.1736 46.6159 38.1725 44.2632 34.204C43.1798 32.3766 41.4185 31.9126 40.2593 33.1248ZM112.598 -17.9987C112.182 -17.964 111.715 -17.4623 111.435 -17.0485C110.407 -15.5303 110.947 -13.8237 111.152 -12.2465C111.509 -9.49449 112.156 -6.78183 112.659 -4.04858C112.895 -2.77207 113.079 -1.48595 113.287 -0.0460892C113.702 2.09619 114.154 4.07337 114.525 6.06606C115.198 9.68561 115.8 13.319 116.477 16.9379C117.041 19.9569 117.652 22.9674 118.275 25.9747C119.297 30.9121 120.313 35.8516 121.407 40.7729C121.707 42.1231 122.759 42.6289 123.621 41.9828C123.912 41.7649 124.202 41.2066 124.133 40.8833C122.52 33.3554 120.792 25.8527 119.227 18.3149C118.077 12.773 117.254 7.15969 116.054 1.62985C114.911 -3.63826 114.323 -8.91969 114.491 -14.3107C114.52 -15.2431 114.083 -16.228 113.704 -17.1194C113.532 -17.5233 112.953 -18.0285 112.598 -17.9987ZM198.025 19.3857C197.722 19.8985 197.41 20.4063 197.103 21.0774C196.59 23.8047 196.061 26.3675 195.571 28.9384C195.323 30.2342 195.133 31.5427 194.948 32.8502C194.902 33.175 194.975 33.5183 194.994 33.8532C195.446 33.7772 196.177 33.8543 196.304 33.5997C196.963 32.2884 197.556 30.9229 198.003 29.5172C198.514 27.9069 198.728 26.187 199.305 24.6082C199.62 23.7443 200.48 23.115 200.98 22.3029C201.413 21.6006 201.921 20.7966 201.942 20.0242C201.955 19.5285 201.214 18.6957 200.688 18.5688C199.769 18.3468 198.677 18.2853 198.025 19.3857Z" fill="#00160A"/>
<path d="M302.858 176.751C300.989 176.25 299.636 175.238 299.836 174.491C300.036 173.743 301.714 173.543 303.584 174.044C305.453 174.545 306.806 175.557 306.606 176.305C306.406 177.053 304.728 177.252 302.858 176.751Z" fill="#FFB61D"/>
<path fill-rule="evenodd" clip-rule="evenodd" d="M289.991 170.673C288.656 170.172 287.887 169.16 288.162 168.412C288.42 167.665 289.408 167.464 290.478 167.965C291.654 168.466 292.702 169.478 292.708 170.226C292.697 170.973 291.431 171.173 289.991 170.673Z" fill="#FFB61D"/>
</svg>
