<svg width="583" height="189" viewBox="0 0 583 189" fill="none" xmlns="http://www.w3.org/2000/svg">
<path fill-rule="evenodd" clip-rule="evenodd" d="M84.0769 169.912C149.154 115.324 171.896 114.638 203 70.9997C236.5 23.9997 269.825 3.49292 353.5 -9.9037C427.857 -57.9794 458.283 -23.4354 551 -29.4998C667.738 -37.1354 523.122 -9.9037 581.528 -9.9037C585.369 -9.9037 676.318 -46.8906 689.63 54.3632C696.334 105.355 581.528 183.115 581.528 183.115C581.528 183.115 533.746 226.951 531.122 248.596C520.118 339.375 543.066 443.347 285.892 491.213C252.632 497.403 197.404 475.011 166.934 433.648C143.064 401.242 47.3093 424.233 38.3709 317.695C-41.5 236.5 19 224.5 84.0769 169.912Z" fill="#707EFF"/>
<path d="M255.618 97.937C256.486 97.4191 257.604 97.7108 258.115 98.5886L260.179 102.113C268.376 116.031 271.654 120.551 275.139 122.594C278.003 124.274 280.964 123.753 286.384 120.535L287.108 120.095C290.517 117.944 306.117 107.099 312.148 103.205C312.997 102.657 314.125 102.909 314.666 103.768C315.208 104.627 314.959 105.768 314.11 106.316L313.181 106.921C306.46 111.331 291.362 121.826 288.689 123.443C282.126 127.415 277.872 128.307 273.608 125.957L273.311 125.788C268.73 123.102 265.167 117.949 254.974 100.464C254.463 99.5864 254.751 98.4549 255.618 97.937Z" fill="white"/>
<path d="M285.148 119.27C286.146 119.135 287.064 119.844 287.197 120.855C287.818 125.549 289.306 130.257 291.667 134.982C292.122 135.891 291.762 137.002 290.863 137.462C289.965 137.922 288.868 137.557 288.413 136.648C285.872 131.563 284.26 126.46 283.583 121.344C283.449 120.334 284.15 119.406 285.148 119.27Z" fill="white"/>
<path fill-rule="evenodd" clip-rule="evenodd" d="M226.263 -0.830168L225.151 -1.03378C218.945 -2.20157 214.187 -3.63526 205.297 -6.75453C204.278 -7.11225 203.738 -8.23864 204.091 -9.27041C204.445 -10.3022 205.558 -10.8486 206.577 -10.4909L208.792 -9.71919C216.59 -7.02583 220.966 -5.79102 226.941 -4.72463C247.048 -1.13634 262.102 -11.5842 263.334 -31.5099C263.402 -32.5998 264.329 -33.4281 265.406 -33.3599C266.483 -33.2917 267.301 -32.3529 267.234 -31.263C265.848 -8.85353 248.555 3.14816 226.263 -0.830168Z" fill="#00160A"/>
<path fill-rule="evenodd" clip-rule="evenodd" d="M276.503 20.5119L277.625 23.0351L280.182 23.7781C280.321 23.8182 280.401 23.9642 280.361 24.1042C280.349 24.1474 280.326 24.1866 280.294 24.2183L278.351 26.176L278.46 28.9935C278.466 29.139 278.354 29.2615 278.21 29.2672C278.162 29.2691 278.113 29.2572 278.071 29.2329L275.871 27.9649C275.803 27.9253 275.72 27.9194 275.646 27.949L273.294 28.8947C273.16 28.9485 273.008 28.8824 272.955 28.747C272.937 28.7013 272.932 28.6513 272.941 28.6029L273.436 25.8282L271.781 23.6158C271.695 23.4997 271.717 23.3344 271.832 23.2465C271.867 23.2194 271.909 23.2019 271.953 23.1956L274.587 22.8202L276.045 20.4795C276.122 20.3564 276.283 20.3194 276.405 20.3971C276.448 20.4247 276.482 20.4647 276.503 20.5119Z" fill="#00160A"/>
<path d="M291.883 135.387L292.936 134.999C302.884 131.386 311.278 129.792 313.41 131.988C315.28 133.913 316.947 137.4 318.526 142.515C318.827 143.488 318.291 144.523 317.33 144.827C316.369 145.131 315.346 144.589 315.046 143.616C313.68 139.193 312.286 136.216 310.967 134.744L310.913 134.686L310.866 134.689C310.616 134.637 310.242 134.611 309.765 134.621C308.715 134.641 307.278 134.829 305.563 135.173C302.035 135.88 297.575 137.196 293.146 138.85C285.74 141.615 279.571 144.863 276.163 147.798C274.911 148.875 272.627 145.874 274.825 144.155C278.781 141.062 284.78 138.039 291.883 135.387Z" fill="white"/>
<path d="M286.878 100.521C286.878 106.677 293.31 113.342 294.678 113.721C295.65 113.99 278.915 125.026 278.915 125.026C272.869 125.831 269.318 120.658 269.318 112.952C269.318 111.933 286.878 99.5021 286.878 100.521Z" fill="white"/>
<path fill-rule="evenodd" clip-rule="evenodd" d="M267.145 103.76C269.263 103.343 270.702 101.557 270.359 99.7701C270.016 97.9835 268.021 96.873 265.902 97.2897C263.784 97.7065 262.345 99.4926 262.688 101.279C263.031 103.066 265.027 104.176 267.145 103.76Z" fill="white"/>
<path d="M568.756 44.3934C558.362 43.8555 550.176 51.9808 550.09 62.8881C550.018 72.0779 555.132 79.6453 562.158 81.1114C564.999 81.7042 570.454 80.9912 574.499 78.6948C580.643 75.3601 585.339 68.5046 585.931 62.6636C586.897 53.1472 579.284 44.9382 568.756 44.3934Z" fill="white"/>
<path d="M380.398 42.4743C383.718 49.2614 388.874 64.9382 386.644 64.8628C380.449 64.6533 372.162 55.0182 366.365 41.9905L365.908 40.9427C360.847 29.1146 357.816 21.6835 361.335 20.2601C364.976 18.7878 373.545 28.4664 380.398 42.4743Z" fill="white"/>
<path fill-rule="evenodd" clip-rule="evenodd" d="M361.336 20.1099C364.976 18.6375 373.671 27.8739 380.524 41.8819C383.844 48.669 386.096 55.1798 386.684 59.8488C386.684 59.8488 375.471 35.936 368.632 27.1775C366.005 23.813 361.336 20.1099 361.336 20.1099Z" fill="#E7EAEE"/>
<path d="M359.426 80.3316C359.693 79.3488 360.696 78.7713 361.667 79.0416C362.638 79.3119 363.209 80.3276 362.942 81.3103C362.598 82.5745 357.769 85.8902 347.23 92.4651L340.579 96.5852C327.447 104.676 318.685 109.853 317.589 109.853C310.339 109.853 303.806 102.931 299.036 92.0079C294.871 82.4708 292.709 71.1184 293.686 63.6789C293.99 61.357 301.634 55.3462 313.436 47.2932L315.126 46.1466C325.567 39.1067 334.492 33.8856 337.72 33.2263C338.707 33.0247 339.669 33.6712 339.868 34.6703C339.993 35.2952 311.213 59.8479 308.402 76.144C306.498 87.1778 313.695 105.984 317.267 106.154L317.589 106.162C317.299 106.162 317.392 106.094 317.426 106.074L317.755 105.903C317.997 105.774 318.285 105.617 318.616 105.433L320.133 104.574C320.713 104.241 321.36 103.866 322.068 103.453L323.877 102.389C327.332 100.347 331.643 97.7481 336.04 95.0555L340.222 92.4822C345.307 89.3375 349.902 86.438 353.355 84.1864L355.134 83.0167C356.236 82.2852 357.166 81.6522 357.91 81.1275L358.181 80.9359C358.591 80.6431 358.932 80.3912 359.198 80.1844C359.198 80.1844 359.498 80.064 359.426 80.3316Z" fill="white"/>
<path fill-rule="evenodd" clip-rule="evenodd" d="M363.041 43.5043C358.634 33.6021 356.688 24.5278 358.164 19.0335C355.497 19.8909 352.165 21.432 348.856 23.3529C344.458 25.9064 340.969 28.7606 340.887 29.3801C340.037 35.8568 343.3 48.4567 348.721 59.6898C354.52 71.7053 361.42 79.4229 366.76 79.4229C367.272 79.4229 368.735 79.1176 370.202 78.5989C372.288 77.8612 374.243 76.7865 375.844 75.3785C376.64 74.6785 377.464 73.8872 378.325 73.0041L379.362 71.9192C379.974 71.2646 380.605 70.5596 381.59 69.4428L382.962 67.8918L383.021 67.8271C376.15 65.2859 368.965 56.3293 363.59 44.7145L363.041 43.5043ZM337.272 28.8941C337.839 24.5732 353.824 15.233 361.117 14.6307C361.421 14.4375 361.747 14.27 362.095 14.1294C368.411 11.5749 378.036 22.5175 385.756 37.9143L386.285 38.9831C389.77 46.1065 392.147 52.9797 392.795 58.1208C393.569 64.2647 391.812 68.3378 387.203 68.5465C387.079 69.0301 386.768 69.4345 386.354 69.6782L386.283 69.7151L386.103 69.897C385.922 70.0848 385.709 70.3179 385.381 70.6876L383.115 73.2472C382.293 74.1642 381.711 74.7862 380.921 75.5962C379.999 76.5427 379.108 77.3979 378.236 78.1649C374.706 81.2684 369.487 83.1138 366.76 83.1138C365.314 83.1138 363.851 82.7731 362.386 82.1231C360.82 83.7758 356.003 86.9907 347.23 92.4644L340.578 96.5845C327.447 104.675 318.685 109.852 317.589 109.852C315.107 109.852 312.708 109.041 310.436 107.535C310.415 107.551 310.392 107.566 310.37 107.58L309.441 108.185C306.211 110.304 301.045 113.83 296.254 117.1L296.254 117.1L296.252 117.101L295.954 117.304C296.574 121.786 297.984 126.279 300.19 130.788C308.022 128.337 314.226 127.509 316.016 129.352C317.885 131.278 319.552 134.765 321.132 139.88C321.432 140.852 320.896 141.887 319.935 142.192C318.974 142.496 317.951 141.953 317.651 140.981C316.285 136.557 314.891 133.581 313.573 132.109L313.518 132.051L313.471 132.054C313.222 132.002 312.848 131.976 312.371 131.985C311.32 132.006 309.884 132.193 308.168 132.537C304.64 133.245 300.18 134.561 295.751 136.215C285.626 139.995 277.812 144.679 276.206 148.228C275.737 149.267 275.796 150.787 276.359 153.115L276.463 153.535C276.547 153.865 276.635 154.192 276.751 154.605L277.409 156.964L277.434 157.057L277.455 157.138L277.498 157.305C277.751 158.292 277.166 159.299 276.191 159.555C275.216 159.811 274.221 159.219 273.968 158.233L273.644 157.039L273.105 155.113C273.043 154.885 272.988 154.675 272.933 154.461C272.079 151.127 271.941 148.79 272.891 146.692C274.501 143.133 279.537 139.447 286.549 136.096L285.024 132.11L284.648 131.102C284.07 129.529 283.397 127.396 282.985 125.84C277.507 128.829 273.691 129.328 269.868 127.221L269.571 127.052C268.814 126.608 268.085 126.097 267.349 125.474L245.981 138.61C246.18 139.044 246.381 139.481 246.584 139.922C247.542 142.003 245.851 143.477 243.257 144.623L242.978 144.744C240.748 145.678 238.736 145.893 237.539 144.562C232.569 139.042 227.308 125.836 230.138 122.816C230.682 122.236 232.116 121.372 234.83 119.932L235.06 119.811C235.111 119.776 235.164 119.743 235.219 119.713L255.196 108.759C255.242 108.734 255.288 108.711 255.335 108.69C254.096 106.616 252.738 104.306 251.235 101.728C250.784 100.956 250.954 99.9866 251.592 99.4122C255.697 95.4743 261.289 91.3684 268.3 86.9476L269.152 86.4138C272.19 84.5179 278.352 80.9608 283.587 77.9389L283.587 77.9388C287.648 75.5948 291.15 73.5728 292.205 72.8975L292.461 72.726C292.842 72.4436 293.296 72.3331 293.731 72.3803C293.384 69.1782 293.354 66.2029 293.685 63.6782C293.99 61.3563 301.633 55.3455 313.435 47.2926L315.126 46.1459C325.018 39.4759 333.549 34.4385 337.165 33.3669C337.068 31.7149 337.1 30.21 337.272 28.8941ZM337.564 37.1091C334.022 38.4193 325.152 43.7489 315.474 50.3529L313.924 51.4169C309.569 54.4247 305.545 57.3573 302.506 59.7474L301.661 60.4178C300.305 61.5055 299.208 62.4428 298.412 63.1945C298.013 63.5716 297.698 63.8942 297.476 64.151L297.321 64.3361C297.287 64.3716 297.278 64.358 297.291 64.2418L297.3 64.1643C297.296 64.1941 297.293 64.2198 297.291 64.2418L297.243 64.6379C295.489 80.2121 306.616 105.647 317.267 106.154L317.517 106.16C317.538 106.161 317.562 106.162 317.589 106.162L317.517 106.16C317.316 106.149 317.395 106.091 317.426 106.074L317.755 105.902C317.997 105.773 318.284 105.616 318.616 105.432L320.133 104.573C320.713 104.241 321.36 103.866 322.067 103.452L323.877 102.388C327.332 100.347 331.643 97.7474 336.04 95.0549L340.222 92.4815C345.307 89.3368 349.902 86.4373 353.355 84.1857L355.134 83.016C356.235 82.2845 357.166 81.6515 357.91 81.1269L358.18 80.9352C358.574 80.6542 358.904 80.4108 359.166 80.2089C354.469 76.7204 349.845 70.2784 345.74 61.9166L345.444 61.3098C341.487 53.1112 338.626 44.2327 337.564 37.1091ZM294.235 75.9586C292.919 76.7968 289.038 79.0394 284.72 81.5349L284.72 81.5353C279.602 84.4925 273.871 87.8048 271.065 89.5556C264.438 93.691 259.093 97.5244 255.126 101.134L256.44 103.377C262.192 113.144 265.522 118.283 268.201 121.186C267.309 119.049 266.848 116.337 266.848 112.934C266.848 112.778 266.867 112.626 266.903 112.481C266.727 111.775 266.976 110.999 267.592 110.541L268.834 109.607C269.579 109.037 270.804 108.089 272.198 107.012L272.198 107.011C275.248 104.653 279.101 101.672 280.476 100.676C284.8 97.5407 287.987 95.7815 290.889 95.171C292.276 94.8794 293.352 95.7095 293.665 96.9948L293.716 97.2287C293.788 97.6112 293.802 97.9875 293.8 98.8094L293.799 99.0697C293.784 102.141 294.085 103.913 295.37 105.96C296.249 107.361 297.541 108.639 299.342 109.784C299.53 109.903 299.689 110.052 299.817 110.22C302.722 108.246 305.443 106.409 307.45 105.093C304.287 101.994 301.438 97.508 299.036 92.0073C296.799 86.8855 295.14 81.2402 294.235 75.9586ZM389.178 58.5879C388.59 53.9189 386.337 47.4081 383.017 40.621C376.165 26.613 367.088 16.0847 363.448 17.557C359.928 18.9804 360.847 29.1129 365.908 40.941L366.366 41.9888C372.163 55.0165 380.45 64.6516 386.644 64.8611C388.874 64.9365 389.746 63.0932 389.178 58.5879ZM257.219 111.81C260.381 116.984 262.692 120.403 264.705 122.781L244.447 135.234C242.372 130.631 240.517 126.346 238.716 121.993L256.933 112.004C257.036 111.947 257.132 111.882 257.219 111.81ZM296.693 131.953C294.727 127.838 293.369 123.711 292.623 119.576C290.005 121.359 287.727 122.902 286.263 123.865C286.513 125.137 287.446 128.161 288.25 130.311L289.746 134.21L289.888 134.588C291.359 133.96 292.896 133.347 294.489 132.752L295.541 132.364C295.928 132.224 296.312 132.087 296.693 131.953ZM296.628 112.392C294.761 111.082 293.329 109.591 292.292 107.939C290.613 105.264 290.172 102.98 290.153 99.5294L290.152 99.2205L289.894 99.3183C288.045 100.045 285.839 101.358 283.067 103.34L282.599 103.676C281.279 104.633 277.523 107.538 274.493 109.882L274.491 109.883C272.808 111.185 271.349 112.314 270.657 112.838L270.495 112.959C270.499 119.097 272.013 121.914 274.828 123.28L275.054 123.385C275.725 123.686 276.204 123.837 277.573 124.217C277.601 124.224 277.629 124.233 277.656 124.242C279.076 123.759 280.702 122.952 282.644 121.799L283.369 121.359C284.974 120.346 289.281 117.406 294.02 114.171L294.022 114.17L294.023 114.17L294.024 114.169C294.882 113.583 295.755 112.988 296.628 112.392ZM235.493 123.759L235.773 124.432C237.709 129.08 239.722 133.682 242.006 138.702L242.894 140.649C242.602 140.847 242.22 141.057 241.799 141.243C241.194 141.51 240.581 141.698 240.119 141.761L239.972 141.776L239.75 141.506C238.024 139.356 236.021 135.701 234.573 132.067C233.802 130.132 233.253 128.356 233.005 126.992C232.904 126.437 232.858 125.97 232.862 125.616L232.872 125.382C232.876 125.326 232.876 125.296 232.862 125.292L232.917 125.255C233.225 125.039 234.013 124.573 235.182 123.93L235.493 123.759ZM260.645 119.692C259.94 118.964 258.785 118.953 258.066 119.666C256.802 120.922 255.03 122.091 251.935 123.83L248.785 125.599C247.953 126.079 247.272 126.493 246.655 126.898C246.139 127.236 245.678 127.563 245.264 127.887C244.467 128.51 244.32 129.669 244.936 130.476C245.552 131.282 246.697 131.431 247.494 130.808C247.823 130.55 248.203 130.281 248.639 129.994C249.042 129.73 249.485 129.456 249.997 129.152L251.001 128.571L254.201 126.777C257.275 125.031 259.127 123.784 260.62 122.301C261.339 121.588 261.35 120.419 260.645 119.692Z" fill="#00160A"/>
<path d="M219.859 307.098C228.977 358.551 263.152 397.231 306.761 406.351C314.766 408.025 328.627 408.245 342.98 406.365C361.473 403.942 379.471 398.386 395.3 389.38C438.781 365.727 471.776 317.456 476.052 275.198C479.809 238.08 465.798 203.79 440.434 179.327C440.434 179.327 360.758 218.936 321.646 241.449C287.612 261.039 219.859 307.098 219.859 307.098Z" fill="white"/>
<path d="M405.414 153.661C389.07 145.5 368.595 139.053 348.516 138.014C274.877 134.203 216.961 193.743 216.358 270.54C216.358 270.54 298.546 217.555 341.245 191.991C362.488 179.272 405.414 153.661 405.414 153.661Z" fill="white"/>
<path fill-rule="evenodd" clip-rule="evenodd" d="M556.88 114.523C556.632 127.354 543.217 148.71 521.653 172.876C506.032 190.382 487.855 207.304 472.614 218.706L471.665 219.409L472.295 222.243C476.002 238.683 480.84 256.555 479.012 274.578C474.575 318.321 440.769 367.673 396.095 391.92C379.802 401.171 361.282 406.877 342.284 409.36L340.473 409.587C326.308 411.276 312.752 410.995 304.469 409.267C272.316 402.557 245.094 379.809 228.636 346.886C228.581 346.775 228.538 346.662 228.506 346.547C226.339 347.797 223.424 349.196 222.093 349.653L218.446 350.9C179.138 364.281 140.168 375.477 124.249 368.49C118.189 365.83 116.117 360.714 118.652 353.841C121.115 347.162 127.944 338.555 139.402 327.845L140.032 327.259C150.889 317.185 175 298.778 212.365 272.038L212.375 271.547C214.198 192.31 275.009 131.906 351.447 136.837C374.827 138.345 393.446 146.754 402.746 151.918L406.835 149.697C445.193 128.938 475.97 114.347 499.453 105.613C538.07 91.2502 557.168 97.9655 556.88 114.523ZM500.711 114.123C457.529 130.183 389.285 166.303 294.268 224.406L291.381 226.173C217.394 271.504 168.402 305.943 142.496 329.978L141.219 331.171L140.009 332.32C120.562 350.916 117.115 361.334 125.7 365.102C140.396 371.552 179.862 360.677 218.51 347.847L222.093 346.652C225.54 345.496 227.826 344.833 229.24 344.526C229.302 344.481 229.369 344.441 229.44 344.404C229.924 344.157 230.465 344.148 230.932 344.334C231.033 344.354 231.099 344.386 231.134 344.43C231.449 344.602 231.717 344.87 231.89 345.218C247.867 377.179 274.194 396.656 305.205 403.127C313.255 404.806 326.837 405.053 340.969 403.283L341.817 403.175C360.378 400.749 378.454 397.703 394.342 388.683C437.997 364.988 471.074 316.701 475.384 274.199C477.227 256.035 474.876 238.205 468.625 221.609C468.11 221.975 467.597 222.333 467.09 222.683C466.13 223.345 466.488 222.273 468.164 219.465C468.253 219.099 468.453 218.765 468.74 218.515L469.256 217.687C469.437 217.399 469.627 217.099 469.826 216.787L471.987 214.942C492.356 197.505 508.009 182.658 518.947 170.401L520.195 168.994C540.433 146.073 553.013 125.826 553.22 114.453C553.448 101.978 537.186 100.557 500.711 114.123ZM317.613 347.514C322.506 362.648 315.105 372.381 302.076 372.884C290.038 373.349 279.076 365.671 279.634 354.762C280.117 345.333 286.496 335.253 294.349 331.551C303.847 327.075 312.761 332.506 317.613 347.514ZM296.275 335.733C289.99 338.695 284.585 347.236 284.187 355C283.791 362.731 292.236 368.646 301.903 368.273C312.009 367.882 317.197 361.059 313.281 348.947C309.205 336.337 303.006 332.56 296.275 335.733ZM417.083 316.672C423.326 328.61 421.691 340.339 412.093 345.596L411.824 345.739L411.685 345.88C398.813 358.78 382.732 360.345 372.246 350.995L371.887 350.668C359.808 339.469 362.686 320.229 381.906 305.146C394.275 295.439 409.385 301.948 417.083 316.672ZM384.3 308.273C366.851 321.966 364.398 338.364 374.526 347.754C381.79 354.489 392.522 354.862 402.546 348.325L402.742 348.193L402.669 348.178C401.975 347.992 401.418 347.425 401.26 346.687L401.229 346.499C401.102 345.415 401.868 344.431 402.939 344.303C405.39 344.009 407.517 343.41 409.321 342.553L409.567 342.432L409.866 342.118C411.042 340.865 412.19 339.502 413.303 338.028L413.673 337.532C414.09 336.966 414.75 336.69 415.398 336.743L415.448 336.749L415.475 336.7C417.815 332.018 417.261 325.674 413.835 318.922L413.63 318.524C406.935 305.721 394.422 300.33 384.3 308.273ZM500.493 166.364C499.49 169.974 496.433 174.929 491.749 180.797C483.582 191.025 471.315 202.931 460.592 211.072L462.971 208.424C462.947 208.403 462.927 208.375 462.91 208.343L462.089 206.817C456.723 196.904 450.745 187.125 441.084 179.154C416.076 189.59 387.401 203.855 361.277 218.77L352.714 223.669C289.655 259.823 256.478 281.467 221.001 308.075C222.34 314.179 224.027 320.135 226.048 325.906C226.365 326.811 222.222 330.201 221.463 329.782C214.386 334.582 203.303 338.068 196.994 338.249C190.845 338.425 187.292 335.906 189.122 330.883C190.653 326.68 196.421 320.687 206.799 312.655L207.983 311.745L210.375 309.926C249.437 280.328 288.107 256.309 359.485 215.556L362.473 213.859C411.428 186.201 468.12 161.284 494.087 158.984C499.424 158.512 501.845 161.501 500.493 166.364ZM216.251 311.658L208.067 317.908C200.766 323.511 195.503 327.655 192.66 330.314L192.451 330.51C188.98 333.805 192.909 334.676 196.891 334.561C202.924 334.388 212.166 329.758 219.988 325.544C218.542 321.011 217.295 316.377 216.251 311.658ZM344.268 291.62C345.244 291.87 345.834 292.874 345.586 293.862C345.339 294.85 344.346 295.448 343.37 295.197C338.467 293.937 335.571 294.421 334.631 295.757C334.008 296.644 334.353 298.155 335.519 299.121C336.43 299.875 337.643 300.235 338.477 300.051C339.203 299.891 339.61 299.325 339.61 297.908C339.61 296.889 340.426 296.063 341.433 296.063C342.44 296.063 343.256 296.889 343.256 297.908C343.256 300.99 341.733 303.111 339.253 303.658C337.259 304.097 334.936 303.407 333.21 301.977C330.661 299.867 329.828 296.223 331.66 293.617C333.668 290.761 338.068 290.026 344.268 291.62ZM264.173 284.843C266.985 285.696 268.196 287.881 268.578 291.16L268.616 291.515L268.662 292.055C268.669 292.145 268.675 292.237 268.681 292.336L268.777 294.209L268.805 294.631C268.82 294.817 268.836 294.969 268.855 295.103L268.904 295.385L268.933 295.509L268.984 295.555C269.547 296.112 269.697 296.987 269.333 297.709L269.239 297.873C268.694 298.729 267.565 298.976 266.719 298.423C265.554 297.663 265.29 296.881 265.149 294.636L265.033 292.439C265.019 292.241 265.005 292.069 264.986 291.874C264.779 289.725 264.261 288.723 263.126 288.379C259.941 287.413 258.113 288.399 257.534 290.554C257.019 292.474 257.765 294.492 259.072 295.052L259.403 295.176C260.257 295.546 260.709 296.519 260.421 297.433C260.115 298.404 259.09 298.94 258.13 298.631C254.658 297.51 253.008 293.335 254.015 289.585C255.14 285.4 259.05 283.29 264.173 284.843ZM395.723 256.586C400.772 263.771 399.834 272.912 391.732 277.049C390.833 277.508 389.737 277.143 389.283 276.233C388.829 275.323 389.191 274.213 390.09 273.754C395.955 270.759 396.625 264.237 392.751 258.725C388.988 253.371 383.751 252.782 380.151 258.568C376.335 264.701 376.612 268.302 379.36 269.923C381.541 271.21 385.053 270.94 386.018 269.888L386.112 269.772C386.696 268.942 387.834 268.748 388.655 269.339C389.475 269.93 389.667 271.082 389.083 271.913C387.056 274.794 381.271 275.324 377.523 273.112C372.724 270.28 372.265 264.317 377.065 256.601C382.205 248.339 390.59 249.282 395.723 256.586ZM320.125 246.003C321.072 246.003 321.851 246.735 321.94 247.67L321.948 247.848C321.948 248.173 322.246 248.536 323.316 249.331L324.329 250.065C325.433 250.88 325.965 251.386 326.468 252.191C327.617 254.031 328.269 255.904 328.269 258.106C328.269 263.747 319.898 271.418 310.76 274.831C299.805 278.923 290.831 275.889 288.389 264.512C288.175 263.516 288.799 262.533 289.783 262.317C290.767 262.1 291.738 262.732 291.952 263.728C293.848 272.557 300.391 274.77 309.497 271.369C317.36 268.431 324.622 261.777 324.622 258.106C324.622 256.686 324.195 255.459 323.386 254.163L323.276 254.007C323.09 253.771 322.8 253.513 322.277 253.121L321.074 252.244C319.076 250.752 318.301 249.746 318.301 247.848C318.301 246.829 319.118 246.003 320.125 246.003ZM328.684 143.717L327.533 143.848C265.313 151.421 218.636 201.789 216.09 269.379L222.766 264.624C241.928 251.011 264.17 235.46 289.493 217.973L294.427 214.955C309.157 205.96 323.242 197.495 336.687 189.554C336.442 189.119 336.373 188.584 336.539 188.07C337.479 185.166 338.348 183.215 339.94 181.26C344.922 175.143 351.747 172.155 356.583 175.996C357.059 176.374 357.299 176.944 357.28 177.513L361.575 175.032C375.102 167.239 387.901 160.041 399.981 153.429L395.263 152.071C388.266 150.077 379.56 147.713 370.89 145.893C370.969 151.733 366.65 156.397 359.474 159.604C353.374 162.331 345.425 163.798 339.773 163.457C329.199 162.819 323.248 153.433 328.684 143.717ZM437.829 223.861C442.291 236.2 438.609 247.419 427.468 247.346C411.594 247.241 396.092 233.213 398.599 220.646C399.717 215.039 403.88 210.08 411.122 207.605C422.687 203.652 433.286 211.301 437.829 223.861ZM412.289 211.101C406.305 213.147 403.039 217.036 402.174 221.375C400.185 231.35 413.681 243.564 427.493 243.655C435.404 243.707 438.125 235.415 434.405 225.129C430.469 214.245 421.669 207.895 412.289 211.101ZM278.213 167.41L278.343 167.601L279.22 169.013C279.65 169.73 280.035 170.434 280.402 171.192C284.44 179.549 284.336 190.504 277.502 205.711C274.406 212.6 266.519 221.859 259.631 227.384C250.836 234.438 244.27 236.041 236.433 235.17L234.107 234.893L233.823 234.867C233.668 234.855 233.569 234.854 233.459 234.858L233.3 234.865C233.179 234.871 233.137 234.864 233.13 234.848L233.129 234.836L233.071 234.932C232.542 235.699 231.515 235.951 230.69 235.487C229.81 234.992 229.493 233.868 229.982 232.977C230.638 231.785 231.733 231.245 233.127 231.178C233.496 231.16 233.887 231.173 234.352 231.212L234.896 231.266L236.4 231.45C243.539 232.327 249.219 231.026 257.366 224.491C263.835 219.302 271.355 210.475 274.182 204.183C280.578 189.952 280.671 180.15 277.126 172.814C276.89 172.325 276.644 171.861 276.377 171.395L275.995 170.75L275.23 169.526C274.695 168.663 274.953 167.524 275.807 166.982C276.606 166.475 277.645 166.672 278.213 167.41ZM494.405 162.664C482.748 163.696 464.475 169.524 443.41 178.192L444.025 178.744C449.888 184.067 461.716 196.691 465.419 205.696L469.107 201.557C478.206 191.313 484.808 183.621 488.913 178.48L489.744 177.425C493.667 172.386 496.203 168.176 496.983 165.367L497.095 164.94C497.581 162.912 497.018 162.432 494.405 162.664ZM319.813 168.657C324.351 170.878 326.193 175.821 323.207 180.303C322.645 181.148 321.511 181.372 320.676 180.802C319.841 180.232 319.621 179.085 320.184 178.24C321.826 175.775 320.899 173.288 318.226 171.98C315.41 170.602 312.325 171.394 310.733 174.402C309.266 177.173 309.165 180.926 310.337 183.383C311.365 185.54 312.861 185.954 315.145 184.214C315.95 183.601 317.093 183.764 317.698 184.578C318.304 185.393 318.143 186.55 317.338 187.163C313.177 190.333 309.058 189.195 307.052 184.987C305.37 181.459 305.505 176.463 307.519 172.659C310.088 167.806 315.325 166.461 319.813 168.657ZM342.754 183.607C341.904 184.651 341.296 185.753 340.733 187.166C345.432 184.404 350.051 181.704 354.59 179.07L354.458 178.991L354.331 178.899C351.547 176.688 346.639 178.836 342.754 183.607ZM334.978 143.15L333.383 143.263L333.276 143.4C326.973 151.462 329.401 158.006 338.009 158.935C344.191 159.602 360.603 154.96 362.528 153.331C364.403 151.744 366.774 148.094 367.139 145.138C361.57 144.078 356.121 143.298 351.261 143.047C346.294 142.79 341.397 142.796 336.58 143.054L334.978 143.15Z" fill="#00160A"/>
<path d="M499.604 114.582C538.221 100.219 537.336 104.481 500.862 118.046C457.68 134.107 294.68 234.74 294.68 234.74C220.693 280.071 215.158 273.073 286.871 228.962L291.291 226.248C292.124 225.738 373.77 173.584 432.112 145.682C438.677 142.542 495.207 116.217 499.604 114.582Z" fill="white"/>
<path fill-rule="evenodd" clip-rule="evenodd" d="M566.285 43.0787C554.319 42.4595 544.978 51.8712 544.881 64.1853C544.8 74.5027 550.648 83.2631 559.028 85.0116C561.235 85.4723 567.603 85.4723 573.126 82.3363L573.583 82.0812C580.548 78.09 585.285 70.4972 585.918 64.251C587.041 53.1771 578.251 43.6979 566.285 43.0787ZM547.486 64.2063C547.486 64.1271 547.487 64.048 547.489 63.969C547.564 63.9446 547.638 63.913 547.71 63.8738C557.091 58.7587 562.883 54.8606 565.196 52.046C566.722 50.1876 567.467 48.0915 567.407 45.8141C568.982 45.9903 570.483 46.3402 571.89 46.8411C571.882 46.9096 571.878 46.9797 571.881 47.051C571.995 50.3286 571.132 52.9488 569.297 54.9887C567.188 57.3333 564.632 59.5643 561.727 61.6682C558.622 63.9176 555.287 65.9038 551.952 67.6043C551.173 68.001 550.433 68.3627 549.738 68.6887L548.732 69.1509C548.587 69.2157 548.453 69.2751 548.33 69.3291L548.031 69.4566C547.662 67.794 547.471 66.0322 547.486 64.2063ZM548.763 72.005C549.588 74.3197 550.783 76.3712 552.261 78.042L553.04 77.5889C565.283 70.4147 572.884 64.779 575.76 60.8033C578.669 56.7834 579.706 53.6969 579.055 51.5981C579.04 51.5486 579.027 51.4989 579.018 51.4492C577.736 50.0876 576.211 48.9171 574.492 47.9934C574.419 51.4779 573.33 54.4207 571.223 56.7636C568.98 59.2564 566.289 61.6066 563.243 63.8122C560.019 66.1476 556.571 68.2011 553.123 69.9588C552.118 70.4715 551.171 70.9284 550.3 71.3281L549.285 71.7835L548.763 72.005ZM558.514 82.1645C556.976 81.6991 555.543 80.9353 554.253 79.9243C566.856 72.5461 574.699 66.7325 577.862 62.3609C579.824 59.6488 581.079 57.21 581.588 55.0337C582.222 56.232 582.703 57.5097 583.011 58.8445C582.945 58.9804 582.901 59.1302 582.884 59.2896C582.567 62.3714 580.997 65.4303 578.128 68.4765C575.374 71.4001 569.43 75.6185 560.348 81.0723L558.514 82.1645ZM562.918 82.5907C565.713 82.4107 569.132 81.5809 571.895 80.013C577.033 77.2239 581.159 71.9718 582.718 66.9103C581.965 68.0531 581.062 69.1817 580.013 70.2958C577.185 73.2978 571.501 77.3789 562.918 82.5907ZM548.245 60.5778L547.78 60.834C549.258 52.1219 556.135 45.8703 564.795 45.6904C564.887 47.4019 564.362 48.9377 563.193 50.3604C561.304 52.66 556.291 56.102 548.245 60.5778Z" fill="#00160A"/>
<path fill-rule="evenodd" clip-rule="evenodd" d="M211.223 45.9721C210.482 45.457 209.468 45.6476 208.96 46.3978C208.451 47.148 208.639 48.1738 209.38 48.6889C210.194 49.2546 210.914 49.7769 211.549 50.2622C210.864 50.8136 210.18 51.4453 209.469 52.1647L208.029 53.6447C207.396 54.291 207.401 55.3343 208.039 55.9749C208.678 56.6155 209.709 56.6109 210.342 55.9646L212.069 54.1974C212.773 53.5036 213.433 52.9234 214.096 52.4414C215.569 53.9183 216.017 55.0016 216.041 56.0782L216.041 56.3543L216.049 56.5228C216.133 57.3537 216.826 58.0021 217.669 58.0021C218.568 58.0021 219.297 57.2644 219.297 56.3543L219.297 56.0303C219.266 54.352 218.681 52.7557 217.106 50.9316C218.146 50.6184 219.318 50.4431 220.738 50.368C221.636 50.3205 222.326 49.5453 222.279 48.6365C222.232 47.7277 221.466 47.0295 220.568 47.077C218.101 47.2075 216.183 47.6235 214.474 48.414C213.76 47.8234 212.952 47.2036 212.038 46.5476L211.223 45.9721Z" fill="#00160A"/>
<path fill-rule="evenodd" clip-rule="evenodd" d="M504.218 52.0702C504.817 52.6079 505.565 53.5776 506.225 54.6273L507.075 54.2452L508.08 53.8096C508.282 53.7161 508.412 53.6431 508.452 53.5837C508.568 53.3655 508.835 53.2825 509.053 53.3983C509.265 53.5138 509.351 53.7844 509.235 54.002C509.155 54.2091 508.591 54.8583 507.543 55.4934C507.353 55.6085 507.143 55.7155 506.918 55.8199C507.304 56.5515 507.608 57.2584 507.751 57.8253C507.966 58.6611 507.794 59.2534 507.511 59.4615C507.233 59.6674 506.536 59.7058 505.475 58.8143C505.28 58.6638 505.249 58.3827 505.397 58.1873C505.545 57.9926 505.822 57.9566 506.017 58.1071C506.219 58.2578 506.422 58.3431 506.587 58.4048L506.507 58.0849C506.476 57.9706 506.437 57.8513 506.383 57.7349C506.193 57.314 505.951 56.8333 505.679 56.3398C504.85 56.657 503.906 56.9446 502.886 57.0831C502.389 57.1508 501.882 57.1639 501.356 57.1596C501.054 57.1798 500.791 56.9473 500.771 56.6404C500.751 56.3341 500.981 56.0687 501.283 56.0486C502.511 55.9288 503.645 55.6152 504.646 55.2624L504.974 55.1429C504.432 54.286 503.852 53.5076 503.355 53.0683C503.085 52.8269 503.058 52.407 503.294 52.1319C503.536 51.8557 503.949 51.8282 504.218 52.0702Z" fill="#00160A"/>
<path fill-rule="evenodd" clip-rule="evenodd" d="M176.055 111.886L176.87 112.462C177.784 113.118 181.199 116.375 181.913 116.966C183.62 116.173 185.539 115.756 188.008 115.626C188.906 115.578 189.672 116.276 189.719 117.185C189.766 118.094 189.076 118.869 188.178 118.917C186.755 118.992 185.582 119.168 184.541 119.482C186.118 121.307 186.703 122.903 186.733 124.581L186.734 124.905C186.734 125.815 186.005 126.552 185.106 126.552C184.263 126.552 183.569 125.904 183.486 125.073L183.478 124.905L183.478 124.629C183.454 123.552 183.005 122.469 181.534 120.992C180.871 121.474 180.212 122.053 179.509 122.746L177.781 124.513C177.148 125.16 176.118 125.164 175.479 124.524C174.84 123.883 174.836 122.84 175.469 122.193L176.909 120.713C177.618 119.995 178.302 119.364 178.986 118.813C177.784 116.038 173.283 113.062 173.791 112.312C174.3 111.562 175.314 111.371 176.055 111.886Z" fill="#00160A"/>
<path fill-rule="evenodd" clip-rule="evenodd" d="M457.621 90.7018L458.292 93.3838L460.683 94.5649C460.813 94.6288 460.866 94.7866 460.803 94.9175C460.784 94.9578 460.755 94.9925 460.718 95.0181L458.469 96.6046L458.093 99.3984C458.073 99.5427 457.942 99.6437 457.799 99.624C457.751 99.6174 457.706 99.5972 457.668 99.5658L455.719 97.9305C455.659 97.8794 455.578 97.859 455.501 97.8752L453.021 98.3931C452.881 98.4226 452.743 98.3308 452.714 98.1882C452.704 98.14 452.708 98.0899 452.724 98.0437L453.688 95.3982L452.438 92.9286C452.372 92.799 452.423 92.6402 452.551 92.5738C452.59 92.5533 452.634 92.5434 452.679 92.5449L455.338 92.6382L457.175 90.5894C457.272 90.4816 457.437 90.4735 457.543 90.5714C457.581 90.6062 457.608 90.6515 457.621 90.7018Z" fill="#00160A"/>
<path d="M410.321 182.299C448.547 164.202 480.508 154.643 500.406 152.888C506.5 152.35 509.264 155.75 507.721 161.281C506.575 165.388 503.085 171.023 497.737 177.697C488.413 189.331 476.119 199.286 463.877 208.545C483.462 190.249 488.458 182.595 494.498 175.058L495.448 173.859C499.926 168.128 502.821 163.339 503.713 160.144L503.839 159.659C504.395 157.352 503.752 156.807 500.769 157.07C481.321 158.785 449.482 168.363 411.396 186.435C373.248 204.537 372.157 200.366 410.321 182.299Z" fill="white"/>
<path d="M235.493 123.757L235.772 124.43C237.709 129.078 239.721 133.68 242.005 138.699L242.894 140.647C242.602 140.845 242.22 141.055 241.799 141.241C241.194 141.508 240.58 141.696 240.119 141.759L239.972 141.774L239.75 141.504C238.024 139.354 236.021 135.699 234.573 132.065C233.802 130.13 233.253 128.354 233.005 126.99C232.904 126.435 232.858 125.968 232.862 125.614L232.872 125.38C232.876 125.324 232.876 125.294 232.862 125.29L232.917 125.253C233.225 125.037 234.012 124.571 235.182 123.927L235.493 123.757Z" fill="white"/>
<path fill-rule="evenodd" clip-rule="evenodd" d="M283.816 106.919C285.013 105.437 286.564 105.658 288.529 106.865L289.034 107.187L290.447 108.134C290.842 108.391 291.013 108.479 291.243 108.572C291.778 108.788 292.039 109.401 291.826 109.942C291.613 110.483 291.007 110.747 290.472 110.532L290.282 110.452C289.921 110.296 289.648 110.133 288.916 109.642L287.902 108.958C287.735 108.848 287.591 108.755 287.449 108.668C286.273 107.946 285.739 107.87 285.43 108.254C285.235 108.496 285.283 109.011 285.67 110.067L286.095 111.176C286.94 113.446 286.945 114.461 285.44 115.328C284.144 116.074 283.48 115.725 281.618 113.88L281.167 113.427C279.975 112.222 279.35 111.803 278.948 111.889C278.814 111.918 278.658 112.013 278.468 112.219C278.244 112.46 278.181 113.23 278.318 114.597L278.528 116.382C278.773 118.564 278.674 119.129 277.784 119.732C276.559 120.562 274.928 119.624 271.905 116.877C271.477 116.487 271.442 115.821 271.826 115.387C272.211 114.954 272.87 114.918 273.298 115.307C274.59 116.482 275.566 117.247 276.247 117.639L276.4 117.723L276.527 117.788L276.53 117.655L276.522 117.339C276.509 117.081 276.477 116.768 276.413 116.236L276.28 115.141C276.027 112.919 276.106 111.684 276.948 110.776C277.415 110.272 277.94 109.949 278.516 109.826C279.855 109.539 280.806 110.118 282.385 111.68L283.182 112.473C284.041 113.31 284.36 113.523 284.41 113.495C284.605 113.382 284.575 113.033 284.048 111.661L283.816 111.067C283.08 109.152 282.94 108.005 283.816 106.919Z" fill="#00160A"/>
<path fill-rule="evenodd" clip-rule="evenodd" d="M139.981 81.3401L141.102 83.8633L143.66 84.6062C143.798 84.6464 143.878 84.7924 143.838 84.9323C143.826 84.9755 143.803 85.0148 143.772 85.0464L141.829 87.0042L141.938 89.8216C141.943 89.9671 141.831 90.0896 141.687 90.0953C141.639 90.0973 141.591 90.0854 141.548 90.061L139.349 88.793C139.28 88.7534 139.197 88.7476 139.124 88.7771L136.771 89.7229C136.637 89.7766 136.486 89.7105 136.433 89.5752C136.415 89.5294 136.41 89.4795 136.419 89.431L136.914 86.6563L135.259 84.4439C135.172 84.3278 135.195 84.1625 135.309 84.0746C135.345 84.0475 135.386 84.03 135.43 84.0237L138.065 83.6483L139.523 81.3076C139.599 81.1845 139.76 81.1476 139.882 81.2252C139.925 81.2529 139.96 81.2928 139.981 81.3401Z" fill="#00160A"/>
</svg>
