<svg width="497" height="189" viewBox="0 0 497 189" fill="none" xmlns="http://www.w3.org/2000/svg">
<path fill-rule="evenodd" clip-rule="evenodd" d="M468.362 -23.9496C379.21 -72.5959 309.699 70.1982 259.21 88.1744C157.458 124.403 -31.5383 155.912 4.50512 226.345C53.9954 323.054 226.194 332.704 349.336 323.054C509.505 310.503 643.643 71.6935 468.362 -23.9496Z" fill="#707EFF"/>
<path fill-rule="evenodd" clip-rule="evenodd" d="M136.858 73.1376C133.853 60.4025 142.042 39.2629 156.674 30.7631C171.307 22.2633 190.023 21.6811 206.319 26.7286C205.8 11.721 221.765 -1.1572 237.462 0.0827154C253.16 1.32263 266.184 14.7579 268.293 29.6385C269.936 41.2331 263.693 55.0439 251.619 57.144C255.887 71.6808 258.26 86.9756 255.918 101.905C253.575 116.834 246.123 131.418 233.545 140.589C230.073 145.041 232.696 151.758 237.267 155.193C241.838 158.627 247.755 159.834 253.225 161.729C276.145 169.67 292.282 191.227 296.044 214.198C299.805 237.168 292.292 260.99 278.714 280.302C269.414 293.529 256.763 305.276 240.934 310.363C218.717 317.504 194.358 310.551 172.785 301.799C164.561 298.463 156.186 294.672 150.381 288.193C144.158 281.249 132.396 284.999 123.914 289.247C129.554 291.478 135.194 293.709 140.834 295.939C142.045 296.419 143.36 296.988 143.922 298.118C145.105 300.498 142.191 302.787 139.724 303.971C137.073 305.244 134.423 306.516 131.772 307.789C115.501 315.6 98.5557 323.58 80.3456 324.062C60.4362 324.59 41.6298 316.107 23.7118 307.816C21.7202 306.894 19.6091 305.869 18.5261 304.028C17.4432 302.187 18.0486 299.317 20.1888 298.777C40.2897 293.709 59.3205 284.815 75.8336 272.771C74.5704 265.273 74.8681 257.539 76.7044 250.15C76.97 249.081 77.3521 247.909 78.3511 247.362C80.8074 246.017 82.9408 249.561 83.3748 252.229C84.4703 258.965 85.5658 265.701 86.6612 272.437C99.8153 271.05 112.582 266.444 123.403 259.18C114.963 252.701 106.523 246.221 98.0832 239.741C93.2135 236.003 88.513 233.766 85.8829 226.445C84.1296 221.565 85.5447 216.551 90.1283 211.405C85.0115 187.096 82.7727 168.771 83.4117 156.431C83.5823 153.137 83.969 149.581 86.2947 147.14C90.3999 142.83 98.4607 144.689 102.208 149.285C105.955 153.882 106.582 160.05 107.067 165.853C121.334 164.191 135.602 162.53 149.869 160.868C155.089 160.26 160.495 159.666 165.519 161.147C171.822 163.005 176.884 168.268 178.281 174.415C184.302 172.864 190.859 170.953 194.259 165.969C197.659 160.985 194.78 152.316 188.549 152.573C169.059 153.377 149.998 139.59 145.562 121.48C144.434 116.874 143.995 111.755 140.604 108.303C135.229 102.833 131.133 95.7808 131.16 88.2857C131.186 80.7906 134.48 79.8963 136.858 73.1376ZM20.5182 303.798C20.957 304.423 21.7229 304.751 22.4483 305.046C29.891 308.083 37.3336 311.119 44.7763 314.156C48.1628 315.538 51.5603 316.923 55.1018 317.889C64.9786 320.583 75.6215 319.926 85.4416 322.802C86.6328 323.151 87.9113 322.791 89.0974 322.426C97.6622 319.796 106.126 316.868 114.467 313.65C123.194 310.283 131.841 306.568 139.589 301.471C140.294 301.007 141.025 300.491 141.347 299.735C141.669 298.978 141.372 297.926 140.548 297.703C135.32 296.287 130.167 294.617 125.116 292.702C123.492 292.086 121.665 291.208 121.32 289.575C116.871 289.745 112.98 292.42 109.698 295.289C106.416 298.159 103.333 301.399 99.2892 303.176C95.2453 304.953 89.8178 304.8 87.0163 301.5C86.7171 301.148 86.4167 300.742 85.9566 300.627C85.4965 300.513 84.9056 300.95 85.12 301.354C85.6754 302.403 84.4824 303.728 83.2529 303.655C82.0234 303.582 81.0621 302.515 80.7595 301.376C80.4569 300.238 78.8141 302.271 76.4333 302.61C74.0525 302.949 71.5266 301.492 70.7358 299.325C70.084 297.538 67.5287 297.507 65.5761 297.173C61.1363 296.412 57.7649 291.977 58.3893 287.719C45.6298 291.775 33.1016 296.493 20.8785 301.844C20.1614 302.158 20.0794 303.173 20.5182 303.798Z" fill="white"/>
<path d="M199.649 128.582C203.396 128.582 206.433 125.686 206.433 122.115C206.433 118.543 203.396 115.647 199.649 115.647C195.903 115.647 192.866 118.543 192.866 122.115C192.866 125.686 195.903 128.582 199.649 128.582Z" fill="white"/>
<path d="M152.562 123.256C154.545 123.256 156.153 121.723 156.153 119.832C156.153 117.941 154.545 116.408 152.562 116.408C150.578 116.408 148.97 117.941 148.97 119.832C148.97 121.723 150.578 123.256 152.562 123.256Z" fill="white"/>
<path fill-rule="evenodd" clip-rule="evenodd" d="M232.045 148.07C232.667 151.144 234.514 154.122 236.972 155.969C241.544 159.403 251.819 162.939 257.289 164.834C257.787 165.007 254.98 166.518 251.357 169.859C241.548 178.905 220.101 195.104 199.148 186.963C196.699 186.012 194.652 184.917 192.984 183.756C191.447 182.686 205.553 184.227 218.741 181.843C232.001 179.447 244.337 173.115 241.035 168.096C237.931 163.377 229.202 155.386 228.521 150.685C227.614 144.423 231.511 145.428 232.045 148.07Z" fill="#E7EAEE"/>
<path fill-rule="evenodd" clip-rule="evenodd" d="M340.739 93.6543C308.208 106.9 281.031 129.533 255.138 152.549L253.554 153.959C252.044 155.305 249.751 156.712 248.121 155.499L253.152 151.133C279.479 128.331 306.698 105.721 339.271 92.2875C364.314 81.9595 364.048 84.1639 340.739 93.6543ZM200.613 314.285L215.874 330.132C216.621 330.909 217.4 331.742 217.609 332.777C217.819 333.812 217.189 335.076 216.09 335.186L184.669 338.318C179.45 338.838 174.128 335.389 172.626 330.596C171.123 325.803 173.528 320.189 178.073 317.689C182.619 315.19 188.853 315.978 192.626 319.455C193.561 320.316 195.202 319.584 195.866 318.519C196.529 317.453 196.673 316.147 197.358 315.094C198.044 314.041 199.734 313.373 200.613 314.285ZM175.275 323.432C173.327 326.957 174.559 331.732 177.894 334.134C179.528 335.311 181.534 335.942 183.556 336.253C186.412 336.692 189.726 336.36 191.562 334.228C192.232 333.45 192.643 332.497 192.923 331.526C193.857 328.295 193.382 324.717 191.635 321.809C191.159 321.017 190.428 320.191 189.472 320.23C189.018 320.249 188.596 320.468 188.143 320.513C187.391 320.586 186.694 320.177 186.008 319.872C182.219 318.19 177.224 319.907 175.275 323.432ZM199.257 317.464C198.657 319.849 197.416 322.084 195.684 323.898C195.197 324.409 195.316 325.198 195.415 325.882C195.896 329.215 195.1 332.701 193.21 335.541C196.308 334.842 199.476 334.424 202.656 334.295C207.016 334.118 211.565 334.451 215.56 332.779C213.426 331.894 211.614 330.318 210.493 328.373C209.833 327.229 208.921 326.239 208.017 325.259L201.068 317.732C200.566 317.188 199.434 316.759 199.257 317.464ZM120.348 317.321C121.345 320.287 125.092 321.304 128.339 321.838L150.006 325.287C155.015 326.084 160.157 326.881 165.14 325.939C166.08 325.761 166.577 327.184 165.957 327.881C165.337 328.577 164.257 328.66 163.299 328.663C158.958 328.677 154.643 328.127 150.347 327.511L145.771 326.846C137.673 325.66 129.578 324.396 121.651 322.43C120.294 322.093 118.888 321.709 117.85 320.811C116.811 319.913 116.271 318.345 117.002 317.204C117.733 316.063 119.921 316.048 120.348 317.321ZM237.462 0.0827154C253.16 1.32263 266.184 14.7579 268.293 29.6385C269.937 41.2331 263.693 55.0439 251.619 57.144C255.887 71.6808 258.26 86.9756 255.918 101.905C253.575 116.834 246.123 131.418 233.545 140.589C230.073 145.041 232.696 151.758 237.267 155.193C241.838 158.627 247.755 159.834 253.225 161.729C276.145 169.67 292.282 191.227 296.044 214.197C299.805 237.168 292.292 260.99 278.714 280.302C269.414 293.529 256.763 305.276 240.934 310.363C218.939 317.432 194.845 310.689 173.433 302.061L172.785 301.799C164.732 298.532 156.535 294.829 150.747 288.595L150.381 288.193C144.158 281.249 132.396 284.999 123.914 289.247L140.834 295.939C142.045 296.419 143.36 296.988 143.922 298.118C145.105 300.498 142.191 302.787 139.724 303.971L129.79 308.739C114.125 316.234 97.8175 323.6 80.3456 324.062C60.6677 324.584 42.0673 316.303 24.3372 308.105L23.2121 307.583C21.3755 306.718 19.5188 305.715 18.5261 304.028C17.4432 302.187 18.0486 299.316 20.1888 298.777C40.2897 293.709 59.3205 284.815 75.8336 272.771C74.5704 265.273 74.8682 257.539 76.7044 250.15L76.798 249.791C77.0626 248.828 77.4631 247.849 78.3511 247.362C80.8074 246.017 82.9408 249.561 83.3748 252.229L86.6612 272.437C99.8154 271.05 112.582 266.444 123.403 259.18L97.4027 239.218C92.7476 235.627 88.0345 231.746 85.8829 226.445C83.6265 220.886 85.4418 213.351 91.273 211.2C91.7331 190.142 90.5688 169.053 87.7925 148.158C83.9537 169.027 87.0389 190.423 90.1283 211.405C84.8309 193.924 82.5371 175.62 83.3627 157.441L83.4118 156.431C83.5823 153.137 83.969 149.581 86.2947 147.14C90.3999 142.83 98.4607 144.689 102.208 149.285C105.955 153.882 106.582 160.05 107.067 165.853L150.85 160.755C155.763 160.194 160.809 159.759 165.519 161.147C171.822 163.005 176.884 168.268 178.281 174.415L179.308 174.148C185.034 172.637 191.052 170.671 194.259 165.969C197.623 161.038 194.84 152.5 188.747 152.568L188.549 152.573C169.059 153.377 149.998 139.59 145.562 121.48C144.434 116.874 143.995 111.755 140.604 108.303C135.229 102.833 131.133 95.7808 131.16 88.2857C131.186 80.7906 136.199 73.0611 143.833 71.2694C151.468 69.4777 160.503 75.5498 159.844 83.0185C163.548 82.659 167.336 83.1185 170.828 84.3508C168.837 79.2334 173.998 73.5848 179.67 72.842C185.342 72.0993 190.869 74.8001 195.586 77.8937C200.303 80.9873 204.81 84.6294 210.294 86.1973L210.547 85.6396C211.68 83.117 212.724 80.4227 212.153 77.7559C211.539 74.8916 208.154 72.4144 205.413 73.7259C203.489 68.4708 200.428 63.5968 196.477 59.4988L185.497 64.434C184.082 62.4142 183.215 60.0485 183.003 57.6282C175.753 61.578 167.884 64.4931 159.739 66.2462L160.572 60.3176L136.231 72.3704C132.637 56.3989 142.042 39.2628 156.674 30.7631C171.307 22.2633 190.023 21.6811 206.319 26.7286C205.8 11.721 221.765 -1.1572 237.462 0.0827154ZM357.212 260.398C343.189 263.624 329.576 268.467 316.765 274.789L315.838 275.251C308.74 278.816 301.772 283.088 297.323 289.427C300.327 288.93 303.535 289.677 305.962 291.437C307.495 292.55 308.775 294.217 308.684 296.051C308.637 297.002 308.223 297.909 307.664 298.698C305.481 301.781 300.859 303.033 297.302 301.505C293.745 299.977 291.668 295.847 292.645 292.246C277.554 297.158 264.58 307.725 257.122 321.16L256.873 321.614C256.505 322.29 256.056 323.047 255.277 323.215C254.205 323.446 253.251 322.306 253.301 321.26C253.35 320.214 254.053 319.312 254.732 318.49C263.527 307.844 273.804 297.711 286.956 292.573L287.947 292.193C291.049 291.02 294.297 289.869 296.301 287.366C301.16 281.297 308.156 277.131 315.26 273.605C321.618 270.449 328.195 267.694 334.934 265.364C341.696 263.026 348.61 261.119 355.539 259.27L379.012 253.04C372.663 257.294 364.755 258.662 357.212 260.398ZM58.3893 287.719C45.6298 291.775 33.1016 296.493 20.8785 301.844C20.1614 302.158 20.0794 303.173 20.5182 303.798C20.957 304.423 21.7229 304.75 22.4483 305.046L44.7763 314.156C48.1628 315.538 51.5603 316.923 55.1018 317.889C64.9786 320.583 75.6215 319.926 85.4417 322.802C86.6328 323.151 87.9113 322.791 89.0974 322.426C97.6623 319.796 106.126 316.868 114.467 313.65C123.194 310.283 131.841 306.568 139.589 301.471C140.294 301.007 141.025 300.491 141.347 299.735C141.669 298.978 141.372 297.926 140.548 297.703C135.32 296.287 130.167 294.617 125.116 292.701L124.766 292.565C123.239 291.956 121.64 291.091 121.32 289.575C116.871 289.745 112.98 292.42 109.698 295.289C106.416 298.158 103.333 301.399 99.2892 303.176C95.2453 304.953 89.8178 304.8 87.0163 301.5L86.8354 301.285C86.5906 300.997 86.3247 300.719 85.9566 300.627C85.4965 300.513 84.9056 300.95 85.12 301.354C85.6754 302.403 84.4824 303.728 83.2529 303.655C82.0234 303.582 81.0622 302.515 80.7595 301.376C80.5649 300.645 80.5821 299.888 80.6751 299.133L80.6985 298.948C80.1518 300.794 78.4382 302.325 76.4333 302.61C74.0525 302.948 71.5266 301.492 70.7358 299.325C70.084 297.538 67.5287 297.507 65.5761 297.173C61.1363 296.412 57.7649 291.977 58.3893 287.719ZM88.543 216.634C85.9128 221.094 88.3558 226.739 91.5954 230.818C101.754 243.61 118.77 249.749 130.38 261.365C133.297 264.284 135.839 267.518 138.35 270.764L146.24 280.979C147.69 282.857 149.145 284.74 150.837 286.423C155.25 290.813 161.059 293.645 166.806 296.281C178.465 301.629 190.459 306.544 203.118 309.097C215.777 311.65 229.227 311.737 241.407 307.574C252.807 303.677 262.63 296.203 270.261 287.239C277.711 278.488 283.18 268.345 287.563 257.873L287.882 257.107C288.512 255.58 289.132 253.982 289.001 252.345C288.863 250.615 287.895 249.041 286.767 247.679C282.462 242.488 275.268 239.552 268.379 240.363C261.598 241.162 255.388 245.648 252.904 251.709L252.788 251.999C247.39 265.951 233.947 276.443 218.845 280.167C203.743 283.89 187.317 281.222 173.533 274.262C159.749 267.302 148.501 256.283 140.115 243.745L139.657 243.053C138.142 240.735 136.764 238.296 136.231 235.621C135.644 232.679 136.241 229.371 138.469 227.26C139.941 225.866 142.037 225.048 143.107 223.354C144.178 221.659 142.921 218.667 140.945 219.272L139.627 219.669C130.548 222.363 120.015 224.452 112.71 218.848L112.009 218.312C108.601 215.731 104.959 213.266 100.725 212.378C96.1986 211.429 90.814 212.783 88.543 216.634ZM124.735 261.846C113.722 268.479 101.294 272.967 88.4352 274.953C86.7375 275.215 86.2813 277.313 86.2546 278.952C86.1697 284.162 86.4343 289.378 87.0464 294.556C88.4392 293.931 89.009 292.369 89.9586 291.214C90.9082 290.059 93.0753 289.426 93.8093 290.716C94.3221 291.617 93.6377 292.746 92.7639 293.343C91.8901 293.941 90.8155 294.264 90.0363 294.971C88.0976 296.728 89.1109 300.185 91.4729 301.383C93.8349 302.581 96.8226 301.956 99.0871 300.598C101.352 299.239 103.101 297.248 105.021 295.472C109.128 291.673 114.151 288.78 119.589 287.082C126.492 284.927 134.179 284.606 140.252 280.807C140.661 280.551 141.084 280.251 141.239 279.808C141.449 279.204 141.093 278.576 140.714 278.038L133.448 267.98C132.291 266.377 130.959 264.657 128.975 264.198C128.069 263.988 127.102 264.069 126.212 263.802C125.322 263.534 124.484 262.703 124.735 261.846ZM74.0032 276.457C71.1701 277.718 69.4935 280.683 69.1204 283.643C68.7472 286.602 69.4799 289.582 70.3502 292.444C70.8845 294.202 71.4769 295.954 72.3604 297.578C72.9238 298.614 73.6698 299.647 74.7988 300.097C75.9278 300.547 77.4945 300.143 77.8615 299.03C78.0126 298.571 77.9449 298.075 77.8574 297.602C77.5286 295.823 76.9387 294.089 76.1108 292.464L75.7632 291.806C75.2652 290.856 74.7962 289.735 75.4365 288.906C76.0479 288.114 77.5507 287.787 77.407 286.814L76.004 277.305C75.963 277.028 75.9148 276.734 75.7255 276.519C75.3269 276.067 74.5645 276.208 74.0032 276.457ZM298.617 291.123C297.682 291.119 296.697 291.242 295.946 291.773C295.507 292.084 295.174 292.519 294.941 292.991C293.954 294.987 294.864 297.552 296.735 298.851C298.606 300.15 301.198 300.272 303.363 299.494C305.019 298.898 306.612 297.55 306.557 295.864C306.513 294.533 305.454 293.422 304.285 292.693C302.616 291.652 300.612 291.131 298.617 291.123ZM79.3189 249.513C79.0795 249.683 78.961 249.963 78.8599 250.231C77.3867 254.128 77.2063 258.352 77.247 262.493C77.3489 272.878 78.7484 283.251 81.4065 293.323L81.5386 293.813C82.082 295.779 82.8248 297.796 84.5075 299.013C84.8205 283.052 83.7342 267.067 81.2637 251.279C81.1034 250.254 80.1911 248.895 79.3189 249.513ZM66.052 283.819C65.7003 283.913 65.4745 284.233 65.299 284.538C63.8623 287.037 63.7653 290.195 65.0461 292.769C65.6203 293.924 66.605 295.046 67.937 295.188C68.48 294.543 68.2318 293.614 67.9275 292.825L67.6648 292.157C66.6871 289.63 65.8847 286.896 66.7464 284.356C66.8589 284.025 66.4037 283.725 66.052 283.819ZM61.2594 287.281C60.2519 289.416 60.7007 292.103 62.3542 293.834C63.0367 293.169 62.7365 292.08 62.5034 291.176C62.1386 289.762 62.0563 288.282 62.262 286.839C62.0079 286.484 61.4445 286.888 61.2594 287.281ZM82.4946 211.177C84.0217 212.431 84.9927 215.138 83.1791 215.976C82.0171 216.513 80.7004 215.727 79.6031 215.078C73.9015 211.706 66.6114 211.457 60.1474 213.173C53.6834 214.889 47.9045 218.384 42.4807 222.149C37.0796 225.9 31.8716 230.015 27.8103 235.073C23.749 240.132 20.8763 246.227 20.6405 252.593C20.3581 260.221 23.8151 267.514 27.8125 274.127C30.3603 278.342 33.2333 282.498 37.1884 285.559L38.0015 286.172C39.1234 287.03 40.2753 288.095 39.9892 289.387C36.1126 289.22 33.2989 285.913 31.1641 282.824C28.1283 278.431 25.3611 273.87 22.8811 269.171C20.819 265.263 18.9341 261.192 18.3076 256.859C17.1293 248.709 20.6 240.423 25.9945 234.002C31.389 227.581 38.5681 222.763 45.8294 218.318C51.3449 214.942 57.0213 211.703 63.2128 209.652C69.598 207.537 77.3728 206.972 82.4946 211.177ZM246.357 175.284C237.175 183.454 224.971 188.473 212.436 189.233C206.896 189.57 201.176 189.065 196.163 186.791C191.15 184.517 186.928 180.278 185.763 175.104L185.347 175.226C181.719 176.321 177.565 178.301 177.601 181.866C177.756 196.983 177.387 212.105 176.495 227.2C176.324 230.096 175.167 233.898 172.125 233.813C161.318 233.51 150.441 235.889 140.853 240.652C151.644 256.786 166.992 270.893 186.083 276.802C205.174 282.712 228.199 279.019 241.577 264.753C245.866 260.181 249.022 254.775 252.061 249.359L252.761 248.109C253.407 246.954 254.065 245.581 253.491 244.392C253.124 243.633 253.915 242.844 254.641 242.376C265.316 235.488 281.211 237.356 289.811 246.511C289.13 245.24 289.749 243.489 291.099 242.871C292.171 244.514 292.398 246.634 291.696 248.45C292.161 249.077 293.014 248.068 293.087 247.304C294.234 235.404 294.144 223.396 292.819 211.513C292.341 207.229 291.692 202.917 290.084 198.89C288.674 195.359 286.554 192.122 284.232 189.06C278.889 182.015 272.394 175.765 265.053 170.608L264.52 170.238C263.356 169.443 262.131 168.711 260.755 168.355C255.312 166.942 250.482 171.614 246.357 175.284ZM172.185 168.439C166.115 170.386 159.543 170.011 153.154 170.432C144.151 171.025 135.269 173.257 127.129 176.973C123.623 178.573 120.232 180.453 116.524 181.566C108.65 183.93 99.6237 182.47 93.0078 177.763C91.5815 188.143 92.0022 198.752 94.2465 209C94.3906 209.658 94.8453 210.5 95.5196 210.302C99.9941 208.992 104.807 210.846 108.785 213.197C112.764 215.548 116.502 218.479 121.021 219.643C126.322 221.007 131.94 219.746 137.187 218.16L137.58 218.041C140.27 217.217 143.748 216.531 145.473 218.664C146.928 220.463 146.009 223.15 144.469 224.883C142.929 226.616 140.84 227.904 139.584 229.834C138.041 232.204 138.033 235.404 139.564 237.781C149.585 233.949 160.311 231.8 171.102 231.461C173.266 231.393 174.025 228.723 174.158 226.663C175.323 208.61 175.681 190.509 175.23 172.427C175.182 170.5 174.102 167.824 172.185 168.439ZM334.427 217.256L334.856 217.461C337.513 218.748 340.342 220.464 340.737 223.238C340.868 224.151 340.704 225.08 340.476 225.976C340.16 227.216 339.68 228.489 338.669 229.325C337.596 230.212 336.089 230.464 334.671 230.411C331.878 230.308 329.082 229.067 327.464 226.894C325.846 224.721 325.586 221.613 327.095 219.37C328.605 217.127 331.922 216.072 334.427 217.256ZM330.284 220.359C328.628 221.018 328.032 223.152 328.723 224.731C329.414 226.309 331.055 227.348 332.76 227.88C334.504 228.424 336.75 228.38 337.789 226.938C338.135 226.458 338.299 225.88 338.395 225.305C338.603 224.053 338.477 222.666 337.63 221.688C336.582 220.477 334.794 220.233 333.123 220.143L332.708 220.123C331.889 220.089 331.04 220.059 330.284 220.359ZM121.266 187.729C121.475 188.487 121.314 189.287 121.171 190.058C120.163 195.493 120.09 201.084 120.954 206.541L121.114 207.507C121.219 208.19 121.262 208.911 120.85 209.461C120.375 210.095 119.044 210.031 118.978 209.254C118.411 202.642 118.047 196.015 117.888 189.383C117.858 188.116 118.205 186.431 119.53 186.334C120.35 186.274 121.056 186.972 121.266 187.729ZM74.6269 174.48C75.6071 174.761 76.5485 175.401 76.8326 176.338C77.1167 177.275 76.4702 178.46 75.4487 178.522C74.4967 178.579 73.7701 177.752 72.8954 177.39C71.325 176.738 69.5631 177.648 68.1193 178.526L67.3844 178.978C65.9984 179.848 64.6557 180.825 63.8946 182.212C63.1159 183.632 63.0507 185.3 63.0748 186.902C63.0916 188.015 63.1463 189.144 63.5074 190.203C64.2908 192.501 66.5262 194.222 69.0059 194.72C71.4855 195.218 74.1375 194.573 76.2351 193.217L76.6457 192.951C77.0161 192.719 77.4043 192.516 77.84 192.496C78.4391 192.468 79.0949 193.007 78.8913 193.545C78.8302 193.706 78.7048 193.836 78.5793 193.959C75.1508 197.317 69.2304 198.036 65.0285 195.604C64.2789 195.171 63.5802 194.647 63.0137 194.009C61.3111 192.091 60.9933 189.404 60.9465 186.892C60.9212 185.532 60.9564 184.152 61.3617 182.849C62.2375 180.032 64.7123 177.94 67.2846 176.322C69.4686 174.948 72.1213 173.761 74.6269 174.48ZM54.7906 168.701L63.3382 178.378C62.868 178.863 62.0438 178.894 61.4085 178.631C60.8438 178.397 60.3934 177.978 59.969 177.548L54.9539 172.406C54.2701 177.625 52.6138 182.727 50.0854 187.402C49.8393 187.857 50.5365 188.241 51.0707 188.293C52.3751 188.421 53.6942 188.279 54.9805 188.036L55.6434 187.908C56.6821 187.711 57.7474 187.557 58.7157 187.923C59.8915 188.367 60.6172 189.998 59.6742 190.802C59.093 191.297 58.2125 191.236 57.4388 191.144L49.1143 190.163L48.8585 190.128C48.0366 190 47.1334 189.693 47.0129 188.938C46.9403 188.482 47.2055 188.048 47.4537 187.653C50.4167 182.939 52.3907 177.662 53.2287 172.225L53.355 171.363C53.5178 170.305 53.8061 169.156 54.7906 168.701ZM346.007 183.904C347.038 184.6 348.011 185.966 347.212 186.899C346.712 187.483 345.748 187.497 345.029 187.183C344.311 186.869 343.752 186.306 343.132 185.839C340.588 183.922 336.768 183.72 334.018 185.357C333.626 185.59 333.237 185.879 333.078 186.292C332.919 186.705 333.095 187.26 333.537 187.385C337.048 185.967 341.233 186.165 344.579 187.908C345.063 188.16 345.57 188.495 345.689 189.008C345.808 189.521 345.231 190.136 344.75 189.88C342.566 188.715 339.961 188.286 337.494 188.686C336.344 188.872 335.219 189.233 334.053 189.268C332.888 189.303 331.612 188.932 330.994 187.99C330.423 187.12 330.558 185.946 331.115 185.068C331.672 184.19 332.585 183.568 333.539 183.094C337.426 181.166 342.43 181.491 346.007 183.904ZM229.552 136.859C221.218 143.538 211.424 148.554 200.982 151.495L200.285 151.688C198.929 152.057 197.223 152.875 197.508 154.191L197.684 155.008C198.205 157.464 198.647 159.964 198.275 162.435C197.874 165.1 196.333 167.767 193.783 168.887L193.549 168.985C189.008 170.767 188.37 177.233 191.347 180.955C194.325 184.678 199.489 186.119 204.367 186.657C218.684 188.235 233.623 183.659 244.296 174.427C248.168 171.078 251.631 167.07 256.424 165.081L244.439 160.898C241.205 159.77 237.93 158.621 235.116 156.73C232.301 154.839 229.954 152.086 229.379 148.85C228.674 144.886 230.668 140.737 229.552 136.859ZM91.2982 147.577C90.9974 147.704 90.6902 147.873 90.5456 148.155C90.4007 148.438 90.4496 148.771 90.5007 149.081L93.2468 165.583C94.056 170.446 95.1929 175.835 99.4 178.691C104.008 181.819 110.337 180.594 115.704 178.807L115.99 178.711C125.98 175.329 135.593 170.62 146.063 169.036C153.58 167.899 161.463 168.386 168.571 165.792C165.971 162.051 160.339 162.071 155.627 162.561L117.133 166.732C114.15 167.055 111.018 167.432 108.596 169.122C107.537 169.862 106.533 170.878 105.221 170.929C103.944 170.979 102.835 169.207 103.835 168.555L103.924 168.503C105.021 167.928 104.947 166.426 104.722 165.251L103.558 159.166C102.97 156.147 102.251 153.075 100.356 150.611C98.3102 147.949 94.4613 146.237 91.2982 147.577ZM357.048 172.241C357.976 173.271 358.016 174.852 357.397 176.076C356.778 177.299 355.607 178.198 354.339 178.818C352.81 179.566 351.126 179.956 349.438 180.29L348.595 180.453C348.264 180.516 347.916 180.578 347.596 180.477C347.33 180.392 347.115 180.203 346.94 179.994C346.07 178.953 346.1 177.418 346.689 176.211C347.278 175.004 348.332 174.066 349.415 173.226C350.522 172.368 351.727 171.559 353.115 171.246C354.503 170.932 356.118 171.209 357.048 172.241ZM352.496 174.052L352.052 174.336C351.388 174.77 350.747 175.244 350.301 175.877C349.755 176.65 349.565 177.729 350.104 178.507L353.675 176.613C354.256 176.304 354.859 175.978 355.236 175.455C355.614 174.933 355.689 174.153 355.222 173.701C354.522 173.021 353.328 173.524 352.496 174.052ZM295.541 136.799C295.79 136.896 295.958 137.111 296.104 137.331L301.335 145.476C302.27 146.931 304.396 147.093 306.182 146.973C309.605 146.744 312.995 146.078 316.234 144.999C316.777 144.818 317.292 145.477 317.175 146.014C317.058 146.551 316.574 146.934 316.12 147.271L308.264 153.109C307.299 153.044 307.573 151.539 308.355 150.997L308.587 150.843C309.341 150.358 310.255 149.879 310.208 149.046L305.667 150.398C304.801 150.656 303.837 150.91 303.012 150.547C302.464 150.306 302.08 149.832 301.733 149.356L295.965 141.33L295.865 148.358C295.857 148.934 295.831 149.56 295.448 150.005C295.175 150.321 294.767 150.491 294.361 150.634L286.402 153.357C288.527 155.383 292.506 153.251 295.049 154.778C296.792 155.824 297.089 158.155 296.713 160.085C296.337 162.015 295.476 163.893 295.588 165.853C297.04 164.849 298.106 163.349 298.547 161.69C298.725 161.022 298.813 160.311 299.203 159.73C300.278 158.13 302.846 158.455 304.626 159.311C306.406 160.167 308.253 161.4 310.201 160.993L307.375 156.686C307.117 156.293 306.85 155.868 306.873 155.405C306.896 154.942 307.357 154.474 307.822 154.609C308.026 154.667 308.178 154.821 308.313 154.982L314.616 162.771C312.402 164.163 309.481 163.286 306.925 162.615L306.546 162.52C304.053 161.932 301.009 161.873 299.632 163.888C298.662 165.308 297.523 166.623 296.244 167.8C295.706 168.296 295.091 168.79 294.347 168.871C293.603 168.952 292.748 168.415 292.814 167.704L293.547 159.827C293.594 159.317 293.631 158.762 293.332 158.336C293.019 157.888 292.427 157.714 291.882 157.57L284.996 155.757C283.499 155.363 283.488 153.141 284.611 152.118C285.734 151.096 287.388 150.881 288.884 150.486C290.381 150.09 291.999 149.25 292.269 147.792L294.017 138.355C294.166 137.549 294.744 136.492 295.541 136.799ZM110.276 3.75834L109.004 4.74351C100.531 11.3261 92.1815 18.2271 85.9672 26.784C79.4422 35.7687 75.4364 46.91 77.379 57.6799C80.2098 73.3742 94.9354 85.873 95.565 101.786C95.6486 103.9 97.9067 105.216 99.7957 106.326C107.251 110.705 112.775 117.657 116.421 125.248C119.952 132.601 121.838 140.569 123.209 148.555L123.34 149.328C123.544 150.545 123.693 151.931 122.869 152.882C122.045 153.832 119.926 153.5 120.009 152.269C120.976 137.8 115.46 123.039 105.115 112.412C102.427 109.651 99.3055 107.092 95.521 106.011C95.28 111.585 93.3117 117.264 89.145 121.18C84.9783 125.095 78.4051 126.884 73.011 124.724C67.6169 122.563 64.317 116.038 66.7446 110.963C68.7783 106.712 73.8288 104.564 78.6374 103.659C83.3555 102.771 88.2465 102.724 92.9822 103.523C93.6194 103.63 93.8971 102.781 93.8843 102.164C93.5419 85.6236 77.5033 72.6734 75.398 56.2515C74.2474 47.2769 77.4595 38.2426 82.121 30.3687C88.2426 20.0283 96.9511 11.0907 107.318 4.50931L107.589 4.34145C108.419 3.84317 109.387 3.41818 110.276 3.75834ZM163.084 88.0046C160.764 89.4278 160.823 92.5861 160.631 95.2104C160.368 98.8101 159.069 102.413 156.537 105.096C154.005 107.778 150.158 109.426 146.403 108.975C145.431 108.859 145.136 110.199 145.263 111.125C147.447 126.989 157.542 142.565 173.232 148.245C182.825 151.718 193.66 151.257 203.44 148.297C212.987 145.407 221.628 140.268 229.525 134.385L230.101 133.953C231.246 133.091 232.398 132.193 233.193 131.027C234.001 129.844 234.398 128.445 234.591 127.047C235.627 119.553 230.374 111.712 222.807 109.457C221.917 109.191 222.123 107.814 222.904 107.328C223.685 106.842 224.692 106.875 225.584 106.615C228.002 105.91 229.114 103.286 229.666 100.934C230.424 97.7027 230.636 94.0177 228.536 91.3808C225.697 87.8172 220.177 87.8217 215.497 88.1633L207.903 88.7175C205.282 88.9087 201.908 89.7894 201.785 92.2926C201.52 97.684 199.029 103.055 194.628 106.449C190.226 109.844 183.887 111.018 178.662 108.94C173.52 106.895 169.887 101.558 170.481 96.2895L170.513 96.0346C170.823 93.8058 170.652 91.3857 169.283 89.5555C167.913 87.7253 165.068 86.7883 163.084 88.0046ZM225.809 3.75497C222.422 4.67271 219.17 6.15293 216.496 8.33669C212.76 11.3886 210.276 15.7987 209.672 20.4535C209.458 22.1028 209.802 24.23 211.482 24.673C215.587 25.7555 219.259 28.2654 221.652 31.6237C217.772 29.4225 213.518 27.8208 209.107 26.9L227.751 36.9572C228.832 37.5402 229.954 38.1593 230.634 39.15C231.313 40.1408 231.384 41.6193 230.451 42.3997L229.147 41.4328C225.881 39.0227 222.542 36.6865 218.886 34.8626C216.106 33.4757 213.172 32.3997 210.222 31.3747L208.612 30.8191C203.151 28.9408 197.64 27.0507 191.888 26.3002C186.549 25.6037 181.068 25.9129 175.853 27.205L174.824 27.4563C167.779 29.1559 160.433 30.5456 154.608 34.652C151.143 37.0948 148.43 40.3649 145.854 43.6581L145.246 44.4441C140.127 51.1439 135.45 59.4041 138.445 67.091C152.195 65.4764 162.906 55.3345 175.362 49.5531C176.314 49.1113 177.884 48.9761 178.029 49.976L164.091 57.828C164.478 59.8555 164.112 62.0063 163.073 63.8136C173.257 61.0704 182.777 56.1171 190.71 49.4403L191.214 49.0118C192.472 47.9319 194.896 47.0385 195.433 48.5694L194.751 48.9325C192.249 50.2738 189.761 51.7409 188.037 53.9129C186.156 56.2824 185.407 59.7269 187.074 62.2376L204.67 52.3611C205.384 51.9599 206.164 51.5443 206.989 51.6269C207.814 51.7095 208.587 52.5564 208.231 53.2704L207.632 53.3894C205.733 53.774 203.807 54.256 202.328 55.4354C200.694 56.7389 199.848 59.1826 201.062 60.8519C203.241 63.8461 205.008 67.1116 206.307 70.539C206.335 69.0403 208.478 68.2738 209.89 68.9318C211.303 69.5899 212.051 71.0751 212.563 72.4924C214.027 76.5469 214.414 80.9506 213.677 85.1808C218.102 86.6702 223.292 84.9109 227.548 86.7948C231.498 88.5435 233.431 93.0794 233.156 97.2233C232.881 101.367 230.828 105.199 228.634 108.786C234.764 113.314 238.039 121.113 236.879 128.422C237.948 128.256 238.851 127.377 239.003 126.354L241.434 127.817C237.631 129.866 234.926 133.668 234.335 137.794C251.043 122.89 256.589 99.2678 254.179 77.5759L254.085 76.7669C253.129 68.9337 250.856 60.7686 244.677 55.58C247.99 53.759 252.239 54.4752 255.784 53.1079C259.133 51.816 261.435 48.8214 262.99 45.7121C268.188 35.3172 266.398 22.0915 258.603 13.2948C250.807 4.49817 237.428 0.60605 225.809 3.75497ZM171.191 134.119C171.718 134.202 172.316 134.372 172.522 134.841C172.852 135.591 171.928 136.277 171.129 136.561C169.969 136.973 168.75 137.237 167.517 137.343C166.482 137.432 165.177 137.242 164.857 136.3C164.646 135.68 165.012 134.984 165.565 134.602C166.118 134.219 166.818 134.09 167.497 134.02C168.725 133.893 169.972 133.927 171.191 134.119ZM152.291 123.369C155.927 127.443 161.615 129.6 167.226 129.642C172.836 129.684 178.341 127.751 182.999 124.769L183.39 124.518C183.982 124.143 184.596 123.791 185.29 123.676C186.138 123.535 187.146 123.875 187.434 124.648C182.562 128.593 176.455 131.198 170.09 131.748C163.724 132.299 157.13 130.742 151.936 127.191C150.999 126.55 150.03 125.707 149.992 124.608C149.953 123.51 151.544 122.532 152.291 123.369ZM76.0797 106.115C73.5514 106.884 71.007 108.011 69.4119 110.033C67.0424 113.036 67.4568 117.594 70.0159 120.452C72.5751 123.311 76.9025 124.452 80.7633 123.692C84.6241 122.933 87.9761 120.449 90.1456 117.312C92.3152 114.174 93.3774 110.428 93.6992 106.682C93.7532 106.054 93.6335 105.223 92.9838 105.108C87.3768 104.113 81.5131 104.463 76.0797 106.115ZM165.67 91.4793C165.776 92.3431 165.425 93.1908 165.103 94.0045C163.282 98.6021 162.174 103.456 161.825 108.359C161.768 109.153 161.736 109.977 162.042 110.717C162.33 111.417 163 112.026 163.776 112.068L163.914 112.069C164.621 112.045 164.957 113.05 164.512 113.574C164.067 114.098 163.233 114.157 162.555 113.965C161.163 113.57 160.166 112.335 159.762 111.005C159.358 109.675 159.461 108.255 159.663 106.884C160.349 102.236 162.129 97.7295 162.216 93.0363C162.241 91.7119 162.525 89.9267 163.91 89.8213C164.819 89.7521 165.565 90.6154 165.67 91.4793ZM182.972 75.7922C180.08 76.3593 177.873 78.6206 176.373 81.0447C173.301 86.0109 172.426 92.1685 174.001 97.735C174.708 100.234 175.917 102.65 177.813 104.503C179.71 106.356 182.345 107.599 185.06 107.556C186.955 107.526 188.794 106.885 190.441 105.99C195.938 103 199.431 96.9397 199.13 90.9126C198.83 84.8855 194.75 79.1687 188.98 76.689C187.101 75.8815 184.99 75.3962 182.972 75.7922ZM143.065 73.3212C137.899 75.1458 134.563 80.2606 133.853 85.469C133.142 90.6773 134.674 95.9459 136.858 100.768C137.447 102.066 138.116 103.387 139.245 104.304C140.374 105.221 142.085 105.632 143.368 104.922C143.965 104.592 144.524 105.365 144.977 105.862C145.88 106.851 147.469 106.936 148.819 106.679C153.264 105.832 156.681 102.128 158.064 98.0119C159.401 94.0331 159.115 89.7263 158.326 85.6091L158.242 85.1838C157.409 81.0315 155.527 76.365 151.286 75.1285C149.063 74.4802 146.38 74.8591 144.662 73.3662C144.247 73.0058 143.591 73.1353 143.065 73.3212ZM225.166 90.927C226.914 92.7729 226.199 95.6394 225.325 98.0078L225.253 98.1987C224.904 99.1275 224.541 100.078 223.872 100.831C223.204 101.585 222.153 102.111 221.14 101.91C220.126 101.709 219.337 100.588 219.762 99.6887C220.291 98.5722 222.087 98.5153 222.735 97.4577L220.984 97.3001C219.804 97.194 218.534 97.0512 217.661 96.2886C216.787 95.5259 216.677 93.912 217.74 93.4122C218.476 93.0658 219.363 93.4052 220.044 93.8419C220.726 94.2785 221.378 94.8312 222.19 94.9501C223.001 95.069 223.988 94.4613 223.821 93.6949C223.588 92.6282 224.162 91.4472 225.166 90.927ZM185.195 98.1329C185.333 98.8667 185.384 99.6452 185.096 100.338C184.808 101.032 184.106 101.612 183.324 101.581C182.114 101.533 181.466 100.204 181.254 99.0667C180.993 97.6618 181.401 95.7283 182.894 95.6237C184.171 95.5343 184.968 96.9312 185.195 98.1329ZM147.905 95.1507C148.508 95.9882 148.423 97.1073 148.183 98.0971C147.877 99.3635 147.106 100.776 145.75 100.909C144.525 101.028 143.479 99.9835 143.079 98.8737C142.59 97.5194 142.828 95.8647 143.937 94.8987C145.046 93.9326 147.055 93.9697 147.905 95.1507ZM149.034 80.8574C149.575 81.0946 149.957 81.7448 149.683 82.2492L149.159 82.3801C146.179 83.1383 143.001 84.1935 141.578 86.7625C141.237 87.3782 141.015 88.0576 140.591 88.624C140.166 89.1904 139.449 89.6406 138.735 89.4971C137.92 89.3337 137.449 88.44 137.536 87.6508C137.623 86.8616 138.127 86.1737 138.666 85.5694C140.86 83.1118 143.952 81.3974 147.277 80.7944C147.863 80.6882 148.493 80.6202 149.034 80.8574ZM187.127 82.2763C188.018 82.9609 188.695 83.8733 189.596 84.5467C190.357 85.1156 191.318 85.5655 191.664 86.4264C192.01 87.2874 190.97 88.5033 190.215 87.9268C188.245 86.4217 186.058 85.1748 183.734 84.2323C182.681 83.805 182.92 82.1156 183.948 81.6346C184.975 81.1536 186.235 81.5916 187.127 82.2763ZM176.088 76.8771C174.146 77.4874 172.766 79.4356 172.898 81.3808C173.64 81.0185 174.206 80.3414 174.411 79.5703L174.381 79.4923C175.243 78.843 175.858 77.9013 176.088 76.8771Z" fill="#00160A"/>
</svg>
