<svg width="453" height="163" viewBox="0 0 453 163" fill="none" xmlns="http://www.w3.org/2000/svg">
<path fill-rule="evenodd" clip-rule="evenodd" d="M332.93 -36.0695C384.34 -47.5344 431.97 -33.9319 457.569 4.92114C483.169 43.7741 476.472 105.426 470.927 132.64C465.381 159.853 451.314 184.779 433.855 206.418C401.426 246.611 357.603 277.367 308.612 293.97C259.622 310.573 206.431 313.978 155.377 305.578C126.737 300.867 37.1501 277.784 17.8116 208.127C-1.52687 138.47 -13.7658 78.9352 28.1121 54.7515C69.9899 30.5679 98.9972 48.7569 119.729 57.7016C216.584 99.4901 281.52 -24.6046 332.93 -36.0695Z" fill="#707EFF"/>
<path fill-rule="evenodd" clip-rule="evenodd" d="M404.772 29.3398C413.008 28.7037 421.885 29.1152 428.596 33.9306C435.307 38.7461 438.356 49.3203 432.845 55.4735C439.076 53.0378 446.398 57.1691 449.519 63.0861C452.64 69.0032 452.477 76.0925 451.538 82.7159C449.213 99.1191 442.526 114.884 432.348 127.956C431.881 129.334 431.413 130.712 430.945 132.09C442.975 135.192 489.95 153.435 477.258 198.408C464.565 243.382 409.135 260.499 403.461 265.882C393.571 275.264 378.477 275.905 364.852 275.473C331.352 274.41 297.954 270.153 265.259 262.777C262.479 262.15 258.958 261.768 257.356 264.125C245.758 281.177 221.505 282.701 200.936 281.217C174.514 279.31 148.245 275.303 122.457 269.246C107.83 265.81 92.2966 261.026 83.1841 249.079C72.5608 235.151 73.7876 215.84 75.5113 198.408C68.529 202.291 56.9482 204.393 40.7692 204.716C31.2433 202.773 25.3013 199.32 22.9432 194.357C12.1598 171.661 8.46196 142.414 21.8903 120.043C23.5034 117.355 25.3646 114.707 27.9912 112.997C30.776 111.184 34.1709 110.588 37.4809 110.295C50.5364 109.138 63.9314 112.186 75.2017 118.876C75.1011 82.2458 75.0005 45.6154 74.8998 8.98512C74.8941 6.88742 74.9233 4.66154 76.0416 2.88682C77.6592 0.319945 80.9727 -0.475669 83.9552 -1.03244C111.086 -6.09713 138.524 -9.51288 166.069 -11.2546C175.069 -11.8237 187.385 -9.31891 187.426 -0.301106C187.583 34.2337 187.74 68.7684 187.897 103.303C187.935 111.523 188.463 110.836 192.314 108.454C189.893 108.705 190.433 104.599 192.268 102.999C199.116 97.0289 209.096 96.8093 218.182 96.9023C238.503 97.1103 258.825 97.3183 279.146 97.5263C298.836 97.7278 322.449 100.225 331.363 117.782C331.105 112.564 335.834 107.64 341.058 107.688C346.756 107.74 351.521 102.798 353.184 97.3483C354.847 91.8987 354.113 86.0432 353.365 80.3949C344.178 71.4993 341.773 56.3779 347.747 45.0713C353.721 33.7646 367.567 27.2295 380.093 29.8052C388.184 31.469 396.536 29.9758 404.772 29.3398ZM168.968 198.742C168.698 206.013 168.412 213.382 166.272 220.336L168.968 198.742ZM160.549 109.508C162.44 110.062 164.78 111.739 163.788 113.441C172.004 114.262 169.551 113.882 169.92 104.2C170.295 94.3746 170.327 83.5111 163.894 76.0749C158.203 69.4948 148.921 67.4368 140.252 66.6967C130.134 65.8329 119.908 66.248 109.893 67.9289C105.007 68.749 99.7138 70.1622 96.8781 74.2253C95.2911 76.4993 94.7072 79.3076 94.241 82.0411C92.4071 92.7936 91.8343 103.761 92.5382 114.646C113.603 104.845 138.25 102.983 160.549 109.508ZM343.364 181.694C343.879 181.174 344.659 181.048 345.384 180.948C348.279 180.55 351.174 180.151 354.069 179.753C347.425 176.753 343.398 169.625 342.195 162.435C340.992 155.245 342.167 147.894 343.354 140.702C339.104 145.431 339.41 152.566 339.967 158.9C341.185 172.763 342.849 182.214 343.364 181.694ZM288.707 249.976C289.276 248.124 291.214 247.13 292.633 245.811C295.188 243.437 296.136 239.848 296.97 236.461C299.849 224.759 302.747 212.915 302.71 200.864C302.702 198.311 302.573 195.688 303.418 193.278C304.264 190.869 306.382 188.691 308.935 188.678C311.627 188.665 312.27 184.931 312.029 182.25C311.199 173.004 310.37 163.758 309.54 154.513C309.275 151.56 309.004 148.579 308.108 145.753C304.795 135.304 292.027 128.987 281.711 132.691C280.448 133.145 280.11 134.74 279.967 136.074C278.379 150.863 276.791 165.651 275.203 180.44C274.921 183.068 278.314 184.744 280.875 184.094C283.436 183.443 285.392 181.442 287.606 180C289.821 178.558 292.943 177.728 294.976 179.416C297.275 181.323 300.677 179.204 302.673 176.983C304.67 174.761 307.27 172.084 310.109 173.01C306.779 176.196 303.448 179.382 300.117 182.568C299.012 183.625 298.039 185.735 299.434 186.359C303.261 185.002 306.721 182.623 309.358 179.536C310.578 179.497 310.635 181.412 309.955 182.425C307.391 186.241 301.355 187.091 299.802 191.418C296.175 201.517 284.863 208.226 274.261 206.565C272.086 206.224 271.002 209.085 270.74 211.27C269.697 219.985 268.653 228.699 267.61 237.414C267.37 239.419 267.146 241.539 267.971 243.382C269.348 246.457 273.032 247.62 276.298 248.447C280.615 249.541 284.981 250.64 289.393 251.118C291.251 251.319 291.244 250.638 288.707 249.976ZM116.725 233.998C122.893 236.064 129.422 236.764 135.89 237.451C138.633 237.743 141.555 238.004 144.015 236.757C146.912 235.29 148.455 232.11 149.701 229.112C156.649 212.389 160.616 194.433 161.359 176.34C161.465 173.769 158.173 172.634 155.606 172.462C135.11 171.087 115.51 180.096 96.9476 188.894C96.058 189.316 95.1058 189.797 94.6663 190.678C94.3385 191.335 94.3557 192.104 94.3801 192.837C94.7126 202.833 95.132 213.186 99.6022 222.133C100.81 224.549 102.345 226.874 104.519 228.476C105.836 229.447 107.344 230.121 108.839 230.787C111.433 231.942 114.032 233.096 116.725 233.998ZM249.312 197.005C252.044 182.313 253.969 167.471 255.076 152.568C255.455 147.47 255.733 142.287 254.631 137.295C253.529 132.303 250.869 127.45 246.522 124.759C243.844 123.102 240.708 122.358 237.607 121.804C231.948 120.795 226.191 120.337 220.443 120.439C215.371 120.529 210.047 121.147 205.907 124.078C204.538 125.047 203.294 126.316 202.794 127.917C202.294 129.518 202.715 131.485 204.104 132.426C207.614 134.803 209.045 139.251 209.703 143.44C210.361 147.628 210.519 152.014 212.428 155.8C213.412 157.753 214.824 159.456 216.304 161.065C224.329 169.791 234.797 176.246 246.197 179.499C248.201 180.071 250.751 181.309 250.327 183.35C256.632 187.327 249.207 197.569 249.312 197.005ZM231.937 240.338C234.258 238.928 235.832 236.581 237.217 234.245C243.097 224.332 246.952 213.225 248.478 201.802C227.331 201.706 206.311 193.728 190.427 179.768C189.883 181.95 189.987 184.233 190.061 186.48C190.525 200.51 189.693 214.583 187.578 228.46C187.074 231.768 189.05 235.076 191.767 237.03C194.484 238.983 197.831 239.823 201.117 240.455C208.524 241.882 216.094 242.467 223.632 242.196C226.499 242.092 229.485 241.828 231.937 240.338ZM365.377 119.321C364.144 116.35 363.219 113.001 360.662 111.051C358.104 109.101 353.289 110.055 353.139 113.267C355.67 112.801 357.604 115.925 357.173 118.462C356.742 120.999 354.898 123.017 353.432 125.132C351.408 128.055 350.023 131.364 348.653 134.645C345.394 142.452 344.125 151.081 344.999 159.495C345.514 164.45 346.872 169.538 350.222 173.225C353.571 176.911 359.313 178.754 363.728 176.447C367.519 174.465 369.41 170.096 370.28 165.908C371.149 161.719 371.304 157.335 372.946 153.385C375.977 146.098 383.45 141.695 390.842 138.932C379.729 137.422 369.675 129.679 365.377 119.321ZM334.647 127.203C335.141 129.114 335.825 130.975 336.686 132.75C337.203 130.248 338.033 127.811 339.15 125.514C338.02 125.385 336.882 125.323 335.745 125.33C335.468 125.332 335.176 125.342 334.943 125.49C334.418 125.823 334.491 126.601 334.647 127.203ZM200.7 125.237C200 125.8 199.59 127.012 200.328 127.523C201.46 126.39 202.591 125.258 203.722 124.125C203.488 123.835 203.148 123.633 202.782 123.566C202.333 124.344 201.4 124.674 200.7 125.237Z" fill="white"/>
<path fill-rule="evenodd" clip-rule="evenodd" d="M145.53 49.9584C152.69 50.0039 159.85 50.0493 167.01 50.0948C167.345 50.0969 167.705 50.1068 167.975 50.3052C168.528 50.7106 168.307 51.6602 167.739 52.0424C167.17 52.4245 166.433 52.4084 165.748 52.3846C159.447 52.1659 153.127 52.4931 146.882 53.3615C145.933 53.4935 144.931 53.6323 144.043 53.2712C143.154 52.9102 142.475 51.8467 142.884 50.9794C143.311 50.0733 144.528 49.9521 145.53 49.9584ZM121.586 49.2553C122.04 49.7076 121.823 50.5379 121.319 50.9332C120.815 51.3286 120.14 51.4078 119.502 51.4723C113.155 52.115 106.807 52.7577 100.459 53.4004C99.7085 53.4765 98.9324 53.55 98.2141 53.3189C97.4959 53.0877 96.8461 52.4667 96.8291 51.7124C96.8116 50.9342 97.4725 50.2733 98.2102 50.0249C98.9479 49.7766 99.7494 49.8462 100.525 49.9072C107.029 50.4189 113.597 50.1238 120.028 49.0308C120.567 48.9393 121.199 48.8695 121.586 49.2553ZM120.697 37.0707C121.172 37.4534 121.003 38.2739 120.527 38.6546C120.051 39.0353 119.403 39.0985 118.796 39.1464L98.4105 40.7547C97.6474 40.815 96.8568 40.8717 96.137 40.6113C95.4171 40.3509 94.7858 39.6803 94.8271 38.9159C94.8689 38.1415 95.5841 37.5409 96.3377 37.358C97.0913 37.1751 97.8805 37.3117 98.6476 37.4251C105.566 38.4477 112.602 37.5153 119.567 36.882C119.957 36.8465 120.392 36.8244 120.697 37.0707ZM149.167 33.0319C153.421 33.5752 157.733 33.6579 162.004 33.2779C163.702 33.1268 165.755 33.056 166.72 34.4614C165.574 35.3872 164.001 35.5185 162.531 35.6112C157.66 35.9182 152.79 36.2252 147.919 36.5321C146.808 36.6022 145.423 36.5181 144.965 35.5031C144.555 34.5924 145.277 33.4972 146.206 33.1284C147.134 32.7595 148.176 32.9053 149.167 33.0319ZM112.421 27.8243C112.426 28.56 111.504 28.8774 110.776 28.9841L100.071 30.5532C99.307 30.6651 98.5175 30.7759 97.7714 30.5767C97.0252 30.3775 96.3276 29.7839 96.2579 29.0148C96.1724 28.0732 97.0564 27.2786 97.9793 27.0735C98.9022 26.8684 99.8583 27.0829 100.796 27.2037C104.029 27.6203 107.291 26.9097 110.55 26.7978C111.347 26.7704 112.415 27.0266 112.421 27.8243ZM164.073 25.2619C164.902 25.3545 165.752 25.8486 165.973 26.6521C164.502 27.7646 162.558 27.9671 160.721 28.1299C157.576 28.4086 154.432 28.6873 151.287 28.966C150.18 29.0642 149.072 29.1624 147.964 29.2606C147.154 29.3324 146.312 29.4001 145.551 29.1126C144.79 28.8251 144.141 28.0704 144.254 27.2651C144.432 25.9962 146.098 25.6668 147.379 25.6944C152.132 25.7965 156.945 26.5139 161.602 25.557C162.419 25.3892 163.245 25.1693 164.073 25.2619ZM168.249 13.2588C144.949 16.4005 121.06 14.7736 98.0813 19.7438C96.7185 20.0386 94.8164 20.0531 94.464 18.7041C94.4957 17.1145 96.5516 16.5408 98.1375 16.4277C120.492 14.8334 142.846 13.2391 165.2 11.6449C166.511 11.5513 168.352 11.948 168.249 13.2588Z" fill="#E7EAEE"/>
<path fill-rule="evenodd" clip-rule="evenodd" d="M86.2888 254.778C86.5323 257.597 82.6466 258.552 79.8172 258.563C65.1127 258.621 50.4227 261.349 36.6773 266.573C34.5795 267.37 32.3344 268.374 31.3134 270.373C29.9615 273.019 31.437 276.405 33.8287 278.169C36.2205 279.933 39.2733 280.47 42.2063 280.948C118.443 293.362 195.814 298.803 273.038 297.182L274.28 297.155C283.186 296.949 292.276 296.471 300.435 292.944C293.681 288.21 286.926 283.476 280.171 278.742C291.864 276.406 303.929 278.07 315.795 279.241C342.954 281.922 370.371 281.977 397.54 279.404C395.627 282.461 391.422 282.885 387.817 282.962C353.642 283.698 319.424 282.484 285.387 279.328C289.828 282.25 294.269 285.173 298.71 288.095C300.319 289.154 302.099 290.499 302.192 292.423C302.332 295.315 298.779 296.758 295.922 297.229C286.444 298.796 276.802 299.045 267.196 299.186C192.175 300.282 117.061 294.914 42.9583 283.16C39.3425 282.587 35.596 281.946 32.5811 279.869C29.5662 277.793 27.5107 273.843 28.7776 270.409C30.0378 266.992 33.8718 265.388 37.3334 264.257C53.1744 259.083 69.6615 255.891 86.2888 254.778ZM187.426 -0.301105C187.583 34.2337 187.74 68.7685 187.897 103.303C187.934 111.523 189.554 121.924 197.503 124.017C208.487 118.947 220.867 116.944 232.89 118.292C239.772 119.064 246.919 121.144 251.578 126.268C257.969 133.297 257.979 143.882 257.293 153.357C255.902 172.564 253.162 191.672 249.101 210.495C252.328 210.292 255.619 211.586 257.842 213.934C254.418 215.5 250.339 215.565 246.867 214.11C249.252 227.038 238.719 239.793 226.105 243.497C213.492 247.2 199.804 243.708 187.942 238.039C186.83 242.371 192.625 244.917 197.05 245.571C208.281 247.231 219.513 248.891 230.744 250.551C216.874 250.968 202.957 249.832 189.338 247.173C186.83 250.724 192.509 254.31 196.801 255.005C208.185 256.847 219.57 258.69 230.954 260.532C218.096 260.446 205.242 259.589 192.487 257.966C200.599 265.284 211.673 269.219 222.584 268.66C216.429 270.684 209.591 270.563 203.512 268.32C211.117 278.504 226.675 280.391 238.037 274.695C249.4 268.999 256.818 257.345 260.448 245.164C264.077 232.983 264.429 220.109 265.072 207.415C266.259 183.984 268.528 160.584 272.633 137.484C275.397 121.929 282.186 103.381 297.832 101.183C269.959 99.8983 242.058 99.2056 214.156 99.1052C205.677 99.0746 195.145 100.462 192.314 108.454C189.893 108.705 190.433 104.599 192.268 102.999C199.116 97.0289 209.096 96.8093 218.181 96.9023L279.146 97.5263C298.836 97.7278 322.449 100.225 331.363 117.782C331.104 112.564 335.834 107.64 341.058 107.688C346.755 107.74 351.521 102.798 353.184 97.3483C354.847 91.8987 354.113 86.0432 353.365 80.3949C344.178 71.4994 341.773 56.3779 347.747 45.0713C349.436 41.8733 351.933 34.2479 365.875 29.3398C375.17 26.0677 384.358 26.4274 393.439 30.4191C410.493 27.1214 422.212 28.2919 428.596 33.9306C438.173 42.3887 438.356 49.3203 432.845 55.4735C439.076 53.0378 446.398 57.1691 449.519 63.0861C452.64 69.0032 452.477 76.0925 451.538 82.7159C449.213 99.1191 442.526 114.884 432.348 127.956L430.945 132.09C455.565 138.438 475.482 160.199 479.629 185.284C471.444 166.834 460.363 147.295 441.272 140.745C436.964 145.263 432.534 149.979 430.511 155.885C428.488 161.791 429.581 169.254 434.711 172.812C431.489 173.559 428.267 174.306 425.045 175.053C426.117 176.955 427.19 178.857 428.262 180.76C416.087 190.015 414.687 207.522 414.761 222.815C414.834 238.109 414.556 255.356 403.46 265.882C393.571 275.264 378.476 275.905 364.852 275.473C331.352 274.41 297.954 270.153 265.259 262.777C262.479 262.15 258.958 261.768 257.356 264.125C245.758 281.177 221.505 282.701 200.935 281.217C174.514 279.31 148.245 275.303 122.457 269.246C107.829 265.81 92.2964 261.026 83.1839 249.079C72.5606 235.151 73.7874 215.84 75.5112 198.408C65.0376 204.232 52.6211 206.486 40.769 204.716C53.2624 196.548 59.3208 180.922 59.4347 165.996C59.5485 151.07 54.5663 136.603 49.0234 122.743C36.8105 129.827 30.3848 144.758 31.3403 158.844C32.2959 172.931 39.7696 186.005 49.7971 195.944C37.4359 188.143 29.2565 174.089 28.5795 159.487C27.9025 144.886 34.7463 130.136 46.3326 121.224C44.4812 114.893 34.9294 114.119 29.9232 118.415C24.917 122.71 23.3459 129.683 22.0581 136.153C19.6786 148.107 17.2894 160.34 19.0182 172.406C20.7471 184.472 27.412 196.549 38.5806 201.431C33.3611 205.194 26.4094 199.778 22.9431 194.357C8.88629 172.375 8.46178 142.414 21.8901 120.043C23.5032 117.355 25.3644 114.707 27.9911 112.997C30.7758 111.184 34.1708 110.588 37.4808 110.295C50.5362 109.138 63.9313 112.186 75.2016 118.876C75.1009 82.2458 75.0003 45.6155 74.8996 8.98513C74.8939 6.88743 74.9231 4.66154 76.0414 2.88682C77.659 0.319947 80.9725 -0.475668 83.955 -1.03243C111.086 -6.09713 138.524 -9.51288 166.069 -11.2546C175.069 -11.8237 187.385 -9.31891 187.426 -0.301105ZM169.03 -9.04759C139.827 -7.67291 110.729 -4.06285 82.0749 1.7406C80.8554 1.98759 79.5641 2.27602 78.6777 3.14917C77.4702 4.33856 77.3768 6.2232 77.3609 7.91801C77.0188 44.3919 77.1635 80.8703 77.7949 117.34C81.3015 116.466 84.8081 115.592 88.3147 114.717C86.944 107.234 85.5674 99.6489 86.1535 92.0634C86.7396 84.4779 89.5233 76.7635 95.2488 71.7533C101.445 66.3308 110.093 64.7986 118.307 64.2218C126.206 63.6672 134.153 63.7956 142.03 64.6054C150.07 65.4319 158.541 67.2174 164.342 72.8464C172.721 80.9775 172.857 94.1507 172.423 105.819C171.271 136.793 170.12 167.768 168.968 198.742C168.698 206.013 168.412 213.382 166.272 220.336C164.132 227.29 159.885 233.899 153.459 237.312C147.153 240.66 139.608 240.565 132.514 239.759C125.741 238.99 119.033 237.647 112.486 235.75C108.509 234.598 104.53 233.211 101.15 230.819C89.9652 222.904 88.6429 207.111 88.3713 193.412C84.0767 192.636 79.8784 195.905 78.1052 199.892C76.3321 203.88 76.4106 208.41 76.5207 212.773C76.7955 223.655 77.2196 235.081 82.7748 244.442C91.346 258.886 109.349 264.222 125.787 267.671C154.963 273.793 184.586 277.785 214.341 279.606C201.062 272.842 189.288 261.267 186.487 246.629C185.726 242.653 185.645 238.583 185.565 234.535C184.015 155.393 182.465 76.2512 180.914 -2.89076C180.816 -7.89572 174.03 -9.28297 169.03 -9.04759ZM282.237 120.889C281.499 122.69 280.962 124.689 281.454 126.573C281.946 128.457 283.776 130.101 285.697 129.782C294.299 128.349 303.572 132.586 308.119 140.027C311.871 146.167 312.392 153.679 312.815 160.862L316.662 226.294C317.073 233.286 317.276 240.981 312.931 246.474C307.292 253.601 296.705 253.838 287.66 252.953C280.197 252.223 272.347 250.982 266.553 246.222C266.758 248.993 265.95 251.827 264.316 254.073C262.298 256.846 265.555 260.495 268.724 261.806C272.594 263.407 276.802 263.964 280.955 264.504C299.979 266.973 319.013 269.354 338.059 271.647C352.718 273.411 367.612 275.12 382.186 272.752C372.966 270.164 364.143 266.166 356.12 260.938C352.117 258.33 348.247 255.35 345.517 251.429C341.06 245.029 340.122 236.896 339.38 229.133C337.175 206.047 335.534 182.907 334.458 159.742C333.665 142.655 328.186 125.809 318.776 111.524C317.094 108.97 315.036 106.32 312.061 105.609C300.233 102.781 286.852 109.637 282.237 120.889ZM228.003 268.752C229.006 268.923 230.036 269.147 230.863 269.741C231.69 270.334 232.267 271.387 232.012 272.372C231.758 273.358 230.457 274.006 229.636 273.405C228.729 272.743 227.523 272.72 226.443 272.414C225.362 272.108 224.229 271.211 224.424 270.105C224.67 268.703 226.6 268.514 228.003 268.752ZM186.349 269.168C187.594 269.427 189.051 270.315 188.796 271.56C188.571 272.658 187.212 273.024 186.101 273.173C184.855 273.339 183.526 273.493 182.395 272.946C181.264 272.398 180.53 270.853 181.272 269.839C181.772 269.155 182.709 268.973 183.556 268.939C184.491 268.9 185.432 268.978 186.349 269.168ZM260.82 255.325C259.639 256.177 258.828 257.433 257.994 258.627C254.193 264.072 249.377 268.805 243.866 272.51C244.004 273.094 244.88 272.946 245.399 272.645C251.78 268.948 256.333 262.84 260.704 256.901C261.061 256.415 261.356 255.601 260.82 255.325ZM317.876 108.229C321.281 112.248 324.711 116.306 327.202 120.948C329.902 125.98 331.418 131.557 332.64 137.136C339.471 168.344 337.648 200.789 342.075 232.428C342.874 238.137 343.93 243.968 346.901 248.908C350.381 254.696 356.156 258.708 362.04 262.023C366.798 264.704 371.765 267.059 376.991 268.647C385.301 271.172 395.284 271.349 401.655 265.445C405.232 262.129 407.114 257.399 408.584 252.748C414.883 232.814 415.576 211.141 410.562 190.846C410.688 202.984 412.265 215.094 411.904 227.227C411.543 239.361 409.052 251.855 401.92 261.678C400.507 263.624 398.869 265.491 396.734 266.597C393.922 268.054 390.581 268.026 387.438 267.642C381.947 266.971 376.578 265.312 371.667 262.768C367.935 260.835 364.484 258.407 361.139 255.864C357.251 252.907 353.434 249.723 350.71 245.669C348.01 241.651 346.506 236.957 345.312 232.266C336.597 198.011 342.828 161.06 332.487 127.261C330.049 119.295 325.816 110.748 317.876 108.229ZM109.957 258.926C130.076 262.031 150.196 265.137 170.316 268.242C169.806 269.573 167.966 269.62 166.554 269.431C149.347 267.133 132.14 264.834 114.934 262.535C112.989 262.276 111.043 262.016 109.098 261.756C108.175 261.633 107.029 261.298 106.912 260.374C106.747 259.072 108.659 258.726 109.957 258.926ZM343.354 140.702C339.104 145.431 339.41 152.566 339.967 158.9C341.185 172.763 342.403 186.626 343.622 200.488C343.679 201.137 343.748 201.82 344.128 202.349C344.75 203.213 345.954 203.363 347.017 203.438C361.482 204.457 375.947 205.477 390.412 206.496C389.33 208.205 386.892 208.231 384.875 208.075C371.257 207.024 357.584 206.683 343.93 207.055C343.695 214.057 344.727 221.1 346.961 227.74C347.93 230.617 351.659 231.231 354.692 231.353C366.263 231.822 377.833 232.29 389.403 232.759C389.935 233.957 388.066 234.706 386.754 234.691C374.862 234.554 362.969 234.417 351.076 234.281C349.447 234.262 348.858 236.57 349.471 238.079C351.076 242.022 356.184 242.872 360.433 243.138L387.022 244.803C387.629 244.841 387.756 245.795 387.312 246.211C386.869 246.627 386.194 246.639 385.586 246.626L354.454 245.966C362.504 255.546 373.793 262.353 386.023 265.001C388.658 265.571 391.452 265.946 394.012 265.101C397.076 264.089 399.335 261.488 401.104 258.79C410.484 244.479 409.86 226.066 408.901 208.982L407.815 189.619C408.194 189.097 408.974 188.916 409.544 189.218C409.764 188.269 408.529 187.705 407.571 187.529C386.41 183.642 364.697 179.749 343.519 183.546C342.842 183.268 342.849 182.214 343.364 181.694C343.878 181.174 344.659 181.048 345.384 180.948C348.279 180.55 351.174 180.151 354.068 179.753C347.425 176.753 343.398 169.625 342.195 162.435C340.992 155.245 342.167 147.894 343.354 140.702ZM239.352 258.417C241.236 258.768 243.413 259.344 244.148 261.115C242.05 262.545 239.294 262.398 236.763 262.196C236.066 262.14 235.305 262.056 234.816 261.557C233.95 260.674 234.596 259.048 235.71 258.512C236.824 257.976 238.136 258.191 239.352 258.417ZM95.8058 245.482C117.482 252.293 139.945 256.6 162.604 258.288C164.361 258.419 166.724 259.256 166.386 260.986C142.422 258.276 118.605 254.271 95.0731 248.993C93.5714 248.656 91.6448 247.587 92.204 246.153C92.6954 244.893 94.5156 245.077 95.8058 245.482ZM175.201 255.995C176.308 255.993 177.377 256.372 178.411 256.765C178.937 256.966 179.516 257.224 179.72 257.748C180.155 258.867 178.613 259.666 177.432 259.881C176.638 260.025 175.843 260.169 175.048 260.313C174.378 260.435 173.656 260.55 173.039 260.261C172.037 259.792 171.777 258.345 172.352 257.399C172.927 256.454 174.095 255.998 175.201 255.995ZM277.275 253.605C286.864 255.429 296.685 255.532 306.445 255.63C307.2 255.638 307.404 256.826 306.864 257.354C306.325 257.883 305.483 257.907 304.727 257.892C295.617 257.713 286.494 256.752 277.41 257.468C276.421 257.546 275.394 257.639 274.465 257.291C273.536 256.943 272.744 256.005 272.921 255.029C273.073 254.187 273.893 253.598 274.732 253.435C275.572 253.272 276.435 253.446 277.275 253.605ZM298.937 103.293C288.08 104.914 278.96 114.576 277.967 125.508C277.04 135.718 274.222 145.647 272.216 155.701C265.774 187.986 267.728 221.446 262.032 253.871C264.113 250.083 264.674 245.674 265.198 241.384L279.009 128.279C279.376 125.27 279.752 122.225 280.833 119.393C283.788 111.651 291.424 106.789 298.937 103.293ZM249.575 249.782C250.166 249.97 250.772 250.217 251.167 250.696C251.561 251.176 251.66 251.949 251.229 252.396C250.904 252.733 250.395 252.794 249.928 252.835C248.403 252.969 246.877 253.104 245.351 253.239C244.527 253.312 243.676 253.382 242.891 253.122C242.106 252.862 241.398 252.181 241.375 251.355C241.337 249.954 243.064 249.251 244.462 249.16C246.185 249.047 247.929 249.259 249.575 249.782ZM281.71 132.691C280.447 133.145 280.11 134.74 279.967 136.074L275.203 180.44C274.921 183.068 278.314 184.744 280.875 184.094C283.436 183.443 285.391 181.442 287.606 180C289.821 178.558 292.943 177.728 294.976 179.416C297.274 181.323 300.677 179.204 302.673 176.983C304.67 174.761 307.27 172.084 310.109 173.01C306.778 176.196 303.448 179.382 300.117 182.568C299.012 183.625 298.038 185.735 299.434 186.359C303.261 185.002 306.721 182.623 309.358 179.536C310.578 179.497 310.635 181.412 309.955 182.425C307.391 186.241 301.355 187.091 299.801 191.418C296.174 201.517 284.863 208.226 274.261 206.565C272.086 206.224 271.002 209.085 270.74 211.27C269.697 219.985 268.653 228.699 267.609 237.414C267.369 239.419 267.145 241.539 267.971 243.382C269.348 246.457 273.032 247.62 276.298 248.447C282.432 250.001 288.667 251.567 294.992 251.343C301.316 251.12 307.855 248.859 311.86 243.959C310.751 242.519 308.281 244.365 306.665 243.532C305.085 242.717 305.925 240.003 307.621 239.469C309.317 238.936 311.108 239.784 312.684 240.608C313.673 238.677 314.691 236.61 314.487 234.45C314.284 232.29 312.301 230.154 310.186 230.64C308.797 230.959 308.23 228.55 309.351 227.668C310.471 226.786 312.081 227.072 313.468 227.402C313.545 222.188 313.622 216.975 313.699 211.761C313.715 210.697 313.718 209.58 313.214 208.643C312.709 207.706 311.513 207.05 310.555 207.512C309.248 208.142 308.116 205.917 308.99 204.76C309.864 203.603 311.515 203.453 312.964 203.402C313.076 198.772 312.777 194.132 312.071 189.555C306.614 192.289 305.659 199.504 305.109 205.583C304.054 217.241 301.93 228.802 298.774 240.075C298.067 242.6 297.271 245.182 295.619 247.219C293.966 249.255 291.244 250.638 288.706 249.976C289.276 248.124 291.214 247.13 292.633 245.811C295.187 243.437 296.136 239.848 296.969 236.461C299.849 224.759 302.746 212.915 302.71 200.864L302.705 200.056C302.686 197.761 302.662 195.434 303.418 193.278C304.263 190.869 306.382 188.691 308.935 188.678C311.627 188.665 312.27 184.931 312.029 182.25C311.199 173.004 310.369 163.758 309.539 154.513C309.274 151.56 309.004 148.579 308.108 145.753C304.795 135.305 292.027 128.987 281.71 132.691ZM322.334 245.451C323.599 245.791 324.827 247.092 324.301 248.292C323.799 249.438 322.223 249.501 320.977 249.383C320.367 249.325 319.718 249.252 319.242 248.867C318.408 248.192 318.526 246.762 319.307 246.026C320.088 245.291 321.298 245.173 322.334 245.451ZM170.276 244.169C171.109 244.35 171.976 244.592 172.574 245.198C173.173 245.804 173.371 246.884 172.776 247.494C172.29 247.992 171.506 248.001 170.811 247.977C169.811 247.942 168.811 247.907 167.811 247.871C167.232 247.851 166.613 247.817 166.148 247.472C165.154 246.733 165.59 245.002 166.657 244.374C167.724 243.745 169.066 243.907 170.276 244.169ZM93.2261 235.097C98.8242 237.7 104.975 238.836 111.057 239.895C123.369 242.04 135.718 243.972 148.098 245.69C149.83 245.93 151.748 246.271 152.804 247.665C148.01 247.993 143.219 247.194 138.48 246.398C122.86 243.775 107.239 241.152 91.618 238.529C89.9806 238.254 87.8665 237.345 88.1854 235.715C88.5634 233.784 91.4416 234.267 93.2261 235.097ZM190.427 179.768C189.883 181.95 189.987 184.233 190.061 186.48C190.525 200.51 189.692 214.583 187.578 228.46C187.074 231.768 189.05 235.076 191.767 237.03C194.484 238.983 197.831 239.823 201.117 240.455C208.524 241.882 216.093 242.467 223.632 242.196C226.499 242.092 229.485 241.828 231.937 240.338C234.258 238.928 235.832 236.581 237.217 234.245C243.096 224.332 246.951 213.225 248.477 201.802C227.331 201.706 206.311 193.728 190.427 179.768ZM245.734 235.393C247.178 235.87 248.622 236.346 250.065 236.823C250.547 236.982 251.063 237.166 251.349 237.585C251.831 238.293 251.363 239.328 250.616 239.749C249.869 240.169 248.963 240.146 248.107 240.112C246.548 240.05 244.826 239.919 243.738 238.801C242.65 237.683 243.023 235.272 244.58 235.17C244.974 235.145 245.36 235.27 245.734 235.393ZM321.416 235.603C322.275 235.74 323.18 235.898 323.842 236.462C324.504 237.026 324.775 238.143 324.166 238.763C323.92 239.013 323.579 239.142 323.248 239.257C321.97 239.702 320.551 240.057 319.287 239.573C318.023 239.088 317.161 237.417 317.956 236.322C318.686 235.315 320.188 235.406 321.416 235.603ZM96.9474 188.894C96.0578 189.316 95.1057 189.797 94.6661 190.678C94.3383 191.335 94.3555 192.104 94.3799 192.837C94.7124 202.833 95.1318 213.186 99.6021 222.133C100.809 224.549 102.345 226.874 104.519 228.476C105.836 229.447 107.344 230.121 108.838 230.787C111.432 231.942 114.032 233.096 116.725 233.998C122.893 236.064 129.421 236.764 135.89 237.451C138.633 237.743 141.554 238.004 144.015 236.757C146.912 235.29 148.455 232.11 149.701 229.112C156.649 212.389 160.616 194.433 161.359 176.34C161.465 173.769 158.173 172.634 155.606 172.462C135.11 171.087 115.509 180.096 96.9474 188.894ZM164.542 175.615C164.016 176.307 163.95 177.232 163.898 178.099C162.672 198.561 157.579 218.784 148.969 237.386C157.172 233.234 163.285 225.171 165.067 216.152C165.68 213.05 165.805 209.876 165.929 206.718C166.319 196.757 166.709 186.797 167.099 176.837C167.12 176.312 167.124 175.735 166.789 175.329C166.237 174.659 165.068 174.923 164.542 175.615ZM167.939 225.452C168.98 225.508 169.959 225.941 170.971 226.193C171.877 226.418 172.15 227.708 171.645 228.493C171.139 229.278 170.163 229.62 169.239 229.749C168.273 229.885 167.235 229.834 166.405 229.323C165.575 228.812 165.036 227.745 165.368 226.829C165.723 225.848 166.898 225.396 167.939 225.452ZM322.013 222.747C322.986 222.949 323.821 223.552 324.622 224.139C325.057 224.458 325.52 224.816 325.662 225.337C325.844 226.001 325.405 226.716 324.802 227.047C324.198 227.378 323.474 227.402 322.788 227.347C321.812 227.269 320.805 227.027 320.069 226.383C319.333 225.738 318.959 224.606 319.418 223.742C319.884 222.864 321.039 222.546 322.013 222.747ZM90.4605 191.804C90.1943 192.279 90.248 192.861 90.3094 193.402L91.7556 206.135C92.5404 213.045 93.5681 220.492 98.398 225.495C99.2033 225.114 98.7488 223.903 98.2412 223.17C94.329 217.525 93.5755 210.346 92.941 203.506C92.569 199.497 92.1971 195.488 91.8251 191.479C91.4512 191.084 90.7267 191.33 90.4605 191.804ZM348.007 217.888C361.276 218.215 374.545 218.543 387.814 218.87C389.845 218.921 391.882 218.971 393.891 219.273C393.472 220.724 391.565 220.997 390.054 220.983C376.748 220.857 363.397 220.033 350.162 221.417C349.03 221.535 347.809 221.652 346.827 221.077C345.845 220.502 345.405 218.926 346.308 218.234C346.776 217.875 347.417 217.873 348.007 217.888ZM311.549 215.28C311.842 215.376 312.14 215.478 312.379 215.672C313.172 216.317 312.877 217.697 312.066 218.32C311.254 218.942 310.161 219.014 309.138 219.039C308.074 219.066 306.833 218.981 306.226 218.106C305.465 217.008 306.37 215.383 307.63 214.937C308.89 214.492 310.279 214.865 311.549 215.28ZM321.251 212.599C322.489 212.733 323.693 213.167 324.731 213.853C325.525 214.377 325.366 215.694 324.644 216.313C323.922 216.932 322.891 217.019 321.941 216.985C320.98 216.95 319.976 216.804 319.199 216.238C318.421 215.672 317.958 214.578 318.375 213.711C318.85 212.722 320.16 212.481 321.251 212.599ZM187.578 182.317C186.855 192.732 186.531 203.174 186.607 213.613C186.61 214.054 186.911 214.681 187.287 214.452C188.086 205.677 188.479 196.865 188.462 188.054C188.458 186.102 188.419 184.078 187.578 182.317ZM173.392 209.034C174.531 209.12 175.535 209.782 176.463 210.447C176.749 210.652 177.043 210.87 177.203 211.183C177.534 211.832 177.137 212.667 176.515 213.047C175.894 213.426 175.124 213.456 174.397 213.422C172.742 213.345 170.662 212.444 170.847 210.798C170.975 209.664 172.254 208.948 173.392 209.034ZM324.008 202.019C325.116 202.474 326.256 203.661 325.683 204.713C325.296 205.425 324.352 205.58 323.541 205.588C322.599 205.597 321.657 205.52 320.73 205.358C319.425 205.131 319.225 203.079 320.238 202.226C321.251 201.373 322.783 201.516 324.008 202.019ZM453.129 181.641C453.586 182.405 453.593 183.346 453.588 184.237C453.549 190.539 453.511 196.841 453.472 203.143C453.467 203.908 453.364 204.836 452.67 205.157C452.069 205.435 451.329 205.045 450.995 204.474C450.661 203.903 450.631 203.21 450.62 202.549C450.522 196.922 451.15 191.162 449.556 185.765C449.083 184.161 448.516 182.159 449.755 181.035C450.722 180.157 452.459 180.519 453.129 181.641ZM291.107 180.911C286.33 183.875 281.305 186.923 275.698 187.327C274.678 187.4 274.218 188.619 274.017 189.621C273.111 194.133 272.612 198.725 272.526 203.326C272.521 203.607 272.523 203.909 272.686 204.139C272.944 204.504 273.471 204.519 273.918 204.496C278.293 204.267 282.727 203.81 286.79 202.172C290.852 200.535 294.548 197.568 296.204 193.512C297.859 189.457 297.063 184.284 293.682 181.499C292.955 180.9 291.908 180.414 291.107 180.911ZM254.536 198.65C256.07 199.053 257.605 199.456 259.14 199.859C259.713 200.01 260.351 200.21 260.625 200.735C260.948 201.355 260.572 202.153 259.988 202.536C259.404 202.918 258.676 202.991 257.981 203.053C256.878 203.151 255.741 203.246 254.683 202.92C253.624 202.594 252.65 201.74 252.528 200.639C252.407 199.538 253.464 198.369 254.536 198.65ZM41.6298 114.669C47.374 116.996 51.6976 122.028 54.3793 127.615C57.061 133.202 58.282 139.363 59.3462 145.468C61.1075 155.573 62.5102 165.888 61.2259 176.064C59.9416 186.241 55.6876 196.389 47.8012 202.947C53.5459 203.254 60.405 203.027 63.5238 198.193C64.9234 196.023 67.9356 195.063 70.3325 196.022C68.8256 194.72 69.9631 192.294 71.0814 190.646C75.6636 183.892 78.8077 176.129 79.9312 168.046C82.1096 152.371 76.6326 136.485 68.5057 122.906C63.2329 114.096 50.9337 110.326 41.6298 114.669ZM177.829 195.866C179.014 196.333 178.738 198.292 177.63 198.921C176.522 199.55 175.141 199.267 173.907 198.953C173.331 198.807 172.72 198.635 172.329 198.188C171.417 197.144 172.464 195.378 173.815 195.067C175.167 194.755 176.538 195.358 177.829 195.866ZM220.443 120.439C215.371 120.529 210.047 121.147 205.907 124.078C204.537 125.047 203.294 126.316 202.794 127.917C202.293 129.518 202.715 131.485 204.104 132.426C207.614 134.803 209.045 139.251 209.703 143.44C210.361 147.628 210.519 152.014 212.428 155.8C213.412 157.753 214.823 159.456 216.303 161.065C224.329 169.791 234.797 176.246 246.196 179.499C248.201 180.071 250.75 181.309 250.327 183.35C233.926 179.91 218.97 170.013 209.393 156.261C206.483 165.198 200.743 173.191 193.203 178.804C207.911 191.319 226.943 198.652 246.245 199.239C247.12 199.266 248.109 199.233 248.699 198.587C249.086 198.164 249.207 197.569 249.312 197.005C252.044 182.313 253.969 167.471 255.076 152.568C255.455 147.47 255.733 142.287 254.63 137.295C253.528 132.303 250.869 127.45 246.522 124.759C243.844 123.102 240.708 122.358 237.607 121.804C231.948 120.795 226.19 120.337 220.443 120.439ZM321.217 191.941C322.547 191.942 324.224 192.33 324.458 193.639C324.69 194.944 323.204 195.916 321.889 196.084C320.928 196.206 319.883 196.09 319.12 195.492C318.356 194.893 318.002 193.721 318.532 192.909C319.075 192.077 320.223 191.94 321.217 191.941ZM419.474 165.741C417.032 175.196 415.608 184.88 414.188 194.541C414.117 195.022 414.076 195.59 414.439 195.913C418.243 191.187 421.734 186.207 424.879 181.018C425.189 180.506 425.495 179.836 425.146 179.349C424.358 178.247 423.57 177.145 422.782 176.043C422.197 175.225 421.594 174.148 422.109 173.284C422.527 172.582 423.463 172.434 424.277 172.359L430.961 171.743C430.889 171.329 430.637 170.972 430.392 170.631C428.602 168.14 426.65 165.521 423.784 164.429C422.196 163.823 419.898 164.096 419.474 165.741ZM109.893 67.9289C105.006 68.749 99.7136 70.1622 96.8779 74.2253C95.2909 76.4993 94.707 79.3076 94.2408 82.0411C92.4069 92.7936 91.8341 103.761 92.538 114.646C113.603 104.845 138.25 102.983 160.549 109.508C162.44 110.062 164.78 111.739 163.787 113.441C147.061 107.254 128.43 106.332 111.173 110.836C105.589 112.293 100.163 114.297 94.6111 115.871C86.3601 118.211 77.8384 119.594 69.2711 119.984C84.8744 141.17 86.8935 171.505 74.2356 194.571C82.1111 193.081 89.5111 189.772 96.7726 186.378C107.614 181.312 118.409 175.969 129.926 172.716C141.443 169.464 153.895 168.4 165.318 171.966C166.655 172.383 167.391 170.455 167.444 169.056L169.92 104.2C170.295 94.3746 170.326 83.5111 163.894 76.0749C158.203 69.4948 148.92 67.4368 140.252 66.6967C130.134 65.8329 119.907 66.248 109.893 67.9289ZM260.812 188.305C261.132 188.514 261.462 188.777 261.536 189.152C261.688 189.912 260.763 190.396 260.018 190.607C258.935 190.914 257.819 191.222 256.699 191.104C255.58 190.986 254.441 190.343 254.073 189.279C253.705 188.215 254.444 186.819 255.57 186.798C257.415 186.764 259.266 187.297 260.812 188.305ZM419.702 147.494C415.628 149.779 410.759 150.614 406.156 149.817C406.745 151.459 409.327 152.032 409.339 153.776C409.347 154.838 408.347 155.586 407.778 156.483C407.34 157.173 407.151 157.988 406.976 158.786C405.336 166.296 404.395 173.958 404.168 181.642C404.129 182.966 404.458 184.714 405.774 184.859C408.501 185.157 411.07 186.687 412.633 188.942C413.913 180.885 415.193 172.829 416.473 164.773C416.77 162.904 417.02 160.816 415.925 159.272C414.417 157.149 415.729 154.239 417.051 151.995L419.702 147.494ZM177.08 182.315C178.471 182.593 180.053 183.794 179.526 185.111C179.202 185.922 178.222 186.249 177.349 186.296C176.476 186.343 175.569 186.213 174.752 186.523C173.79 186.888 172.658 186.036 172.54 185.014C172.423 183.993 173.133 183.001 174.059 182.552C174.984 182.103 176.072 182.114 177.08 182.315ZM321.2 181.071C322.077 181.192 323.002 181.385 323.64 181.999C324.278 182.612 324.453 183.78 323.774 184.347C323.55 184.535 323.266 184.634 322.989 184.728C321.785 185.14 320.496 185.542 319.26 185.237C318.025 184.932 316.951 183.621 317.378 182.422C317.871 181.039 319.746 180.87 321.2 181.071ZM401.014 164.509C400.085 164.733 399.408 165.508 398.796 166.241L395.109 170.656C394.389 171.519 395.657 172.722 396.777 172.816C397.897 172.91 399.206 172.646 400.003 173.439C400.838 174.269 400.494 175.717 399.81 176.676C399.126 177.635 398.156 178.418 397.742 179.521C397.124 181.169 398.147 183.236 399.833 183.743C400.749 184.019 402.034 183.595 402.042 182.639C402.089 177.049 402.416 171.462 403.02 165.905C403.123 164.956 401.942 164.286 401.014 164.509ZM213.924 167.285C214.63 167.755 215.087 168.506 215.558 169.211C219.603 175.268 226.369 179.431 233.599 180.311C235.272 180.515 237.245 180.718 238.083 182.179C236.508 183.739 233.941 183.549 231.781 183.047C224.127 181.266 217.112 176.843 212.206 170.704C211.423 169.725 210.708 168.235 211.581 167.336C212.172 166.727 213.218 166.816 213.924 167.285ZM397.038 140.52C391.632 141.849 386.234 143.723 381.852 147.157C377.471 150.591 374.212 155.808 374.247 161.375C374.29 168.434 370.822 175.43 365.177 179.668L374.682 180.787C375.794 180.918 377.042 181.013 377.913 180.308C379.188 179.278 378.862 177.299 378.54 175.692C378.218 174.084 378.289 171.96 379.818 171.369C381.717 170.635 383.287 173.269 383 175.285C382.713 177.3 381.543 179.239 381.909 181.242C386.411 181.88 390.926 182.418 395.452 182.855C394.551 182.117 394.453 180.716 394.908 179.644C395.364 178.572 396.248 177.752 397.108 176.966C398.023 176.128 396.703 174.653 395.47 174.52C394.236 174.387 392.785 174.684 391.915 173.799C390.834 172.699 391.645 170.854 392.568 169.617C394.358 167.217 396.577 164.324 395.425 161.56C392.615 154.821 393.233 146.752 397.038 140.52ZM189.727 122.106C188.974 140.555 189.077 159.038 190.036 177.478C197.083 173.654 202.233 166.925 205.426 159.571C207.374 155.084 208.678 150.138 207.9 145.309C207.319 141.708 205.614 138.381 203.631 135.319C200.114 129.887 195.524 124.983 189.727 122.106ZM353.139 113.267C355.67 112.801 357.604 115.925 357.173 118.462C356.742 120.999 354.898 123.017 353.432 125.132C351.407 128.055 350.023 131.364 348.653 134.645C345.393 142.452 344.125 151.081 344.999 159.495C345.514 164.45 346.871 169.538 350.221 173.225C353.571 176.911 359.313 178.754 363.727 176.447C367.519 174.465 369.41 170.096 370.279 165.908C371.149 161.719 371.304 157.335 372.946 153.385C375.977 146.098 383.449 141.695 390.842 138.932C379.729 137.422 369.675 129.679 365.376 119.321C364.144 116.35 363.219 113.001 360.662 111.051C358.104 109.101 353.289 110.055 353.139 113.267ZM259.207 172.697C259.988 172.847 260.755 173.074 261.492 173.374C262.709 173.869 264.015 175.237 263.233 176.292C262.806 176.868 261.985 176.938 261.267 176.956C259.959 176.989 258.549 176.993 257.481 176.238C256.413 175.483 256.043 173.655 257.121 172.913C257.712 172.505 258.501 172.562 259.207 172.697ZM318.121 169.583C319.179 169.673 320.232 169.819 321.275 170.022C321.79 170.123 322.346 170.263 322.671 170.677C323.162 171.303 322.853 172.286 322.231 172.784C321.61 173.282 320.783 173.422 319.996 173.545C318.795 173.733 317.512 173.912 316.403 173.411C315.294 172.911 314.538 171.445 315.215 170.435C315.806 169.553 317.063 169.493 318.121 169.583ZM15.6712 163.892C14.7751 163.882 14.4651 165.079 14.4923 165.974C14.5704 168.549 15.0914 171.109 16.0257 173.509C16.2857 173.774 16.5877 173.22 16.5514 172.851L15.6712 163.892ZM187.864 170.519C187.305 170.823 187.092 171.626 187.428 172.167L187.441 172.187L187.429 172.2C187.414 172.218 187.398 172.239 187.381 172.265C187.156 172.605 187.472 173.145 187.879 173.117C188.154 172.28 188.149 171.353 187.864 170.519ZM176.217 166.876C177.43 167.145 178.746 168.151 178.444 169.355C178.244 170.154 177.405 170.622 176.601 170.801C175.798 170.979 174.949 170.967 174.182 171.265C173.206 171.644 172.031 170.857 171.831 169.83C171.63 168.803 172.259 167.731 173.167 167.21C174.075 166.689 175.195 166.65 176.217 166.876ZM183.235 -3.05676C183.305 52.4799 184.581 108.015 187.061 163.496L187.322 169.233L187.361 167.387C187.433 163.075 187.37 158.761 187.306 154.448C186.566 103.896 185.826 53.3436 185.085 2.79133C185.054 0.674715 184.888 -1.73442 183.235 -3.05676ZM262.669 158.755C263.35 158.959 264.032 159.268 264.473 159.824C264.915 160.38 265.041 161.235 264.604 161.795C264.182 162.338 263.416 162.44 262.731 162.501L259.81 162.76C259.332 162.803 258.819 162.838 258.403 162.598C258.068 162.404 257.846 162.05 257.744 161.677C257.437 160.552 258.198 159.33 259.251 158.829C260.304 158.328 261.552 158.421 262.669 158.755ZM27.312 115.282C24.2742 118.267 22.6941 122.393 21.2342 126.394C17.1662 137.542 13.3004 149.375 15.3076 161.072C15.9282 161.185 16.2241 160.341 16.2701 159.712C17.0953 148.428 19.3501 137.249 22.9637 126.528C24.3425 122.437 26.0009 118.282 29.0637 115.24C29.0218 114.499 27.8413 114.762 27.312 115.282ZM400.775 139.67C400.245 139.8 399.902 140.3 399.625 140.77C397.011 145.206 395.78 150.444 396.146 155.579C396.297 157.7 396.979 160.143 398.959 160.916C400.569 159.37 402.179 157.824 403.789 156.278C404.045 156.033 404.307 155.778 404.448 155.453C404.801 154.64 404.296 153.732 403.832 152.977C401.538 149.243 399.814 144.511 401.726 140.567C401.964 140.076 401.305 139.539 400.775 139.67ZM434.232 134.884C433.975 135.018 433.776 135.239 433.584 135.456C428.831 140.832 424.241 146.351 419.821 152.004C418.898 153.185 417.935 154.516 418.026 156.012C418.107 157.342 419.042 158.5 420.176 159.2C421.309 159.899 422.63 160.218 423.926 160.527C424.273 160.609 424.65 160.689 424.975 160.545C425.276 160.412 425.466 160.118 425.639 159.839C428.345 155.477 431.088 151.027 432.366 146.055C432.639 144.995 433.558 144.254 434.293 143.443C435.737 141.848 436.582 139.725 436.631 137.575C436.647 136.847 436.562 136.079 436.141 135.485C435.719 134.891 434.877 134.547 434.232 134.884ZM318.472 156.163C319.127 156.325 319.849 156.573 320.143 157.181C320.66 158.251 319.446 159.368 318.31 159.719C317.429 159.991 316.448 160.086 315.603 159.717C314.758 159.347 314.117 158.416 314.309 157.514C314.649 155.914 316.884 155.769 318.472 156.163ZM177.301 153.826C177.611 154.102 177.897 154.428 178.014 154.827C178.25 155.628 177.691 156.511 176.923 156.841C176.156 157.17 175.26 157.043 174.486 156.727C173.672 156.395 172.878 155.76 172.775 154.887C172.657 153.888 173.561 152.969 174.557 152.825C175.552 152.68 176.552 153.154 177.301 153.826ZM265.391 145.044C266.186 145.368 266.268 146.57 265.721 147.229C265.173 147.889 264.259 148.109 263.405 148.181C262.55 148.253 261.666 148.221 260.867 148.534C259.64 149.014 258.306 147.532 258.598 146.247C258.89 144.962 260.27 144.164 261.586 144.102C262.902 144.041 264.171 144.547 265.391 145.044ZM317.111 143.112C318.237 143.167 319.35 143.463 320.355 143.973C320.791 144.195 321.242 144.501 321.366 144.974C321.622 145.948 320.399 146.617 319.41 146.807C318.533 146.976 317.643 147.076 316.751 147.107C315.65 147.145 314.321 146.933 313.882 145.922C313.541 145.136 313.957 144.173 314.654 143.677C315.352 143.181 316.255 143.07 317.111 143.112ZM389.713 71.1852C383.143 72.2453 376.543 73.124 369.924 73.8199C365.13 74.324 360.615 77.044 357.927 81.0464C357.375 81.8687 356.995 83.1808 357.848 83.6849C360.26 80.9019 363.535 78.8769 367.103 77.9618C368.378 77.6348 369.774 77.4564 370.976 77.9921C372.179 78.5279 373.038 80.0029 372.494 81.2017C371.659 83.0423 368.993 82.5276 366.976 82.4045C361.365 82.0623 356.512 88.4842 358.373 93.7887C359.679 88.725 366.909 86.5265 370.961 89.8324C375.013 93.1382 374.517 100.398 370.184 103.325C368.752 104.292 366.913 104.967 366.259 106.566C365.699 107.938 366.238 109.487 366.776 110.867C367.619 113.034 368.463 115.201 369.307 117.368C371.075 121.911 372.955 126.62 376.535 129.929C379.288 132.474 382.858 133.988 386.5 134.875C399.632 138.076 414.415 132.982 422.789 122.372C423.46 121.522 424.991 122.328 425.111 123.405C425.23 124.481 424.494 125.449 423.766 126.251C420.017 130.378 415.291 133.612 410.087 135.611C407.627 136.557 404.703 137.579 403.947 140.104C403.321 142.194 404.638 144.505 406.53 145.593C408.422 146.681 410.728 146.773 412.898 146.535C417.224 146.062 421.411 144.369 424.85 141.701C425.892 140.892 426.901 139.947 427.365 138.711C427.803 137.541 427.703 136.247 427.597 135.002L427.505 133.932C427.099 129.291 426.573 124.595 424.681 120.35C423.771 118.308 422.553 116.395 421.883 114.262C421.056 111.632 421.106 108.811 420.55 106.11C419.995 103.41 418.589 100.605 416.018 99.6095C416.696 97.884 418.391 96.7984 419.488 95.3035C420.585 93.8087 420.746 91.1973 419.019 90.5222C418.193 90.1992 417.253 90.4774 416.466 90.8862C413.149 92.609 411.36 96.8244 412.424 100.407C413.119 102.745 409.425 104.314 407.437 102.902C405.448 101.489 404.958 98.7999 404.565 96.3924C403.045 87.06 399.994 76.9991 392.024 71.9119C391.327 71.4673 390.529 71.0535 389.713 71.1852ZM176.605 137.385C177.652 137.724 178.698 138.666 178.48 139.745C178.273 140.766 177.099 141.244 176.072 141.42C174.616 141.669 172.717 141.384 172.308 139.964C171.918 138.613 173.332 137.319 174.73 137.171C175.36 137.105 176.002 137.189 176.605 137.385ZM344.658 117.946C343.682 118.872 343.205 120.194 342.761 121.464C341.76 124.331 340.745 127.282 340.861 130.316C340.935 132.269 339.801 134.029 338.993 135.809C338.184 137.588 337.745 139.867 339.013 141.355C342.042 138.808 342.769 134.521 343.435 130.621C344.231 125.957 345.314 121.123 348.33 117.478C347.274 116.643 345.635 117.02 344.658 117.946ZM264.848 130.943C265.628 131.194 266.51 131.695 266.519 132.514C266.531 133.51 265.305 133.968 264.325 134.147C263.834 134.237 263.343 134.327 262.852 134.417C261.6 134.646 260.259 134.865 259.095 134.35C257.932 133.835 257.157 132.264 257.916 131.243C258.408 130.583 259.311 130.403 260.133 130.352C261.723 130.254 263.331 130.455 264.848 130.943ZM151.027 116.558C152.397 117.213 153.929 118.504 153.422 119.935C139.312 116.859 124.238 118.38 111.028 124.214C105.084 126.839 99.5041 130.309 93.3521 132.402C91.2474 133.118 88.9497 133.667 86.8235 133.018C84.6974 132.369 82.9242 130.113 83.5461 127.978C84.1299 125.975 86.3608 125.023 88.3374 124.354C98.0794 121.056 107.991 118.259 118.02 115.978C128.963 113.488 140.904 111.716 151.027 116.558ZM353.622 116.389C352.615 116.385 351.768 117.124 351.105 117.883C349.498 119.724 348.356 121.933 347.507 124.224C346.451 127.071 345.827 130.077 345.662 133.108C348.579 128.09 351.699 123.188 355.01 118.42C355.584 117.592 354.63 116.393 353.622 116.389ZM335.744 125.33C335.468 125.332 335.176 125.342 334.943 125.49C334.418 125.823 334.491 126.601 334.647 127.203C335.141 129.114 335.825 130.975 336.686 132.75C337.203 130.248 338.033 127.811 339.15 125.514C338.02 125.385 336.882 125.323 335.744 125.33ZM114.65 118.881C106.298 121.448 97.9467 124.014 89.5951 126.581C88.5974 126.888 87.4398 127.361 87.2273 128.383C87.9063 129.374 89.1997 129.795 90.3994 129.736C91.5991 129.678 92.7379 129.218 93.8498 128.763C102.323 125.302 110.796 121.84 119.268 118.378C117.755 117.955 116.152 118.419 114.65 118.881ZM202.782 123.566C202.333 124.344 201.399 124.674 200.7 125.237C200 125.8 199.589 127.012 200.328 127.523C201.46 126.39 202.591 125.258 203.722 124.125C203.488 123.835 203.148 123.633 202.782 123.566ZM290.9 122.963C296.971 123.595 303.097 123.918 309.177 123.395C310.751 123.259 312.632 123.196 313.566 124.469C312.387 125.669 310.534 125.814 308.854 125.886C302.542 126.157 296.23 126.427 289.918 126.697C288.687 126.75 287.127 126.593 286.728 125.427C286.413 124.51 287.128 123.497 288.026 123.129C288.923 122.761 289.935 122.863 290.9 122.963ZM384.754 116.33C386.223 118.117 386.759 120.63 386.147 122.861C385.996 123.412 385.776 123.952 385.424 124.401C384.501 125.58 382.796 125.928 381.34 125.579C379.884 125.23 378.636 124.303 377.525 123.3C376.379 122.265 375.305 121.086 374.755 119.644C374.205 118.202 374.269 116.448 375.244 115.252C376.048 114.266 377.347 113.793 378.616 113.7C380.923 113.531 383.285 114.543 384.754 116.33ZM180.107 120.484C180.687 120.953 180.59 121.926 180.095 122.484C179.599 123.041 178.844 123.279 178.121 123.459C177.266 123.673 176.368 123.839 175.511 123.636C174.654 123.432 173.851 122.767 173.746 121.893C173.593 120.625 174.92 119.633 176.182 119.434C177.56 119.216 179.022 119.608 180.107 120.484ZM378.032 116.751C377.389 117.584 377.812 119.086 378.855 119.228C380.059 119.393 380.995 120.658 380.801 121.858C380.649 122.8 381.798 123.587 382.709 123.304C383.62 123.022 384.148 122 384.127 121.046C384.107 120.092 383.652 119.203 383.136 118.4C382.567 117.516 381.871 116.656 380.911 116.226C379.951 115.795 378.676 115.918 378.032 116.751ZM374.826 31.2309C366.074 32.8339 357.404 36.6566 351.76 43.5341C346.115 50.4116 344.163 60.7044 348.576 68.4303C350.135 71.1605 352.516 73.5413 355.51 74.5023C358.503 75.4633 362.124 74.7561 364.121 72.3279C366.387 69.5736 370.961 72.2152 374.371 71.1697C379.087 69.7236 383.99 68.8844 388.919 68.6795C390.088 68.6309 391.292 68.6235 392.383 69.0465C393.567 69.5056 394.503 70.4258 395.402 71.3221C398.522 74.4306 401.706 77.6289 403.553 81.6271C406.483 87.9673 405.758 95.6982 409.458 101.622C409.89 97.9072 410.323 94.1927 410.755 90.4782C410.916 89.1 411.094 87.6686 411.839 86.498C412.584 85.3274 414.074 84.5058 415.378 84.9796C417.678 85.8153 420.074 86.7128 421.725 88.5198C423.376 90.3268 423.987 93.3386 422.4 95.2019C420.866 97.0025 422.606 99.6048 423.421 101.826C424.832 105.673 423.173 110.069 424.282 114.014C425.201 117.282 427.856 119.722 430.392 121.979C431.134 122.638 431.999 123.341 432.988 123.251C433.815 123.176 434.481 122.559 435.046 121.95C438.417 118.317 440.725 113.709 441.618 108.834C441.979 106.867 441.294 104.001 439.313 104.27C439.855 99.5505 444.193 96.3354 446.741 92.3261C449.488 88.0018 450.137 82.6847 450.263 77.5627C450.389 72.415 449.887 66.8204 446.456 62.9802C442.335 58.3666 434.326 58.0219 429.824 62.2642C428.701 63.3218 427.222 64.7194 425.883 63.9542C426.933 62.0716 427.982 60.189 429.031 58.3064C430.742 55.2384 432.488 52.0589 432.836 48.5637C433.522 41.6673 428.272 35.1377 421.78 32.7125C415.288 30.2873 407.958 31.293 401.446 33.6648C399.814 34.2593 397.885 35.5362 398.328 37.216C398.585 38.1887 399.57 38.776 400.075 39.6458C400.391 40.188 400.359 40.3617 400.003 40.8004C399.787 41.0654 399.4 41.8327 399.051 41.6831C395.359 37.4071 391.366 32.9305 385.953 31.3134C382.365 30.2416 378.509 30.5562 374.826 31.2309ZM332.894 119.417C332.433 119.144 331.549 118.964 331.636 119.494C331.885 120.789 333.051 121.752 334.31 122.148C335.568 122.544 336.918 122.477 338.235 122.407C338.751 122.379 339.3 122.339 339.71 122.026C340.054 121.764 340.242 121.351 340.417 120.956C340.717 120.278 341.017 119.6 341.317 118.923C338.869 117.33 335.407 120.906 332.894 119.417ZM262.207 114.993C263.237 115.071 264.259 115.25 265.253 115.529C266.114 115.77 267.104 116.274 267.146 117.168C267.203 118.344 265.672 118.825 264.499 118.926C263.305 119.029 262.111 119.132 260.917 119.236C260.047 119.311 259.063 119.349 258.423 118.755C257.564 117.956 257.911 116.408 258.841 115.694C259.771 114.98 261.038 114.906 262.207 114.993ZM290.132 114.738C295.842 115.502 301.631 115.686 307.379 115.287C308.053 115.24 308.788 115.2 309.343 115.586C309.898 115.971 310.036 116.965 309.43 117.264C309.246 117.355 309.035 117.365 308.83 117.372C301.881 117.635 294.932 117.897 287.983 118.159C287.349 118.183 286.652 118.186 286.164 117.781C285.292 117.054 285.793 115.501 286.793 114.965C287.794 114.428 289.006 114.587 290.132 114.738ZM345.581 109.078C343.362 109.197 341.104 109.403 339.056 110.263C337.007 111.124 335.17 112.742 334.558 114.878C334.434 115.312 334.388 115.845 334.72 116.15C334.979 116.387 335.369 116.39 335.72 116.377C339.405 116.232 343.075 115.683 346.641 114.743C348.414 114.276 350.552 113.149 350.312 111.331C350.186 110.374 349.36 109.626 348.448 109.309C347.536 108.992 346.545 109.026 345.581 109.078ZM89.6346 108.81C89.2809 110.682 89.1944 112.605 89.3786 114.501C89.837 114.996 90.4402 114.03 90.4014 113.357C90.3129 111.819 90.0553 110.292 89.6346 108.81ZM208.303 106.52C221.078 107.098 233.853 107.675 246.627 108.252C247.819 108.306 249.404 108.763 249.333 109.954C247.809 110.933 245.841 110.731 244.042 110.521C232.654 109.194 221.134 109.011 209.71 109.975C208.724 110.058 207.677 110.139 206.797 109.686C205.916 109.234 205.349 108.028 205.92 107.219C206.42 106.513 207.438 106.481 208.303 106.52ZM177.327 105.18C177.889 105.265 178.474 105.412 178.883 105.808C179.816 106.712 179.24 108.431 178.117 109.087C176.994 109.742 175.604 109.65 174.309 109.538C172.888 109.415 172.427 107.284 173.361 106.205C174.294 105.126 175.917 104.967 177.327 105.18ZM222.256 100.455C243.076 101.535 263.895 102.615 284.715 103.696C285.83 103.753 287.306 104.182 287.247 105.297C283.814 105.916 280.259 105.847 276.852 105.096L279.877 107.699C278.435 108.608 276.899 109.547 275.194 109.585C273.49 109.623 271.634 108.366 271.682 106.662C272.545 106.264 273.407 105.866 274.27 105.468C257.451 104.027 240.555 103.502 223.679 103.894C222.705 103.917 221.666 103.925 220.844 103.403C220.021 102.881 219.605 101.612 220.286 100.915C220.773 100.417 221.561 100.419 222.256 100.455ZM357.066 103.239C356.316 103.281 355.679 103.779 355.098 104.255C354.408 104.819 353.719 105.382 353.03 105.947C352.308 106.537 351.525 107.242 351.483 108.175C351.46 108.68 351.845 109.281 352.339 109.167C352.476 109.135 352.596 109.052 352.711 108.97C354.353 107.812 355.995 106.654 357.637 105.496C357.972 105.26 358.33 104.992 358.438 104.597C358.637 103.872 357.816 103.198 357.066 103.239ZM382.605 97.1733C382.67 98.8621 381.831 100.445 381.533 102.108C381.235 103.772 381.803 105.89 383.448 106.28C383.933 106.394 384.074 107.089 383.8 107.505C383.526 107.922 383.008 108.101 382.518 108.19C380.994 108.467 379.19 107.978 378.49 106.597C378.139 105.905 378.112 105.101 378.092 104.326C378.039 102.251 377.985 100.176 377.932 98.1008C377.896 96.6822 378.055 94.9352 379.353 94.3625C380.899 93.6806 382.54 95.4845 382.605 97.1733ZM359.958 106.586C359.658 106.726 359.453 107.051 359.456 107.382L359.382 107.401C359.548 107.771 360.148 107.829 360.382 107.498C360.616 107.167 360.362 106.621 359.958 106.586ZM357.086 95.7412C356.397 95.7588 355.626 95.8839 355.219 96.4396C354.784 97.0339 354.96 97.9058 355.407 98.4912C355.855 99.0767 356.514 99.4533 357.129 99.859C359.719 101.568 361.788 104.057 362.993 106.916C363.813 105.837 364.633 104.758 365.452 103.679C366.064 102.873 366.71 101.952 366.581 100.948C366.488 100.223 366.001 99.6131 365.484 99.0961C363.293 96.9047 360.183 95.6624 357.086 95.7412ZM93.0362 79.0476C92.0732 79.1263 91.5742 80.2075 91.2715 81.125C90.8103 82.5228 90.3491 83.9206 89.8878 85.3185C89.3839 86.8457 88.8764 88.3899 88.7382 89.9922C88.6466 91.054 88.7191 92.1223 88.7917 93.1856C89.0182 96.5062 89.2448 99.8268 89.4713 103.147C89.5151 103.789 90.0036 104.676 90.5344 104.312C90.314 95.8304 91.1566 87.3215 93.0362 79.0476ZM365.374 91.2574C364.499 91.5903 363.571 92.1755 363.444 93.1022C363.318 94.029 364.682 94.889 365.212 94.1178C365.887 93.1336 367.575 93.6475 368.133 94.7025C368.692 95.7575 368.528 97.0264 368.52 98.2199C368.511 99.4135 368.785 100.783 369.826 101.368C370 99.771 370.175 98.1742 370.349 96.5775C370.565 94.6064 370.552 92.1617 368.82 91.1971C367.783 90.6196 366.483 90.835 365.374 91.2574ZM393.439 90.3554C394.858 90.4186 396.373 90.9131 397.148 92.1024C397.924 93.2918 397.513 95.2399 396.145 95.6229C394.195 96.1695 392.37 93.4199 390.462 94.1026C389.269 94.5296 388.533 96.2072 387.289 95.9666C386.518 95.8173 386.09 94.8932 386.244 94.1226C386.397 93.3521 386.973 92.7352 387.588 92.2473C389.23 90.947 391.347 90.2622 393.439 90.3554ZM176.203 88.951C177.57 89.172 178.909 90.6691 178.188 91.8521C177.986 92.1842 177.657 92.4202 177.312 92.6013C176.46 93.0501 175.408 93.2028 174.527 92.8112C173.647 92.4197 173.027 91.4039 173.265 90.4702C173.565 89.2968 175.007 88.7578 176.203 88.951ZM395.663 81.1654C396.605 82.0602 397.338 83.7453 396.284 84.5046C395.17 85.3078 393.835 83.952 392.768 83.086C391.577 82.1183 389.962 81.6912 388.448 81.9431C387.48 82.1041 386.567 82.5248 385.596 82.666C384.625 82.8071 383.494 82.584 382.964 81.7578C382.408 80.891 382.761 79.6641 383.526 78.9747C384.291 78.2853 385.354 78.033 386.38 77.9392C389.743 77.6316 393.216 78.8385 395.663 81.1654ZM176.155 78.4229C176.995 78.9153 177.447 80.0761 176.98 80.93C176.363 82.0582 174.744 82.0429 173.496 81.7328C173.046 81.6211 172.573 81.4737 172.276 81.1187C171.565 80.2714 172.362 78.9424 173.353 78.4532C174.226 78.0226 175.316 77.9306 176.155 78.4229Z" fill="#00160A"/>
</svg>
