<svg width="500" height="189" viewBox="0 0 500 189" fill="none" xmlns="http://www.w3.org/2000/svg">
<path fill-rule="evenodd" clip-rule="evenodd" d="M298.142 397C360.156 397 414.577 350.973 384.014 288.457C353.452 225.941 467.011 227.96 500.369 184.753C541.05 132.061 529.269 -91.6112 268.111 44.7501C226.277 66.5936 118.837 22.2783 83.1982 44.2667C41.2484 70.1493 -17.7727 123.148 41.2484 177.439C70.321 204.181 -33.9112 273.591 11.7405 335.765C56.285 396.431 87.5099 338.599 155.328 350.973C223.147 363.347 252.086 397 298.142 397Z" fill="#707EFF"/>
<path fill-rule="evenodd" clip-rule="evenodd" d="M297.179 194.655C295.742 194.159 294.194 193.056 293.199 191.788L291.541 189.747L297.4 183.957C306.409 175.133 313.318 166.088 319.287 155.334C321.277 151.749 326.307 139.782 326.307 138.624C326.307 138.238 326.915 136.694 327.634 135.094C328.739 132.778 329.568 131.896 331.945 130.572C334.764 128.918 337.969 128.366 339.351 129.304C342.004 131.069 342.004 136.639 339.351 146.235C336.422 156.768 332.497 164.323 324.372 175.188C323.101 176.842 320.725 180.096 319.011 182.357C314.424 188.424 311.439 191.347 307.404 193.608C303.424 195.814 301.103 196.089 297.179 194.655ZM336.864 189.692L340.843 191.457C341.669 191.837 350.772 196.201 361.707 201.444C379.336 209.896 401.727 220.631 401.864 220.631C402.085 220.631 403.122 218.238 403.356 215.447C403.909 209.436 405.954 201.274 408.33 195.593C409.436 193.056 410.32 189.886 410.32 189.61C410.32 189.484 409.422 189.123 407.951 188.53C406.199 187.826 403.637 186.794 400.813 185.446C386.885 178.773 359.636 165.151 356.264 163.11C352.948 161.18 352.285 161.015 352.285 162.283C352.285 163.938 348.913 171.603 346.315 175.74C344.933 178.001 342.225 182.082 340.291 184.784L336.864 189.692ZM400.924 210.704C402.509 211.62 399.763 212.965 399.1 213.185C395.195 213.516 390.597 212.784 386.83 210.593C384.86 209.2 369.35 200.602 359.062 194.899C354.359 192.292 350.747 190.29 350.018 189.857C347.697 188.479 345.486 186.99 345.099 186.548C343.939 185.059 345.044 184.398 348.305 184.673C350.266 184.839 397.501 208.724 400.924 210.704ZM176.243 355.084C180.507 354.154 187.125 351.367 191.34 349.592C192.37 349.158 193.257 348.785 193.93 348.514C197.358 347.135 207.804 332.418 211.562 315.818C214.271 303.575 215.652 286.148 214.105 283.225C213.172 281.532 218.715 287.211 222.844 291.44L222.846 291.443C224.097 292.724 225.217 293.872 225.988 294.641C250.087 318.52 285.958 337.712 323.212 346.702C341.783 351.224 354.993 352.823 372.735 352.823C402.527 352.823 426.018 346.977 447.353 334.128C448.366 333.517 449.316 332.956 450.221 332.421C457.658 328.028 462.089 325.411 474.215 311.792C487.817 296.516 499.916 261.055 503.951 248.812C505.72 243.297 510.031 221.362 510.031 215.888C510.031 209.407 507.765 206.347 504.67 203.203C499.198 197.854 491.791 195.924 485.656 198.24L482.782 199.343L481.898 196.42C480.626 192.008 477.973 188.479 473.883 185.831C467.803 181.806 466.919 181.53 461.447 181.53C457.191 181.53 456.03 181.75 453.322 183.019L450.171 184.453L449.508 182.467C448.237 178.386 443.973 172.697 440.665 171.052C437.731 169.592 432.652 169.458 429.113 170.114C421.375 171.548 415.848 175.133 413.581 180.151C412.918 181.695 412.089 182.909 411.757 182.909C411.481 182.909 400.592 179.874 387.604 174.139C385.416 173.17 383.36 172.261 381.43 171.407L381.422 171.403C358.097 161.088 353.041 158.852 353.501 156.051C353.888 153.68 353.777 152.356 353.114 150.315C351.953 146.896 350.627 145.959 346.868 145.959C343.883 145.959 343.883 145.959 344.215 144.47C345.984 136.032 345.928 131.179 344.049 128.09C342.778 126.05 341.286 125.223 337.859 124.726C335.869 124.451 334.929 124.616 332.718 125.829C331.226 126.601 329.955 127.153 329.844 127.043C329.734 126.932 330.121 123.899 330.729 120.314C335.261 93.7876 331.76 70.9322 320.208 46.6665C320.142 46.5288 320.07 46.376 319.992 46.209L319.897 46.0055L319.842 45.8875L319.822 45.8456C316.31 38.3228 302.19 8.07309 261.804 -7.19049C259.976 -7.88137 258.247 -8.5494 256.584 -9.19143C242.828 -14.5044 233.683 -18.0364 211.617 -17.9997C186.886 -17.9586 178.51 -14.4702 162.204 -7.02504C159.938 -5.97721 157.948 -5.37056 157.783 -5.59116C157.617 -5.86691 156.567 -6.5287 155.516 -7.08019C154.466 -7.63168 152.2 -9.01041 150.542 -10.1134C145.789 -13.312 142.859 -14.6356 141.367 -14.3047C139.653 -13.8635 139.653 -12.4297 141.367 -11.7679C142.085 -11.4921 142.914 -10.5546 143.246 -9.61705C143.965 -7.63168 144.794 -7.41108 145.291 -9.06556C145.512 -9.6722 145.844 -10.1134 146.01 -10.0031C146.073 -9.97172 146.283 -9.87344 146.604 -9.72348L146.604 -9.72337C147.412 -9.346 148.92 -8.64149 150.542 -7.85228C152.808 -6.74929 155.295 -5.59116 155.959 -5.31542C157.175 -4.87422 156.788 -4.54333 151.537 -1.45498C131.031 10.5675 114.339 29.2631 104.998 50.5507C103.561 53.7493 102.289 55.7347 100.963 56.8377C97.5914 59.6503 90.9587 67.6469 89.4111 70.7904C88.582 72.5 86.8133 75.1472 85.4315 76.6913C84.105 78.2355 82.6679 80.2209 82.1705 81.0481C81.7283 81.9305 81.2861 82.5372 81.1203 82.4269C81.0098 82.2614 81.1756 79.5591 81.5625 76.4156C82.3916 69.0808 82.3916 67.1506 81.7283 66.9851C80.7334 66.7094 79.2963 70.5698 78.6883 75.3678C78.2462 78.2907 78.1356 82.7026 78.412 87.2248L78.7436 94.3942L74.8193 88.0521C73.468 85.9285 72.1373 83.8049 71.1933 82.2983L71.1929 82.2978L71.1922 82.2966L71.1918 82.2959L71.1874 82.2889C70.5899 81.3354 70.1481 80.6304 69.9554 80.3312C68.5183 78.2355 67.6892 75.092 68.2972 74.0442C68.6288 73.4376 68.5736 73.1618 68.0208 73.1618C66.8601 73.1618 64.594 76.8568 63.1016 81.1033C62.3831 83.0887 61.6646 84.7431 61.4435 84.7431C60.6144 84.7431 61.0013 64.9997 61.8856 58.6576C63.7096 46.1387 68.5183 30.697 70.6739 30.697C71.1161 30.697 71.503 30.4764 71.503 30.1455C71.503 29.1528 70.0659 29.5388 68.9052 30.8073C66.3074 33.6199 62.8805 42.2783 60.7249 51.4882C59.2326 57.8303 58.293 65.9924 57.9613 74.8714C57.685 82.5372 57.7955 83.8056 58.901 87.9969C60.1722 92.6846 61.1671 94.0633 62.8805 93.4015C63.4885 93.1809 63.7649 92.3537 63.7649 90.8095C63.7649 89.5963 64.4282 85.9564 65.2572 82.7026L66.6943 76.8568L67.3023 79.2834C68.0761 82.096 72.6084 90.8095 76.6985 97.1517C79.5174 101.453 79.5727 101.729 80.5123 108.457C81.0098 112.263 82.5574 121.518 86.1501 135.756C89.3244 148.336 107.169 160.815 111.625 163.931L111.626 163.931L111.626 163.932L111.627 163.933C112.213 164.342 112.567 164.59 112.625 164.654C113.178 165.261 113.952 165.592 114.394 165.426C114.891 165.261 115.168 165.481 115.168 166.088C115.168 166.64 115.555 167.357 115.997 167.687C116.55 168.073 116.937 169.562 117.047 172.155C117.323 177.339 121.193 187.265 124.177 190.519C126.112 192.615 130.147 193.497 134.624 192.725C137.553 192.284 138.382 191.953 138.106 191.291C137.94 190.85 138.99 191.402 140.427 192.505C157.23 205.299 174.254 212.965 193.378 216.274C200.784 217.542 213.055 218.259 219.742 217.763C225.657 217.377 225.657 217.377 225.38 218.535C224.993 220.079 225.491 221.017 233.616 234.749C240.083 245.613 240.635 246.33 247.821 253.665C263.076 269.382 279.713 281.57 298.56 291.001C316.303 299.825 344.629 307.16 370.524 309.476C396.42 311.792 415.018 288.078 414.963 282.012C414.853 273.684 413.692 268.224 410.873 262.93C408.109 257.801 406.285 256.036 397.995 250.521C388.764 244.4 383.071 239.381 379.313 234.032C376.936 230.668 376.052 226.862 376.052 224.822C376.052 223.498 377.765 220.52 380.308 219.914C382.629 219.307 383.071 219.362 385.669 220.631C387.217 221.348 391.251 223.223 394.568 224.822C397.939 226.366 401.2 227.91 401.864 228.241C403.819 228.783 404.646 232.602 405.094 234.672L405.094 234.673L405.094 234.674C405.194 235.135 405.275 235.51 405.346 235.741C406.12 238.609 409.782 242.312 412.144 243.573C416.293 245.786 426.516 246.082 429.335 243.049C430.053 242.277 432.436 241.328 432.927 241.615C433.417 241.903 435.193 244.29 435.193 246.22C435.248 249.529 436.961 252.562 440.609 255.595C447.518 261.331 452.88 262.709 458.296 260.173C461.115 258.849 463.426 258.332 463.426 258.332C463.426 258.332 465.73 261.265 465.869 262.268C466.954 270.104 478.581 273.389 481.676 273.72C482.386 273.79 483.766 273.488 485.169 273.18C487.043 272.769 488.957 272.349 489.359 272.802C490.149 273.69 476.149 296.792 474.215 299.714C455.809 327.289 419.993 344.165 376.162 345.929C347.697 347.088 312.71 339.146 282.366 324.697C262.965 315.377 245.776 303.961 227.37 287.968C224.164 285.21 220.461 282.067 219.134 280.964C217.808 279.916 214.657 276.331 212.225 273.022C208.135 267.507 205.814 265.522 205.814 267.397C205.814 268.224 208.467 273.298 211.507 278.317C212.723 280.302 213.497 281.681 213.22 281.46C212.944 281.24 212.06 285.21 211.231 290.284C208.522 306.553 204.045 322.601 199.513 332.583C197.026 337.988 192.257 342.024 190.819 343.127C185.513 347.153 177.57 348.963 166.571 350.066C152.642 351.444 132.136 348.356 116.494 342.51C112.349 340.966 101.681 336.499 100.963 336.003C100.92 335.96 100.675 334.373 100.333 332.159C100.237 331.535 100.133 330.86 100.023 330.157C98.0335 316.535 95.2699 264.088 95.2699 239.823C95.2699 229.785 95.1594 227.579 94.4961 227.579C93.1143 227.579 92.5616 228.903 91.9536 233.646C90.5718 244.455 90.8482 300.873 92.3405 312.73L92.6721 315.432L90.7929 314.384C87.9188 312.73 76.9749 301.645 73.1611 296.516C69.9325 292.131 68.0135 286.515 66.5778 282.314L66.5775 282.313L66.5772 282.312L66.5767 282.311L66.5758 282.308C66.2427 281.333 65.9356 280.435 65.6441 279.645C57.6297 257.475 60.4486 232.598 71.503 210.207C80.8992 191.126 92.4511 180.537 109.364 175.408C112.128 174.581 114.56 173.699 114.836 173.478C115.886 172.485 109.143 172.982 105.44 174.14C93.3907 177.835 80.7887 187.927 72.2215 200.832C60.1722 218.921 54.7556 245.613 58.5693 268.39C59.4537 273.794 63.0464 285.486 64.0413 286.313C64.1293 286.401 64.5839 287.353 65.2715 288.792C67.1725 292.771 70.8543 300.478 73.4928 303.961C76.6985 308.318 86.3711 317.803 90.406 320.726L92.9485 322.546L93.3354 327.013C94.054 335.561 94.3303 336.333 98.1994 339.201C107.872 346.536 126.941 353.375 144.186 355.801C152.2 356.904 169.611 356.518 176.243 355.084ZM363.063 303.297C330.95 300.485 292.149 285.207 264.071 261.604C252.242 251.622 236.877 232.21 230.797 221.456C229.526 219.25 228.586 218.202 227.481 217.926C226.32 217.596 227.315 217.265 232.068 216.493C252.132 213.073 271.643 204.746 287.395 192.889L289.717 191.179L290.38 192.778C291.872 196.363 297.621 200.003 301.877 200.003C303.59 200.003 309.338 197.411 312.821 195.04L315.197 193.44L317.132 195.37C318.9 197.135 319.232 197.246 322.548 197.246C326.362 197.246 330.95 195.536 333.492 193.109L334.874 191.841L338.798 194.433C340.899 195.922 346.758 199.176 351.787 201.768C359.304 205.628 367.263 210.095 374.836 214.728L376.052 215.5L374.891 217.044C373.675 218.699 371.41 221.842 371.41 226.64C371.41 232.045 377.042 241.755 387.825 248.424C396.295 253.663 410.873 263.968 410.32 279.032C410.254 280.851 408.22 285.374 405.512 289.455C403.743 292.047 398.824 295.907 394.347 298.168C386.719 301.974 373.288 304.18 363.063 303.297ZM68.3525 55.7356C69.8449 56.0665 70.8397 56.5628 70.6187 56.7834C69.9001 57.5004 66.0864 57.1695 65.202 56.2871C63.8202 54.9635 64.1518 54.026 66.0864 53.6399C67.0813 53.4745 68.5736 52.6473 69.4027 51.82C70.2318 50.9928 70.9503 50.6068 70.9503 50.8825C70.9503 51.5994 68.1867 54.1363 66.8049 54.6878C65.9205 55.0738 66.1969 55.2393 68.3525 55.7356ZM90.3509 56.6184C91.9538 55.736 91.6222 55.1293 89.7429 55.4051C87.8637 55.6808 87.7531 55.4602 88.9691 53.5852C89.4666 52.8682 89.7429 51.8204 89.6324 51.2689C89.4666 50.552 89.0797 50.8829 88.1953 52.6476C87.532 53.9161 86.5924 54.9639 86.1503 54.9639C84.7685 54.9639 84.6579 56.0669 85.9844 56.5632C87.6979 57.2801 89.0244 57.2801 90.3509 56.6184ZM71.2267 26.5063C69.9002 26.7269 65.7547 28.3814 62.1068 30.2013C58.4036 31.9661 55.2531 33.4551 55.032 33.3999C49.3942 32.7933 57.2429 23.4179 71.503 13.822C85.1552 4.61209 94.3857 -0.241028 102.953 -2.72274C108.314 -4.26691 114.339 -4.48751 116.052 -3.21908C116.992 -2.50214 116.66 -2.44699 112.57 -2.39184C103.727 -2.39184 93.5013 2.13038 76.8644 13.2154C68.242 18.9509 58.2378 27.1681 58.2378 28.4917C58.2378 28.7674 59.8406 28.2159 61.8304 27.3335C66.0864 25.4033 70.4529 24.4106 72.3874 24.8518C74.4325 25.4033 73.9903 26.1203 71.2267 26.5063ZM92.6169 31.2491C97.8125 30.2012 98.0336 30.1461 98.0336 29.5946C98.0336 29.3189 96.0438 29.0431 93.5566 28.9328L89.0795 28.7674L93.2249 24.0797C95.4911 21.4877 98.1441 18.8957 99.0837 18.289C101.129 16.9654 101.239 16.0279 99.5812 15.4764L98.3099 15.0904L99.6917 14.594C100.466 14.3183 101.903 14.208 102.898 14.3734C104.39 14.594 104.721 14.4837 104.556 13.7116C104.39 12.9396 103.782 12.7741 101.074 12.8293C93.1697 12.9396 89.7981 15.0352 95.9885 16.0279C97.702 16.3036 99.139 16.7448 99.139 17.0206C99.139 17.2412 98.8627 17.4618 98.531 17.4618C97.4809 17.4618 88.5821 26.4511 87.4766 28.6571C85.7632 31.9109 86.7028 32.4072 92.6169 31.2491ZM129.096 9.85073C127.494 9.96103 127.107 10.2368 127.217 11.0089L127.234 11.1212C127.296 11.5289 127.332 11.7632 127.241 11.8345C127.117 11.9309 126.761 11.7296 125.925 11.2563L125.78 11.1743C124.73 10.6228 124.619 10.3471 125.227 9.90588C125.614 9.57499 126.665 9.07865 127.494 8.9132L129.041 8.52715L127.881 7.31388C127.273 6.59694 126.941 5.93515 127.107 5.71455C127.549 5.27336 132.966 5.88 133.739 6.48664C134.071 6.76238 134.568 6.70724 134.9 6.37634C135.674 5.60425 136.724 6.21089 136.724 7.42417C136.724 8.08596 136.558 8.14111 136.061 7.64477C135.619 7.20358 135.232 7.20358 134.734 7.58962C134.292 7.97566 133.96 7.97566 133.684 7.53447C133.518 7.25873 132.468 6.98298 131.363 6.98298C130.342 6.98298 129.86 6.98298 129.762 7.17713C129.674 7.35112 129.895 7.68102 130.312 8.30656C131.194 9.68105 131.142 9.68527 129.115 9.84921L129.096 9.85073ZM120.695 -4.81764C120.695 -5.53458 120.032 -6.80301 119.203 -7.63025L117.655 -9.17442L125.946 -8.84353C130.534 -8.62293 135.729 -8.12659 137.553 -7.63025C139.377 -7.18906 141.478 -6.85816 142.251 -6.85816C143.412 -6.85816 143.191 -7.07876 141.035 -8.23689C137.277 -10.1671 132.468 -11.1046 123.238 -11.7664C112.183 -12.5385 106.601 -11.4907 107.651 -8.73323C107.817 -8.18174 108.701 -7.90599 110.028 -7.90599C112.736 -7.90599 117.158 -6.30667 118.65 -4.81764C120.253 -3.21832 120.695 -3.21832 120.695 -4.81764ZM93.7223 141.216C98.1994 146.951 104.113 153.459 106.877 155.665C108.535 156.989 109.972 158.092 110.083 158.092C110.138 158.092 108.922 155.555 107.375 152.466C101.129 140.058 97.4808 127.704 95.7674 113.476C95.3805 110.332 94.7725 107.685 94.1092 106.582C92.7827 104.376 92.7827 101.508 94.1645 98.8062C94.883 97.3723 95.27 95.5524 95.27 93.567V90.5338L92.6169 93.2913C90.0191 95.9936 87.5319 97.0966 87.5319 95.4421C87.5319 94.2288 91.622 88.383 93.7776 86.5631C95.491 85.1292 95.7121 84.6329 96.2648 80.3312C96.6517 77.7392 97.5361 73.1618 98.2546 70.1286C99.0284 67.0954 99.4706 64.5034 99.3601 64.3931C98.9732 64.0071 85.9843 78.8916 84.2156 83.6402C83.8272 84.6827 82.7785 86.5079 81.9494 87.6109L80.5123 89.4519C80.5123 89.4519 80.9587 92.03 81.452 95.2698C81.9503 98.5431 82.1841 100.793 82.3924 102.798C82.6709 105.479 82.9038 107.719 83.6628 111.38C84.5472 115.902 85.4315 119.818 85.6526 120.094C85.8185 120.425 86.537 122.962 87.2555 125.774C88.8031 132.006 91.4009 138.183 93.7223 141.216ZM318.016 193.388L316.855 192.23C316.855 192.23 336.12 167.808 339.572 158.809C342.207 151.942 343.757 149.995 345.849 149.995C347.018 149.995 347.973 150.261 348.416 150.923C349.189 152.081 349.935 153.515 348.94 158.423C347.282 166.365 344.74 171.604 337.112 182.91C335.343 185.502 333.077 188.369 332.082 189.362C329.761 191.513 324.538 193.719 321.498 194.215C319.564 194.491 319.011 194.381 318.016 193.388Z" fill="#00160A"/>
<path d="M471.064 247.337C477.941 228.643 476.9 224.66 475.707 224.271C475.707 224.271 473.081 225.76 471.921 228.903C469.765 234.804 462.387 250.246 459.623 253.003C456.362 256.257 456.362 256.257 453.046 256.257C449.729 256.257 440.165 251.274 438.863 246.362C436.779 238.503 445.75 211.2 445.971 209.656L444.479 208.608C443.484 209.546 430.543 248.702 413.526 238.499C411.578 237.331 407.446 231.826 407.115 228.903C405.273 220.41 413.723 190.713 415.161 184.612C416.447 179.152 423.143 174.085 431.379 174.085C444.036 174.085 442.336 185.124 448.006 189.014C450.518 190.738 454.647 187.613 455.92 187.376C463.05 186.052 465.782 187.594 471.009 191.733C475.044 194.928 478.029 201.251 481.315 203.479C483.14 204.717 485.077 203.025 485.711 202.707C488.312 201.405 493.892 202.376 495.439 203.479C497.708 204.466 503.268 209.799 504.146 212.9C508.127 226.957 495.557 258.12 490.811 263.965C482.956 273.642 464.188 266.031 471.064 247.337Z" fill="white"/>
<path fill-rule="evenodd" clip-rule="evenodd" d="M153.306 196.113C168.45 205.654 184.066 211.886 201.864 213.595C215.903 214.919 234.832 213.099 248.429 208.687C259.87 204.992 275.346 194.756 285.682 186.098C305.746 169.332 318.403 143.145 323.93 115.35C324.704 111.434 325.884 101.592 325.829 91.8302C325.829 80.4695 320.818 49.4239 305.635 31.5231C274.321 -5.39724 222.847 -22.0288 179.586 -7.81822C163.981 -2.69199 147.365 6.59566 134.819 18.7285C119.011 34.1151 107.349 55.0718 102.706 76.4696C97.8417 99.0808 104.169 126.104 115.168 148.274C123.956 165.922 138.437 186.683 153.306 196.113ZM300.882 129.468C290.491 160.627 263.408 183.9 229.36 190.959C224.164 192.007 220.572 192.393 213.276 192.503C208.136 192.669 202.995 192.614 201.945 192.503C178.123 189.636 159.994 180.867 143.302 164.212C136.006 156.877 132.91 152.906 128.378 145.075C121.248 132.667 117.434 119.982 116.274 104.706C112.294 52.3695 149.824 8.74651 202.664 4.22428C223.391 2.45951 246.384 8.80166 263.85 21.1551C270.317 25.7324 282.034 37.3138 285.682 42.7184C287.174 44.8692 301.656 65.9913 304.198 78.1241C307.459 93.8968 306.188 113.64 300.882 129.468Z" fill="white"/>
<path fill-rule="evenodd" clip-rule="evenodd" d="M325.849 91.8303C325.849 128.847 308.3 169.316 285.652 186.599C274.846 194.845 260.726 204.83 248.429 208.687C230.408 214.34 201.864 213.595 201.864 213.595C201.864 213.595 230.985 209.711 241.776 205.378C272.722 192.952 289.615 173.877 300.046 155.575C320.637 119.447 325.849 90.931 325.849 91.8303Z" fill="#E7EAEE"/>
<path fill-rule="evenodd" clip-rule="evenodd" d="M202.497 185.885C187.74 184.01 173.093 178.771 161.265 170.995C154.245 166.417 143.633 155.663 138.492 147.998C131.141 136.968 126.277 125.166 123.901 112.481C122.187 103.272 122.243 89.0982 123.956 80.881C125.725 72.4984 127.991 66.1011 132.026 57.9941C136.724 48.6188 141.698 41.7251 149.16 34.28C161.873 21.5957 176.63 13.5439 194.207 9.68349C199.9 8.47021 220.516 7.47753 221.235 8.41506C221.401 8.69081 222.506 9.40775 223.667 10.0144C224.827 10.6762 227.923 12.9924 230.465 15.2536C234.279 18.5625 235.992 20.6582 239.309 25.8422C241.575 29.3717 243.399 32.5704 243.399 32.8461C243.399 33.4528 245.167 34.5558 246.162 34.5558C247.544 34.5558 248.484 30.4196 248.76 23.1399C248.926 19.114 249.258 15.805 249.479 15.805C250.252 15.805 258.764 20.4927 262.744 23.1399C270.537 28.3239 278.331 35.6036 284.079 43.2142C286.677 46.6334 287.064 47.5158 287.064 49.6115C287.064 51.5417 287.616 53.0307 289.33 56.0088C293.641 63.509 297.013 72.9395 299.058 83.3627C300.384 90.3667 300.384 103.602 299.002 110.937C295.244 131.122 284.079 151.196 269.542 163.936C257.217 174.69 244.117 181.308 228.641 184.561C223.335 185.72 207.417 186.492 202.497 185.885ZM162.978 148.164C163.476 147.613 163.807 146.785 163.641 146.399C163.592 146.284 162.9 145.959 161.887 145.484L161.886 145.484C159.525 144.376 155.419 142.45 153.64 140.443C146.565 132.392 143.968 126.38 142.365 113.972C140.817 101.894 142.117 93.7291 144.907 80.6065C146.268 74.205 149.886 68.9173 152.136 65.6276C153.666 63.3908 154.565 62.0777 153.692 61.9661C151.537 61.6352 151.205 61.8006 148.939 63.9514C144.075 68.584 141.864 72.2789 139.543 79.3932C135.95 90.5333 135.256 120.639 142.365 134.211C149.474 147.784 161.707 149.598 162.978 148.164ZM241.575 101.838C240.636 110.406 236.656 122.795 232.013 128.2C229.857 130.737 221.944 135.093 215.265 134.211C208.814 133.359 203.769 130.351 199.458 123.898C195.754 118.328 193.842 111.567 192.549 103.052C190.315 88.3476 200.065 71.2307 204.266 66.9842C208.522 62.6274 211.562 61.0833 215.431 61.0281C219.19 61.0281 221.622 61.8553 225.435 64.5576C232.4 69.4108 243.399 85.1907 241.575 101.838ZM167.068 56.2285C168.174 54.96 168.339 54.3534 168.008 51.982C167.787 49.776 167.345 48.8936 166.184 47.9561C164.139 46.3016 161.596 46.3016 159.717 48.0664C158.391 49.3348 158.225 49.776 158.391 52.8092C158.556 56.063 158.667 56.2836 160.491 57.2763C162.923 58.5999 165.299 58.2138 167.068 56.2285ZM201.558 22.2039C191.609 29.3181 187.298 32.241 182.821 34.9985C179.283 37.2044 178.178 37.2596 178.178 35.2742C178.178 34.2264 178.952 33.0682 180.941 31.2483L183.705 28.7115L178.344 27.9945C172.319 27.2224 166.46 25.568 165.189 24.2995C163.089 22.1487 164.913 21.6524 170.882 22.7554C173.535 23.1966 178.675 23.748 182.323 23.8583L188.956 24.1341L193.764 20.6597C204.321 13.0491 215.265 8.74749 220.516 10.0711C223.777 10.8432 223.39 11.7255 219.687 12.1667C215.431 12.6631 212.833 14.097 201.558 22.2039Z" fill="white"/>
<path d="M215.763 126.655C215.763 126.379 216.095 126.104 216.537 126.104C216.979 126.104 217.532 126.379 217.697 126.655C217.863 126.986 217.532 127.206 216.924 127.206C216.26 127.206 215.763 126.986 215.763 126.655Z" fill="white"/>
<path d="M219.079 126.161C219.079 125.554 220.461 125.003 222.009 125.003C223.225 125.058 223.225 125.058 222.174 125.83C220.959 126.768 219.079 126.933 219.079 126.161Z" fill="white"/>
<path d="M210.512 124.726C210.346 124.285 210.125 123.513 209.959 123.071C209.793 122.52 210.07 122.244 210.788 122.244C211.396 122.244 211.894 122.575 211.894 123.016C211.894 123.457 212.06 124.174 212.225 124.671C212.447 125.277 212.281 125.553 211.673 125.553C211.175 125.553 210.623 125.167 210.512 124.726Z" fill="white"/>
<path d="M213.441 123.349C213.165 121.694 213.773 121.143 215.763 121.143C216.371 121.143 216.868 121.694 217.089 122.632C217.532 124.231 216.813 125.003 214.878 125.003C213.994 125.003 213.607 124.617 213.441 123.349Z" fill="white"/>
<path d="M207.804 123.621C206.754 122.794 206.754 122.794 207.914 122.794C208.633 122.794 209.13 123.125 209.13 123.621C209.13 124.614 209.13 124.614 207.804 123.621Z" fill="white"/>
<path d="M218.913 123.569C218.195 122.852 218.527 120.701 219.411 120.37C221.014 119.763 221.732 120.039 222.064 121.473C222.285 122.3 222.396 123.017 222.285 123.072C221.843 123.569 219.245 123.899 218.913 123.569Z" fill="white"/>
<path d="M223.833 122.409C223.667 122.244 223.501 121.527 223.501 120.865C223.501 119.927 223.943 119.541 225.27 119.266C226.43 119.045 227.149 119.155 227.481 119.596C228.033 120.479 228.033 121.582 227.536 121.858C226.541 122.409 224.22 122.74 223.833 122.409Z" fill="white"/>
<path d="M205.261 120.701C205.261 120.039 205.759 119.488 206.477 119.322C207.914 118.936 207.859 118.881 208.135 120.315C208.246 121.142 207.969 121.473 206.809 121.583C205.593 121.749 205.261 121.528 205.261 120.701Z" fill="white"/>
<path d="M209.462 120.755C208.688 119.928 209.186 118.384 210.236 118.384C210.954 118.384 211.341 118.77 211.341 119.432C211.341 120.479 210.07 121.362 209.462 120.755Z" fill="white"/>
<path d="M212.778 119.099C212.336 118.051 213.276 117.279 215.1 117.279C215.929 117.279 216.316 117.61 216.316 118.327C216.316 118.934 215.818 119.485 215.1 119.706C213.276 120.147 213.165 120.147 212.778 119.099Z" fill="white"/>
<path d="M228.752 118.935C228.918 118.66 229.194 118.384 229.36 118.384C229.526 118.384 229.47 118.66 229.305 118.935C229.139 119.266 228.862 119.487 228.697 119.487C228.531 119.487 228.586 119.266 228.752 118.935Z" fill="white"/>
<path d="M217.753 117.997C217.311 116.894 217.863 116.342 219.632 116.067C220.627 115.956 221.069 116.177 221.18 116.949C221.567 118.769 218.416 119.762 217.753 117.997Z" fill="white"/>
<path d="M204.487 117.06C203.99 115.24 204.101 115.074 205.538 115.074C206.311 115.074 206.919 115.295 206.919 115.571C206.919 115.846 207.085 116.453 207.251 116.894C207.417 117.446 207.085 117.777 206.146 117.942C205.095 118.163 204.709 117.942 204.487 117.06Z" fill="white"/>
<path d="M222.948 116.451C222.948 115.459 223.335 115.018 224.385 114.742C225.933 114.356 226.817 115.128 226.817 116.893C226.817 117.61 226.375 117.83 224.883 117.83C223.169 117.83 222.948 117.665 222.948 116.451Z" fill="white"/>
<path d="M202.829 116.452C202.664 116.011 202.774 115.625 203.05 115.625C203.382 115.625 203.603 116.011 203.603 116.452C203.603 116.893 203.493 117.279 203.382 117.279C203.272 117.279 203.05 116.893 202.829 116.452Z" fill="white"/>
<path d="M208.412 116.896C207.638 116.179 208.08 114.634 209.075 114.359C209.683 114.193 210.291 114.248 210.457 114.414C211.12 115.02 210.733 116.62 209.904 116.951C208.854 117.337 208.854 117.337 208.412 116.896Z" fill="white"/>
<path d="M228.144 116.51C227.536 114.911 228.199 113.698 229.747 113.532C230.908 113.367 231.239 113.587 231.239 114.47C231.239 116.29 230.631 117.282 229.526 117.282C228.918 117.282 228.31 116.951 228.144 116.51Z" fill="white"/>
<path d="M212.281 115.79C211.618 115.184 211.839 114.081 212.778 113.75C213.828 113.364 216.039 114.467 215.431 115.074C214.657 115.735 212.668 116.232 212.281 115.79Z" fill="white"/>
<path d="M217.089 114.414C216.592 113.642 218.361 112.318 219.798 112.318C220.461 112.318 220.737 112.649 220.627 113.256C220.406 114.359 217.587 115.241 217.089 114.414Z" fill="white"/>
<path d="M201.945 114.026C201.945 113.75 201.779 113.143 201.613 112.647C201.447 112.151 201.503 111.765 201.834 111.765C202.553 111.765 203.106 113.86 202.442 114.302C202.166 114.467 201.945 114.357 201.945 114.026Z" fill="white"/>
<path d="M203.437 112.76C203.106 111.546 203.769 110.664 205.04 110.664C205.759 110.664 206.477 112.815 206.035 113.532C205.427 114.469 203.714 113.918 203.437 112.76Z" fill="white"/>
<path d="M207.306 113.033C206.477 112.205 206.975 110.22 208.08 109.944C208.909 109.724 209.351 109.999 209.794 110.992C210.125 111.709 210.291 112.426 210.181 112.536C209.628 113.033 207.638 113.419 207.306 113.033Z" fill="white"/>
<path d="M222.23 113.033C221.511 112.316 221.843 111.875 223.501 111.269C224.883 110.827 225.27 110.882 225.546 111.544C226.044 112.868 223.28 114.136 222.23 113.033Z" fill="white"/>
<path d="M227.094 111.764C226.541 110.881 227.315 110.109 228.752 110.109C230.465 110.109 230.963 111.543 229.415 111.984C227.757 112.426 227.481 112.37 227.094 111.764Z" fill="white"/>
<path d="M231.792 110.444C231.792 109.616 232.787 108.734 233.229 109.175C233.616 109.561 232.842 111.216 232.289 111.216C232.013 111.216 231.792 110.885 231.792 110.444Z" fill="white"/>
<path d="M201.226 109.725C201.005 109.56 200.839 108.843 200.895 108.236C200.895 107.188 200.95 107.188 201.447 108.401C202 109.725 201.89 110.387 201.226 109.725Z" fill="white"/>
<path d="M202.277 108.899C201.779 106.969 201.834 106.804 203.271 106.804C204.874 106.804 205.869 108.844 204.653 109.616C203.382 110.388 202.663 110.168 202.277 108.899Z" fill="white"/>
<path d="M221.29 110.003C221.29 109.837 221.567 108.955 221.898 107.962C222.672 105.756 224.385 105.646 224.772 107.797C224.938 108.624 224.993 109.341 224.938 109.396C224.662 109.727 221.29 110.223 221.29 110.003Z" fill="white"/>
<path d="M206.201 108.625C205.98 108.459 205.814 107.797 205.814 107.191C205.814 106.308 205.98 106.253 206.643 106.805C207.085 107.191 207.472 107.853 207.472 108.239C207.472 109.066 206.809 109.286 206.201 108.625Z" fill="white"/>
<path d="M226.099 107.52C225.767 105.81 226.486 105.038 228.199 105.259C229.028 105.369 229.305 105.865 229.305 107.078C229.305 108.457 229.083 108.788 227.868 108.898C226.652 109.064 226.375 108.788 226.099 107.52Z" fill="white"/>
<path d="M231.515 107.739C230.797 105.533 231.018 104.871 232.51 104.705C233.837 104.54 234.003 104.705 234.003 106.139C234.003 107.353 233.671 107.849 232.842 108.069C232.234 108.235 231.626 108.069 231.515 107.739Z" fill="white"/>
<path d="M200.397 104.598C200.397 103.55 200.508 103.109 200.674 103.661C200.784 104.157 200.784 105.039 200.674 105.591C200.508 106.087 200.397 105.646 200.397 104.598Z" fill="white"/>
<path d="M201.779 105.314C201.061 104.652 201.392 102.501 202.277 102.17C203.548 101.674 204.156 102.28 204.156 104.1C204.156 105.258 203.879 105.7 203.161 105.7C202.608 105.7 201.945 105.534 201.779 105.314Z" fill="white"/>
<path d="M205.095 103.826C204.874 102.999 204.764 102.116 204.985 101.951C205.538 101.399 205.869 102.282 205.703 103.881L205.538 105.425L205.095 103.826Z" fill="white"/>
<path d="M222.948 103.437C222.948 102.83 223.225 102.499 223.501 102.665C223.833 102.83 224.054 103.381 224.054 103.823C224.054 104.264 223.833 104.595 223.501 104.595C223.225 104.595 222.948 104.098 222.948 103.437Z" fill="white"/>
<path d="M225.436 104.155C224.662 103.327 225.27 101.838 226.541 101.507C228.144 101.121 228.199 101.121 228.697 102.721C229.028 103.713 228.807 103.934 227.37 104.155C226.486 104.32 225.601 104.265 225.436 104.155Z" fill="white"/>
<path d="M230.521 103.107C229.913 102.555 230.078 100.735 230.686 100.735C231.018 100.735 231.239 100.515 231.239 100.184C231.239 99.9081 230.908 99.6324 230.465 99.6324C229.526 99.6324 228.752 96.9301 229.526 96.158C230.521 95.1653 231.626 96.2131 232.289 98.9155C232.676 100.349 233.063 102.004 233.229 102.555C233.45 103.272 233.229 103.493 232.179 103.493C231.46 103.493 230.686 103.327 230.521 103.107Z" fill="white"/>
<path d="M233.505 100.185C233.118 98.5308 232.124 95.2218 231.405 92.7953C230.3 89.2657 230.189 88.3834 230.797 87.9973C231.184 87.7216 231.681 87.501 231.847 87.501C232.455 87.501 234.666 98.8065 234.445 101.012L234.279 103.218L233.505 100.185Z" fill="white"/>
<path d="M199.845 99.9099C199.845 99.0275 199.955 98.6966 200.121 99.2481C200.231 99.7445 200.231 100.517 200.121 100.903C199.955 101.233 199.845 100.847 199.845 99.9099Z" fill="white"/>
<path d="M200.95 99.7976C201.171 97.8674 202.774 97.4262 203.216 99.191C203.603 100.625 203.714 100.459 202.056 101.011C200.895 101.342 200.784 101.231 200.95 99.7976Z" fill="white"/>
<path d="M224.275 99.3014C223.833 97.702 224.772 96.7645 226.541 96.9851C227.867 97.1505 228.365 99.522 227.259 100.239C225.878 101.121 224.606 100.735 224.275 99.3014Z" fill="white"/>
<path d="M204.156 98.8596C204.156 97.9221 204.432 97.4258 205.04 97.4258C205.593 97.4258 205.814 97.8118 205.703 98.6391C205.427 100.404 204.156 100.569 204.156 98.8596Z" fill="white"/>
<path d="M199.237 96.544C199.237 95.9374 199.402 95.7719 199.568 96.2131C199.734 96.5992 199.679 97.0956 199.513 97.261C199.347 97.4816 199.181 97.1507 199.237 96.544Z" fill="white"/>
<path d="M200.287 96.3788C200.287 95.5516 200.618 95.2207 201.448 95.2207C202.221 95.2207 202.498 95.4964 202.387 96.1582C202.111 97.5921 200.287 97.7576 200.287 96.3788Z" fill="white"/>
<path d="M203.327 95.8827C202.94 94.89 202.94 94.89 204.598 94.4488C205.593 94.1179 205.814 94.2834 205.814 95.1106C205.814 96.4342 203.824 97.096 203.327 95.8827Z" fill="white"/>
<path d="M223.335 95.1113C222.948 93.7326 223.667 93.0156 225.601 93.0156C226.541 93.0156 226.817 93.3465 226.817 94.3944C226.817 95.2216 226.486 95.7731 226.043 95.7731C225.601 95.7731 224.883 95.9386 224.441 96.104C223.943 96.2695 223.556 95.9386 223.335 95.1113Z" fill="white"/>
<path d="M228.144 93.8413C227.702 92.7384 228.365 91.9111 229.636 91.9111C230.41 91.9111 230.686 92.2972 230.686 93.2899C230.686 94.2825 230.41 94.6686 229.581 94.6686C228.973 94.6686 228.31 94.2825 228.144 93.8413Z" fill="white"/>
<path d="M199.734 93.0704C199.734 91.9123 201.005 90.5887 201.558 91.1954C201.779 91.3608 201.945 92.1329 201.945 92.8498C201.945 93.7322 201.613 94.1183 200.839 94.1183C200.121 94.1183 199.734 93.7322 199.734 93.0704Z" fill="white"/>
<path d="M202.774 92.4094C202.332 91.0306 202.829 90.424 204.709 90.1482C206.422 89.9276 206.975 91.7476 205.482 92.8506C204.045 93.8984 203.161 93.733 202.774 92.4094Z" fill="white"/>
<path d="M222.782 92.0771C222.396 91.7462 222.23 89.7057 222.561 89.7057C222.617 89.7057 223.446 89.4851 224.441 89.2094C226.099 88.713 226.209 88.7682 226.154 90.2572C226.099 91.3602 225.767 91.9117 224.938 92.1323C223.446 92.5183 223.225 92.5183 222.782 92.0771Z" fill="white"/>
<path d="M220.737 90.8083C220.737 90.4223 220.903 90.2568 221.124 90.4223C221.29 90.6429 221.29 90.9737 221.124 91.1943C220.903 91.3598 220.737 91.1943 220.737 90.8083Z" fill="white"/>
<path d="M226.928 89.9286C227.094 88.9911 228.807 87.6123 229.194 88.0535C229.36 88.219 229.636 88.8808 229.802 89.5977C230.189 90.7007 230.023 90.811 228.475 90.811C227.149 90.811 226.762 90.5904 226.928 89.9286Z" fill="white"/>
<path d="M200.287 89.8705C200.287 89.5948 200.563 89.0433 200.84 88.6021C201.282 87.9403 201.392 87.9955 201.392 89.0433C201.392 89.7051 201.171 90.2565 200.84 90.2565C200.563 90.2565 200.287 90.0911 200.287 89.8705Z" fill="white"/>
<path d="M201.945 88.658C201.945 87.1138 203.106 86.6175 203.99 87.7756C204.543 88.6028 204.543 88.8786 203.99 89.2646C202.829 89.9815 201.945 89.761 201.945 88.658Z" fill="white"/>
<path d="M218.748 87.9415C217.753 86.8385 217.753 86.7833 218.692 87.1142C219.245 87.3348 219.964 87.5003 220.24 87.5003C220.516 87.5003 220.737 87.8863 220.737 88.3275C220.737 89.4856 219.964 89.3753 218.748 87.9415Z" fill="white"/>
<path d="M206.864 87.8873C204.488 86.0673 204.156 81.9863 206.367 81.9863C207.859 81.9863 209.241 84.3026 209.02 86.4534C208.854 88.4388 208.191 88.8799 206.864 87.8873Z" fill="white"/>
<path d="M222.009 88.2178C222.23 88.0524 222.561 88.0524 222.782 88.2178C222.948 88.4384 222.782 88.6039 222.396 88.6039C222.009 88.6039 221.843 88.4384 222.009 88.2178Z" fill="white"/>
<path d="M230.355 86.0658C230.521 85.5694 230.686 85.0731 230.686 84.9628C230.686 84.8525 230.963 84.7422 231.239 84.7422C231.571 84.7422 231.792 85.2385 231.792 85.8452C231.792 86.507 231.405 86.9482 230.907 86.9482C230.3 86.9482 230.134 86.6724 230.355 86.0658Z" fill="white"/>
<path d="M201.392 85.9002C201.392 84.6318 202.553 82.5361 203.216 82.5361C204.377 82.5361 203.548 86.0657 202.332 86.2863C201.834 86.3966 201.392 86.2311 201.392 85.9002Z" fill="white"/>
<path d="M213.828 85.2953L212.17 84.9093L213.663 84.5232C215.21 84.082 216.316 84.4129 216.316 85.3505C216.316 85.902 216.26 85.902 213.828 85.2953Z" fill="white"/>
<path d="M211.894 82.6475C211.894 80.3864 213.165 80.0555 214.326 82.0409C215.1 83.3644 215.155 83.6402 214.436 83.6402C213.994 83.6402 213.276 83.8056 212.778 83.9711C212.115 84.2468 211.894 83.9159 211.894 82.6475Z" fill="white"/>
<path d="M221.511 83.4192C219.024 82.3162 217.421 79.3933 217.421 75.9189C217.421 73.4372 217.642 72.8306 219.135 71.4519C220.074 70.5695 221.014 69.8525 221.29 69.8525C222.506 69.8525 226.983 74.099 228.475 76.7462L230.189 79.7794L228.365 81.7096C226.265 83.9156 223.943 84.5222 221.511 83.4192Z" fill="white"/>
<path d="M209.959 81.9841C209.794 81.7084 209.904 81.4326 210.18 81.4326C210.512 81.4326 210.788 81.7084 210.788 81.9841C210.788 82.315 210.678 82.5356 210.567 82.5356C210.402 82.5356 210.125 82.315 209.959 81.9841Z" fill="white"/>
<path d="M202.719 81.1048C202.885 80.6085 203.05 80.1121 203.05 80.0018C203.05 79.8915 203.548 79.7812 204.156 79.7812C205.538 79.7812 205.593 80.6636 204.211 81.4357C202.719 82.2078 202.332 82.1526 202.719 81.1048Z" fill="white"/>
<path d="M207.085 80.4425C205.814 80.2771 205.427 79.5601 206.256 79.0638C206.477 78.8983 207.472 78.6226 208.467 78.402C209.959 78.0711 210.236 78.1814 210.236 79.1189C210.236 80.2771 209.075 80.7734 207.085 80.4425Z" fill="white"/>
<path d="M211.341 78.5666C211.341 77.9048 211.396 77.5188 211.507 77.629C211.562 77.7393 212.004 78.2908 212.391 78.8423C213.055 79.6144 212.999 79.7799 212.225 79.7799C211.673 79.7799 211.341 79.3387 211.341 78.5666Z" fill="white"/>
<path d="M203.603 78.1805C203.603 77.8496 203.88 77.4635 204.156 77.2981C204.488 77.1326 204.709 77.3532 204.709 77.7944C204.709 78.2908 204.488 78.6768 204.156 78.6768C203.88 78.6768 203.603 78.4562 203.603 78.1805Z" fill="white"/>
<path d="M205.648 77.3539C205.206 76.2509 209.13 75.0377 209.794 76.0855C210.291 76.9679 209.794 77.3539 207.693 77.7951C206.422 78.0708 205.869 77.9606 205.648 77.3539Z" fill="white"/>
<path d="M210.844 75.5889C210.844 74.9823 211.009 74.8169 211.175 75.258C211.341 75.6441 211.286 76.1404 211.12 76.3059C210.954 76.5265 210.788 76.1956 210.844 75.5889Z" fill="white"/>
<path d="M206.146 74.7055C206.809 73.4922 208.743 71.5068 209.241 71.5068C209.794 71.5068 209.849 74.0988 209.296 74.4297C209.02 74.54 208.135 74.8158 207.306 75.0364C206.09 75.3121 205.814 75.257 206.146 74.7055Z" fill="white"/>
<path d="M210.567 73.4383C209.959 71.7839 210.236 71.0669 211.562 70.8463C212.944 70.5706 212.944 70.5706 212.06 72.2802C210.954 74.4861 211.01 74.4861 210.567 73.4383Z" fill="white"/>
<path d="M210.236 70.1275C210.236 70.0172 211.341 69.2451 212.723 68.473C214.381 67.4803 215.542 67.1494 216.371 67.37C217.366 67.7009 217.089 67.9215 214.657 69.0796C211.949 70.2929 210.236 70.7341 210.236 70.1275Z" fill="white"/>
<path d="M240.912 21.2674C239.419 19.1166 236.269 15.6422 234.003 13.5465C231.737 11.4508 230.244 9.74121 230.686 9.74121C231.902 9.74121 241.188 12.2781 243.509 13.2708C245.444 14.098 245.499 14.2083 245.002 15.9179C244.725 16.9106 244.504 19.3923 244.504 21.4328C244.504 23.5285 244.339 25.183 244.117 25.183C243.841 25.183 242.459 23.4182 240.912 21.2674Z" fill="white"/>
<path d="M128.433 188.312C126.167 187.154 125.669 186.492 122.795 180.812C118.65 172.76 118.539 170.885 122.464 175.462C124.011 177.282 127.604 181.033 130.423 183.79C135.232 188.422 135.453 188.753 133.85 188.533C132.689 188.367 132.247 188.478 132.523 188.919C133.186 189.912 131.086 189.636 128.433 188.312Z" fill="white"/>
<path fill-rule="evenodd" clip-rule="evenodd" d="M336.864 189.692L340.843 191.457C341.669 191.837 350.772 196.201 361.706 201.443C379.336 209.896 401.727 220.631 401.864 220.631C402.085 220.631 403.122 218.238 403.356 215.447C403.909 209.435 405.954 201.273 408.33 195.593C409.436 193.056 410.32 189.885 410.32 189.61C410.32 189.484 409.422 189.122 407.951 188.53C406.199 187.825 403.637 186.794 400.813 185.445C386.885 178.772 359.636 165.15 356.264 163.11C352.948 161.18 352.285 161.014 352.285 162.283C352.285 163.937 348.913 171.603 346.315 175.739C344.934 178 342.225 182.081 340.291 184.784L336.864 189.692ZM400.924 210.703C402.509 211.62 399.763 212.964 399.1 213.185C395.195 213.516 390.597 212.783 386.83 210.593C384.86 209.199 369.35 200.602 359.062 194.899C354.359 192.292 350.747 190.29 350.019 189.857C347.697 188.478 345.486 186.989 345.099 186.548C343.939 185.059 345.044 184.397 348.305 184.673C350.266 184.839 397.501 208.724 400.924 210.703Z" fill="white"/>
</svg>
