<svg width="36" height="36" viewBox="0 0 36 36" fill="none" xmlns="http://www.w3.org/2000/svg">
<path d="M25.0604 13.0604L20.1209 17.9999L25.0604 22.9394C25.2036 23.0777 25.3179 23.2433 25.3965 23.4263C25.4751 23.6093 25.5165 23.8061 25.5183 24.0053C25.52 24.2044 25.482 24.402 25.4066 24.5863C25.3312 24.7707 25.2198 24.9381 25.079 25.079C24.9381 25.2198 24.7707 25.3312 24.5863 25.4066C24.402 25.482 24.2044 25.52 24.0053 25.5183C23.8061 25.5165 23.6093 25.4751 23.4263 25.3965C23.2433 25.3179 23.0777 25.2036 22.9394 25.0604L17.9999 20.1209L13.0604 25.0604C12.922 25.2036 12.7565 25.3179 12.5735 25.3965C12.3905 25.4751 12.1936 25.5165 11.9945 25.5183C11.7953 25.52 11.5978 25.482 11.4134 25.4066C11.2291 25.3312 11.0616 25.2198 10.9208 25.079C10.7799 24.9381 10.6686 24.7707 10.5931 24.5863C10.5177 24.402 10.4798 24.2044 10.4815 24.0053C10.4832 23.8061 10.5246 23.6093 10.6032 23.4263C10.6818 23.2433 10.7961 23.0777 10.9394 22.9394L15.8789 17.9999L10.9394 13.0604C10.7961 12.922 10.6818 12.7565 10.6032 12.5735C10.5246 12.3905 10.4832 12.1936 10.4815 11.9945C10.4798 11.7953 10.5177 11.5978 10.5931 11.4134C10.6686 11.2291 10.7799 11.0616 10.9208 10.9208C11.0616 10.7799 11.2291 10.6686 11.4134 10.5931C11.5978 10.5177 11.7953 10.4798 11.9945 10.4815C12.1936 10.4832 12.3905 10.5246 12.5735 10.6032C12.7565 10.6818 12.922 10.7961 13.0604 10.9394L17.9999 15.8789L22.9394 10.9394C23.0777 10.7961 23.2433 10.6818 23.4263 10.6032C23.6093 10.5246 23.8061 10.4832 24.0053 10.4815C24.2044 10.4798 24.402 10.5177 24.5863 10.5931C24.7707 10.6686 24.9381 10.7799 25.079 10.9208C25.2198 11.0616 25.3312 11.2291 25.4066 11.4134C25.482 11.5978 25.52 11.7953 25.5183 11.9945C25.5165 12.1936 25.4751 12.3905 25.3965 12.5735C25.3179 12.7565 25.2036 12.922 25.0604 13.0604Z" fill="#565656"/>
</svg>
