<svg width="39" height="39" viewBox="0 0 39 39" fill="none" xmlns="http://www.w3.org/2000/svg">
<path d="M1.67188 33.4467V18.9947C1.67188 18.13 2.37283 17.4291 3.2375 17.4291C4.10217 17.4291 4.80312 18.13 4.80312 18.9947V33.1602C4.80312 33.7125 5.25083 34.1602 5.80312 34.1602H33.4295C33.9818 34.1602 34.4295 33.7125 34.4295 33.1602V19.0349C34.4295 18.148 35.1484 17.4291 36.0353 17.4291C36.9221 17.4291 37.641 18.148 37.641 19.0349V33.4467C37.641 35.6559 35.8502 37.4467 33.641 37.4467H5.67187C3.46274 37.4467 1.67188 35.6559 1.67188 33.4467Z" stroke="#98C7FF" stroke-width="1.5"/>
<path d="M17.6235 9.23767V28.9236C17.6235 30.0032 18.4987 30.8784 19.5783 30.8784C20.6579 30.8784 21.5332 30.0032 21.5332 28.9236V9.26206C21.5332 8.79539 22.1158 8.58313 22.416 8.94046L26.9388 14.3247C27.5639 15.0689 28.6924 15.1179 29.3796 14.4306C29.9847 13.8256 30.0297 12.8595 29.4835 12.2008L22.057 3.24531C20.8792 1.82508 18.7107 1.79449 17.4934 3.18091L9.57088 12.2037C8.99835 12.8558 9.03028 13.8403 9.64387 14.4539C10.3212 15.1312 11.4314 15.0895 12.056 14.3633L16.7444 8.91165C17.0468 8.56001 17.6235 8.77387 17.6235 9.23767Z" stroke="#98C7FF" stroke-width="1.5"/>
</svg>
