<svg width="29" height="42" viewBox="0 0 29 42" fill="none" xmlns="http://www.w3.org/2000/svg">
<path d="M29 19.9091C29 19.057 28.299 18.3662 27.4343 18.3662C26.5696 18.3662 25.8686 19.057 25.8686 19.9091C25.8686 26.0862 20.7686 31.1117 14.5 31.1117C8.23138 31.1117 3.13139 26.0862 3.13139 19.9091C3.13139 19.057 2.43038 18.3662 1.56569 18.3662C0.701014 18.3662 0 19.057 0 19.9091C0 27.2663 5.67282 33.3408 12.9343 34.1129V38.4805H9.07873C8.21405 38.4805 7.51304 39.1713 7.51304 40.0234C7.51304 40.8754 8.21405 41.5662 9.07873 41.5662H19.9215C20.7862 41.5662 21.4872 40.8754 21.4872 40.0234C21.4872 39.1713 20.7862 38.4805 19.9215 38.4805H16.0659V34.1129C23.3272 33.3408 29 27.2663 29 19.9091Z" fill="white"/>
<path d="M14.3931 28.3163C18.5969 28.3163 22.0168 25.165 22.0168 21.2913V7.02495C22.0168 3.15131 18.5969 0 14.3931 0C10.1894 0 6.76953 3.15131 6.76953 7.02495V21.2913C6.76953 25.165 10.1894 28.3163 14.3931 28.3163ZM9.46332 7.02495C9.46332 4.52003 11.6747 2.48226 14.3931 2.48226C17.1115 2.48226 19.323 4.52003 19.323 7.02495V21.2913C19.323 23.7962 17.1115 25.834 14.3931 25.834C11.6747 25.834 9.46332 23.7962 9.46332 21.2913V7.02495Z" fill="white"/>
</svg>
