<svg width="44" height="44" viewBox="0 0 44 44" fill="none" xmlns="http://www.w3.org/2000/svg">
<g clip-path="url(#clip0)">
<path d="M9.75133 26.5902L8.21975 32.3078L2.62187 32.4262C0.948922 29.3232 0 25.7731 0 22.0004C0 18.3523 0.887219 14.912 2.45988 11.8828H2.46108L7.44477 12.7965L9.62792 17.7503C9.17099 19.0824 8.92195 20.5124 8.92195 22.0004C8.92212 23.6153 9.21465 25.1626 9.75133 26.5902Z" fill="#FBBB00"/>
<path d="M43.6157 17.8896C43.8684 19.2205 44.0001 20.5949 44.0001 21.9995C44.0001 23.5746 43.8345 25.111 43.519 26.593C42.4481 31.636 39.6497 36.0396 35.7731 39.1559L35.7719 39.1547L29.4947 38.8344L28.6063 33.2884C31.1786 31.7799 33.1888 29.4191 34.2477 26.593H22.4838V17.8896H34.4194H43.6157Z" fill="#518EF8"/>
<path d="M35.772 39.1552L35.7732 39.1564C32.003 42.1868 27.2137 44 22.0003 44C13.6221 44 6.33798 39.3172 2.62213 32.4259L9.75159 26.5898C11.6095 31.5483 16.3927 35.078 22.0003 35.078C24.4106 35.078 26.6686 34.4264 28.6063 33.2889L35.772 39.1552Z" fill="#28B446"/>
<path d="M36.0423 5.06481L28.9153 10.8996C26.9099 9.64614 24.5394 8.92203 21.9998 8.92203C16.2653 8.92203 11.3926 12.6136 9.62779 17.7499L2.46086 11.8824H2.45966C6.12111 4.82307 13.4971 0 21.9998 0C27.3378 0 32.2322 1.90145 36.0423 5.06481Z" fill="#F14336"/>
</g>
<defs>
<clipPath id="clip0">
<rect width="44" height="44" fill="white"/>
</clipPath>
</defs>
</svg>
